<svg width="48" height="48" viewBox="0 0 48 48" fill="none" xmlns="http://www.w3.org/2000/svg">
<g clip-path="url(#clip0_983_15226)">
<path d="M37.8785 37.5234C20.0674 46 9.01363 38.9079 1.93775 34.6003C1.4999 34.3288 0.755705 34.6637 1.4014 35.4054C3.75872 38.2637 11.4842 45.1531 21.5682 45.1531C31.6591 45.1531 37.6622 39.647 38.4132 38.6865C39.1591 37.7341 38.6322 37.2088 37.8784 37.5234H37.8785ZM42.8807 34.7609C42.4024 34.138 39.9723 34.0219 38.443 34.2098C36.9113 34.3923 34.6122 35.3284 34.812 35.8905C34.9146 36.101 35.124 36.0066 36.1762 35.912C37.2313 35.8067 40.1871 35.4337 40.803 36.2388C41.4218 37.0495 39.8603 40.9115 39.5751 41.5343C39.2996 42.1571 39.6804 42.3178 40.1979 41.9029C40.7084 41.4883 41.6325 40.4144 42.2527 38.8947C42.8686 37.3667 43.2443 35.2351 42.8807 34.7609Z" fill="#FF9900"/>
<path fill-rule="evenodd" clip-rule="evenodd" d="M25.9027 20.227C25.9027 22.4511 25.9589 24.3059 24.8347 26.2811C23.9273 27.8871 22.4901 28.8747 20.8842 28.8747C18.6921 28.8747 17.4154 27.2045 17.4154 24.7395C17.4154 19.8736 21.7753 18.9904 25.9027 18.9904V20.227ZM31.6597 34.1421C31.2823 34.4793 30.7363 34.5035 30.3108 34.2785C28.4159 32.7048 28.0786 31.9742 27.0348 30.4726C23.9033 33.6684 21.6871 34.6238 17.6243 34.6238C12.8226 34.6238 9.08081 31.6609 9.08081 25.7271C9.08081 21.0942 11.5942 17.9385 15.1671 16.397C18.2666 15.0318 22.5945 14.791 25.9027 14.4137V13.6749C25.9027 12.3179 26.0069 10.712 25.2121 9.53979C24.5134 8.4879 23.1806 8.05428 22.0082 8.05428C19.8323 8.05428 17.8891 9.17032 17.4154 11.4828C17.3189 11.9968 16.9417 12.5027 16.4278 12.5267L10.8874 11.9327C10.4218 11.8281 9.90794 11.4508 10.0364 10.7361C11.3131 4.02356 17.3751 2 22.803 2C25.5813 2 29.2105 2.73878 31.4026 4.84257C34.1809 7.436 33.9158 10.8967 33.9158 14.6625V23.5592C33.9158 26.233 35.0239 27.4052 36.0677 28.8506C36.437 29.3645 36.5174 29.9829 36.0516 30.3681C34.8873 31.3396 32.8157 33.1464 31.6756 34.1582L31.6596 34.1421" fill="black"/>
<path d="M37.8785 37.5234C20.0674 46 9.01363 38.9079 1.93775 34.6003C1.4999 34.3288 0.755705 34.6637 1.4014 35.4054C3.75872 38.2637 11.4842 45.1531 21.5682 45.1531C31.6591 45.1531 37.6622 39.647 38.4132 38.6865C39.1591 37.7341 38.6322 37.2088 37.8784 37.5234H37.8785ZM42.8807 34.7609C42.4024 34.138 39.9723 34.0219 38.443 34.2098C36.9113 34.3923 34.6122 35.3284 34.812 35.8905C34.9146 36.101 35.124 36.0066 36.1762 35.912C37.2313 35.8067 40.1871 35.4337 40.803 36.2388C41.4218 37.0495 39.8603 40.9115 39.5751 41.5343C39.2996 42.1571 39.6804 42.3178 40.1979 41.9029C40.7084 41.4883 41.6325 40.4144 42.2527 38.8947C42.8686 37.3667 43.2443 35.2351 42.8807 34.7609Z" fill="#FF9900"/>
<path fill-rule="evenodd" clip-rule="evenodd" d="M25.9027 20.227C25.9027 22.4511 25.9589 24.3059 24.8347 26.2811C23.9273 27.8871 22.4901 28.8747 20.8842 28.8747C18.6921 28.8747 17.4154 27.2045 17.4154 24.7395C17.4154 19.8736 21.7753 18.9904 25.9027 18.9904V20.227ZM31.6597 34.1421C31.2823 34.4793 30.7363 34.5035 30.3108 34.2785C28.4159 32.7048 28.0786 31.9742 27.0348 30.4726C23.9033 33.6684 21.6871 34.6238 17.6243 34.6238C12.8226 34.6238 9.08081 31.6609 9.08081 25.7271C9.08081 21.0942 11.5942 17.9385 15.1671 16.397C18.2666 15.0318 22.5945 14.791 25.9027 14.4137V13.6749C25.9027 12.3179 26.0069 10.712 25.2121 9.53979C24.5134 8.4879 23.1806 8.05428 22.0082 8.05428C19.8323 8.05428 17.8891 9.17032 17.4154 11.4828C17.3189 11.9968 16.9417 12.5027 16.4278 12.5267L10.8874 11.9327C10.4218 11.8281 9.90794 11.4508 10.0364 10.7361C11.3131 4.02356 17.3751 2 22.803 2C25.5813 2 29.2105 2.73878 31.4026 4.84257C34.1809 7.436 33.9158 10.8967 33.9158 14.6625V23.5592C33.9158 26.233 35.0239 27.4052 36.0677 28.8506C36.437 29.3645 36.5174 29.9829 36.0516 30.3681C34.8873 31.3396 32.8157 33.1464 31.6756 34.1582L31.6596 34.1421" fill="black"/>
</g>
<defs>
<clipPath id="clip0_983_15226">
<rect width="44" height="44" fill="white" transform="translate(0 2)"/>
</clipPath>
</defs>
</svg>
