<svg xmlns="http://www.w3.org/2000/svg" xmlns:xlink="http://www.w3.org/1999/xlink" viewBox="0 0 22680 15120" height="640" width="960"><defs><path id="a" d="M3.905 8.109L0 4l-3.905 4.109.778-5.615-5.647-.491L-3.9-.89l-3.136-4.721 5.3 2.007L0-9l1.736 5.396 5.3-2.007L3.9-.89l4.874 2.893-5.647.491z"/><path id="b" d="M-5.29 7.281l1.486-6.045-4.756-4.017 6.209-.455L0-9l2.351 5.764 6.209.455-4.756 4.017L5.29 7.281 0 4z"/></defs><path d="M0 0h22680v15120H0V0z" fill="#00008b"/><use xlink:href="#a" height="15120" width="30240" transform="matrix(252 0 0 252 5670 11340)" fill="#fff"/><use xlink:href="#a" height="15120" width="30240" transform="matrix(120 0 0 120 17010 12600)" fill="#fff"/><use xlink:href="#a" height="15120" width="30240" transform="matrix(120 0 0 120 13230 6615)" fill="#fff"/><use xlink:href="#a" height="15120" width="30240" transform="matrix(120 0 0 120 17010 2520)" fill="#fff"/><use xlink:href="#a" height="15120" width="30240" transform="matrix(120 0 0 120 20370 5607)" fill="#fff"/><use xlink:href="#b" height="15120" width="30240" transform="matrix(70 0 0 70 18522 8190)" fill="#fff"/><path d="M4725 0h1890v2520h4725v2520H6615v2520H4725V5040H0V2520h4725V0z" fill="#fff"/><path id="c" d="M0 0h1267.85L11340 6714.766V7560h-1267.85L0 845.234V0z" fill="#fff"/><use xlink:href="#c" height="15120" width="30240" transform="matrix(-1 0 0 1 11340 0)" fill="#fff"/><path d="M5103 0h1134v3024h5103v1512H6237v3024H5103V4536H0V3024h5103V0z" fill="red"/><path id="d" d="M0 0l3780 2520h-845.234L0 563.49V0zm11340 0h-845.233l-3780 2520H7560L11340 0z" fill="red"/><use xlink:href="#d" height="15120" width="30240" transform="rotate(180 5670 3780)" fill="red"/></svg>