<svg viewBox="0 0 48 48" xmlns="http://www.w3.org/2000/svg"><path fill-rule="evenodd" clip-rule="evenodd" d="m37.84 3.268-.674 2.343a.494.494 0 0 1-.948-.274l.675-2.341a.492.492 0 1 1 .947.272Zm-.373 8.362.01-2.105a2.67 2.67 0 0 0-2.58-2.673c-6.782-.18-15.77-.281-25.146.52-.47.041-.9.209-1.267.462-1.179.521-2.093 1.503-2.575 2.844-.561 1.559-.565 1.834-.782 15.671-.06 3.847-.136 8.743-.246 15.005-.008.489-.014.993.173 1.445.177.427 1.244.72 1.771.728a.487.487 0 0 0 .373.003c.772-.347 1.655-1.385 2.524-2.405.506-.596 1.008-1.186 1.48-1.63.393.879.795 1.742 1.196 2.604.43.924.86 1.848 1.28 2.79.321.168.675.269 1.036.307a.481.481 0 0 0 .334.166h.014a.494.494 0 0 0 .414-.226c.785-1.214 1.566-2.109 2.392-3.056a42.216 42.216 0 0 0 1.715-2.058c.328.677.677 1.374 1.027 2.071.423.845.846 1.689 1.23 2.497.34.09.697.12 1.047.083l-.007-.013c.186.29.571.306.784.06.525-.609 1.046-1.23 1.573-1.86l.001-.001.002-.002c1.007-1.203 2.038-2.433 3.16-3.648.93.709 1.884 1.427 2.84 2.144v.001c1.035.778 2.069 1.555 3.071 2.322l.127-.016 1.407-.174.04.018.017.008.066.03a.494.494 0 0 0 .675-.422c.723-9.763.777-21.314.824-31.49Zm-1.756 30.71c-1.404-.714-2.817-1.904-4.176-3.05-.775-.651-1.532-1.29-2.26-1.817a.495.495 0 0 0-.64.054c-1.452 1.471-2.789 3.068-4.099 4.633-.389.465-.776.927-1.163 1.383-.43-.754-.871-1.495-1.3-2.216l-.001-.001-.025-.041-.005-.01a113.29 113.29 0 0 1-1.655-2.838.494.494 0 0 0-.837-.039c-.84 1.223-1.628 2.122-2.398 3.003-.69.788-1.367 1.561-2.058 2.538-2.25-3.847-2.726-5.099-2.897-5.55-.057-.15-.08-.212-.124-.252-.031-.028-.072-.044-.142-.072l-.03-.012a.49.49 0 0 0-.389.006c-.787.354-1.675 1.403-2.543 2.428-.505.595-1.002 1.183-1.468 1.62.137-10.887.41-21.697.813-32.15a1.674 1.674 0 0 1 1.521-1.602c9.328-.798 18.28-.695 25.036-.516a1.678 1.678 0 0 1 1.62 1.68l-.01 2.069c-.046 9.913-.098 21.183-.77 30.753ZM23.954 17.49a7.529 7.529 0 0 0-.966-.183c-.784-.115-1.575-.23-1.89-.805-.27-.493.039-1.176.486-1.481.652-.447 1.513-.352 1.968-.256a.5.5 0 0 0 .206-.98 4.68 4.68 0 0 0-.768-.096 2.59 2.59 0 0 1 .016-1.077.5.5 0 0 0-.974-.224c-.107.463-.117.94-.038 1.405a2.878 2.878 0 0 0-.975.402c-.933.638-1.29 1.888-.798 2.788.557 1.014 1.722 1.184 2.654 1.32a6.4 6.4 0 0 1 .803.148c1.41.404 1.213 1.623.255 2.007-.688.277-1.493.014-1.912-.168a.5.5 0 0 0-.397.918c.3.13.667.25 1.064.318l.067 1.094a.5.5 0 0 0 .998-.063l-.062-1.013c.205-.03.41-.075.616-.157 1.834-.738 1.982-3.228-.353-3.897Zm-10.566 9.702h18.436a.493.493 0 0 1 0 .986H13.388a.493.493 0 0 1 0-.986Zm12.958 4.91H19.19a.493.493 0 0 0 0 .986h7.155a.493.493 0 0 0 0-.987Zm14.71-27.426L38.6 7.019a.494.494 0 0 0 .68.714l2.455-2.343a.494.494 0 0 0-.68-.714ZM39.782 9.65a.493.493 0 1 1 .102-.981l2.794.29a.494.494 0 0 1-.102.981l-2.794-.29Z" fill="#403E3A"/></svg>