<?xml version="1.0" encoding="utf-8"?>
<!-- Generator: Adobe Illustrator 26.2.1, SVG Export Plug-In . SVG Version: 6.00 Build 0)  -->
<svg version="1.1" id="a" xmlns="http://www.w3.org/2000/svg" xmlns:xlink="http://www.w3.org/1999/xlink" x="0px" y="0px"
	 viewBox="0 0 2342.41 753.52" style="enable-background:new 0 0 2342.41 753.52;" xml:space="preserve">
<style type="text/css">
	.st0{fill:url(#SVGID_1_);}
	.st1{fill:url(#SVGID_00000145738361354087436590000000300218595264731574_);}
	.st2{fill:url(#SVGID_00000135660333398202942660000009435350368974599101_);}
	.st3{fill:#303130;}
</style>
<g>
	
		<linearGradient id="SVGID_1_" gradientUnits="userSpaceOnUse" x1="12.6576" y1="-372.8151" x2="457.3876" y2="-155.2351" gradientTransform="matrix(1 0 0 1 0 646)">
		<stop  offset="0" style="stop-color:#2EC0EA"/>
		<stop  offset="1" style="stop-color:#0A7FC0"/>
	</linearGradient>
	<path class="st0" d="M448.6,465.04c0,26.95-6.92,52.28-19.08,74.31l-199.48-69.49l-77.25-26.92l-10.26-3.59L70.28,414.2h-0.03
		c0,0-0.03-0.03-0.05-0.03c-16.97-12.05-31.49-27.28-42.64-44.87c-15.59-24.59-24.61-53.72-24.61-84.97
		c0-25.77,6.15-50.13,17.05-71.66l199.76,69.59l82.95,28.92h0.03l14.72,5.13l40.95,14.26c26.82,9.34,50.13,27.01,65.55,50.85
		c0.11,0.17,0.21,0.33,0.32,0.5c15.41,23.97,24.33,52.51,24.33,83.13L448.6,465.04z"/>
	
		<linearGradient id="SVGID_00000051357088095544623510000015127853110309084578_" gradientUnits="userSpaceOnUse" x1="345.7116" y1="-137.7868" x2="-103.8084" y2="84.5833" gradientTransform="matrix(1 0 0 1 0 646)">
		<stop  offset="0" style="stop-color:#2EC0EA"/>
		<stop  offset="1" style="stop-color:#0A7FC0"/>
	</linearGradient>
	<path style="fill:url(#SVGID_00000051357088095544623510000015127853110309084578_);" d="M230.04,469.86l-83.66,37.87l-24.28,11
		L89.05,533.7C37.34,557.11,2.04,607.39,0.09,664.12c-0.06,1.79-0.09,3.59-0.09,5.4c0,30.97,9.15,59.84,24.9,84l277.61-125.71
		l28.92-13.1h0.03l50.97-23.08c0,0,0.03-0.03,0.05-0.03c0,0,0.03,0,0.03-0.03c19.41-13.54,35.54-31.41,47.02-52.23l-199.48-69.49
		L230.04,469.86z"/>
	
		<linearGradient id="SVGID_00000022518820565636056040000015638514426712776094_" gradientUnits="userSpaceOnUse" x1="443.6636" y1="-602.3845" x2="-8.2464" y2="-311.8644" gradientTransform="matrix(1 0 0 1 0 646)">
		<stop  offset="0" style="stop-color:#2EC0EA"/>
		<stop  offset="1" style="stop-color:#0A7FC0"/>
	</linearGradient>
	<path style="fill:url(#SVGID_00000022518820565636056040000015638514426712776094_);" d="M421.86,0L145.23,125.28
		c0.08,0.33,0.18,0.67,0.26,1c-1.13,0.13-2.23,0.26-3.36,0.41l-59.94,27.14c-26.54,12.02-48.64,32.36-61.91,58.3
		c-0.09,0.18-0.18,0.36-0.27,0.54l199.76,69.59l93.97-42.54l0.51-0.23l49.08-22.23c49.73-22.52,83.5-70.99,85.2-125.56
		c0.05-1.63,0.08-3.26,0.08-4.9c0-32.18-9.87-62.08-26.74-86.79L421.86,0z"/>
</g>
<g>
	<path class="st3" d="M2182.37,399.54c-45.19,0-90.37-0.01-135.56,0.01c-10.15,0-10.75,0.57-7.81,10.14
		c16.29,53.14,51.49,86.78,106.54,95.55c53.64,8.54,96.71-11.89,128.27-55.97c9.24-12.9,22.78-16.65,34.23-8.85
		c11,7.49,13.34,21.87,4.59,34.27c-39.19,55.61-93.16,82.97-161.01,77.78c-64.85-4.97-113.42-37.99-143.53-95.62
		c-54.27-103.87,7.42-231.96,127.23-254.47c95.69-17.98,193.53,53.13,205.3,149.75c0.91,7.44,1.64,14.94,1.79,22.43
		c0.29,15.39-9,24.84-24.47,24.88c-45.19,0.11-90.37,0.04-135.56,0.04v0.08L2182.37,399.54z M2165.25,353.84
		c19.56,0,39.13,0,58.69,0c19.87,0,39.73,0.03,59.6,0c11.11-0.01,11.31-0.26,8.26-11.16c-3.01-10.74-7.48-20.88-12.88-30.64
		c-24.93-45.02-78.85-71.91-130.3-64.94c-52.74,7.15-98.12,47.61-110.12,97.66c-1.84,7.65,0.28,9.24,7.57,9.19
		c39.73-0.26,79.46-0.12,119.19-0.12L2165.25,353.84z"/>
	<path class="st3" d="M690.73,539.06c-38.26,0-76.52,0.02-114.78-0.02c-14.77-0.02-24.75-9.22-24.74-22.63
		c0.01-13.31,10.06-22.67,24.88-22.69c73.2-0.08,146.41,0.04,219.61-0.12c30.05-0.06,51.52-21.28,50.58-49.31
		c-0.88-26.3-25.41-44.99-45.52-44.45c-51.78,1.39-103.62,0.49-155.43,0.51c-52.27,0.02-93.73-39.32-94.96-90.12
		c-1.27-52.56,37.76-95.04,90.69-95.85c75.29-1.15,150.62-0.59,225.93-0.52c15.57,0.02,25.4,9.76,25.12,23.57
		c-0.27,13.44-9.98,22.3-25.31,22.33c-72.9,0.13-145.81,0.04-218.71,0.12c-23.47,0.03-40.92,11.19-48.49,30.67
		c-11.68,30.07,10.34,62.46,42.54,62.48c51.82,0.03,103.63-0.13,155.45,0.05c74.48,0.27,119.06,76.44,81.77,140.71
		c-16.87,29.08-43.45,44.6-77.45,45.14c-37.04,0.59-74.11,0.13-111.16,0.13H690.73z"/>
	<path class="st3" d="M1904.81,499.21c-3.86-0.1-5.05,2.76-6.94,4.47c-52.13,47.2-112.38,62.61-179.13,40.03
		c-66.57-22.52-107.23-70.52-118.4-139.94c-16.25-101.05,55.17-188.52,150.32-202.07c100.89-14.38,200.67,62.41,201.28,175.25
		c0.27,49,0.13,98.01-0.06,147.01c-0.06,16.2-8.71,25.64-22.65,25.83c-13.6,0.19-22.95-9-23.57-23.09
		C1905.25,517.56,1906.6,508.33,1904.81,499.21L1904.81,499.21z M1775.09,246.35c-71.88-0.12-130.65,58.23-130.87,129.96
		c-0.22,71.55,58.5,130.62,130.07,130.82c72.41,0.21,130.91-57.91,131.36-130.5C1906.09,305.32,1847.1,246.46,1775.09,246.35
		L1775.09,246.35z"/>
	<path class="st3" d="M929.22,322.04c0-29.45-0.02-58.9,0-88.35c0.02-17.38,8.3-27.12,23.01-27.18
		c14.46-0.06,23.17,9.76,23.21,27.16c0.15,56.8,0.08,113.59,0.08,170.39c0,53.62,42.26,97.01,94.62,97.14
		c53.03,0.13,95.95-42.89,96.11-96.7c0.17-57.7,0-115.4,0.07-173.09c0.02-16.01,9.39-25.39,24.35-24.74
		c10.56,0.46,18.82,7.34,21,17.76c0.61,2.92,0.81,5.97,0.81,8.96c-0.09,60.4,0.89,120.82-0.65,181.19
		c-1.98,77.37-75.89,140.19-153.09,131.98c-70.17-7.46-122.42-58.05-128.75-128.09c-2.88-31.89-0.49-64.26-0.49-96.41h-0.29
		L929.22,322.04z"/>
	<path class="st3" d="M1401.4,464.69c8.05-17.04,16.09-34.09,24.15-51.13c30.3-64.11,60.58-128.23,90.94-192.31
		c6.36-13.42,18.85-18.41,31.33-12.9c12.06,5.33,16.83,18.71,10.57,32.06c-35.23,75.08-70.67,150.07-106.05,225.08
		c-10.38,22-20.93,43.93-31.16,66c-4.63,10-11.85,15.93-23.08,15.56c-10.91-0.36-17.31-6.9-21.46-16.56
		c-41.41-96.32-82.9-192.61-124.43-288.87c-3.97-9.21-4.65-18.09,1.67-26.41c5.61-7.38,13.38-9.89,22.44-8.42
		c8.46,1.37,14.05,6.37,17.38,14.09c29.36,68.15,58.72,136.3,88.08,204.46c5.68,13.18,11.32,26.38,16.98,39.56
		C1399.64,464.83,1400.52,464.76,1401.4,464.69L1401.4,464.69z"/>
</g>
</svg>
