<svg viewBox="0 0 153 40" xmlns="http://www.w3.org/2000/svg"><path fill-rule="evenodd" clip-rule="evenodd" d="M148.104 6c-2.14 0-3.628 1.302-3.628 3.349 0 1.483.845 2.182 1.572 2.784.551.455 1.032.854 1.032 1.495 0 .896-.538 1.42-.968 1.84-.284.276-.52.505-.52.765 0 .465.372.744.93.744 2.326 0 5.768-2.233 5.768-6.512 0-2.79-1.861-4.465-4.186-4.465Zm-5.253 25.694c-.447-.426-.979-.933-.979-2.066h.093v-9.302c0-3.814-2.419-6.419-6.046-6.419-2.884 0-5.117 1.395-6.512 2.698V6.93c0-.465-.093-.837-.744-.837-.279 0-.465 0-.838.186l-4.837 2.14a8.376 8.376 0 0 1-.224.127c-.355.196-.613.338-.613.803 0 .424.272.688.589.998.45.437.992.966.992 2.165v17.116c0 1.133-.532 1.64-.979 2.066-.323.308-.602.574-.602 1.004 0 .372.186.744.744.744h7.349c.558 0 .744-.372.744-.744 0-.43-.279-.696-.603-1.004-.446-.426-.978-.933-.978-2.066V19.209c1.023-.558 2.512-1.302 4.093-1.302 1.674 0 2.698.744 2.698 3.07v8.65c0 1.134-.533 1.641-.98 2.067-.323.308-.602.574-.602 1.004 0 .372.186.744.744.744h7.349c.558 0 .744-.372.744-.744 0-.43-.279-.696-.602-1.004Zm-34.572 1.76c.829.191 1.963.453 3.733.453 3.72 0 7.907-1.395 8-5.953 0-3.625-3.293-4.995-6.16-6.188-2.21-.92-4.166-1.734-4.166-3.394 0-1.21 1.116-1.86 2.233-1.86 2.306 0 3.577 1.574 4.542 2.77.591.732 1.067 1.323 1.597 1.323.279 0 .651-.093.651-.745l-.372-4.558c-.093-.558-.372-.93-.837-.93-.269 0-.494.043-.728.088a4.257 4.257 0 0 1-.853.098c-.475 0-.916-.117-1.422-.253-.686-.183-1.495-.398-2.672-.398-4.465 0-7.441 2.419-7.441 5.86 0 4.297 3.62 5.756 6.574 6.946 2.033.82 3.751 1.511 3.751 2.915 0 1.21-1.116 1.86-2.511 1.86-2.971 0-4.559-1.817-5.665-3.083-.591-.677-1.045-1.196-1.498-1.196-.372 0-.837.186-.744.838l.465 4.465c.093.744.465.93.837.93.268 0 .472-.043.684-.088.228-.048.466-.098.804-.098.341 0 .718.087 1.198.198ZM96.663 6.093c-2.047 0-3.442 1.21-3.442 3.163 0 1.767 1.395 2.977 3.442 3.07 2.046 0 3.442-1.21 3.442-3.07 0-1.86-1.303-3.163-3.442-3.163Zm4.234 25.601c-.446-.426-.979-.933-.979-2.066h-.093V14.744c0-.558-.279-.837-.837-.837-.186 0-.465.093-.744.186l-4.837 2.14c-.465.279-.837.65-.837.93 0 .424.271.688.59.997.449.438.991.967.991 2.166v9.302c0 1.133-.532 1.64-.98 2.066-.322.308-.601.574-.601 1.004 0 .465.279.744.744.744h7.442c.465 0 .744-.28.744-.744 0-.43-.279-.696-.603-1.004Zm-11.365-.09c-.39-.287-.855-.63-1.241-1.232l-6.233-9.395 3.628-3.535c.56-.561 1.175-.898 1.69-1.181.682-.374 1.194-.655 1.194-1.238 0-.372-.186-.65-.837-.65h-5.768c-.558 0-.837.278-.837.65 0 .385.273.62.537.848.247.213.486.419.486.734 0 .465-.279.837-.93 1.395l-5.116 4.837V6.93c0-.465-.187-.837-.838-.837-.279 0-.372 0-.744.186l-4.837 2.14c-.465.279-.837.372-.837.93 0 .424.271.688.59.998.449.437.991.966.991 2.165v17.023c0 1.133-.532 1.64-.98 2.066-.322.308-.601.574-.601 1.004 0 .372.186.744.744.744h7.349c.558 0 .744-.372.744-.744 0-.43-.28-.696-.602-1.004-.447-.426-.98-.933-.98-2.066v-2.977l1.861-1.767 2.605 4.093c.053.088.125.203.209.335.357.562.907 1.427.907 1.804 0 .372-.21.582-.419.791-.209.21-.418.419-.418.79 0 .373.186.745.744.745H89.5c.558 0 .837-.186.837-.651 0-.501-.35-.76-.805-1.094ZM56.105 16.512c2.604 0 4.837 3.441 4.837 9.395 0 3.628-1.21 5.488-3.163 5.488-2.698 0-5.116-3.535-5.116-9.116 0-3.442 1.302-5.767 3.442-5.767ZM56.755 34c5.768 0 10.047-3.814 10.047-10.047 0-5.674-3.814-10.046-9.953-10.139-5.582 0-10.047 3.907-10.047 10.046 0 6.233 4.186 10.14 9.954 10.14ZM33.5 16.512c2.604 0 4.837 3.441 4.837 9.395 0 3.628-1.116 5.488-3.163 5.488-2.697 0-5.116-3.535-5.116-9.116 0-3.442 1.302-5.767 3.442-5.767ZM34.244 34c5.767 0 10.046-3.814 10.046-10.047 0-5.674-3.907-10.046-10.046-10.046-5.581 0-10.046 3.907-10.046 10.046 0 6.14 4.279 10.047 10.046 10.047ZM8.384 21.535c5.023 0 7.07 1.86 7.07 4.93 0 2.884-1.768 4.651-4.931 4.651-2.14 0-2.79-.837-2.79-2.325v-7.256h.65Zm.372-2.605H7.732v-8.186c0-.651.187-.837.93-.837h.28c3.07 0 5.209 1.395 5.209 4.372 0 3.442-2.419 4.651-5.395 4.651Zm4.093 14.419c4.744 0 8.837-1.954 8.837-7.07 0-4-2.884-6.046-6.233-6.698 2.419-.93 4.372-2.79 4.372-5.581 0-4.465-3.627-6.419-8.372-6.419H1.221c-.558 0-.837.372-.744.745 0 .43.279.695.602 1.003.447.426.979.933.979 2.066v18.14c0 1.133-.532 1.64-.98 2.066-.322.308-.601.574-.601 1.004 0 .372.186.744.744.744h11.628Z" fill="#201F1D"/></svg>