<svg width="48" height="48" viewBox="0 0 48 48" fill="none" xmlns="http://www.w3.org/2000/svg">
<g clip-path="url(#clip0_983_15220)">
<rect width="48" height="48" fill="black"/>
<path d="M12 38V33.8519H15.1828V14.1481H12V10H24.9032C30.8387 10 34.4516 12.7654 34.4516 17.5185C34.4516 20.6296 32.6452 22.6173 30.3226 23.4815C33.6774 24.4321 36 26.7654 36 30.0494C36 35.1482 32.043 38 25.5914 38H12ZM19.6559 14.1481V21.7531H24.4731C28.086 21.7531 29.9785 20.3704 29.9785 17.9506C29.9785 15.4444 28.086 14.1481 24.4731 14.1481H19.6559ZM19.6559 33.9383H25.1613C29.3763 33.9383 31.5269 32.5556 31.5269 29.7901C31.5269 27.1111 29.2903 25.642 24.8172 25.642H19.6559V33.9383Z" fill="white"/>
</g>
<defs>
<clipPath id="clip0_983_15220">
<rect width="48" height="48" rx="4" fill="white"/>
</clipPath>
</defs>
</svg>
