<svg viewBox="0 0 49 48" xmlns="http://www.w3.org/2000/svg"><path fill-rule="evenodd" clip-rule="evenodd" d="M29.871 1.631c5.584-1.098 13.109 2.09 15.94 7.705 1.643 3.256 1.646 7.26.137 10.58-2.632 5.792-9.322 9.217-16.45 7.506.01.003.02.006.03.015l.081 17.333c.003.633-.462 1.22-1.094 1.252-.853.045-1.696.09-2.532.136-7.029.38-13.537.731-20.37.001-2.342-.25-3.384-1.77-3.384-2.698a304.938 304.938 0 0 1 .001-26.69c0-.847.67-1.555 1.496-1.555 4.519-.313 9.329-.427 14.265-.348a11.694 11.694 0 0 1 .069-2.374c.764-5.808 5.735-10.137 11.81-10.864Zm-.383 25.79h.006l-.02-.005.003.002.011.002ZM3.763 16.272c-.278.002-.475.235-.475.521a290.622 290.622 0 0 0-.214 6.43c.022-.002.02-.003.017-.004 0-.004.095-.004 1.5-.003 2.001 0 6.66.003 17.485 0-.039-.085-.184-.235-.397-.458-.882-.918-2.938-3.061-3.556-6.83-4.96-.084-9.79.03-14.36.344Zm-.704 7.993c-.057 3.038-.06 6.1-.025 9.174 3.666.26 7.436.375 11.545.343-.05-3.21-.084-6.389-.097-9.397 0-.027.007-.052.013-.077l.009-.033c-1.97-.002-3.986 0-5.767 0-3.145 0-5.556.002-5.678-.01Zm.229 19.173c0 .305.197.535.438.535 3.58.258 7.282.383 11.082.38a871.7 871.7 0 0 1-.212-9.513c-3.895.03-7.64-.064-11.55-.34.043 2.972.113 5.95.242 8.938Zm23.749.477c.278-.002.474-.232.474-.514.098-2.441.154-5.4.172-9.07-4.393.281-8.35.446-12.028.496a855.1 855.1 0 0 0 .212 9.518c3.641-.026 7.368-.166 11.17-.43Zm-11.4-10.146c3.682-.05 7.645-.216 12.05-.498v-.205c.005-1.178.02-5.487-.059-6.154-1.611 1.285-3.92 2.802-4.42 2.756-.866-.079-1.4-.223-1.792-.419-.782.106-1.232-.817-.704-1.375 1.234-1.303 1.487-2.136 1.491-3.6H15.52a.621.621 0 0 0 .008.034.272.272 0 0 1 .014.073c.013 3.005.046 6.182.097 9.388Zm12.876-8.213c6.496 2.277 15.433-1.796 16.45-9.522.93-7.063-5.326-13.464-13.287-13.464-6.35 0-11.797 4.218-12.567 10.06-.637 4.844 1.988 7.89 3.31 9.425.386.446.66.765.713.963.34 1.29.162 3.387-1.08 4.937 3.455-1.144 4.763-2.068 5.022-2.25.025-.018.04-.029.047-.032.508-.372.767-.339 1.392-.117ZM9.601 28.238h.005a.53.53 0 0 1 .005 1.059l-1.225.011v1.994a.53.53 0 1 1-1.058 0v-1.983l-1.578.014h-.005a.53.53 0 0 1-.006-1.058l1.588-.015v-2.102a.53.53 0 1 1 1.058 0v2.092l1.216-.012Zm.589 11.44c-1.374.16-2.763.133-4.13-.08a.53.53 0 0 0-.163 1.046c1.465.228 2.946.257 4.415.086a.53.53 0 0 0-.122-1.052Zm13.698.012a20.98 20.98 0 0 1-4.44.077.53.53 0 0 1-.481-.575.535.535 0 0 1 .574-.48c1.402.124 2.82.1 4.217-.073a.528.528 0 1 1 .13 1.051Zm-1.913-1.634.117-.064a.529.529 0 1 0-.51-.928l-.116.065a.529.529 0 1 0 .509.927Zm-.904 2.832a.53.53 0 0 1 1.06 0v.19a.53.53 0 0 1-1.06 0v-.19ZM6.594 20.8l1.117-1.488a.53.53 0 0 0-.847-.636l-1.117 1.489a.53.53 0 0 0 .847.635Zm6.1.102a.53.53 0 0 1-.95-.467 7.073 7.073 0 0 1 1.71-2.214.53.53 0 1 1 .691.801 6.017 6.017 0 0 0-1.452 1.88Zm4.868.002c.522-.397.89-.968 1.034-1.608a.53.53 0 0 0-1.034-.232 1.75 1.75 0 0 1-.64.996.53.53 0 0 0 .64.844Zm11.48-9.655a1.677 1.677 0 0 1-.82.976c-.82.44-1.792.165-2.24-.683a1.68 1.68 0 0 1-.136-1.269c.685-2.212 3.841-1.17 3.197.976Zm-1.013-.305c.243-.811-.897-1.24-1.171-.356a.609.609 0 0 0 .059.458c.172.327.495.413.806.246a.613.613 0 0 0 .306-.348Zm-.94 7.252a.53.53 0 0 1-.05-.747 42.569 42.569 0 0 1 9.045-7.795.53.53 0 0 1 .572.89 41.514 41.514 0 0 0-8.82 7.602.53.53 0 0 1-.748.05Zm7.41-2.94c-.78-.24-1.746.082-2.078 1.158-.264.852.254 1.831 1.109 2.093.857.26 1.832-.267 2.087-1.118.32-1.067-.337-1.896-1.118-2.134Zm.104 1.828c-.089.296-.477.5-.765.41-.291-.088-.497-.474-.406-.767.132-.426.437-.556.758-.46.278.085.553.35.413.817Z" fill="#403E3A"/></svg>