<svg fill="none" xmlns="http://www.w3.org/2000/svg" viewBox="0 0 48 48"><path fill-rule="evenodd" clip-rule="evenodd" d="M33.949 3.034v.001c-.672 1.503-1.143 2.555-1.612 3.627a.505.505 0 0 1-.924-.404c.478-1.089.92-2.079 1.55-3.488l.211-.472a.504.504 0 1 1 .92.41l-.145.326ZM7.045 22.403c-.336 1.952 1.242 4.205 4.007 4.205.077 0 .155-.009.233-.018l.142-.014c-.564.568-1.006 1.238-1.072 2.08-.116 1.482 1.125 3.14 3.294 3.14a4.6 4.6 0 0 0 1.976-.45c-.159 2.339-.37 4.407-.58 6.47-.215 2.114-.43 4.224-.588 6.616a.502.502 0 0 0 .423.53l-.008.007-.005.005-.003.003.918.044.919.044c1.325-.983 2.373-2.15 3.47-3.37l.195-.218 2.11 4.244c.214.43.853.344.946-.127.47-2.4.742-4.832.828-7.276l1.56 3.32a.502.502 0 0 0 .444.288l-.001.003.003-.001.005-.002a.47.47 0 0 0 .248-.067l.104-.028h.001l.003-.001c.646-.177 1.586-.434 1.777-.99.438-1.279.632-2.422.844-3.676.048-.283.097-.572.15-.869l3.818 2.201a.504.504 0 0 0 .734-.582 34.712 34.712 0 0 0-4.171-8.947l.76.328c1.406-.007 2.823-.437 3.597-1.604.788-1.187.919-3.116.429-4.464a8.869 8.869 0 0 1-.176-.582l-.056-.203c1.594-.95 2.496-3.168 2.266-5.06-.23-1.892-1.632-3.574-3.404-4.084.272-1.375-.35-3.018-1.386-3.92a3.769 3.769 0 0 0-3.354-.797l-.026.002c-.095.01-.204.021-.467.09-.647-1.687-2.497-2.475-4.159-3.073.045.031.088.066.131.1l.08.063c-2.249-1.014-4.744.162-5.249 2.669-1.974-1.865-4.884-1.402-6.135.658-.445.732-.473 1.855-.194 2.862a3.497 3.497 0 0 0-2.687.295c-1.54.826-2.485 2.614-2.3 4.348a4.166 4.166 0 0 0 2.043 3.122c-1.376.436-2.239 1.528-2.437 2.686Zm14.103-11.486c5.03 0 9.12 4.14 9.12 9.229 0 5.089-4.09 9.229-9.12 9.229-5.028 0-9.119-4.14-9.119-9.23 0-5.088 4.091-9.228 9.12-9.228Zm4.55 21.157c-.977-.132-1.865-.91-2.16-1.893-.006-.022-.018-.04-.03-.058a.466.466 0 0 1-.016-.029 10.058 10.058 0 0 0 4.319-2.258.503.503 0 0 0 .083.184c.244.338.488.677.725 1.022.203 1.901-1.348 3.24-2.92 3.032ZM17.81 29.8c1.526.54 3 .688 4.529.506a.47.47 0 0 1-.001.012l-.002.019a.306.306 0 0 0-.002.085c.071.46.1 1.476-.002 1.812-.458 1.517-4.111 2.081-4.903-.149-.207-.58.01-1.792.381-2.286Zm11.209-3.058a.28.28 0 0 0-.035-.067l-.004-.007-.003-.005a.415.415 0 0 1-.01-.016A10.25 10.25 0 0 0 31 22.482c.03.036.09.09.172.162.338.3 1.034.92 1.432 1.893.766 1.872-.203 3.594-1.555 3.737-.647.065-1.814-.82-2.031-1.533Zm3.41-4.983c-.549-.063-.802-.258-.986-.401a.886.886 0 0 0-.222-.142 10.24 10.24 0 0 0-.841-5.26 2.693 2.693 0 0 1 3.115-.334c1.459.822 2.203 2.975 1.314 4.733-.592.76-1.445 1.299-2.38 1.404Zm-1.405-8.139c-.234.482-.71.832-1.12.801a.504.504 0 0 0-.298.107 10.24 10.24 0 0 0-3.278-3.162c.87-2.326 4.382-2.655 4.87.52.105.681.045 1.281-.174 1.734ZM14.766 30.61c-.855.264-1.675.233-2.311-.087-.688-.346-1.15-1.099-1.095-1.788.072-.927.952-1.63 1.482-2.054a4.41 4.41 0 0 0 .317-.268 10.198 10.198 0 0 0 3.61 2.948c-.218.151-.412.295-.592.43-.49.364-.884.657-1.411.82Zm7.933 13.297-2.514-5.058a.504.504 0 0 0-.86-.07 35.15 35.15 0 0 1-3.77 4.423c.141-1.821.312-3.507.485-5.21.177-1.733.355-3.485.504-5.416 1.179 2.792 5.46 2.43 6.577.354.3 3.677.162 7.36-.422 10.977Zm5.599-9.403a.504.504 0 0 0-.749.35 34.187 34.187 0 0 1-1.343 5.26l-.032-.069c-.64-1.356-1.307-2.774-1.9-4.048a46.966 46.966 0 0 0-.179-3.487c2.047 1.359 4.741.25 5.402-2.064a33.726 33.726 0 0 1 3.08 6.524l-4.28-2.466Zm1.453-5.565-.013-.02a1.082 1.082 0 0 0-.013-.02c.041.023.082.044.124.065l.02.01.014.006a.9.9 0 0 1-.085-.025 1.568 1.568 0 0 0-.047-.016ZM21.058 6.736c1.044-.588 2.457-.377 3.358.498.891.866 1.241 2.3.87 3.567V10.81l-.001.002a9.966 9.966 0 0 0-4.138-.902c-.45 0-.892.04-1.327.098a.404.404 0 0 0-.043-.164l-.005-.011c-.31-1.142.25-2.514 1.286-3.097Zm-7.578 2.877c.564-.928 1.723-1.473 2.815-1.326 1.038.14 2.017.885 2.527 1.903v.003a10.08 10.08 0 0 0-4.705 2.6c-.082-.057-.163-.107-.244-.158a7.175 7.175 0 0 1-.087-.053c-.544-.832-.732-2.268-.306-2.969Zm-5.04 6.875c-.14-1.316.606-2.726 1.774-3.354.893-.48 1.811-.423 2.854.181.087.114.183.213.281.308a10.247 10.247 0 0 0-2.282 5.603.497.497 0 0 0-.168-.058c-1.235-.168-2.316-1.345-2.459-2.68Zm2.6 4.058a10.233 10.233 0 0 0 1.412 4.82c-1.11.366-2.232.3-3.08-.183-.94-.537-1.503-1.634-1.335-2.61.2-1.168 1.335-2.157 3.003-2.027Zm3.702-2.287 2.637 2.826c.06.064.085.155.068.242l-.75 3.855c-.042.22.177.396.371.297l3.406-1.728a.253.253 0 0 1 .243.008l3.303 1.93c.188.11.417-.052.386-.274l-.531-3.893a.277.277 0 0 1 .081-.238l2.791-2.662c.16-.151.082-.427-.131-.466l-3.735-.678a.263.263 0 0 1-.192-.154l-1.578-3.576a.257.257 0 0 0-.468-.014l-1.776 3.474a.261.261 0 0 1-.201.142l-3.766.452c-.215.026-.309.296-.158.457Zm22.85-11.907-2.54 2.385a.505.505 0 0 0 .345.87c.22 0 .27-.049.88-.637.385-.372.992-.959 2.005-1.884a.504.504 0 0 0-.69-.734Zm-.441 5.633 4.135.02a.504.504 0 0 1-.002 1.007h-.002l-4.133-.019a.504.504 0 0 1 .002-1.008Z" fill="#403E3A"/></svg>