<svg width="48" height="48" viewBox="0 0 48 48" fill="none" xmlns="http://www.w3.org/2000/svg">
<path d="M45.253 4H2.74702C2.38428 3.99999 2.02513 4.07152 1.6903 4.21047C1.35547 4.34942 1.05159 4.55303 0.796199 4.80956C0.54081 5.06609 0.338971 5.37045 0.202332 5.70507C0.0656934 6.0397 -0.00303765 6.39796 0.000102969 6.75917V41.1008C0.000102969 41.8263 0.289509 42.5221 0.804657 43.0351C1.3198 43.5481 2.01849 43.8363 2.74702 43.8363H45.253C45.9815 43.8363 46.6802 43.5481 47.1953 43.0351C47.7105 42.5221 47.9999 41.8263 47.9999 41.1008V6.75917C48.003 6.39796 47.9343 6.0397 47.7977 5.70507C47.661 5.37045 47.4592 5.06609 47.2038 4.80956C46.9484 4.55303 46.6445 4.34942 46.3097 4.21047C45.9749 4.07152 45.6157 3.99999 45.253 4V4ZM42.6547 6.62891C43.0016 6.62891 43.3407 6.73135 43.6292 6.92328C43.9176 7.11521 44.1424 7.38801 44.2752 7.70717C44.4079 8.02634 44.4427 8.37754 44.375 8.71636C44.3073 9.05519 44.1403 9.36642 43.895 9.61069C43.6497 9.85497 43.3371 10.0213 42.9969 10.0887C42.6566 10.1561 42.304 10.1215 41.9835 9.98933C41.663 9.85713 41.389 9.63325 41.1963 9.34601C41.0036 9.05877 40.9007 8.72106 40.9007 8.3756C40.9007 7.91235 41.0855 7.46807 41.4144 7.14051C41.7434 6.81294 42.1895 6.62891 42.6547 6.62891V6.62891ZM36.4057 6.62891C36.7526 6.62891 37.0918 6.73135 37.3802 6.92328C37.6686 7.11521 37.8935 7.38801 38.0262 7.70717C38.159 8.02634 38.1937 8.37754 38.126 8.71636C38.0584 9.05519 37.8913 9.36642 37.646 9.61069C37.4007 9.85497 37.0882 10.0213 36.7479 10.0887C36.4077 10.1561 36.055 10.1215 35.7345 9.98933C35.414 9.85713 35.1401 9.63325 34.9474 9.34601C34.7546 9.05877 34.6518 8.72106 34.6518 8.3756C34.6518 7.91235 34.8366 7.46807 35.1655 7.14051C35.4944 6.81294 35.9406 6.62891 36.4057 6.62891V6.62891ZM30.1568 6.62891C30.5037 6.62891 30.8428 6.73135 31.1313 6.92328C31.4197 7.11521 31.6445 7.38801 31.7773 7.70717C31.91 8.02634 31.9448 8.37754 31.8771 8.71636C31.8094 9.05519 31.6423 9.36642 31.397 9.61069C31.1517 9.85497 30.8392 10.0213 30.499 10.0887C30.1587 10.1561 29.8061 10.1215 29.4856 9.98933C29.1651 9.85713 28.8911 9.63325 28.6984 9.34601C28.5057 9.05877 28.4028 8.72106 28.4028 8.3756C28.409 7.91269 28.5964 7.47046 28.9251 7.1431C29.2538 6.81574 29.6979 6.62912 30.1627 6.62299L30.1568 6.62891ZM44.4681 40.3311H3.51997V12.467H44.4919V40.3252L44.4681 40.3311Z" fill="#394C60"/>
<path d="M16.2794 37.3647C16.56 36.8983 16.9864 36.5363 17.4932 36.3342C18.0001 36.1321 18.5595 36.101 19.0858 36.2456C19.3227 36.3266 19.5734 36.3602 19.8234 36.3445C20.0734 36.3288 20.3179 36.2641 20.5427 36.1541C20.7676 36.044 20.9684 35.8909 21.1336 35.7034C21.2989 35.5159 21.4253 35.2977 21.5057 35.0614V35.0022C21.6904 34.5124 21.6764 33.9703 21.4666 33.4906C21.2569 33.0109 20.8678 32.6314 20.3819 32.4325C19.9073 32.2147 19.518 31.8473 19.274 31.3872C19.0301 30.927 18.9451 30.3996 19.0323 29.8865C19.1159 29.3505 19.3864 28.8609 19.7963 28.5036C20.2061 28.1464 20.7292 27.9442 21.2738 27.9326C21.5503 27.9423 21.8259 27.896 22.0838 27.7963C22.3418 27.6967 22.5766 27.5458 22.7742 27.3529C22.9717 27.16 23.1277 26.9291 23.2328 26.6742C23.3379 26.4193 23.3897 26.1458 23.3853 25.8703C23.3809 25.5948 23.3202 25.3232 23.207 25.0718C23.0937 24.8204 22.9303 24.5946 22.7267 24.4081C22.523 24.2216 22.2834 24.0783 22.0224 23.9869C21.7614 23.8956 21.4844 23.8581 21.2084 23.8767C20.6612 23.8616 20.1355 23.6617 19.7174 23.3099C19.2993 22.9581 19.0137 22.4752 18.9074 21.9405C18.8464 21.6177 18.8464 21.2864 18.9074 20.9636C18.9682 20.6052 19.1144 20.2665 19.3337 19.976C19.553 19.6855 19.8391 19.4516 20.1679 19.2938C20.6314 19.0455 20.9806 18.6283 21.1424 18.1296C21.3042 17.6308 21.2661 17.089 21.036 16.6176C20.951 16.3702 20.8179 16.142 20.6442 15.9459C20.4706 15.7499 20.2599 15.5898 20.0241 15.4749C19.7883 15.3599 19.5321 15.2924 19.2701 15.2761C19.0081 15.2599 18.7454 15.2952 18.4971 15.3801C17.9904 15.583 17.4277 15.5998 16.9096 15.4275C16.4639 15.2282 16.0769 14.9183 15.7859 14.5275C15.5663 14.2352 15.411 13.9001 15.33 13.5441C15.2491 13.188 15.2444 12.819 15.3162 12.461H5.95762C10.298 14.7821 14.4243 19.4419 14.5254 25.6293C14.6384 32.3378 11.0709 37.7495 5.83276 40.3252H16.3924C16.0383 39.918 15.8342 39.4029 15.8137 38.8647C15.7931 38.3265 15.9574 37.7974 16.2794 37.3647V37.3647Z" fill="#3C9BD6"/>
<path d="M29.4849 15.1491C29.9144 15.4966 30.2087 15.9824 30.3173 16.5228C30.4258 17.0632 30.3417 17.6243 30.0795 18.1096C29.8724 18.6137 29.5049 19.0363 29.0333 19.3122C28.5618 19.5882 28.0123 19.7024 27.4693 19.6372C26.9742 19.5416 26.4612 19.6457 26.0431 19.9266C25.625 20.2075 25.336 20.6422 25.2396 21.1352V21.224C25.1312 21.732 25.2241 22.262 25.4989 22.7034C25.7737 23.1447 26.2091 23.4632 26.7142 23.5924C27.2173 23.7357 27.6589 24.0401 27.9707 24.4587C28.2824 24.8772 28.4468 25.3865 28.4384 25.9075C28.4325 26.4364 28.2445 26.9472 27.9058 27.3546C27.567 27.762 27.0981 28.0413 26.5774 28.1456C26.0526 28.2454 25.5881 28.5463 25.2837 28.9836C24.9793 29.4208 24.8594 29.9596 24.9498 30.484C25.0402 31.0084 25.3336 31.4765 25.7669 31.7878C26.2003 32.099 26.7389 32.2284 27.2671 32.1482C27.809 32.0801 28.3581 32.1971 28.8246 32.4799C29.2912 32.7627 29.6476 33.1948 29.8357 33.7054C29.9448 34.0152 29.9952 34.3425 29.9843 34.6706C29.9852 35.034 29.8987 35.3924 29.7322 35.7158C29.5657 36.0392 29.3239 36.3183 29.0271 36.5297C28.6014 36.8454 28.316 37.3139 28.2316 37.8358C28.1473 38.3576 28.2705 38.8917 28.5752 39.3244C28.8521 39.7544 29.2403 40.1022 29.6989 40.331H42.1849C38.2132 38.3712 34.5209 34.6824 33.6172 29.4305C32.3388 21.9938 35.8646 15.5103 41.7806 12.4787H29.033C28.7531 12.8976 28.644 13.4069 28.728 13.903C28.8119 14.3991 29.0826 14.8447 29.4849 15.1491V15.1491Z" fill="#E74F38"/>
<path d="M33.0822 40.716H32.7195C32.8379 40.7505 32.9637 40.7505 33.0822 40.716Z" fill="#3C9BD6"/>
</svg>
