<svg viewBox="0 0 171 40" xmlns="http://www.w3.org/2000/svg"><path fill-rule="evenodd" clip-rule="evenodd" d="M29.001 19.105c0 5.93-4.925 10.737-11.296 10.737-6.922 0-9.75-3.778-11.527-8.918-.37-1.068-1.354-1.819-2.485-1.819-.724 0-1.344.514-1.473 1.22a1.485 1.485 0 0 1-.838 1.078l-.385.179a1.173 1.173 0 0 0-.68 1.118l.046.963c.014.3-.084.562-.185.83-.07.184-.14.37-.175.575a.149.149 0 0 0 .006.08C2.672 32.058 10.3 37 17.873 37c10.62 0 18.82-8.012 18.82-17.895C36.692 10.18 29.222 3 21.31 3 16.6 3 12.623 4.804 9.891 7.877c-2.458 2.765-3.747 6.365-3.938 10.215-.027.544.423.986.969.984a520.74 520.74 0 0 1 4.643.017c.828.006 1.48-.683 1.57-1.505.487-4.44 3.908-7.43 8.175-7.43 3.064 0 7.691 3.392 7.691 8.947Zm127.711-6.018c0 .949.434 1.789 1.845 1.789 1.465 0 1.845-.84 1.845-1.79 0-1.002-.353-1.788-1.845-1.788-1.493 0-1.845.786-1.845 1.789ZM132.8 26.513v-6.967l-1.984-.01v-.81c0-.884.719-1.599 1.603-1.595l.381.002V14.18l3.175-.895v3.85h2.876v.818c0 .88-.714 1.594-1.595 1.594h-1.281v6.56c0 1.01.573 1.365 1.311 1.487.869.143 1.593.772 1.593 1.652v1.198c-3.007 0-6.079-.132-6.079-3.93Zm-69.713-2.74c0-5.015 3.908-7.021 7.083-6.94 3.256-.081 7.136 1.925 7.136 6.94 0 4.933-3.88 6.885-7.136 6.804-3.175.081-7.083-1.87-7.083-6.804Zm3.163-.102c0 2.765 1.637 4.444 3.943 4.444s3.927-1.683 3.927-4.448c0-2.63-1.62-4.358-3.926-4.358S66.25 21.04 66.25 23.67Zm19.395-6.808c2.768 0 5.645.759 5.645 6.18v7.265h-1.77a1.595 1.595 0 0 1-1.595-1.593v-5.943c0-2.575-.95-3.55-2.605-3.55-.923 0-2.117.704-2.686 1.273v8.22c0 .88-.715 1.593-1.596 1.593h-1.606v-13.12h1.79c.636 0 1.187.438 1.33 1.057.814-.894 1.872-1.382 3.093-1.382Zm10.776 1.36a1.595 1.595 0 0 0-1.503-1.058h-2.294l5.155 13.12h2.031c.657 0 1.247-.402 1.486-1.014l4.732-12.106h-2.295c-.674 0-1.275.423-1.502 1.058l-2.905 8.132-2.905-8.132Zm22.152 11.425c-1.004.406-3.041.948-5.157.948-3.718 0-6.565-2.141-6.565-6.967 0-4.337 2.76-6.656 6.125-6.656 4.153 0 5.925 2.785 5.74 6.576-.039.783-.721 1.354-1.506 1.354h-7.159c.163 2.115 1.71 3.226 3.745 3.226.799 0 1.639-.04 2.646-.228 1.068-.2 2.131.56 2.131 1.645v.102Zm-2.731-6.968c.218-2.074-1.184-3.213-2.866-3.213-1.682 0-2.817 1.262-2.925 3.213h5.791Zm8.38-4.485a1.314 1.314 0 0 0-1.278-1.003h-1.707v13.12h3.229v-9.704c1.004-.57 2.279-.895 3.147-.895.758 0 1.412-.575 1.412-1.331v-1.407c-.815-.108-1.33-.108-1.412-.108-.949 0-2.306.515-3.391 1.328Zm35.963 10.485V17.153h-1.606c-.882 0-1.596.713-1.596 1.594v11.526h1.607c.881 0 1.595-.713 1.595-1.593Zm4.366-9.107v6.967c0 3.799 3.073 3.931 6.079 3.931v-1.198c0-.88-.724-1.51-1.593-1.653-.738-.122-1.311-.476-1.311-1.486v-6.56h1.281c.881 0 1.596-.714 1.596-1.594v-.82h-2.877v-3.848l-3.175.894v2.955h-.548c-.881 0-1.595.713-1.595 1.594v.819h2.143Zm-117.33 1.49c.02-6.135 4.651-9.563 9.095-9.563 2.468 0 4.731.531 6.593 1.86l-.753 1.031a1.95 1.95 0 0 1-2.254.651c-1.123-.444-2.18-.537-2.968-.537-3.636 0-6.378 2.334-6.398 6.557.02 4.224 2.762 6.591 6.398 6.591.788 0 1.845-.093 2.968-.537.795-.314 1.75-.073 2.254.617l.753 1.032c-1.862 1.329-4.125 1.86-6.593 1.86-4.444 0-9.074-3.428-9.095-9.563Zm97.19-7.873c0-.88-.715-1.594-1.596-1.594h-1.688v18.677h1.688c.881 0 1.596-.713 1.596-1.593v-7.25l6.53 8.195c.3.408.777.648 1.284.648h2.901l-7.383-9.31 7.383-9.312h-2.901c-.507 0-.984.24-1.284.648l-6.53 8.197V13.19Z" fill="#201F1D"/></svg>