<svg height="600" width="1000" xmlns="http://www.w3.org/2000/svg"><g fill-rule="evenodd"><path d="m0 200h1000v200h-1000z" fill="#fff"/><path d="m0 400h1000v200h-1000z" fill="#0051ba"/><path d="m0 0h1000v200h-1000z" fill="#e61717"/></g><g transform="matrix(.92034 0 0 .92034 -98.222 5.666)"><path d="m520.458 208.019c40.02-14.237 84.393-21.92 127.762-22.029 43.368-.109 87.597 6.696 131.3 22.357l32.532-65.63-22.866-39.83s-40.795 16.756-41.13 16.756-28.764-31.289-28.764-31.289l-36.509 22.059-34.282-26.219-32.248 25.814-37.647-21.76-27.461 32.633-41.161-17.6-22.036 39.467 32.51 65.27z" fill="#fff" fill-rule="evenodd" stroke="#e61717" stroke-linecap="round" stroke-width="1.739"/><path d="m729.007 189.814 18.628-65.853 39.892-16.19 21.016 35.29-30.174 61.721c-17.346-6.93-26.638-9.9-49.362-14.968z" fill="#0051ba" fill-rule="evenodd" stroke="#0051ba" stroke-width=".58"/><path d="m571.095 189.985-17.411-64.74 26.196-32.155 37.278 21.521 6.29 68.055c-18.213 1.352-31.378 3.082-52.354 7.32z" fill="none"/><path d="m623.968 182.683-6.29-68.201 31.701-25.202 33.122 25.14-5.853 68.324c-18.25-.965-31.283-.936-52.68-.061z" fill="#0051ba" fill-rule="evenodd" stroke="#0051ba" stroke-width=".543"/><path d="m522.026 204.744-29.55-62.51 19.748-34.507 40.94 17.82 17.297 64.489c-18.691 3.865-28.59 7.024-48.435 14.708z" fill="#0051ba" fill-rule="evenodd" stroke="#0051ba" stroke-width=".58"/><path d="m515.735 173.37c9.072.874 15.435.399 23.252-2.246 9.23-4.32 12.166-9.34 14.924-13.41 2.194 7.92 1.36 15.335-9.079 21.394-9.42 4.883-22.876 3.442-29.097-5.738z" fill="#fff" fill-rule="evenodd" stroke="#fff" stroke-width=".529"/><g transform="matrix(.4175 0 0 .4096 486.264 76.347)"><path d="m410.938 120.565-4.063 1.016.156 7.5-5 1.094-3.497 6.614 2.159 2.044c.111.221-1.703 4.892-1.625 4.892s1.323 1.762 1.323 1.762l1.328 4.063 3.359.468.86 4.766 5.312.859 4.922 3.516.312 2.188 5.625.156 3.829 1.25 13.359-1.563 1.797-2.812.156-3.828 7.188-.235.657-6.105h3.809l-.474-6.875 3.177.286-.82-3.295-1.975-2.683-.39-4.218-5.625-5.625-1.25-7.344s-3.594-1.641-3.594-1.719-.234-4.922-.234-4.922l4.062-5.703-.39-2.265-3.75-.079-2.813 2.344s-3.75.391-3.75.469v1.719s.938 3.203.938 3.281-4.297 0-4.297 0l-.157-5.078-6.093-3.047s-5.703 3.906-5.703 3.984-.313 4.532-.313 4.532l-2.734.781-2.813-4.219-4.922-1.875-2.656-.156-.078 3.281 5.156 6.797z" fill="#ff0" fill-rule="evenodd" stroke="#cca300" stroke-width="1pt"/><path d="m449.234 148.039-1.105-4.088m4.198-2.652-1.878-2.762" fill="none" stroke="#cca300" stroke-width="1pt"/><g fill-rule="evenodd"><g stroke="#cca300"><path d="m400.841 138.206 5.856-.332 1.105 5.303 1.988 1.768.332 9.723 1.878.773.553-3.867 4.53-.331.883 7.844-1.104.995.442 1.215 5.413-.11s1.216-2.1 1.326-2.1c.111 0 3.094-.331 3.094-.221 0 .111 1.215 2.321 1.215 2.321l.884-2.984s2.873-1.215 2.873-1.104c0 .11 2.32 3.756 2.32 3.756l3.977-.552-2.43-2.32-.995-5.083 5.524-2.983 2.21 3.757s2.099.11 1.989 0c-.111-.111-2.431-4.309-2.431-4.309v-8.839l4.199-5.745 5.855-.663v-2.431l-5.855-5.414-1.547-7.513-3.315-1.657-.884.994-3.646.332 3.646 5.414v3.535l1.658.884-.332 9.723s-4.088.552-4.088.663c0 .11-.331 5.413-.331 5.413l-2.541 2.542s-1.437 5.082-1.547 5.082c-.111 0-2.431 3.093-2.431 3.093l-4.53.111s-2.651-2.541-2.651-2.652c0-.11-.442-3.756-.442-3.756s-1.768-.553-1.879-.553c-.11 0-.994-4.088-.994-4.088l-3.094-1.767-.22-2.431-2.984-1.326s-.331-2.21-.442-2.32c-.11-.111-1.436-.994-1.546-.994-.111 0-.111-6.077-.111-6.077l2.652-.442-1.485-1.94-.504-1.706v-1.768l2.21-2.21s-3.978-.552-3.978-.442c0 .111-3.866 1.768-3.866 1.658.11 0-.111 7.181-.111 7.181l-4.53 1.437-3.646 5.855z" fill="#cca300" stroke-width="1pt"/><path d="m423.712 148.039 2.983-1.768-.111-3.425-2.872-.663-1.106-1.105 3.205.553 3.977-.332 1.326-.663c-.552 1.437-.994 1.326-1.105 1.326-.11 0-2.209 1.105-2.209 1.105l.11 3.315s6.85.883 6.74.883c-.111 0 0 1.326-.221 1.326s-7.071-1.547-7.071-1.547l-4.309 2.652z" fill="#663d19" stroke-width=".5"/><path d="m440.947 127.489-3.977 3.093-2.541 4.53-1.326.221-3.867-5.193-4.419.111s-2.431 6.076-2.431 6.187c0 .11-1.768-.221-1.768-.221l-4.64-5.082s-1.437-2.542-1.216-2.542 11.601.111 11.601.111l-.11-5.524s-1.768-.553-2.652-1.105c.663-.221 6.298-.221 6.298-.221l-2.431 1.657v4.751l10.054.11z" fill="#cca300" stroke-width="1pt"/></g><rect fill="#663d19" height="2.652" rx=".837" width="2.652" x="419.513" y="130.14"/><rect fill="#663d19" height="2.652" rx=".837" width="2.652" x="432.109" y="129.588"/></g><g stroke="#cca300" stroke-width="1pt"><path d="m413.547 121.301c4.198-1.694 7.181-3.056 12.374-3.535 4.898-.516 8.692.184 13.037.994" fill="none"/><path d="m415.867 112.352h-3.425l-4.862-5.193 2.763.332 3.204 1.436zm20.661-1.989 7.734-5.965-2.541-.332-2.873 2.651-3.425.553zm-4.56 1.096-12.123.451.11-1.326 4.42-.442.552-1.767s1.326-.11 1.326 0c0 .111.994 1.657.994 1.657l4.309.773zm-.633-4.631-4.198.11-.332-2.32zm-7.071-2.099-.332 2.319-4.087.663zm-23.202 42.315 2.099-5.303-1.878-3.646-1.878 5.414zm4.198 2.873 2.542-6.298-4.861 5.082 2.32 1.216z" fill="#cca300" fill-rule="evenodd"/></g></g><g transform="matrix(.4175 0 0 .4096 458.263 77.251)"><path d="m410.938 120.565-4.063 1.016.156 7.5-5 1.094-3.497 6.614 2.159 2.044c.111.221-1.703 4.892-1.625 4.892s1.323 1.762 1.323 1.762l1.328 4.063 3.359.468.86 4.766 5.312.859 4.922 3.516.312 2.188 5.625.156 3.829 1.25 13.359-1.563 1.797-2.812.156-3.828 7.188-.235.657-6.105h3.809l-.474-6.875 3.177.286-.82-3.295-1.975-2.683-.39-4.218-5.625-5.625-1.25-7.344s-3.594-1.641-3.594-1.719-.234-4.922-.234-4.922l4.062-5.703-.39-2.265-3.75-.079-2.813 2.344s-3.75.391-3.75.469v1.719s.938 3.203.938 3.281-4.297 0-4.297 0l-.157-5.078-6.093-3.047s-5.703 3.906-5.703 3.984-.313 4.532-.313 4.532l-2.734.781-2.813-4.219-4.922-1.875-2.656-.156-.078 3.281 5.156 6.797z" fill="#ff0" fill-rule="evenodd" stroke="#cca300" stroke-width="1pt"/><path d="m449.234 148.039-1.105-4.088m4.198-2.652-1.878-2.762" fill="none" stroke="#cca300" stroke-width="1pt"/><g fill-rule="evenodd"><g stroke="#cca300"><path d="m400.841 138.206 5.856-.332 1.105 5.303 1.988 1.768.332 9.723 1.878.773.553-3.867 4.53-.331.883 7.844-1.104.995.442 1.215 5.413-.11s1.216-2.1 1.326-2.1c.111 0 3.094-.331 3.094-.221 0 .111 1.215 2.321 1.215 2.321l.884-2.984s2.873-1.215 2.873-1.104c0 .11 2.32 3.756 2.32 3.756l3.977-.552-2.43-2.32-.995-5.083 5.524-2.983 2.21 3.757s2.099.11 1.989 0c-.111-.111-2.431-4.309-2.431-4.309v-8.839l4.199-5.745 5.855-.663v-2.431l-5.855-5.414-1.547-7.513-3.315-1.657-.884.994-3.646.332 3.646 5.414v3.535l1.658.884-.332 9.723s-4.088.552-4.088.663c0 .11-.331 5.413-.331 5.413l-2.541 2.542s-1.437 5.082-1.547 5.082c-.111 0-2.431 3.093-2.431 3.093l-4.53.111s-2.651-2.541-2.651-2.652c0-.11-.442-3.756-.442-3.756s-1.768-.553-1.879-.553c-.11 0-.994-4.088-.994-4.088l-3.094-1.767-.22-2.431-2.984-1.326s-.331-2.21-.442-2.32c-.11-.111-1.436-.994-1.546-.994-.111 0-.111-6.077-.111-6.077l2.652-.442-1.485-1.94-.504-1.706v-1.768l2.21-2.21s-3.978-.552-3.978-.442c0 .111-3.866 1.768-3.866 1.658.11 0-.111 7.181-.111 7.181l-4.53 1.437-3.646 5.855z" fill="#cca300" stroke-width="1pt"/><path d="m423.712 148.039 2.983-1.768-.111-3.425-2.872-.663-1.106-1.105 3.205.553 3.977-.332 1.326-.663c-.552 1.437-.994 1.326-1.105 1.326-.11 0-2.209 1.105-2.209 1.105l.11 3.315s6.85.883 6.74.883c-.111 0 0 1.326-.221 1.326s-7.071-1.547-7.071-1.547l-4.309 2.652z" fill="#663d19" stroke-width=".5"/><path d="m440.947 127.489-3.977 3.093-2.541 4.53-1.326.221-3.867-5.193-4.419.111s-2.431 6.076-2.431 6.187c0 .11-1.768-.221-1.768-.221l-4.64-5.082s-1.437-2.542-1.216-2.542 11.601.111 11.601.111l-.11-5.524s-1.768-.553-2.652-1.105c.663-.221 6.298-.221 6.298-.221l-2.431 1.657v4.751l10.054.11z" fill="#cca300" stroke-width="1pt"/></g><rect fill="#663d19" height="2.652" rx=".837" width="2.652" x="419.513" y="130.14"/><rect fill="#663d19" height="2.652" rx=".837" width="2.652" x="432.109" y="129.588"/></g><g stroke="#cca300" stroke-width="1pt"><path d="m413.547 121.301c4.198-1.694 7.181-3.056 12.374-3.535 4.898-.516 8.692.184 13.037.994" fill="none"/><path d="m415.867 112.352h-3.425l-4.862-5.193 2.763.332 3.204 1.436zm20.661-1.989 7.734-5.965-2.541-.332-2.873 2.651-3.425.553zm-4.56 1.096-12.123.451.11-1.326 4.42-.442.552-1.767s1.326-.11 1.326 0c0 .111.994 1.657.994 1.657l4.309.773zm-.633-4.631-4.198.11-.332-2.32zm-7.071-2.099-.332 2.319-4.087.663zm-23.202 42.315 2.099-5.303-1.878-3.646-1.878 5.414zm4.198 2.873 2.542-6.298-4.861 5.082 2.32 1.216z" fill="#cca300" fill-rule="evenodd"/></g></g><path d="m677.118 182.65 5.894-68.402 36.221-20.84 28 30.347-18.66 65.9c-18.088-3.693-28.408-5.276-51.455-7.004z" fill="#000090" fill-rule="evenodd" stroke="#000090" stroke-width=".58"/><g transform="matrix(.4175 0 0 .4096 472.782 103.094)"><path d="m410.938 120.565-4.063 1.016.156 7.5-5 1.094-3.497 6.614 2.159 2.044c.111.221-1.703 4.892-1.625 4.892s1.323 1.762 1.323 1.762l1.328 4.063 3.359.468.86 4.766 5.312.859 4.922 3.516.312 2.188 5.625.156 3.829 1.25 13.359-1.563 1.797-2.812.156-3.828 7.188-.235.657-6.105h3.809l-.474-6.875 3.177.286-.82-3.295-1.975-2.683-.39-4.218-5.625-5.625-1.25-7.344s-3.594-1.641-3.594-1.719-.234-4.922-.234-4.922l4.062-5.703-.39-2.265-3.75-.079-2.813 2.344s-3.75.391-3.75.469v1.719s.938 3.203.938 3.281-4.297 0-4.297 0l-.157-5.078-6.093-3.047s-5.703 3.906-5.703 3.984-.313 4.532-.313 4.532l-2.734.781-2.813-4.219-4.922-1.875-2.656-.156-.078 3.281 5.156 6.797z" fill="#ff0" fill-rule="evenodd" stroke="#cca300" stroke-width="1pt"/><path d="m449.234 148.039-1.105-4.088m4.198-2.652-1.878-2.762" fill="none" stroke="#cca300" stroke-width="1pt"/><g fill-rule="evenodd"><g stroke="#cca300"><path d="m400.841 138.206 5.856-.332 1.105 5.303 1.988 1.768.332 9.723 1.878.773.553-3.867 4.53-.331.883 7.844-1.104.995.442 1.215 5.413-.11s1.216-2.1 1.326-2.1c.111 0 3.094-.331 3.094-.221 0 .111 1.215 2.321 1.215 2.321l.884-2.984s2.873-1.215 2.873-1.104c0 .11 2.32 3.756 2.32 3.756l3.977-.552-2.43-2.32-.995-5.083 5.524-2.983 2.21 3.757s2.099.11 1.989 0c-.111-.111-2.431-4.309-2.431-4.309v-8.839l4.199-5.745 5.855-.663v-2.431l-5.855-5.414-1.547-7.513-3.315-1.657-.884.994-3.646.332 3.646 5.414v3.535l1.658.884-.332 9.723s-4.088.552-4.088.663c0 .11-.331 5.413-.331 5.413l-2.541 2.542s-1.437 5.082-1.547 5.082c-.111 0-2.431 3.093-2.431 3.093l-4.53.111s-2.651-2.541-2.651-2.652c0-.11-.442-3.756-.442-3.756s-1.768-.553-1.879-.553c-.11 0-.994-4.088-.994-4.088l-3.094-1.767-.22-2.431-2.984-1.326s-.331-2.21-.442-2.32c-.11-.111-1.436-.994-1.546-.994-.111 0-.111-6.077-.111-6.077l2.652-.442-1.485-1.94-.504-1.706v-1.768l2.21-2.21s-3.978-.552-3.978-.442c0 .111-3.866 1.768-3.866 1.658.11 0-.111 7.181-.111 7.181l-4.53 1.437-3.646 5.855z" fill="#cca300" stroke-width="1pt"/><path d="m423.712 148.039 2.983-1.768-.111-3.425-2.872-.663-1.106-1.105 3.205.553 3.977-.332 1.326-.663c-.552 1.437-.994 1.326-1.105 1.326-.11 0-2.209 1.105-2.209 1.105l.11 3.315s6.85.883 6.74.883c-.111 0 0 1.326-.221 1.326s-7.071-1.547-7.071-1.547l-4.309 2.652z" fill="#663d19" stroke-width=".5"/><path d="m440.947 127.489-3.977 3.093-2.541 4.53-1.326.221-3.867-5.193-4.419.111s-2.431 6.076-2.431 6.187c0 .11-1.768-.221-1.768-.221l-4.64-5.082s-1.437-2.542-1.216-2.542 11.601.111 11.601.111l-.11-5.524s-1.768-.553-2.652-1.105c.663-.221 6.298-.221 6.298-.221l-2.431 1.657v4.751l10.054.11z" fill="#cca300" stroke-width="1pt"/></g><rect fill="#663d19" height="2.652" rx=".837" width="2.652" x="419.513" y="130.14"/><rect fill="#663d19" height="2.652" rx=".837" width="2.652" x="432.109" y="129.588"/></g><g stroke="#cca300" stroke-width="1pt"><path d="m413.547 121.301c4.198-1.694 7.181-3.056 12.374-3.535 4.898-.516 8.692.184 13.037.994" fill="none"/><path d="m415.867 112.352h-3.425l-4.862-5.193 2.763.332 3.204 1.436zm20.661-1.989 7.734-5.965-2.541-.332-2.873 2.651-3.425.553zm-4.56 1.096-12.123.451.11-1.326 4.42-.442.552-1.767s1.326-.11 1.326 0c0 .111.994 1.657.994 1.657l4.309.773zm-.633-4.631-4.198.11-.332-2.32zm-7.071-2.099-.332 2.319-4.087.663zm-23.202 42.315 2.099-5.303-1.878-3.646-1.878 5.414zm4.198 2.873 2.542-6.298-4.861 5.082 2.32 1.216z" fill="#cca300" fill-rule="evenodd"/></g></g><g fill-rule="evenodd"><path d="m686.097 170.4-1.815 2.123.14 1.781 3.77-.068c1.21-.286 1.512-.708 1.745-1.2.373-.604.117-.935.21-1.746zm8.953 5.027-1.665 1.287-.154 1.637 3.344.247c1.231-.171 1.413-.372 1.691-.838.428-.568.311-.568.48-1.366zm14.857-4.274-1.745 1.781.07 1.37 3.56.137c1.21-.286 1.024-.228 1.397-.856.372-.605.256-.73.35-1.541zm10.404 3.22-2.025 1.712v1.713l3.77.342c1.21-.285 1.304-.64 1.607-1.062.372-.605.186-.662.279-1.472z" fill="#e61717" stroke="#e61717" stroke-width=".58"/><path d="m694.965 129.572 7.122 4.726c1.339-1.11 4.124-.437 5.214-.13 1.96.512 3.34 1.672 5.05 1.98 3.129.786 6.878 1.33 9.717 1.021 2.84-.308 5.224-1.792 7.32-2.87v-.685h-1.396c-2.267.815-5.443.86-7.875.54-2.433-.319-3.088-1.41-6.718-2.458l-.28-.685c4.407.209 5.302.095 7.147-.71 1.804-.479 2.617-1.526 3.635-2.249l-.029-.81-1.327-.068c-1.709 1.139-2.798 1.345-5.417 1.105-2.383-.241-4.53-1.598-6.128-1.626-1.696.013-1.616-.797-3.256-.877-2.607-.228-5.425.12-7.891.713-2.956.89-3.399 1.644-4.888 3.083z" fill="#e61717" stroke="#c00" stroke-width=".58"/><path d="m696.348 128.524c.682.155 1.446.351 2.004.668.558.318.413.311 1.012.75-.096-.567-.068-.527-.454-.972-.386-.446-1.02-.852-1.529-1.217l-1.033.77zm5.95 5.107c.014-.614-.303-1.148-.537-1.682-.234-.533-.427-.986-.868-1.52.551.155.854.392 1.323.952.468.561.44 1.122.537 1.926zm1.364-7.499c.166.426.49.718.765 1.627.237.825.35 1.98.35 1.98-.089-.614.07-1.31-.02-1.925s-.427-1.149-.517-1.764zm5.785.365.29 3.405.33-3.203zm-1.405 7.053c.138-.553.11-1.108.041-1.662-.068-.554-.262-1.027-.454-1.662.55.473.771 1.068 1.074 1.703 0 .635-.165 1.189-.66 1.621zm5.992-1.5c.02 0 .176 1.156-.088 1.987-.263.831-.449.892-.945 1.338.661-.486 1.24-.649 1.446-1.176.207-.81-.33-2.027-.413-2.149zm1.033-1.094c-.413.068-.496-1.649-.744-2.473.18-.095.358-.068.537.324.193.23.138 1.433.207 2.15zm4.09-.689.166-1.42.454-.04v1.216c0 .041-.578.284-.62.244zm-.33 3.81c.262.433.73.946.785 1.42.056.472-.096.702-.454 1.418l.661.04c.358-.573.468-.985.413-1.438s-.276-.906-.744-1.277zm4.918.365.165 1.987.537-.284-.124-1.703z" fill="#8e3737" stroke="#8f3636" stroke-width=".58"/><path d="m694.523 129.922c-1.612.467-2.195 1.357-2.983 2.127l-4.542-2.3c-.736.61-1.02 1.484-.666 2.377.355.893 1.78 2.292 2.793 2.983-.254 1.234-.628 2.165-1.071 3.247-.494 1.217-1.554 2.753-1.585 3.247-.06.565-.245 1.776.6 2.098.846.323 3.564-.223 4.47-.164-.147.486-.5 1.335-.38 1.699s.364.486 1.102.507c-.212.45-.67 1.022-.45 1.291.569.431 1.222.357 1.77.323-.322.375-.826.879-1.367 1.408-.91.89-1.924 1.851-2.364 2.393-.743 1.004-.806 2.089.633 1.982-.535.594-1.05 1.167-.968 1.68.124.613.432 1.025 1.461.669-.609 1.377-.209 2.612.006 4.05-.52 1.087-.3 2.094-.428 3.342-1.059.6-1.19 1.381-1.879 2.586-.62 1.305-1.776 1.661-2.417 4.461l4.155 1.036c.153-.576.696-.95.849-1.525.152-.576.14-1.293.066-1.93.825-1.193 2.493-3.659 3.028-4.973.908-.485 1.568-.788 2.248-.788.681 0 1.114.404 1.836.788-.32 1.108-1.215 2.316-1.267 3.868v4.284c-.18 1.064-1.39 1.078-1.901 4.283l3.732.967c.634-1.077 1.638-1.226 1.901-1.658l.27-4.45c.475-2.1 3.42-3.837 3.463-6.12 1.057-.014 1.456.094 1.875-.122.563-.196.756-.513 1.196-.911.17.687.71.747 1.168.747.457 0 1.367-.646 1.743-.909.264.373.404.725.956.855.553.13 2.113-.103 2.748-.256l-3.067 5.018c-.115.483.039.785-.2 1.35-.222.507-.672.75-.874 1.218l3.477.83.555-1.464c.737-.31 1.33-.48 1.717-.952.387-.471.384-1.368.606-1.88 1.188-.863 3.055-2.735 4.366-4.284.89.15 2.151.887 2.63 1.986.067 1.18.154 3.35-.376 4.854l-2.254 3.523-.255.578 3.547 1.264 2.254-1.727.088-2.464c1.132-1.999 2.751-3.091 4.295-4.352 0-.07.165-2.646.103-2.747-.381-.29-.64-.115-.774-.648-.134-.532-.043-1.994.029-2.567.223-.276.693-.594.669-.83-.614-.674-.426-2.418-.238-3.778-.046-1.55 2.07-3.381 2.394-4.284l.132-1.626c-.216-.4-.535-.638-.545-.977s.41-.9.669-1.26l.448-.765-.07-4.007c-.126-.433-.498-1.108-.85-1.177-.353-.07-.87.327-1.263.762l-2.039 1.505c-.977.299-1.831.417-3.55-.012l-2.621.053c-1.377.384-2.095.446-3.39-.118l-1.552.025c-.483.263-1.153.687-1.678.789-.524.101-1.234.122-1.76-.04-4.006.27-3.011.56-4.156.81-.92-.175-.625-.632-4.2-.666l-1.416-.415c-1.788-1.184-3.165-3.076-4.355-5.25 3.724-1.067 5.286-2.174 6.416-4.715l-5.266.197-7.447-4.949z" fill="#fffa00" stroke="#ffc700" stroke-width=".58"/><path d="m692.66 136.421 1.49.632c.183.217.535.466.77.481.232.014.43-.223.63-.394l1.373-.719c-.813-.117-1.062-.622-1.926-.622-.865 0-1.473.454-2.338.622z" fill="#664c00" stroke="#664c00" stroke-width=".58"/><path d="m695.397 154.009c0 .123-.206.213-.31.067-.128-1.748-.513-2.974-1.052-4.335.609 1.036 1.114 2.71 1.362 4.268zm8.757.189c.305.084.731.084.83-.118.13-.374-.255-.783-.4-1.241-.502-.985-.78-2.053-.991-2.516-.221-.14-.46-.127-.407.103.288.876.783 3.434.968 3.772zm4.803-.53c.033.212-.689-.097-.81-.338-.011-.47-.982-3.9-.822-4.032.204-.1.837 1.146 1.041 1.72.048.34.474 1.587.59 2.65zm-.681 7.068c-.017.24.549.043.772-.138.646-1.01 1.447-2.072 1.683-2.476.141-.433.849-3.187.63-3.165-.076-.08-.692 1.366-1.486 2.792-.827 1.453-1.608 2.848-1.599 2.987zm4.817-1.48c-.235.113.472-2.381.529-2.823.129-.699.31-1.952.593-3.576.346 2.268-.062 4.703-1.122 6.399zm2.889-7.634c-.154.135-2.224-3.286-2.033-3.303.053-.151 1.734 2.141 1.974 2.544.1.192.2.484.06.759zm4.843 2.539c-.155-.116-.093-1.208-.4-2.408-.305-1.2-.826-2.355-.723-2.683.097-.173.434-.093.702.138.127.652.426 3.155.777 4.784-.005.157-.18.265-.356.17zm3.384-3.039c-.165-.176.45 1.175.897 2.78.448 1.604.677 4.44.786 4.238.308-.205.255-.459.735-.562.479-.103 2.261.063 2.158-.057-1.103-.983-2.12-1.797-2.88-2.863s-1.262-2.47-1.696-3.536z" fill="#cca300" stroke="#cca300" stroke-width=".58"/></g><path d="m728.977 189.795 18.778-66.189 39.859-16.057 21.139 35.744-30.256 61.444c-17.114-6.468-26.902-9.923-49.52-14.942z" fill="none"/><g fill-rule="evenodd"><path d="m741.427 146.02c10.225 2.16 19.69 4.619 29.155 7.672 9.465 3.054 18.474 6.704 27.635 10.651l-15.336 30.986c-8.56-3.257-17.013-5.883-25.466-8.614-8.452-2.731-16.69-5.147-25.25-7.772l9.262-32.922z" fill="#fff" stroke="#fff" stroke-width=".58"/><path d="m739.39 153.34s14.28 3.186 28.118 7.637c13.837 4.45 27.34 10.165 27.285 10.165-.107 0-8.697 17.697-8.697 17.697-8.339-3.318-17.108-6.426-25.768-9.218-8.662-2.791-17.323-5.477-26.199-7.531l5.262-18.75z" fill="#e61717" stroke="#e61717" stroke-width=".58"/><path d="m740.577 161.995c1.405-.785 2.356-.997 3.112-2.29h5.057l.065 1.844c1.243.594 1.967 1.252 3.21 1.845 1.242.594 3.004 1.124 4.246 1.718l10.892.954c1.459.233 3.566.848 4.83 1.59 1.265.742 2.076 1.675 2.756 2.862 2.237.785 4.474 1.251 6.775 1.59 2.303.34 5.187.488 7.424.573 1.102.382 1.102.954.583 1.527 0 0-1.232 1.67-4.595 1.685-3.363.016-7.172-1.876-8.825-1.622.065 1.018 1.815 3.117 3.825 3.944l-.065 4.834-.908.827-.972-.636c.778-1.145.518-2.481.194-3.626-.745-1.081-.842-1.526-2.236-1.59-1.654-.318-2.853-.763-4.96-2.226l-.778.127c-.454.806-.908 1.357-1.945 1.845l-2.14-.127s-4.928-1.082-4.928-1.146c0-.063-.064-.763.066-.826.13-.064 1.685-.064 1.815-.064 1.037.318 3.242.318 3.242.318l-.065-1.845 3.306-.19c-.67-2.29-.886-3.754-3.955-4.262l-9.596.254.13 1.336c-2.399-.318-6.742-.375-8.961.36-1.297.128-3.163.785-4.006.785l-.972-.254c-.649-.191-.649-.382-.39-.955 4.15-.318 4.799-.636 6.03-1.208.066-.381-.453-1.209-.648-1.272-2.593-.127-4.668.063-5.38-.064-1.103-.318-2.595-.89-2.595-.954s-.194-1.018-.13-1.018c.065 0 1.687.446 1.751.446 1.75.317 4.798.19 5.511-.191l.065-1.4c-.065-.636-.518-1.208-.648-1.272s-2.853-.381-3.826-.381c-1.577-.276-1.34-1.06-1.361-1.845z" fill="#520" stroke="#2b1100" stroke-width=".58"/><path d="m761.518 173.317c1.47.467 2.55.615 4.734.763l3.306-.19c-.67-2.29-.886-3.754-3.955-4.262l-9.596.254.13 1.336c2.918 1.081 4.344 1.675 5.381 2.1z" fill="#fff" stroke="#663d19" stroke-width=".58"/><path d="m570.955 189.783-17.341-64.629 26.461-32.056 37.105 21.182 6.29 68.485c-18.933 1.403-31.2 3.225-52.515 7.018z" fill="#000090" stroke="#000090" stroke-width=".543"/><path d="m508.898 135.922 6.35 4.937-1.19 8.634 8.175-3.4 6.486 4.93.888-7.942 6.71-2.636-5.548-5.323 1.235-7.895s-8.067 2.92-8.071 2.853c-.005-.067-5.797-4.903-5.862-4.832-.064.071-1.328 7.497-1.328 7.497z" fill="#fffa00" stroke="#ffc700" stroke-width=".543"/><path d="m509.04 135.98 27.205 4.402-6.77 2.774-6.538-4.656s5.838 12.316 5.766 12.254c-.073-.063-6.187-4.543-6.405-4.732l.57-7.518s-8.677 10.914-8.681 10.847c-.004-.068 1.262-8.572 1.262-8.572l-6.41-4.799z" fill="#ffc500"/><path d="m516.657 132.905 6.306 5.344-4.918-12.98z" fill="#ffc700"/><path d="m523.843 130.35c.073.064-.965 7.89-.897 7.885.635-.856 9.032-10.839 8.964-10.834-.069.004-7.926 3.009-8.067 2.95z" fill="#ffc700"/><path d="m768.138 124.946 1.598 7.799-6.581 5.855 8.47 2.575 1.709 7.88 5.897-5.516 6.85 2.232-.733-7.587 6.13-5.261s-8.073-2.874-8.032-2.927c.04-.054-1.2-7.424-1.296-7.41s-5.94 4.896-5.94 4.896z" fill="#fffa00" stroke="#ffc700" stroke-width=".58"/><path d="m768.207 125.08 17.86 20.597-6.987-2.165-1.928-7.703s-3.64 13.123-3.654 13.03c-.014-.095-1.735-7.395-1.777-7.678l5.376-5.392s-13.791 2.857-13.75 2.803c.04-.054 6.595-5.76 6.595-5.76zm7.948 2.362 1.298 8.083 4.779-13.047zm7.195 2.568c.014.094-5.87 5.367-5.815 5.407 1.042-.247 13.943-2.494 13.889-2.534-.056-.04-8.005-2.739-8.074-2.873z" fill="#ffc700"/><path d="m553.74 125.405c9.418-4.502 19.989-8.015 31.137-9.546 10.715-1.533 21.438-1.665 32.442-1.642 0 0 1.441 16.852 1.441 16.994-8.649.07-15.094-.09-30.352 1.884-15.172 2.104-21.421 3.907-30.647 7.443l-4.02-15.133zm8.065 29.833c-.145 0 4.765 17.827 4.765 17.827 9.057-2.286 18.26-4.007 27.46-5.304 9.203-1.296 18.989-2.034 27.902-2.623l-1.578-17.388c-9.394-.566-20.1-.566-29.783.707-9.682 1.273-19.084 3.528-28.766 6.78z" fill="#e61717" stroke="#e61717" stroke-width=".58"/><path d="m518.57 210.288h262.876v168.562c-6.682 65.645-69.776 114.715-127.429 114.34-62.234 2.716-131.056-48.227-136.019-114.902l.573-168z" fill="#fff" stroke="#e61717" stroke-width="1.739"/><path d="m524.037 216.186h251.918v161.537c-6.403 62.91-66.867 109.934-122.117 109.575-59.64 2.602-125.593-46.217-130.35-110.114l.55-160.998z" fill="#e61717" stroke="#e61717" stroke-width="1.667"/><g fill="#fff"><path d="m574.772 217.046h50.097v53.846h-50.097z"/><path d="m725.336 378.866.013 53.246 28.269.132c13.652-20.451 19.617-40.463 20.9-53.366-.22 0-48.986-.024-49.182-.012z" stroke="#fff" stroke-width=".594"/><path d="m675.242 432.682.008 51.127c21.718-4.37 39.495-15.213 49.62-22.526l-.083-28.622zm-100.122-.004.104 28.56c17.066 12.046 36.556 19.36 49.536 22.07l-.167-50.611-49.473-.02z" stroke="#fff" stroke-width=".589"/><path d="m524.948 378.885c1.592 20.85 10.966 39.528 20.328 52.607l29.217.608.005-53.237z" stroke="#fff" stroke-width=".594"/><path d="m524.674 270.892h50.097v53.846h-50.097z"/><path d="m624.869 270.892h50.097v53.846h-50.097z"/><path d="m674.966 216.801h50.097v53.846h-50.097z"/><path d="m725.063 270.892h50.097v53.846h-50.097z"/><path d="m574.772 324.738h50.097v53.846h-50.097z"/><path d="m674.966 324.738h50.097v53.846h-50.097z"/><path d="m624.869 378.584h50.097v53.846h-50.097z"/></g><path d="m699.508 153.402c-.167.201-.561-2.361-.694-2.786-.173-.69-.53-1.904-.948-3.499 1.258 1.918 1.9 4.303 1.642 6.285z" fill="#cca300" stroke="#cca300" stroke-width=".58"/></g></g></svg>