<svg height="600" viewBox="-50 0 900 600" width="900" xmlns="http://www.w3.org/2000/svg"><path d="m-50 0h900v600h-900z" fill="#fff"/><path d="m384.8 498.2c-.1-.1-.2-.1-.3-.2l-.1-.1c-.6-.5-1.1-1.1-1.6-1.6-1.3-1.5-3.1-3.7-4.7-5.7-3.1-3.9-5.7-7.2-6.2-7.9l-.8-1-.8 1c-.5.6-3.1 4-6.2 7.9-1.6 2-3.4 4.2-4.7 5.7-.5.6-1 1.1-1.6 1.6l-.1.1c-.1.1-.2.2-.3.2h-.1l-2-.2 1-.8.9.6c-.1-.2-.2-.3-.3-.5-.3-.4-.6-.8-.9-1.1-.8-.9-2-2-2.9-2.8-2-1.9-4.1-3.6-4.1-3.6l14.4-10.6-5.7-2.6 3-3.4 10.4 4.5 10.4-4.5 3 3.4-5.7 2.6 14.4 10.6s-2.1 1.7-4.1 3.6c-.9.8-2.1 1.9-2.9 2.8-.4.4-.7.8-.9 1.1-.1.1-.2.3-.3.5l.9-.6 1 .8-2 .2zm25.9-16c-10.9 0-18.3-4.9-18.6-5.1 9.5-4.5 17.7-6.8 24.4-6.8h.1c5.7 0 9.2 1.7 11.1 3.1s2.8 3 2.9 3.1c-6.4 3.9-13.1 5.7-19.9 5.7zm-79.2 0c-6.8 0-13.5-1.9-19.9-5.6 0 0 .8-1.6 2.9-3.1 1.9-1.4 5.4-3.1 11.1-3.1h.1c6.7 0 14.9 2.3 24.4 6.8-.4.2-7.8 5-18.6 5zm108.6-6.5c-1.1 0-2-.6-2.3-1.4s-.2-1.8.3-3.1c.8-2 2.6-4.1 5-4.3h.4c.5 0 1.1.1 1.6.4 0 0 .2 2.1-.4 4.2-.3 1.2-.8 2.2-1.4 2.9-.8.8-2 1.3-3.2 1.3zm-138 0c-1.3 0-2.4-.5-3.2-1.3-.6-.7-1.1-1.6-1.4-2.9-.5-2-.4-4-.4-4.2.5-.2 1-.3 1.6-.4h.1c2.5 0 4.5 2.2 5.3 4.3.5 1.2.6 2.3.3 3.1s-1.2 1.4-2.3 1.4zm86.3-6c11.4-21.5 23.2-23.8 27.7-23.8 1.5 0 2.6.2 2.7.3v.1s.7 4.8-2.6 9.9c-3.1 4.8-10.4 11-27.8 13.5zm-34.6 0c-17.4-2.5-24.7-8.8-27.8-13.6-3.3-5.1-2.6-9.9-2.6-10 0 0 1.1-.3 2.7-.3 4.5.1 16.3 2.4 27.7 23.9zm70.2-3.4c-3.5 0-7.3-.3-11.5-.8 9.2-8.9 17.9-10.8 23.6-10.8h1.2c4.5.2 7.6 1.6 7.8 1.6 0 .1-.1 1-.6 2-.5 1.1-1.5 2.7-3.7 4.1-3.7 2.6-9.4 3.9-16.8 3.9zm-105.8 0c-7.4 0-13.1-1.3-16.8-3.8-2.1-1.5-3.2-3-3.7-4.1-.5-1-.6-1.9-.6-2 .2-.1 3.2-1.4 7.8-1.6h1.2c5.7 0 14.4 1.9 23.6 10.8-4.2.4-8.1.7-11.5.7zm141.1-1.4c-4.3-.1-7.3-.7-8.9-2-.8-.6-1.2-1.4-1.1-2.1.2-.9.9-1.8 2.2-2.8 3.6-2.7 8.8-4.1 15.7-4.2h2.4c8.2.2 15.5 2 15.5 2.1-6.7 6.7-17.4 9.1-25.3 9.1zm-177 0c-7.8 0-18.6-2.4-25.3-9.1.1 0 7.3-1.9 15.5-2.1h1.5c7.3 0 12.9 1.4 16.7 4.2 1.3 1 2 1.9 2.2 2.8.1.7-.3 1.5-1.1 2.1-1.7 1.3-4.7 1.9-8.9 2zm202.9-13c-.9 0-1.6-.6-1.8-1.2-.2-.7-.2-1.6.2-2.6s.9-1.9 1.7-2.6c.5-.5 1.4-1.2 2.5-1.2.5 0 .9.1 1.3.3 0 .1.1 1.9-.3 3.7-.2 1.1-.6 1.9-1.1 2.5-.6.7-1.5 1.1-2.5 1.1zm-228.3 0c-1 0-1.9-.4-2.5-1.2-.5-.6-.9-1.4-1.1-2.5-.4-1.8-.3-3.7-.3-3.7.4-.2.8-.3 1.2-.3 1.2 0 2 .6 2.6 1.2.8.7 1.3 1.6 1.7 2.6s.4 1.9.2 2.6-.8 1.3-1.8 1.3zm169.8-1.3c-1.1 0-2-.6-2.3-1.4s-.2-1.8.3-3.1c.8-2 2.6-4.1 5-4.3h.4c.5 0 1.1.1 1.6.4 0 0 .2 2.1-.4 4.2-.3 1.2-.8 2.2-1.4 2.9-.8.8-1.9 1.3-3.2 1.3zm-111.2 0c-1.3 0-2.4-.5-3.2-1.3-.6-.7-1.1-1.6-1.4-2.9-.5-2-.4-4-.4-4.2.5-.2 1-.3 1.6-.4h.1c2.5 0 4.5 2.2 5.3 4.3.5 1.2.6 2.3.3 3.1s-1.2 1.4-2.3 1.4zm-28.5-1.2c-15.7-.6-23.9-5-28-8.7-2.3-2.1-3.6-4.1-4.2-5.4s-.9-2.2-.9-2.4c0 0 1.5-.5 3.9-.6h.4c5.2-.1 16 2.2 28.8 17.1zm168.2 0c12.4-14.5 22.9-17 28.1-17.2h1.1c2.3 0 3.8.5 3.9.6 0 0-.2 1-.9 2.4-.7 1.3-1.9 3.4-4.2 5.4-4.1 3.8-12.2 8.3-28 8.8zm-151.2-1.6c-12.7-1.9-19.8-7.4-23.6-11.6-4-4.4-5.2-8.5-5.2-8.7 0 0 1.6-.4 3.9-.5h1.1c6.4.2 17.9 3.1 23.8 20.8zm134.1 0c5.9-17.8 17.5-20.7 23.9-20.8h1.1c2.3.1 3.9.5 3.9.5s-1.2 4.2-5.2 8.7c-3.8 4.3-11 9.7-23.7 11.6zm65-6.1c-7 0-12.1-1.4-12.1-1.4 0-.1 5.5-8 16-10.1 3.1-.6 6.2-.9 9.3-.8 6.1.1 10.4 1.3 10.5 1.3v1c-.1.6-.3 1.5-1 2.5-1.2 1.8-4.1 4.4-10.7 6-3.8 1.1-7.8 1.5-12 1.5zm-264 0c-4.1 0-8.2-.5-12-1.4-6.6-1.7-9.5-4.2-10.7-6-.7-1-.9-2-1-2.5-.1-.4-.1-.7 0-1.1 0 0 4.4-1.2 10.5-1.3 3.1-.1 6.2.2 9.3.8 10.5 2.1 16 10.1 16.1 10.1-.2 0-5.2 1.4-12.2 1.4zm234.7-10.6c-1.1 0-2-.5-2.3-1.4-.3-.8-.2-1.8.2-3 .8-2 2.7-4.1 5-4.3h.4c.5 0 1.1.1 1.6.4 0 0 .2 2.1-.4 4.2-.3 1.3-.8 2.2-1.4 2.9-.8.7-1.9 1.2-3.1 1.2zm-205.4 0c-1.3 0-2.4-.5-3.2-1.3-.6-.7-1.1-1.6-1.4-2.9-.5-2-.4-4-.4-4.2.5-.2 1-.3 1.6-.4h.1c2.5 0 4.5 2.2 5.3 4.3.5 1.2.5 2.2.2 3-.2.9-1.1 1.5-2.2 1.5zm-22.1-3.1c-.1 0-6-1.5-12-5.2-5.5-3.4-12.3-9.5-13.2-18.8 0 0 .5-.1 1.3-.2h.3c1.7 0 5 .5 9.1 3.6 5.4 4 10.2 10.9 14.5 20.6zm249.5 0c4.3-9.7 9.1-16.7 14.3-20.6 3.7-2.8 6.8-3.5 8.7-3.6h.7c.4 0 .9.1 1.3.2-.8 9.4-7.6 15.4-13.2 18.8-5.8 3.7-11.6 5.2-11.8 5.2zm-235-.5s-4.2-1.7-9.5-6.1c-4.9-4.1-11.7-11.5-16.7-23.3 0 0 1.1-.6 2.9-.7h.8c2.4.1 6.1 1.1 10.2 5.5 4.6 5 8.7 13.3 12.3 24.6zm220.6 0c3.5-11.3 7.7-19.6 12.4-24.6 4.1-4.4 7.7-5.4 10.1-5.5h.8c1.7.1 2.8.7 2.9.7-5 11.9-11.8 19.2-16.7 23.3-5.2 4.4-9.4 6.1-9.5 6.1zm37.4-1.1c-1.8 0-3-.4-3.5-1.2-.6-1 .1-2.3.4-2.7 1.3-1.9 4.3-3.8 8.1-3.8h.2c.8 0 1.6.1 2.4.3 0 0 .2 1.9-.6 3.7-.5 1.1-2.2 3.7-7 3.7zm-295.4 0c-4.8 0-6.5-2.6-7-3.7-.8-1.8-.6-3.7-.6-3.7.8-.2 1.6-.3 2.4-.3h.2c3.8 0 6.8 1.9 8.1 3.8.3.4 1 1.7.4 2.7-.5.8-1.7 1.2-3.5 1.2zm306.1-13.5c-2.9 0-4.7-.2-4.7-.2s.1-3.5 3.2-6.9c2.9-3.2 9.2-7.1 22.5-7.5 0 0-.4 3.1-1.8 6.2-1.3 2.9-3.7 6.6-8 7.4-4.4.9-8.5 1-11.2 1zm-316.8 0c-2.7 0-6.8-.2-11.1-1s-6.7-4.4-8-7.4c-1.4-3.2-1.8-6.2-1.8-6.3 13.3.4 19.6 4.3 22.5 7.5 3 3.3 3.2 6.7 3.2 6.9-.1.2-2 .3-4.8.3zm302.9-13.8c0-.1-.7-7.6-.7-15.1s8-10.5 8.3-10.6c0 .2-.4 2.7-.8 5.8-.3 2.4-.8 6.6-.8 8.6 0 2.1-1.5 4.6-3 7.1-1.4 2.3-2.9 4.2-3 4.2zm-289.1 0c-1.1-1.4-2.1-2.8-3-4.2-1.6-2.4-3-5-3-7.1 0-2-.5-6.3-.8-8.6-.4-3-.7-5.5-.8-5.8.3.1 8.3 3.1 8.3 10.6.1 7.5-.7 15-.7 15.1zm299.5-.7c-.1 0-.3 0-.4-.1-.2-.1-.3-.3-.4-.4-.2-.5-.2-1 0-1.8.3-1.4.9-3.2 2-5.7 1.8-4 4.1-8.2 4.3-8.6 2.3-2.8 4.7-5.4 7.2-8 2.3-2.3 4.5-4.1 6.5-5.5 2.5-1.7 4.4-2.5 6.1-2.6.5 0 1 .1 1.4.2 0 0 .4 3.2.1 7.2-.4 5.3-1.7 9.2-3.9 11.7-2.4 2.8-6.5 5.9-11.6 8.8-4.6 2.6-8.7 4.4-11.1 4.8zm-309.8 0h-.2c-2.4-.4-6.5-2.2-11.1-4.8-5.1-2.9-9.2-6-11.6-8.8-2.2-2.5-3.5-6.5-3.9-11.7-.3-3.7.1-6.9.1-7.2.4-.1.9-.2 1.3-.2 1.8 0 3.6.8 6.2 2.6 2 1.4 4.2 3.2 6.5 5.5 4 4 7.2 7.9 7.2 8 .3.5 2.5 4.6 4.3 8.6 1.1 2.5 1.8 4.4 2 5.7.1.8.2 1.3 0 1.8-.1.2-.2.4-.4.4-.1.1-.2.1-.4.1z" fill="#2f4712"/><path d="m648.8 95.5-2.4.9-.9.4-2.9-.2-2.7 1.3-4.7 3.2-.2.2-1.8.5-1.6-.7-.9.4-.3 1.9-.9 1.4-1.1.8-3.8.4-3.2 1.6-4.2-1.1-1.9.8-4.1 3.7-2.1 1h-.7l-2.8-.1-1.2.4-1.8 1.7-3.3.3-1 .7-1.6 3.3-1.8 1.8-1 .2-1.1-.4-.8.1-.4 2.1-.8.9-2.2.8-1.6 1.2-1.6.8-2.1-.1h-.5l-2.1 1.1-3.9.3-1.6 1.5-.4.3-.8.5-1.2.7-.3.2-1.5-.3-1.8.7-.7-1.1-1.2.7-1.6.1-2-.9-1.5-.7-1.1.2-.4 1.9v.2l-1.2 1.6-2.2 1.3-.3.4-2.5 3.2-4.7 5-4 2-4.1 1.3-2.9 2.4-7.6 3.8-12 6-2.5.8-3.5.6-6.3 2.3-5.5 1.7-.3.1-1.1.3-7.8 2.4-3.6-.4-2.2.8-5.6-.6-3.9.1-2.5.5-4.6 2.2-7.8 3.8-2.6 2.4-4 2.1-4.7 1.5v-2.1l-1.6.5-1.2.4-3.8.6h-2.1l-1.3-.4-.2.1-7.8 2.6-8.7.8-4.4 1.4-3.3-.1-2 .6-4 .5-1.4-.4-.3-.1-11.8.5-5.4-.6-2.6.6-4.3-1.4-6.3-.7-1.5-.4-3.3-1-1.5.9-1.1.1-2.7-1h-1l-2.2.8-1.3-.3-1.2-.9-2.8-.4-1.7-1.4-9.4 1.2-2.6-.8-8.6-2.5-1.4.1-1.7 1.3-2.2.8-2.2.6-3 .1-3.5-.9-3.6-1.7-1.3-.3-3 .3-.9.1-5.5-2.9-7-4.4-4.8-2.3-1.8-.3-.2.9.9 2.8.3 2.8-.1 2.6v1.6l.4 1.4 1.7 1.9.7 1.9.5 5.3v5.4l-.8 8.6-.3 1.3-1 4.4-.9 4.1-3.5 10.8-1 1.3-2.4 1.6-5.4 3.7-4 2.3-1.3.5-3.2.2-2-.1-2.5-1.4-2.5-.6-3.2-2.3-3.6-.7-3.9-2.3-1-1.2-2.1-.2-3-.9-1.1-.3-.8-.2-3.8-.1-3.5-1.6-1.9-.4-2.5-.1-2.7 1.2-1.4.6-1.7-.7-1.2.1-1.4 2.1-.2.3-1 .5h-2.1l-1 .4-1.4.6-1.2.5-.6.3-.5-.2-.6.1-.8.2-1.4-.8-.8-.4-1.3-.3-.7.5-.1 2.3-.6 1.4-2 1.7-2 1.8-1.4 2-3.7 8.4-2.3 3.4-.7.8-2.4 2.7-2.1 1.7-4.9 3.8-4.7 1.7-4 .8h-2l-3.7-.5-3.3-1-3.6-2.3-4-3.2-5.8-5.7-.8-.5-.2-.1-1.8-1.2h-1.4l-.5.9-.3 1.3-.2 1.1-.7 6.4v.4l.3 2.6 4.4 6.1 1.4 3.3.2.4.9 1.5.7 1.2.1.1 1.5 4.5-1.1 2.5.5 1.7-1.3 1-.2 1.5 4 5 .9 2.2-1 3-1.5 1.7-.4.5.2 1.3 1.8 1.6 3.1 2.8 1.6 4.1 1.3 1.1 1.5-.3.8.6h1.2l1.2 1.2.8.4 1.2.6 1 1.3.2 3.9 1.8 4.9v3l1.1 1.9.4 1.5-.6 4.1 1.4 1.3 1.6-.3 1 .2 1.6 1.4 2 3 1.9-.3 1.2.6 5.9 5.3 1.3.7h.1l1 .5 1.2 1.2 1.9-1.2h.2l2-.2.9.6 1.7 1.1h2.2l4.8 1.5 2.1.5 4.3 2.6 1.8 1.1 1.1.9 1.4 1.2 2.8 1.2 2.4.6 1.3.3 1 .4v-.1.1l5.3 2 2.9.7 2.6 1 1.9.7h1.4l2-1.7 1.9-.1 1.6.4 1.6-.3 2.5-1.5.5-.7 1.8-.8 5.9-.7 1.7.6 4.5-1.9 3 .8 2.6-.9 5.8 1.3 1.5 1.1 1.7 2h2.1l-.8 1.3 2.5 2.6 2.3 3.4.2.5 1.7 4.9 1.2 1.7.9 2.4v1.6l-1.3 1-.2.6-.1.2.3.7.5-.3 1-.5 1.2-.2 2.1.2 1.4.1 2.2-1.1 1.4-.7 2.3 1h2.5l1.1.5 3 1.4 1.5.1.6-.4.4-.9-.2-1-1.1-1.3-2.5-2.9-1-1.5-.8-2.2-.2-2.8-.2-1.9.3-2.5.7-.9.5-2 .1-.5 1.4-1.9 3.7-2.4 4-3.6 3.2-2.1 3.3-1.4.1-.4.4.1 8.3-2.8h.1l3.7-.6 24.9 1.8.9-.3.8-2.3.4-.4.3-.3 2.7-1.2 1.3-.2 3.6.9 1.5.4 2.3-1.3h1.7l3.4-1.9 2.1.1.8-.3 4.1-3 4-1.1 1-.5.4-.2 4.1-2.1 2.6-2 2.2-1.2 2.4-.6 6.4-.4 1.3-2.1 2.7-.4 1.7-1.9 1.9-.8 1.4-2 1.1-1.6 1.6-.9 5.1-.3 6 .7.8-.5 1.4-4.9 1.4-.9 3.9-5.6v-3.7l.6-2.4-.4-4.4.5-4.4 2.4-5.6 2.1-2.3 3.4-2.3 1.7-.8 2.4-.4.4-.1.6-.1 8.4-.1c.1-.1 3.1 0 3.1 0h2.8l7.1 1.3.5.1 2.4.8 2.8 2.2 2.9 2.9.6.5 1.9.8.6.3 1.6-.3 2.2-1.2 1.7-1.4 2.3-1.3.1-.1 1.3-1.9.5-.8 4.4-1.7 5.2-.3.6-.3.3-.2 1.4-1.6h1.3l3.1 1.1 2.2-.4 1.8.7 1.4-.2 2.6-.3 2.8 1.9 1.6.2 5.7 3.3h.5l.3.1.7-.2 1-.3h.1l.1.2.6.9.9.1 1-1.4-.4-.6-.2-.2-2-.4-1.8-3.1 1.7-1.9-2.7-3.3-.5-.6-.2-.2-.9-1.4-4.7-7.2-6.2-4.9-2.2-2.7-.8-.6-3.3-3.4-2.4-3.1-.3-.7-.5-1.1-1.4-3.1-2.5-1.9-2-2.2-.1-.1-4.1-5.6-.7-.9-1-.6h-2.1l-.2-.2-.1-.1.1-.1 1-1 1.1-.3.5-1.1-2.1-6.1v-.2l-.2-1.9 1.7-8.9.2-1.1 2.9-6 1.8-1.5 2-3.9 1.7-2.5 1.6-1.6.3-.2 2.9-1.8 2.5-.3 2.3-.3 4.1 1.3 3.9-.1.8-.1 1.8-.2 2.9-.9 1.4-.8.7-1.1 1.5-5 .5-1.6.9-1.7 5.3-6.1 4-3.7 9-6.6 4.4-2.6 2.3-1.3 20.1-8.9 5.2-5.3 2.7-2.8 4.8-3.2 5.6-2.3 4.9-3.8 1.1-1.3 1.3-4.3 1.1-.3 1-2.2.3-.6 4-2.8.4-.2 15.4-7.7 2.2.3 1.2-1.8 4.5-.8.8-.1 1.1-.6.9-1.6v-.3l.1-4.3 1-1.2.5-2.8.5-.7.5-.7 1.5-.8-.2-.5z" fill="#d87503"/></svg>