<svg width="48" height="48" viewBox="0 0 48 48" fill="none" xmlns="http://www.w3.org/2000/svg">
<g clip-path="url(#clip0_983_15227)">
<path d="M40.9971 7.03812C36.6334 2.67449 30.651 0 24 0C17.3842 0 11.3666 2.67449 7.03812 7.03812C2.67449 11.3666 0 17.3842 0 24C0 30.6158 2.67449 36.6334 7.03812 40.9619C11.3666 45.2903 17.3842 48 24 48C30.6158 48 36.6334 45.3255 40.9619 40.9619C45.2903 36.6334 48 30.6158 48 24C48 17.3842 45.3255 11.3666 40.9971 7.03812ZM40.1877 40.1877C36.0352 44.3402 30.3343 46.9091 24 46.9091C17.6657 46.9091 11.9648 44.3402 7.81232 40.1877C3.65982 36.0352 1.09091 30.3343 1.09091 24C1.09091 17.6657 3.65982 11.9648 7.81232 7.81232C11.9648 3.65982 17.6657 1.09091 24 1.09091C30.3343 1.09091 36.0352 3.65982 40.1877 7.81232C44.3402 11.9648 46.9091 17.6657 46.9091 24C46.9091 30.3343 44.3402 36.0704 40.1877 40.1877Z" fill="#35495C"/>
<path d="M44.6566 23.8241C44.551 12.4928 35.331 3.3784 23.9997 3.3784C12.6683 3.34321 3.44835 12.4928 3.34277 23.8241L12.8091 14.3579L15.9762 17.525L9.07884 24.4576H38.9557L32.0231 17.525L35.1903 14.3579L44.6566 23.8241ZM23.9997 20.2699L15.202 11.05H21.0437V6.47517C21.0437 5.27869 22.3809 4.32854 23.9997 4.32854C25.6184 4.32854 26.9557 5.27869 26.9557 6.47517V11.0148H32.7973L23.9997 20.2699Z" fill="#35495C"/>
<path d="M26.5685 35.6481C26.1111 35.3314 25.5128 35.0851 24.7738 34.8387C24.2108 34.6628 23.7885 34.4868 23.4366 34.3109C23.0847 34.1349 22.8383 33.959 22.6624 33.7478C22.4864 33.5367 22.416 33.2903 22.416 33.0088C22.416 32.7977 22.4864 32.5865 22.6272 32.3754C22.768 32.1642 22.9791 32.0235 23.2958 31.8827C23.6125 31.7419 23.9996 31.6716 24.4571 31.6716C24.8442 31.6716 25.1961 31.7068 25.5128 31.7771C25.8295 31.8475 26.1111 31.9179 26.3574 31.9883C26.6037 32.0587 26.7797 32.1642 26.9556 32.2346L27.4835 30.6158C27.1668 30.4399 26.7445 30.3343 26.2518 30.1936C25.8295 30.088 25.3721 30.0528 24.809 30.0176V28.3636H23.331V30.1232C23.0847 30.1584 22.8735 30.2288 22.6624 30.2639C22.1345 30.4399 21.677 30.651 21.2899 30.9326C20.9029 31.2141 20.6213 31.566 20.4102 31.9531C20.199 32.3402 20.0935 32.7625 20.0935 33.22C20.0935 33.7478 20.2342 34.2053 20.5158 34.6276C20.7973 35.0147 21.1844 35.3666 21.677 35.6833C22.1697 35.9648 22.768 36.2463 23.4718 36.4575C23.9996 36.6334 24.4219 36.8094 24.7386 36.9853C25.0553 37.1613 25.3017 37.3724 25.4424 37.5836C25.5832 37.7947 25.6536 38.0411 25.6536 38.3226C25.6536 38.6393 25.548 38.8856 25.4073 39.132C25.2313 39.3431 24.985 39.5191 24.6331 39.6598C24.3163 39.8006 23.8941 39.8358 23.4014 39.8358C23.0143 39.8358 22.6272 39.8006 22.2753 39.7302C21.9234 39.6598 21.5715 39.5895 21.2548 39.4839C20.938 39.3783 20.6565 39.2727 20.4102 39.132L19.8823 40.8211C20.1287 40.9619 20.4102 41.0675 20.7621 41.173C21.114 41.2786 21.5011 41.349 21.9234 41.4194C22.3457 41.4897 22.8031 41.5249 23.2254 41.5249H23.2958V43.2493H24.7738V41.3842C24.9498 41.349 25.1257 41.3138 25.3017 41.2434C25.8999 41.0675 26.3926 40.8211 26.7797 40.5044C27.1668 40.1877 27.4483 39.8358 27.6595 39.4487C27.8354 39.0616 27.941 38.6393 27.941 38.1818C27.941 37.654 27.8354 37.1965 27.5891 36.7742C27.4131 36.2815 27.0612 35.9296 26.5685 35.6481Z" fill="#35495C"/>
</g>
<defs>
<clipPath id="clip0_983_15227">
<rect width="48" height="48" rx="4" fill="white"/>
</clipPath>
</defs>
</svg>
