<svg fill="none" height="128" viewBox="0 0 128 128" width="128" xmlns="http://www.w3.org/2000/svg" xmlns:xlink="http://www.w3.org/1999/xlink"><clipPath id="a"><path d="m0 0h128v128h-128z"/></clipPath><g clip-path="url(#a)"><path d="m128 8c0-4.41828-3.582-8-8-8h-112c-4.41828 0-8 3.58172-8 8v112c0 4.418 3.58172 8 8 8h112c4.418 0 8-3.582 8-8z" fill="#221f1f"/><path d="m63.701 22.6133c16.9429 0 31.4458 12.3827 31.4458 34.5971 0 17.9013-10.2211 28.1044-23.5728 30.6086-.5066.1393-.8289.2783-.8289.5566 0 .2319.3223.6029 1.1052.9275 3.0845 1.3913 7.8269 3.8958 11.51 3.8958 4.6502 0 4.8343-3.6639 6.2157-3.6639 1.0127 0 1.9335 1.855 1.9335 4.7767 0 4.3594-3.1306 11.5013-11.2799 11.5013-9.2541 0-18.9227-13.6345-24.1254-13.6345-4.0517 0-4.3279 5.4261-6.1696 5.4261-1.4733 0-2.4402-1.8086-2.4402-3.9885 0-2.1795.9208-4.1738 2.2101-5.7044.5063-.6492 1.3353-1.2521 1.3353-1.6694 0-.3712-.4606-.5565-2.0718-1.5306-10.4054-5.0086-16.1145-15.0722-16.1145-28.5217 0-19.8492 12.523-33.5767 30.8475-33.5767zm-13.6282 27.6869c0 6.3073 1.0589 13.6348 3.8214 19.8029 3.1769 6.6319 8.2414 9.5536 12.7994 9.5536 6.5839 0 12.3851-4.9159 12.3851-17.0667 0-6.8636-1.7037-15.1189-4.512-21.0087-3.0388-6.7246-7.9652-10.8057-12.8917-10.8057-5.709 0-11.6022 5.6581-11.6022 19.5246z" fill="#f9f8f1"/></g></svg>