<svg viewBox="0 0 49 48" xmlns="http://www.w3.org/2000/svg"><path fill-rule="evenodd" clip-rule="evenodd" d="M20.277 44.755c-.739.48-3.075 1.992-7.459 1.231C4.11 44.476 1.95 32.041 9.922 27.54c-.029-.132-.032-1.306-.044-5.955l-.014-4.714v-.11c-.015-4.718-.03-9.456-.052-14.046 0-.084 0-.156.025-.218.143-.357 1.112-.382 7.665-.552 4.576-.12 16.274-.207 19.237-.073.188.008.366.058.532.13.098-.032.105-.031.252-.028.11.002.299.006.662 0 .736-.008 1.432-.013 1.941.186 1.1.467 1.035 1.618.99 2.435-.01.167-.018.32-.016.451l.001.065c.01.834.119 9.48.26 14.445a8.94 8.94 0 0 1-.005.342c-.01.292-.016.489.117.597.095.078.213.153.346.238.54.343 1.326.844 1.819 2.341.426 1.287.417 2.208.366 7.36-.025 2.496-.06 5.984-.06 10.988-.005.99-.06 1.825-1.051 2.27-.504.222-1.05.261-2.35.354l-.527.038c-2.093.12-3.706.205-6.31.205-.469 0-1.191.034-2.17.08-2.27.11-5.921.284-11.012.249-.032 0-.113.052-.247.138Zm19.985-28.398c-.088-4.22-.227-10.875-.172-11.84.081-1.417-.09-1.495-1.325-1.515.052 2.922.16 7.126.253 10.8v.004c.1 3.878.184 7.165.17 7.727 2.09 1.349 2.316 2.76 2.286 5.051l-.227 14.55c-.005.505-.014 1.239-.366 1.85l.049-.004c1.815-.14 1.978-.153 1.985-1.43.016-4.215.04-7.365.057-9.743.051-6.941.054-7.308-.311-8.411-.385-1.17-.955-1.522-1.435-1.82-.52-.32-.936-.578-.898-1.74.004-.137-.026-1.554-.066-3.478ZM37.075 3.493c0-.345-.02-.577-.384-.594-3.566-.161-20.192-.015-25.848.281.02 4.268.034 8.66.048 13.04l.002.648c.01 3.22.02 6.42.032 9.564 7.081-3.467 14.988 2.3 14.575 9.908-.137 2.512-1.261 4.951-3.056 6.71 2.637.021 4.745.075 6.607.123 3.59.091 6.272.16 10.097-.07.93-.431 1.058-.792 1.07-1.98.054-3.464.103-6.187.141-8.34.145-8.036.146-8.11-.32-8.978-.458-.856-1.25-1.345-2.32-1.943a.516.516 0 0 1-.263-.427c-.036-.848-.36-16.329-.38-17.942ZM18.21 27.559c-3.645-1.402-8.695.299-10.807 3.645-1.413 2.24-1.8 5.171-1.011 7.65 1.632 5.13 8.145 7.051 12.408 5.047 3.129-1.47 5.227-4.91 5.102-8.365-.124-3.455-2.465-6.735-5.692-7.977ZM15.44 8.718h-.021a.514.514 0 0 1-.02-1.028 240.08 240.08 0 0 1 13.148-.17c.695.01.655 1.07-.014 1.028a238.009 238.009 0 0 0-13.093.17Zm9.208 4.257c-3.06-.046-6.157-.006-9.208.119a.515.515 0 0 1-.042-1.028 169.27 169.27 0 0 1 9.264-.12.514.514 0 0 1 .507.521.522.522 0 0 1-.521.508Zm-9.208 4.439a99.013 99.013 0 0 1 5.456-.07c.703-.012.677-1.02.015-1.03a99.991 99.991 0 0 0-5.513.072.515.515 0 0 0 .042 1.028Zm21.164 22.349c.185.413.64.652 1.09.705.45.052.902-.052 1.343-.154l.06-15.108c.001-.293-.965-.44-1.155-.435-.473.011-.91.237-1.21.603-.359.44-.307 1.03-.257 1.595.017.194.033.385.033.567-.004 3.365-.012 5.775-.017 7.509-.014 4.167-.015 4.425.079 4.643l.02.043.014.032Zm-23.838-6.556a1.677 1.677 0 0 1-.82.976c-.821.44-1.792.165-2.241-.684-.212-.4-.26-.862-.135-1.268.685-2.212 3.84-1.17 3.196.976Zm-1.014-.305c.244-.812-.897-1.241-1.17-.357a.609.609 0 0 0 .058.459c.173.327.496.413.806.246a.613.613 0 0 0 .306-.348Zm-.94 7.252a.53.53 0 0 1-.05-.748 42.568 42.568 0 0 1 9.045-7.795.53.53 0 0 1 .572.891 41.514 41.514 0 0 0-8.82 7.602.53.53 0 0 1-.747.05Zm7.41-2.941c-.78-.24-1.746.083-2.078 1.159-.264.852.255 1.831 1.11 2.093.857.259 1.831-.267 2.087-1.119.32-1.066-.337-1.895-1.119-2.133Zm.105 1.829c-.09.296-.477.5-.765.41-.291-.088-.498-.474-.407-.767.133-.427.437-.556.759-.46.277.085.552.35.413.817Z" fill="#403E3A"/></svg>