<svg viewBox="0 0 203 40" xmlns="http://www.w3.org/2000/svg"><path fill-rule="evenodd" clip-rule="evenodd" d="M146.033 20c0 7.18-5.965 13-13.325 13-7.359 0-13.325-5.82-13.325-13s5.966-13 13.325-13c7.36 0 13.325 5.82 13.325 13Zm-5.633.108c0 4.368-3.444 7.909-7.692 7.909s-7.691-3.541-7.691-7.909c0-4.367 3.443-7.908 7.691-7.908 4.248 0 7.692 3.54 7.692 7.908ZM0 32.642V7.346h19.138v4.41H5.35v6.027h12.243v4.41H5.35v10.449H0ZM42.411 7.346h5.35v16.427c0 1.845-.44 3.459-1.321 4.842-.874 1.384-2.097 2.462-3.67 3.236-1.574.766-3.406 1.149-5.5 1.149-2.1 0-3.937-.383-5.51-1.149-1.574-.774-2.797-1.852-3.67-3.236-.873-1.383-1.31-2.997-1.31-4.842V7.346h5.35v15.97c0 .964.21 1.82.63 2.57a4.595 4.595 0 0 0 1.804 1.766c.775.428 1.677.642 2.706.642 1.038 0 1.94-.214 2.706-.642a4.51 4.51 0 0 0 1.792-1.767c.428-.749.642-1.605.642-2.569V7.346Zm28.784 0h-5.289v17.638c0 .645-.155.846-.39 1.15v.001c-.06.076-.123.159-.191.257-.358.517-.631.798-1.192 1.083-.56.285-.947.433-1.575.433-.376 0-.547-.029-.791-.07a9.838 9.838 0 0 0-.234-.038c-.54-.082-.84-.246-1.293-.492l-.002-.002-.056-.03-.034-.019-.024-.013c-.998-.54-2.166-1.936-2.166-1.936l-3.466 3.925s2.679 2.408 3.914 2.952c1.244.535 2.628.803 4.152.803 1.713 0 3.217-.326 4.51-.976 1.293-.65 2.302-1.577 3.027-2.78.733-1.201 1.1-2.618 1.1-4.248V7.346Zm15.118 0v25.296h-5.35V7.346h5.35Zm9.962 0v25.296h17.932v-5.06h-12.582V7.346h-5.35Zm60.457.217 6.55 17.268h.234l6.346-17.268h5.931l-10.024 25.079h-4.945l-10.252-25.08h6.16Zm26.584-.217v25.296h18.834v-5.06h-13.484v-5.39h11.691v-4.626h-11.691v-5.16h13.435v-5.06h-18.785Z" fill="#201F1D"/></svg>