<svg width="48" height="48" viewBox="0 0 48 48" fill="none" xmlns="http://www.w3.org/2000/svg">
<g clip-path="url(#clip0_983_15222)">
<path d="M20.4483 43.8014C31.9845 47.5952 43.7276 40.2011 47.2104 29.346C48.1587 26.4081 47.988 25.2001 47.988 25.2001H47.9249C47.8569 25.8401 47.672 26.997 47.0651 28.8804C44.0926 38.1402 33.0307 47.0416 20.6837 42.9724C14.3025 40.8732 11.0882 35.7527 10.3897 33.4583L10.4166 33.4231C15.0958 41.6108 23.9091 45.003 32.6277 42.1339C44.1638 38.3401 49.3787 25.368 45.8878 14.5114C44.9397 11.5736 44.11 10.6951 44.11 10.6951L44.0547 10.7271C44.3708 11.2824 44.8922 12.3272 45.4991 14.2217C48.4717 23.4833 44.6853 37.2633 32.3322 41.3275C25.9509 43.427 20.3788 41.1979 18.4808 39.7579V39.713C27.0143 43.5533 36.1169 41.0507 41.5057 33.5415C48.6328 23.6081 45.3189 10.0199 36.199 3.29943C33.7274 1.4865 32.5359 1.27848 32.5359 1.27848L32.509 1.33609C33.0875 1.5985 34.1193 2.13615 35.706 3.30423C43.4874 9.0278 48.4243 22.4304 40.7898 33.0662C36.839 38.5627 31.0442 40.0763 28.6738 40.0394L28.6485 40.0011C37.784 38.0265 43.6943 30.5877 43.6943 21.3055C43.6943 9.0278 33.119 0 21.8469 0C18.7953 0 17.7128 0.534436 17.7128 0.534436L17.7254 0.596837C18.3449 0.464027 19.4906 0.276815 21.4534 0.276815C31.0709 0.276815 42.8442 8.18135 42.8442 21.3327C42.8442 28.1267 39.0293 32.8037 37.0903 34.1864L37.0492 34.1702C43.2931 27.1298 43.756 17.5996 38.3673 10.0903C31.2401 0.15681 17.4442 -0.852862 8.3243 5.85639C5.85589 7.67251 5.29014 8.7478 5.29014 8.7478L5.33597 8.79099C5.76106 8.31096 6.58439 7.4885 8.171 6.32042C15.9524 0.59684 30.066 -0.0160027 37.7003 10.6247C41.6511 16.1195 41.2734 22.1743 40.507 24.4464L40.4643 24.4592C41.4314 15.0522 36.2701 7.06127 27.5518 4.19228C16.0156 0.398424 4.27242 7.79252 0.789461 18.6476C-0.158715 21.5855 0.0119592 22.7935 0.0119592 22.7935H0.0751695C0.143122 22.1535 0.328018 20.9966 0.93485 19.1133C3.90737 9.85185 14.9694 0.956864 27.3258 5.01954C33.7069 7.11887 36.9212 12.2392 37.6197 14.5338L37.593 14.569C32.9135 6.38123 24.1004 2.989 15.3819 5.85799C3.84574 9.65185 -1.36921 22.624 2.12166 33.4807C3.06983 36.4184 3.89948 37.2969 3.89948 37.2969L3.9548 37.2648C3.63873 36.7096 3.11724 35.6648 2.5104 33.7703C-0.462129 24.5088 3.32425 10.7287 15.6774 6.66445C22.0586 4.5651 27.6307 6.79406 29.5286 8.23415V8.27896C20.9951 4.43869 11.8926 6.94126 6.50379 14.4506C-0.623319 24.384 2.69056 37.9721 11.8104 44.6925C14.2773 46.5136 15.4688 46.7216 15.4688 46.7216L15.4957 46.664C14.9173 46.4016 13.8853 45.8639 12.2987 44.6959C4.51738 38.9723 -0.419462 25.5696 7.21492 14.9338C11.1657 9.43744 16.9606 7.92374 19.3311 7.96054L19.3562 7.99734C10.2206 9.97348 4.31036 17.4124 4.31036 26.6947C4.31036 38.9723 14.8857 48 26.1578 48C29.2095 48 30.292 47.4656 30.292 47.4656L30.2793 47.4032C29.6597 47.5359 28.5141 47.7232 26.5514 47.7232C16.9337 47.7232 5.16054 39.8187 5.16054 26.6675C5.16054 19.8733 8.97537 15.1962 10.9144 13.8137L10.9555 13.8297C4.70702 20.859 4.24873 30.4005 9.63278 37.9034C16.7599 47.8369 30.5558 48.8464 39.6758 42.1372C42.1441 40.3211 42.71 39.2458 42.71 39.2458L42.6641 39.2027C42.239 39.6827 41.4157 40.5052 39.829 41.6732C32.0476 47.3968 17.934 48.0097 10.2997 37.3688C6.34892 31.8741 6.72663 25.8193 7.49305 23.5472L7.53573 23.5344C6.56859 32.9414 11.7298 40.9323 20.4483 43.8014ZM24.2868 14.8794C26.2131 14.8794 27.2974 15.1994 27.2974 15.1994L30.499 21.8191L30.4705 21.8479L26.3491 19.3597C23.9614 17.9196 22.2261 17.1627 20.8181 17.2203C19.3263 17.2492 18.4318 18.4636 18.4318 20.2269C18.4856 24.7376 22.7176 30.2867 26.9212 30.2867C28.6373 30.2867 29.5303 29.7284 30.0533 29.0515L23.8285 22.1358V22.1071H32.3779C32.4946 22.7264 32.5582 23.3551 32.5676 23.9856C32.5676 29.0451 28.7433 33.1206 24.0245 33.1206C19.2837 33.1206 15.453 29.0451 15.453 23.9856C15.4451 18.9549 19.2694 14.8794 24.2868 14.8794Z" fill="#1C1B18"/>
</g>
<defs>
<clipPath id="clip0_983_15222">
<rect width="48" height="48" rx="4" fill="white"/>
</clipPath>
</defs>
</svg>
