<svg viewBox="0 0 223 40" xmlns="http://www.w3.org/2000/svg"><path fill-rule="evenodd" clip-rule="evenodd" d="M16.74.217.754 9.445a1.377 1.377 0 0 0-.293.217A1.491 1.491 0 0 0 0 10.803V29.25c0 .565.314 1.058.78 1.308l15.995 9.228c.236.135.486.2.744.2V40c.257 0 .514-.072.743-.2l15.996-9.235c.464-.25.779-.743.779-1.308V10.803a1.69 1.69 0 0 0-.018-.247 1.481 1.481 0 0 0-.733-1.104L18.276.21c-.021-.01-.04-.022-.06-.032l-.061-.032a1.547 1.547 0 0 0-.75-.143 1.938 1.938 0 0 0-.394.085 1.048 1.048 0 0 0-.272.13ZM6.267 11.34l10.893 6.29a.719.719 0 0 0 .7 0l10.893-6.29a.698.698 0 0 0 0-1.208L17.862 3.84a.719.719 0 0 0-.7 0L6.267 10.13a.698.698 0 0 0 0 1.208Zm-2.55 17.017 10.871 6.275a.696.696 0 0 0 1.044-.6V21.48a.69.69 0 0 0-.35-.6L4.41 14.605a.696.696 0 0 0-1.044.6v12.551c0 .25.13.48.35.6Zm15.689 5.69V21.494c0-.25.135-.479.35-.6l10.871-6.276a.693.693 0 0 1 1.044.6V27.77a.69.69 0 0 1-.35.6l-10.872 6.276a.693.693 0 0 1-1.044-.6Zm40.983-6.412v-5.897a.37.37 0 0 0-.379-.372h-5.174a.38.38 0 0 0-.38.372v5.897a.37.37 0 0 1-.378.371h-3.145a.38.38 0 0 1-.379-.371V12.346a.37.37 0 0 1 .379-.371h3.145a.38.38 0 0 1 .379.371v5.332c0 .208.164.38.379.38h5.174a.381.381 0 0 0 .38-.38v-5.332a.37.37 0 0 1 .378-.371h3.145c.207 0 .372.171.372.371v15.289a.37.37 0 0 1-.372.371h-3.145a.38.38 0 0 1-.379-.371Zm11.615.107.872-2.866.007-.014a.369.369 0 0 1 .357-.265h5.254c.164 0 .307.114.357.272l.858 2.866a.367.367 0 0 0 .357.271h3.295a.378.378 0 0 0 .358-.5L78.5 12.218a.382.382 0 0 0-.357-.258h-4.575a.378.378 0 0 0-.357.258l-5.218 15.288c-.079.25.1.5.358.5h3.294a.375.375 0 0 0 .358-.264Zm3.867-13.259a105.381 105.381 0 0 0 1.622 5.833h.007l.186.593a.373.373 0 0 1-.357.486H74.44a.372.372 0 0 1-.364-.479l.171-.6a127.646 127.646 0 0 0 1.58-5.833h.043Zm24.451 3.252H97.02a.376.376 0 0 1-.371-.307c-.272-1.544-1.323-2.437-2.91-2.437-2.115 0-3.423 1.894-3.423 4.996 0 3.102 1.308 5.003 3.38 5.003 1.594 0 2.667-.922 2.974-2.53a.374.374 0 0 1 .364-.307h3.338c.229 0 .401.2.372.428-.472 3.717-3.123 5.79-7.055 5.79-4.617 0-7.454-3.173-7.454-8.377 0-5.203 2.859-8.377 7.497-8.377 3.989 0 6.626 2.216 6.955 5.711a.376.376 0 0 1-.372.415l.007-.008Zm14.26 10.271h3.959l.007-.007c.308 0 .486-.35.301-.6l-5.647-7.62a.365.365 0 0 1 0-.45l5.196-6.761a.38.38 0 0 0-.3-.608h-3.702a.384.384 0 0 0-.308.165l-4.595 6.754h-.043v-6.54a.382.382 0 0 0-.379-.379h-3.145a.382.382 0 0 0-.379.38v15.288c0 .2.172.371.379.371h3.145a.371.371 0 0 0 .379-.371v-7.012h.043l4.774 7.219a.376.376 0 0 0 .315.171Zm14.845-13.816v13.438a.377.377 0 0 1-.379.378h-1.344a.382.382 0 0 1-.379-.378V14.19a.376.376 0 0 0-.378-.378h-4.725a.376.376 0 0 1-.379-.372v-1.094a.37.37 0 0 1 .379-.371h12.287c.207 0 .379.164.379.371v1.094a.371.371 0 0 1-.379.372h-4.725a.382.382 0 0 0-.379.378h.022Zm19.906 6.783v6.662c0 .2.171.371.378.371h1.344a.37.37 0 0 0 .379-.371V12.346a.38.38 0 0 0-.379-.371h-1.344a.37.37 0 0 0-.378.371V18.4a.38.38 0 0 1-.379.372h-7.426a.37.37 0 0 1-.379-.372v-6.054a.38.38 0 0 0-.379-.371h-1.322a.37.37 0 0 0-.379.371v15.289c0 .2.171.371.379.371h1.322a.376.376 0 0 0 .379-.371v-6.662c0-.2.171-.371.379-.371h7.426a.37.37 0 0 1 .379.371Zm10.678-6.783v4.318a.37.37 0 0 0 .379.371h7.04c.207 0 .372.172.372.379v1.072a.37.37 0 0 1-.372.372h-7.04a.382.382 0 0 0-.379.379v4.703c0 .207.164.378.379.378h7.762c.207 0 .372.172.372.372v1.094a.376.376 0 0 1-.372.378h-9.835a.382.382 0 0 1-.379-.378V12.339c0-.207.172-.372.379-.372h9.585a.37.37 0 0 1 .372.372v1.094a.37.37 0 0 1-.372.371h-7.519a.381.381 0 0 0-.379.38l.007.006Zm25.767 1.909c0-2.459-1.844-4.124-5.833-4.124h-5.882a.37.37 0 0 0-.372.371v15.289c0 .207.165.379.372.379h6.268c3.688 0 5.854-1.737 5.854-4.46 0-2.023-1.036-3.267-3.13-3.738v-.043c1.844-.658 2.723-1.802 2.723-3.674Zm-7.884 2.358a.371.371 0 0 1-.379-.371v-2.731c0-.2.172-.371.379-.371h1.787c1.622 0 2.344.521 2.344 1.715s-.743 1.758-2.48 1.758h-1.651Zm0 6.512a.371.371 0 0 1-.379-.372l.007-.007v-2.895c0-.207.172-.379.379-.379h1.673c1.865 0 2.609.587 2.609 1.873 0 1.215-.722 1.78-2.545 1.78h-1.744Zm27.504-4.982c0 5.16-2.974 8.377-7.748 8.377-4.775 0-7.77-3.224-7.77-8.377 0-5.153 2.974-8.377 7.77-8.377 4.796 0 7.748 3.224 7.748 8.377Zm-11.444 0c0 3.152 1.351 5.003 3.696 5.003 2.344 0 3.674-1.844 3.674-5.003 0-3.16-1.351-5.003-3.674-5.003s-3.696 1.844-3.696 5.003Zm24.102 8.02h3.695a.378.378 0 0 0 .322-.572l-4.532-7.455a.376.376 0 0 1 0-.386l4.246-7.055a.378.378 0 0 0-.322-.572h-3.588a.373.373 0 0 0-.336.208l-2.601 5.153h-.043l-2.623-5.153a.373.373 0 0 0-.336-.208h-3.588a.377.377 0 0 0-.322.572l4.246 7.055a.376.376 0 0 1 0 .386l-4.518 7.455c-.15.25.029.572.322.572h3.681a.38.38 0 0 0 .336-.2l2.802-5.34h.043l2.78 5.34a.38.38 0 0 0 .336.2Z" fill="#201F1D"/></svg>