<svg viewBox="0 0 144 40" xmlns="http://www.w3.org/2000/svg"><path opacity=".7" fill-rule="evenodd" clip-rule="evenodd" d="M6.622 13.433a6.51 6.51 0 0 0-.746 8.155l4.595-4.353a1.1 1.1 0 0 0-.252.481 1.124 1.124 0 0 0 .848 1.346c.214.047.437.031.642-.045.14-.052.267-.133.374-.236l1.676-1.606a6.522 6.522 0 0 1 9.218.238c.258.273.491.569.698.883l-4.652 4.417a1.105 1.105 0 0 0 .262-1.212 1.096 1.096 0 0 0-.803-.686 1.115 1.115 0 0 0-1.016.28l-1.675 1.607a6.518 6.518 0 0 1-9.914-1.115l-1.315 1.25a2.702 2.702 0 1 1-3.72-3.919l5.78-5.485Zm18.454 3.531-1.401 1.332a6.508 6.508 0 0 1-.924 8.325l6.045-5.74a2.696 2.696 0 0 0 .1-3.814 2.695 2.695 0 0 0-3.82-.103Z" fill="#201F1D"/><path fill-rule="evenodd" clip-rule="evenodd" d="m10.53 17.159 7.75-7.356a2.698 2.698 0 1 0-3.716-3.912L6.62 13.433a6.51 6.51 0 0 0-.743 8.154l4.594-4.352a.884.884 0 0 1 .06-.076Zm13.145 1.137a6.504 6.504 0 0 1-.938 8.339l-3.845 3.662-3.806 3.613a2.701 2.701 0 0 1-3.82-.098 2.704 2.704 0 0 1 .088-3.82l7.663-7.274 4.658-4.422Zm41.234-3.249a3.836 3.836 0 0 0-2.639 1.012v-.41a.307.307 0 0 0-.303-.303h-2.54a.301.301 0 0 0-.303.303v13.876a.303.303 0 0 0 .303.293h2.532a.305.305 0 0 0 .295-.293v-5.277a3.953 3.953 0 0 0 2.69 1.051c1.287.02 2.52-.52 3.38-1.479a5.166 5.166 0 0 0 1.357-3.636 5.2 5.2 0 0 0-1.356-3.658 4.486 4.486 0 0 0-3.416-1.479Zm.905 6.71c-.878.87-2.293.87-3.171 0a2.124 2.124 0 0 1-.653-1.573 2.241 2.241 0 0 1 3.824-1.595c.43.418.667.996.653 1.595a2.124 2.124 0 0 1-.653 1.573ZM54.486 15.34h2.534a.3.3 0 0 1 .203.098.295.295 0 0 1 .088.205v9.062a.295.295 0 0 1-.088.205.302.302 0 0 1-.205.09h-2.532a.303.303 0 0 1-.303-.295v-.422a3.873 3.873 0 0 1-2.648 1.024 4.486 4.486 0 0 1-3.423-1.479c-.905-.985-1.356-2.23-1.356-3.687a5.135 5.135 0 0 1 1.356-3.615 4.433 4.433 0 0 1 3.382-1.479 3.996 3.996 0 0 1 2.69 1.037v-.44a.3.3 0 0 1 .302-.304Zm-3.756 6.33c.841.841 2.19.884 3.083.098.425-.415.658-.988.643-1.582a2.235 2.235 0 0 0-2.229-2.253 2.16 2.16 0 0 0-1.596.656 2.253 2.253 0 0 0 .1 3.082Zm25.543-6.623a3.836 3.836 0 0 0-2.647 1.012v-.41a.307.307 0 0 0-.295-.309h-2.54a.301.301 0 0 0-.303.303v13.882a.303.303 0 0 0 .303.293h2.54a.306.306 0 0 0 .295-.293v-5.277a3.953 3.953 0 0 0 2.688 1.051 4.443 4.443 0 0 0 3.382-1.479 5.166 5.166 0 0 0 1.358-3.636 5.194 5.194 0 0 0-1.358-3.658 4.48 4.48 0 0 0-3.423-1.479Zm.905 6.71c-.878.87-2.293.87-3.17 0a2.124 2.124 0 0 1-.654-1.573 2.241 2.241 0 0 1 3.824-1.595c.433.416.672.995.66 1.595.01.594-.23 1.164-.66 1.573Zm-35.37-6.71c1.154 0 2.033.266 2.562.88.398.428.702.934.893 1.486.13.523.19 1.06.178 1.6v5.69a.305.305 0 0 1-.303.303h-2.532a.305.305 0 0 1-.326-.303V19.75c.002-.762-.145-1.278-.336-1.532-.19-.254-.52-.416-1.098-.41-.577.006-.95.174-1.202.518-.252.345-.41.912-.41 1.731v4.646a.295.295 0 0 1-.088.205.301.301 0 0 1-.205.09H36.41a.303.303 0 0 1-.303-.295v-13.98a.303.303 0 0 1 .303-.303h2.527a.301.301 0 0 1 .301.303v5.307a3.55 3.55 0 0 1 .82-.614 3.769 3.769 0 0 1 1.75-.369Zm102.063 5.748a.298.298 0 0 0 .088-.205v-.385c0-1.547-.434-2.82-1.327-3.755-.893-.934-2.114-1.405-3.62-1.403-1.505.002-2.761.463-3.687 1.4-.926.935-1.362 2.201-1.362 3.737 0 1.537.467 2.788 1.417 3.72.951.932 2.231 1.397 3.78 1.395 2.253.015 3.892-1.024 4.697-3.013a.304.304 0 0 0-.234-.414l-2.345-.377a.3.3 0 0 0-.297.127c-.523.746-1.125 1.076-1.905 1.082-.641 0-1.084-.183-1.412-.53a2.074 2.074 0 0 1-.483-1.291h6.477c.08 0 .157-.032.213-.088Zm-6.532-2.126c.276-.82.794-1.17 1.757-1.193.429-.02.85.118 1.184.388a1.9 1.9 0 0 1 .541.805h-3.482Zm-19.394-8.147a1.79 1.79 0 0 1 1.292-.539 1.844 1.844 0 1 1-1.292.54Zm10.438 4.525a3.987 3.987 0 0 0-2.689 1.037v-5.361a.313.313 0 0 0-.088-.215.303.303 0 0 0-.215-.088h-2.532a.3.3 0 0 0-.303.303v13.98a.305.305 0 0 0 .303.303h2.532a.305.305 0 0 0 .303-.303v-.434a3.839 3.839 0 0 0 2.646 1.024 4.485 4.485 0 0 0 3.423-1.479c.905-.977 1.36-2.222 1.358-3.687a5.156 5.156 0 0 0-1.346-3.626 4.44 4.44 0 0 0-3.392-1.454Zm.869 6.71a2.24 2.24 0 0 1-3.825-1.595 2.2 2.2 0 0 1 2.229-2.229 2.165 2.165 0 0 1 1.596.645 2.276 2.276 0 0 1 0 3.182v-.003Zm-11.291-6.417h2.522a.305.305 0 0 1 .303.303v9.052a.305.305 0 0 1-.303.303h-2.532a.303.303 0 0 1-.293-.295v-9.06a.299.299 0 0 1 .303-.303Zm-20.805 3.427a8.516 8.516 0 0 1-1.434-.586.303.303 0 0 1-.135-.279.348.348 0 0 1 .153-.303.84.84 0 0 1 .527-.147c.385 0 .82.166 1.323.545a.303.303 0 0 0 .41-.045l1.253-1.485a.301.301 0 0 0-.05-.439 5.21 5.21 0 0 0-3.192-1.024 3.613 3.613 0 0 0-2.472.88 2.894 2.894 0 0 0-1.012 2.254c0 .778.17 1.405.575 1.831.406.426 1.01.734 1.883 1.057.5.158.983.364 1.444.615a.41.41 0 0 1 .135.358.614.614 0 0 1-.22.494.932.932 0 0 1-.649.205c-.604 0-1.239-.3-1.919-.977a.3.3 0 0 0-.225-.088.292.292 0 0 0-.22.106l-1.319 1.549a.303.303 0 0 0 0 .41 4.775 4.775 0 0 0 3.655 1.605c1.182 0 2.183-.323 2.95-.983a3.253 3.253 0 0 0 1.16-2.563c0-.776-.204-1.433-.673-1.888-.47-.455-1.086-.79-1.948-1.102Zm-7.95-3.427h2.909a.303.303 0 0 1 .266.148.307.307 0 0 1 0 .296l-7.32 13.882a.307.307 0 0 1-.269.162h-2.868a.3.3 0 0 1-.26-.147.306.306 0 0 1 0-.3l3.249-6.056-4.207-7.524a.301.301 0 0 1 .264-.461h2.95c.112 0 .215.062.268.162l2.437 4.625 2.31-4.62a.3.3 0 0 1 .271-.167Zm27.155-.039a2.763 2.763 0 0 0-1.229-.254 3.044 3.044 0 0 0-2.333 1.024v-.428a.293.293 0 0 0-.088-.205.301.301 0 0 0-.205-.09h-2.538a.305.305 0 0 0-.303.303v9.052a.298.298 0 0 0 .09.205.304.304 0 0 0 .205.09h2.532a.303.303 0 0 0 .293-.295V20.35c0-.868.178-1.477.481-1.843.303-.367.74-.564 1.414-.568a2.29 2.29 0 0 1 1.053.281.298.298 0 0 0 .276 0 .295.295 0 0 0 .162-.223l.381-2.372a.3.3 0 0 0-.191-.324Zm-10.536-.254a4.998 4.998 0 0 1 2.38.58c.102.05.167.154.168.268v2.524a.303.303 0 0 1-.488.24 3.048 3.048 0 0 0-1.866-.711 2.28 2.28 0 0 0-1.661.637 2.137 2.137 0 0 0-.651 1.614c-.027.605.21 1.192.649 1.61a2.372 2.372 0 0 0 1.704.614 2.923 2.923 0 0 0 1.823-.69.304.304 0 0 1 .49.24v2.458a.305.305 0 0 1-.168.27c-.781.395-1.645.6-2.52.598a5.121 5.121 0 0 1-3.687-1.466 4.844 4.844 0 0 1-1.513-3.608 4.959 4.959 0 0 1 1.523-3.701 5.288 5.288 0 0 1 3.817-1.477Z" fill="#201F1D"/></svg>