<svg xmlns="http://www.w3.org/2000/svg" fill="none" viewBox="0 0 224 120">
  <rect width="119" height="119" x="0.5" y="0.5" fill="#F9F8F1" rx="59.5"/>
  <path fill="#0A0A0A" fill-rule="evenodd" d="M78.86 55.72c0-12.8-8.57-19.94-18.58-19.94v.01c-10.84 0-18.24 7.91-18.24 19.35 0 7.75 3.37 13.55 9.52 16.43l.5.3c.55.32.73.42.73.59 0 .15-.2.34-.42.55l-.38.4a5.06 5.06 0 0 0-1.3 3.3c0 1.25.57 2.29 1.44 2.29.43 0 .72-.51 1.06-1.12.51-.9 1.15-2.02 2.58-2.02 1.32 0 3.13 1.45 5.19 3.1 2.75 2.2 5.95 4.76 9.07 4.76 4.81 0 6.67-4.12 6.67-6.63 0-1.69-.55-2.75-1.15-2.75-.29 0-.49.26-.75.6a3.24 3.24 0 0 1-2.92 1.52c-1.87 0-4.2-1.07-5.98-1.88a75.8 75.8 0 0 0-.82-.37c-.45-.19-.65-.4-.65-.53 0-.16.2-.24.5-.32 7.9-1.44 13.93-7.32 13.93-17.64ZM54.5 63.15c-1.64-3.55-2.27-7.78-2.27-11.41 0-8 3.5-11.25 6.86-11.25 2.91 0 5.83 2.35 7.62 6.23a29.7 29.7 0 0 1 2.67 12.1c0 7-3.43 9.83-7.32 9.83-2.7 0-5.69-1.69-7.56-5.5Z" clip-rule="evenodd"/>
  <rect width="119" height="119" x="0.5" y="0.5" stroke="#BFDBE0" rx="59.5"/>
  <rect width="119" height="119" x="104.5" y="0.5" fill="#fff" rx="59.5"/>
  <path fill="#3E4348" fill-rule="evenodd" d="M137.74 48.75h-14.98a3.76 3.76 0 0 0-3.76 3.76v14.98a3.76 3.76 0 0 0 3.76 3.76h14.98a3.76 3.76 0 0 0 3.76-3.76V52.5a3.76 3.76 0 0 0-3.76-3.76Zm-.33 17.22c0 .66-.53 1.19-1.19 1.19h-11.94c-.66 0-1.19-.53-1.19-1.19V54.03a1.19 1.19 0 0 1 1.19-1.19h11.94c.66 0 1.19.53 1.19 1.19v11.94Zm-10.08-3.7c0 .35.31.64.7.64h4.86c.18 0 .36-.06.5-.18.12-.13.2-.3.2-.46v-4.54a.63.63 0 0 0-.2-.46.72.72 0 0 0-.5-.19h-4.86a.72.72 0 0 0-.5.2.63.63 0 0 0-.2.45v4.54Zm25.82-3.15h-.02c-.7-.19-1.37-.37-1.88-.6-.97-.41-1.42-1-1.42-1.83 0-1.58 1.56-2.29 3.1-2.29 1.48 0 2.77.6 3.63 1.68l.06.08 1.25-.96-.06-.07a6 6 0 0 0-4.8-2.21c-1.29 0-2.47.34-3.33.96-.97.69-1.48 1.7-1.48 2.89 0 2.78 2.68 3.45 4.83 4 2.18.56 3.51.99 3.51 2.6 0 1.6-1.32 2.64-3.36 2.64a4.76 4.76 0 0 1-4.06-2.02l-.06-.08-1.31.92.05.08a6.2 6.2 0 0 0 5.27 2.59c3.05 0 5.1-1.68 5.1-4.18 0-2.86-2.78-3.6-5.02-4.2Zm14.83-2.22v1.51a4.23 4.23 0 0 0-3.5-1.74c-2.73 0-4.65 2.2-4.65 5.37 0 3.16 1.91 5.35 4.65 5.35a4.2 4.2 0 0 0 3.5-1.74v5.6h1.44V56.9h-1.44ZM164.59 66c-1.56 0-3.24-1.05-3.24-3.97 0-1.91.85-3.95 3.24-3.95 2.06 0 3.39 1.55 3.39 3.95 0 2.4-1.33 3.97-3.38 3.97Zm14.23-8.9v5.62c0 1.97-1.34 3.4-3.2 3.4-1.53 0-2.28-.92-2.28-2.8v-6.23h-1.42v6.52c0 2.44 1.32 3.9 3.54 3.9a4.1 4.1 0 0 0 3.36-1.66v1.43h1.43V57.08h-1.43Zm7.89-.42c-1.41 0-2.81.48-3.84 1.32l-.07.05.73 1.16.08-.07a4.77 4.77 0 0 1 3.06-1.07c.51 0 2.18.1 2.18 1.45 0 1.18-1.38 1.4-2.73 1.62h-.03l-.46.08c-.99.17-3.3.57-3.3 3.12 0 1.95 1.33 3.17 3.48 3.17 1.31 0 2.33-.47 3.04-1.39v1.15h1.4v-7.52c0-1.92-1.32-3.07-3.54-3.07Zm-.77 9.41c-.64 0-2.15-.18-2.15-1.84 0-1.15.7-1.5 2.1-1.76l.43-.08h.01c.87-.16 1.84-.34 2.52-.78v1.5c0 2.18-1.5 2.96-2.9 2.96Zm13-9.03a2.57 2.57 0 0 0-1.44-.38 3.66 3.66 0 0 0-2.9 1.5v-1.31h-1.43v10.22h1.43v-5.47c0-2.42 1.36-3.5 2.7-3.5.4-.01.8.07 1.15.24l.1.05.45-1.3-.06-.05Zm4.94-.38c-2.87 0-4.88 2.24-4.88 5.44 0 3.23 2 5.39 5 5.39 2.12 0 3.4-1.02 4.1-1.87l.06-.07-1.06-.94-.06.08c-.7.9-1.75 1.39-2.96 1.39-2.12 0-3.5-1.48-3.54-3.76h8v-.08c.03-.25.04-.5.04-.74 0-2.86-1.93-4.84-4.7-4.84Zm-3.29 4.38c.2-1.82 1.47-2.99 3.25-2.99 2.17 0 3.07 1.53 3.2 3h-6.45Z" clip-rule="evenodd"/>
  <rect width="119" height="119" x="104.5" y="0.5" stroke="#BFDBE0" rx="59.5"/>
</svg>
