<svg xmlns="http://www.w3.org/2000/svg" fill="none" viewBox="0 0 224 120">
  <rect width="119" height="119" x="0.5" y="0.5" fill="#F9F8F1" rx="59.5"/>
  <path fill="#0A0A0A" fill-rule="evenodd" d="M78.86 55.72c0-12.8-8.57-19.94-18.58-19.94v.01c-10.84 0-18.24 7.91-18.24 19.35 0 7.75 3.37 13.55 9.52 16.43l.5.3c.55.32.73.42.73.59 0 .15-.2.34-.42.55l-.38.4a5.06 5.06 0 0 0-1.3 3.3c0 1.25.57 2.29 1.44 2.29.43 0 .72-.51 1.06-1.12.51-.9 1.15-2.02 2.58-2.02 1.32 0 3.13 1.45 5.19 3.1 2.75 2.2 5.95 4.76 9.07 4.76 4.81 0 6.67-4.12 6.67-6.63 0-1.69-.55-2.75-1.15-2.75-.29 0-.49.26-.75.6a3.24 3.24 0 0 1-2.92 1.52c-1.87 0-4.2-1.07-5.98-1.88a75.8 75.8 0 0 0-.82-.37c-.45-.19-.65-.4-.65-.53 0-.16.2-.24.5-.32 7.9-1.44 13.93-7.32 13.93-17.64ZM54.5 63.15c-1.64-3.55-2.27-7.78-2.27-11.41 0-8 3.5-11.25 6.86-11.25 2.91 0 5.83 2.35 7.62 6.23a29.7 29.7 0 0 1 2.67 12.1c0 7-3.43 9.83-7.32 9.83-2.7 0-5.69-1.69-7.56-5.5Z" clip-rule="evenodd"/>
  <rect width="119" height="119" x="0.5" y="0.5" stroke="#BFDBE0" rx="59.5"/>
  <rect width="119" height="119" x="104.5" y="0.5" fill="#fff" rx="59.5"/>
  <path fill="#003087" d="m166.86 61.26.92-5.79.06-.32a1.2 1.2 0 0 1 1.17-1h.73a13.2 13.2 0 0 0 3.3-.38c1-.24 1.93-.67 2.77-1.26a7.48 7.48 0 0 0 2.09-2.28 10.84 10.84 0 0 0 1.27-3.47c.22-1.03.26-2.1.13-3.14a4.61 4.61 0 0 0-2.45-3.48c.19-.99.19-2.01 0-3a5.34 5.34 0 0 0-1.25-2.34c-1.3-1.48-3.69-2.25-7.08-2.25h-9.32a1.3 1.3 0 0 0-1.31 1.08L154 58.25a.76.76 0 0 0 .18.62.78.78 0 0 0 .59.27h5.77v.03l-.4 2.52a.68.68 0 0 0 .7.8h4.85a1.14 1.14 0 0 0 1.09-.98l.07-.25Z"/>
  <path fill="#003087" d="M163.53 40.15a1.17 1.17 0 0 1 1.16-.99h7.3a15.21 15.21 0 0 1 3.02.3l.58.14.27.09c.34.11.67.25 1 .42.36-2.33 0-3.92-1.27-5.36-1.38-1.57-3.86-2.25-7.08-2.25h-9.31a1.33 1.33 0 0 0-1.31 1.13L154 58.25a.8.8 0 0 0 .18.64.81.81 0 0 0 .61.28h5.75L162 50l1.53-9.85Z"/>
  <path fill="#009CDE" d="m176.88 40.12-.1.55c-1.22 6.31-5.44 8.5-10.8 8.5h-2.73a1.33 1.33 0 0 0-1.3 1.12l-1.4 8.88-.4 2.52a.7.7 0 0 0 .7.8h4.85a1.16 1.16 0 0 0 1.15-.98l.05-.25.88-5.8.06-.31a1.17 1.17 0 0 1 1.15-1h.73c4.69 0 8.37-1.9 9.44-7.42.45-2.3.22-4.23-.99-5.59a4.6 4.6 0 0 0-1.3-1.02Z"/>
  <path fill="#012169" d="M175.59 39.6a7.77 7.77 0 0 0-1.2-.26c-.79-.12-1.6-.18-2.4-.17h-7.3a1.17 1.17 0 0 0-1.16.99L161.98 50l-.04.29a1.33 1.33 0 0 1 1.3-1.13h2.74c5.37 0 9.57-2.18 10.8-8.5l.1-.54a6.55 6.55 0 0 0-1-.42l-.29-.1Z"/>
  <path fill="#009CDE" d="M175.68 70h-5.09a.7.7 0 0 0-.7.6l-2.05 13.07a.43.43 0 0 0 .1.34.42.42 0 0 0 .31.15h2.6a.5.5 0 0 0 .5-.42l.59-3.72a.7.7 0 0 1 .7-.6h1.6c3.35 0 5.3-1.62 5.8-4.84.23-1.4 0-2.52-.64-3.29-.73-.86-2.01-1.29-3.72-1.29Zm.57 4.76c-.27 1.83-1.67 1.83-3.02 1.83h-.77l.54-3.42a.42.42 0 0 1 .42-.37h.35c.92 0 1.79 0 2.22.52.3.33.38.8.26 1.44Z"/>
  <path fill="#003087" d="M139.35 70h-5.09a.7.7 0 0 0-.7.6l-2.06 13.07a.43.43 0 0 0 .25.45c.05.03.11.04.17.04h2.42a.7.7 0 0 0 .7-.6l.56-3.52a.71.71 0 0 1 .7-.6h1.6c3.34 0 5.3-1.63 5.8-4.85.23-1.4 0-2.51-.64-3.29-.72-.87-2-1.3-3.7-1.3Zm.59 4.77c-.28 1.83-1.68 1.83-3.03 1.83h-.76l.53-3.41a.43.43 0 0 1 .42-.37h.35c.92 0 1.8 0 2.23.52.28.31.36.77.26 1.42v.01Zm14.64-.07h-2.43a.42.42 0 0 0-.42.37l-.11.68-.17-.24c-.53-.77-1.7-1.03-2.88-1.03-2.7 0-5 2.05-5.45 4.91a4.63 4.63 0 0 0 .91 3.75c.74.88 1.8 1.24 3.07 1.24a4.66 4.66 0 0 0 3.38-1.4l-.11.69c-.01.06 0 .12.01.18a.43.43 0 0 0 .23.27c.06.02.12.04.18.04h2.2a.7.7 0 0 0 .7-.6l1.3-8.36a.42.42 0 0 0-.41-.5Zm-3.4 4.75a2.72 2.72 0 0 1-2.74 2.33 1.89 1.89 0 0 1-2.03-2.37 2.73 2.73 0 0 1 2.73-2.36 2.05 2.05 0 0 1 1.63.67 2.12 2.12 0 0 1 .4 1.73h.01Z"/>
  <path fill="#009CDE" d="M190.9 74.7h-2.43a.42.42 0 0 0-.42.37l-.1.69-.18-.25c-.53-.77-1.7-1.03-2.88-1.03-2.7 0-5 2.05-5.45 4.91a4.61 4.61 0 0 0 .91 3.75c.74.88 1.8 1.24 3.07 1.24a4.67 4.67 0 0 0 3.38-1.4l-.1.69a.43.43 0 0 0 .23.45c.06.02.12.04.18.04h2.2a.71.71 0 0 0 .7-.6l1.32-8.36a.42.42 0 0 0-.42-.5Zm-3.39 4.75a2.72 2.72 0 0 1-2.75 2.33 1.88 1.88 0 0 1-2.02-2.37 2.73 2.73 0 0 1 3.61-2.2c.28.11.54.29.74.5a2.09 2.09 0 0 1 .42 1.74Z"/>
  <path fill="#003087" d="M167.57 74.7h-2.44a.71.71 0 0 0-.59.31L161.16 80l-1.44-4.8a.71.71 0 0 0-.68-.5h-2.41a.42.42 0 0 0-.4.56l2.7 7.93-2.55 3.59a.42.42 0 0 0 .35.67h2.46a.7.7 0 0 0 .59-.3l8.16-11.78a.42.42 0 0 0 .02-.45.43.43 0 0 0-.4-.22Z"/>
  <path fill="#009CDE" d="m193.78 70.34-2.09 13.32a.43.43 0 0 0 .1.34.43.43 0 0 0 .32.15h2.1a.7.7 0 0 0 .7-.6l2.06-13.07a.42.42 0 0 0-.42-.48h-2.35a.42.42 0 0 0-.42.34Z"/>
  <rect width="119" height="119" x="104.5" y="0.5" stroke="#BFDBE0" rx="59.5"/>
</svg>
