<svg xmlns="http://www.w3.org/2000/svg" fill="none" viewBox="0 0 224 120">
  <rect width="119" height="119" x="0.5" y="0.5" fill="#F9F8F1" rx="59.5"/>
  <path fill="#0A0A0A" fill-rule="evenodd" d="M78.86 55.72c0-12.8-8.57-19.94-18.58-19.94v.01c-10.84 0-18.24 7.91-18.24 19.35 0 7.75 3.37 13.55 9.52 16.43l.5.3c.55.32.73.42.73.59 0 .15-.2.34-.42.55l-.38.4a5.06 5.06 0 0 0-1.3 3.3c0 1.25.57 2.29 1.44 2.29.43 0 .72-.51 1.06-1.12.51-.9 1.15-2.02 2.58-2.02 1.32 0 3.13 1.45 5.19 3.1 2.75 2.2 5.95 4.76 9.07 4.76 4.81 0 6.67-4.12 6.67-6.63 0-1.69-.55-2.75-1.15-2.75-.29 0-.49.26-.75.6a3.24 3.24 0 0 1-2.92 1.52c-1.87 0-4.2-1.07-5.98-1.88a75.8 75.8 0 0 0-.82-.37c-.45-.19-.65-.4-.65-.53 0-.16.2-.24.5-.32 7.9-1.44 13.93-7.32 13.93-17.64ZM54.5 63.15c-1.64-3.55-2.27-7.78-2.27-11.41 0-8 3.5-11.25 6.86-11.25 2.91 0 5.83 2.35 7.62 6.23a29.7 29.7 0 0 1 2.67 12.1c0 7-3.43 9.83-7.32 9.83-2.7 0-5.69-1.69-7.56-5.5Z" clip-rule="evenodd"/>
  <rect width="119" height="119" x="0.5" y="0.5" stroke="#BFDBE0" rx="59.5"/>
  <rect width="119" height="119" x="104.5" y="0.5" fill="#fff" rx="59.5"/>
  <path fill="#000" d="M211.78 64.64c.33 0 .67-.05 1-.14a2 2 0 0 0 .73-.4 1.68 1.68 0 0 0 .57-1.26c0-.23-.04-.47-.13-.68a1.7 1.7 0 0 0-.84-.79 27.48 27.48 0 0 0-1.74-.69 2.88 2.88 0 0 1-.38-.2.84.84 0 0 1-.27-.26.6.6 0 0 1-.08-.34.61.61 0 0 1 .3-.53c.2-.13.44-.2.69-.2.63 0 1.24.24 1.71.67l.56-.82a3.47 3.47 0 0 0-2.22-.77 2.4 2.4 0 0 0-1.53.48 1.48 1.48 0 0 0-.62 1.2c0 .38.13.76.38 1.07.12.14.27.26.43.35a4.3 4.3 0 0 0 1.14.5l.15.05.3.11.27.1a2.4 2.4 0 0 1 .6.31l.12.13c.03.04.06.1.07.15a.71.71 0 0 1-.31.77 1.5 1.5 0 0 1-.9.24 2.7 2.7 0 0 1-1.97-.74l-.56.79c.7.6 1.6.92 2.53.9Zm-7.2-.96a2.08 2.08 0 0 1-2.04-1.36c-.1-.27-.15-.56-.14-.85a2.27 2.27 0 0 1 .62-1.67 2.11 2.11 0 0 1 1.57-.63 2.07 2.07 0 0 1 1.97 1.4 2.47 2.47 0 0 1-.02 1.8 2.1 2.1 0 0 1-1.97 1.31Zm2.1-8.6v4.14h-.02c-.17-.21-.37-.4-.6-.55a3.09 3.09 0 0 0-1.58-.45 3.21 3.21 0 0 0-2.27.91 3.45 3.45 0 0 0 0 4.62 3.36 3.36 0 0 0 3.13.74c.54-.16 1-.5 1.34-.94h.02v1h1.08v-9.47h-1.1Zm-8.17 9.48h1.07v-9.48h-1.07v9.48Zm-1.64-6.34c-.42 0-.84.1-1.2.31-.36.2-.67.5-.9.86h-.02v-1.1h-1.08v6.27h1.08v-3.02c-.01-.39.07-.77.23-1.12.14-.32.38-.58.67-.77.31-.2.68-.3 1.05-.29.13 0 .27 0 .42.02v-1.15h-.26Zm-8.18 5.45c-.41 0-.81-.1-1.17-.3a2.1 2.1 0 0 1-.8-.82 2.3 2.3 0 0 1-.29-1.12c0-.4.1-.8.28-1.14.19-.34.47-.62.8-.82a2.42 2.42 0 0 1 2.31-.02c.34.19.62.47.8.8.2.36.31.76.3 1.17.01.41-.1.81-.3 1.17-.18.33-.46.6-.8.8a2.3 2.3 0 0 1-1.13.28Zm0 .96c.6 0 1.18-.13 1.7-.4.5-.26.91-.66 1.2-1.14a3.45 3.45 0 0 0 0-3.33c-.29-.49-.7-.88-1.2-1.14a3.58 3.58 0 0 0-1.7-.4c-.47 0-.93.07-1.37.24a2.98 2.98 0 0 0-1.73 1.7 3.33 3.33 0 0 0 .69 3.57c.3.29.65.51 1.04.66.44.17.9.25 1.37.25v-.01Zm-4.44-9.21-2.33 7.33h-.03l-2.12-7.33h-1.25l-2.13 7.3h-.02l-2.34-7.3h-1.24l3 9.14h1.12l2.2-7.49h.03l2.18 7.5h1.11l3-9.15h-1.22.04Zm-14.15 2.72a2.6 2.6 0 0 0-1.96.88v-.76h-2.07v6.3h2.07V61.4c0-.28.05-.56.15-.81.09-.2.23-.38.42-.5.2-.1.4-.16.62-.15.2 0 .4.03.58.12.16.09.28.24.34.41.09.26.13.53.12.8v3.28h2.06v-3.77c.01-.42-.04-.84-.17-1.24a1.89 1.89 0 0 0-1.22-1.26c-.3-.1-.62-.14-.94-.14Zm-4.94 0a2.21 2.21 0 0 0-1.33.45c-.2.15-.4.32-.55.52h-.02v-.85h-2.08v6.3h2.08v-2.83c0-.25.06-.5.17-.73.12-.22.3-.4.51-.5.25-.14.53-.2.82-.2h.48v-2.16h-.08Zm-8.67 4.76a1.3 1.3 0 0 1-1-.41 1.67 1.67 0 0 1 0-2.15 1.33 1.33 0 0 1 2.19.31c.12.24.18.5.18.77a1.48 1.48 0 0 1-.4 1.07 1.29 1.29 0 0 1-.97.41Zm1.28-4.64v.67a2.28 2.28 0 0 0-1.8-.79 2.87 2.87 0 0 0-2.73 1.95 4 4 0 0 0 0 2.67 2.88 2.88 0 0 0 1.6 1.7 3.15 3.15 0 0 0 2.23.06c.31-.14.59-.35.8-.62h.03v.67h1.97v-6.3h-2.1Zm-8.67 1.49c.19 0 .38.04.55.12.16.07.3.19.4.33.11.16.19.34.23.53h-2.43c.05-.29.2-.55.43-.74.24-.17.53-.25.82-.24Zm3.21 1.6a3.33 3.33 0 0 0-.4-1.67 2.9 2.9 0 0 0-1.15-1.13 3.39 3.39 0 0 0-1.66-.4 3.5 3.5 0 0 0-2.38.91c-.3.3-.53.65-.69 1.04a3.46 3.46 0 0 0 .01 2.64 3.04 3.04 0 0 0 1.78 1.7 4.2 4.2 0 0 0 3.04-.1c.46-.18.87-.48 1.19-.86l-1.1-1.2a2.05 2.05 0 0 1-1.58.76c-.35.01-.7-.09-1-.28a1.25 1.25 0 0 1-.53-.8h4.41c.04-.2.05-.4.06-.6v-.01Zm-12.96 3.2h6.18v-1.9h-3.95v-7.23h-2.23v9.14ZM125.38 51l6.95 6.74c2.28 2.21.09 4.42 0 4.5L125.38 69c-2.33 2.25-4.64 0-4.64 0l-6.95-6.75c-2.34-2.25 0-4.5 0-4.5l6.97-6.75c2.33-2.25 4.64 0 4.64 0h-.02Zm.26 3.45h.05-.03l-.02.01Zm4.8 6.51.9-.87a.15.15 0 0 0 .03-.04.15.15 0 0 0 0-.11.15.15 0 0 0-.03-.05l-.84-.81-.02-.02-.02-.02-.1-.1s-1-.97-2 0l-1.15 1.11s-1 .97 0 1.94l.1.1s1 .96 2 0l.67-.67.47-.45v-.01Zm-1.63-3.36.03.01.04-.01.01-.02v-.05l-.01-.02-.43-.41-.04-.04-.21-.2-.84-.81-.03-.04-.1-.1s-1-.96-2 0l-3.27 3.12s-1 .97 0 1.94l.1.1s1 .97 2 0l2.77-2.7.47-.45a1.3 1.3 0 0 1 1.5-.31v-.01Zm-3.15-3.05.04.01.03-.01a.06.06 0 0 0 0-.08l-.42-.42-.05-.05-.21-.2-.84-.8-.03-.04-.1-.1s-1-.96-2 0l-3.25 3.15s-1 .97 0 1.94l.1.1s1 .96 2 0l2.76-2.72.47-.45a1.3 1.3 0 0 1 1.5-.32v-.01Zm-2.7 9.4-5.2-5.01s-1-.97-2 0l-.1.1-.04.04-.84.82a.14.14 0 0 0-.05.1l.01.06.04.04.9.87.46.45 5.92 5.74s1 .97 2 0l.09-.09.37-.36 1.25-1.2.47-.46.89-.87a.14.14 0 0 0 .05-.1c0-.02 0-.04-.02-.05a.14.14 0 0 0-.03-.05l-.84-.81-.02-.02-.02-.02-.1-.1s-1-.97-2 0l-1 .96a.15.15 0 0 1-.2 0v-.03Z"/>
  <rect width="119" height="119" x="104.5" y="0.5" stroke="#BFDBE0" rx="59.5"/>
</svg>
