<svg xmlns="http://www.w3.org/2000/svg" fill="none" viewBox="0 0 224 120">
  <rect width="119" height="119" x="0.5" y="0.5" fill="#F9F8F1" rx="59.5"/>
  <path fill="#0A0A0A" fill-rule="evenodd" d="M78.86 55.72c0-12.8-8.57-19.94-18.58-19.94v.01c-10.84 0-18.24 7.91-18.24 19.35 0 7.75 3.37 13.55 9.52 16.43l.5.3c.55.32.73.42.73.59 0 .15-.2.34-.42.55l-.38.4a5.06 5.06 0 0 0-1.3 3.3c0 1.25.57 2.29 1.44 2.29.43 0 .72-.51 1.06-1.12.51-.9 1.15-2.02 2.58-2.02 1.32 0 3.13 1.45 5.19 3.1 2.75 2.2 5.95 4.76 9.07 4.76 4.81 0 6.67-4.12 6.67-6.63 0-1.69-.55-2.75-1.15-2.75-.29 0-.49.26-.75.6-.47.63-1.14 1.52-2.92 1.52-1.87 0-4.2-1.07-5.98-1.88a75.8 75.8 0 0 0-.82-.37c-.45-.19-.65-.4-.65-.53 0-.16.2-.24.5-.32 7.9-1.44 13.93-7.32 13.93-17.64ZM54.5 63.15c-1.64-3.55-2.27-7.78-2.27-11.41 0-8 3.5-11.25 6.86-11.25 2.91 0 5.83 2.35 7.62 6.23a29.7 29.7 0 0 1 2.67 12.1c0 7-3.43 9.83-7.32 9.83-2.7 0-5.69-1.69-7.56-5.5Z" clip-rule="evenodd"/>
  <rect width="119" height="119" x="0.5" y="0.5" stroke="#BFDBE0" rx="59.5"/>
  <rect width="119" height="119" x="104.5" y="0.5" fill="#7F54B3" rx="59.5"/>
  <g clip-path="url(#a)">
    <path fill="#fff" fill-rule="evenodd" d="M192.47 41.58H135.5a6.47 6.47 0 0 0-6.5 6.47v21.58a6.5 6.5 0 0 0 6.53 6.47h26.98l12.34 6.81-2.8-6.81h20.42a6.5 6.5 0 0 0 6.53-6.47V48.05a6.5 6.5 0 0 0-6.53-6.47Zm-58.18 5c-.8.06-1.4.34-1.8.88-.4.5-.54 1.16-.46 1.9 1.7 10.65 3.27 17.83 4.73 21.55.57 1.36 1.23 2.01 2 1.95 1.2-.08 2.63-1.73 4.32-4.94.89-1.81 2.26-4.54 4.12-8.17 1.55 5.36 3.66 9.4 6.33 12.1.74.76 1.51 1.1 2.26 1.04.66-.05 1.17-.4 1.51-1.02.29-.54.4-1.16.35-1.87-.18-2.59.08-6.2.8-10.82.74-4.77 1.66-8.2 2.77-10.25.23-.42.32-.85.29-1.36a2.22 2.22 0 0 0-.89-1.62 2.5 2.5 0 0 0-1.8-.56 2.2 2.2 0 0 0-1.89 1.25c-1.77 3.2-3.03 8.4-3.78 15.6-1.08-2.72-2-5.93-2.72-9.7-.3-1.68-1.08-2.47-2.34-2.38-.86.05-1.58.62-2.15 1.7l-6.26 11.84c-1.03-4.12-2-9.15-2.9-15.08-.2-1.47-1.03-2.16-2.49-2.04Zm55.15 2.04a6.59 6.59 0 0 1 4.58 3.3 10.68 10.68 0 0 1 1.37 5.59c0 2.92-.74 5.59-2.23 8.03-1.72 2.84-3.95 4.26-6.72 4.26-.49 0-1-.06-1.55-.17a6.59 6.59 0 0 1-4.58-3.3 10.93 10.93 0 0 1-1.37-5.62c0-2.92.74-5.59 2.23-8 1.75-2.84 3.98-4.26 6.73-4.26.48 0 1 .06 1.54.17Zm-1.2 15.36c1.06-.94 1.77-2.33 2.17-4.2.12-.65.2-1.36.2-2.1 0-.83-.17-1.7-.51-2.59-.43-1.1-1-1.7-1.69-1.84-1.03-.2-2.03.37-2.97 1.76a9.16 9.16 0 0 0-1.72 5.45c0 .82.17 1.7.51 2.58.43 1.11 1 1.7 1.7 1.85.7.14 1.48-.17 2.31-.91Zm-12.16-12.06a6.65 6.65 0 0 0-4.58-3.3 7.57 7.57 0 0 0-1.55-.17c-2.74 0-4.98 1.42-6.72 4.26a14.94 14.94 0 0 0-2.23 8c0 2.2.45 4.06 1.37 5.63a6.59 6.59 0 0 0 4.58 3.29c.54.11 1.06.17 1.54.17 2.78 0 5.01-1.42 6.73-4.26a15.11 15.11 0 0 0 2.23-8.03c0-2.22-.46-4.06-1.37-5.6Zm-3.6 7.86c-.4 1.87-1.13 3.26-2.18 4.2-.83.74-1.6 1.05-2.32.9-.69-.13-1.26-.73-1.69-1.84a7.14 7.14 0 0 1-.52-2.58A9.14 9.14 0 0 1 167.5 55c.95-1.4 1.95-1.96 2.98-1.76.69.14 1.26.74 1.69 1.84.34.88.51 1.76.51 2.59 0 .74-.06 1.45-.2 2.1Z" clip-rule="evenodd"/>
  </g>
  <rect width="119" height="119" x="104.5" y="0.5" stroke="#BFDBE0" rx="59.5"/>
  <defs>
    <clipPath id="a">
      <path fill="#fff" d="M129 31.25h70v51.66h-70z"/>
    </clipPath>
  </defs>
</svg>
