<svg xmlns="http://www.w3.org/2000/svg" fill="none" viewBox="0 0 224 120">
  <rect width="119" height="119" x="0.5" y="0.5" fill="#F9F8F1" rx="59.5"/>
  <path fill="#0A0A0A" fill-rule="evenodd" d="M78.86 55.72c0-12.8-8.57-19.94-18.58-19.94v.01c-10.84 0-18.24 7.91-18.24 19.35 0 7.75 3.37 13.55 9.52 16.43l.5.3c.55.32.73.42.73.59 0 .15-.2.34-.42.55l-.38.4a5.06 5.06 0 0 0-1.3 3.3c0 1.25.57 2.29 1.44 2.29.43 0 .72-.51 1.06-1.12.51-.9 1.15-2.02 2.58-2.02 1.32 0 3.13 1.45 5.19 3.1 2.75 2.2 5.95 4.76 9.07 4.76 4.81 0 6.67-4.12 6.67-6.63 0-1.69-.55-2.75-1.15-2.75-.29 0-.49.26-.75.6-.47.63-1.14 1.52-2.92 1.52-1.87 0-4.2-1.07-5.98-1.88a75.8 75.8 0 0 0-.82-.37c-.45-.19-.65-.4-.65-.53 0-.16.2-.24.5-.32 7.9-1.44 13.93-7.32 13.93-17.64ZM54.5 63.15c-1.64-3.55-2.27-7.78-2.27-11.41 0-8 3.5-11.25 6.86-11.25 2.91 0 5.83 2.35 7.62 6.23a29.7 29.7 0 0 1 2.67 12.1c0 7-3.43 9.83-7.32 9.83-2.7 0-5.69-1.69-7.56-5.5Z" clip-rule="evenodd"/>
  <rect width="119" height="119" x="0.5" y="0.5" stroke="#BFDBE0" rx="59.5"/>
  <rect width="119" height="119" x="104.5" y="0.5" fill="#fff" rx="59.5"/>
  <path fill="#fff" fill-rule="evenodd" d="M157.88 64.34v1.64h-8.1v-1.64h3.37v-4.87h-2.56v-1.63h4.21v6.5h3.07Zm-3.11-8.1h-1.86v-2.49h1.86v2.49Zm-36.92 9.7v-1.63h1.25v-7.77h-1.25v-1.63h5.06c2.33 0 3.75 1.09 3.75 2.96a2.4 2.4 0 0 1-1.62 2.35c1.31.38 2.22 1.3 2.22 2.59 0 2.01-1.55 3.13-4.08 3.13h-5.33Zm3-9.4v3h1.9c1.4 0 2.15-.54 2.15-1.5 0-.99-.74-1.5-2.16-1.5h-1.89Zm0 7.8h2.16c1.66 0 2.5-.54 2.5-1.63 0-1.06-.88-1.64-2.63-1.64h-2.03v3.27Zm15.56-4.12c-.2-.65-.67-1.02-1.28-1.02-1.45 0-2.84 1.09-2.84 3.06v2.12h2.8V66h-6.2v-1.63h1.78v-4.9h-1.38v-1.64h3.04v1.36a3.21 3.21 0 0 1 2.93-1.64c1.56 0 2.5.89 2.8 2.18l-1.65.48Zm8.5.58v.44a6.2 6.2 0 0 0-2.16-.3c-1.75 0-3.7.75-3.7 2.76 0 1.7 1.44 2.55 3.1 2.55 1.14 0 2.33-.4 2.76-1.12v.85h2.87v-1.64h-1.18v-3.6c0-2.05-1.55-3.14-3.57-3.14-1.63 0-2.7.65-3.45 1.36l1.08 1.2a3.39 3.39 0 0 1 2.37-1c.97 0 1.88.48 1.88 1.64Zm-2.05 1.53c.74 0 1.51.14 2.05.34h-.03v.24c0 1.13-1.38 1.8-2.6 1.8-.88 0-1.52-.33-1.52-1.05 0-.99 1.05-1.33 2.1-1.33Zm18.22 2.01h-1.25v1.64h4.19v-1.64h-1.29v-2.69c0-1.46 1.29-2.42 2.54-2.42.77 0 1.62.41 1.62 1.8v3.31h-1.29v1.64h4.19v-1.64h-1.22v-3.78c0-1.84-1.28-3-3.07-3-1.25 0-2.26.55-2.77 1.33v-1.05h-2.8v1.63h1.15v4.87Zm11.34-4.87h-2.06v-1.63h2.1V54.9h1.65v2.93h3.91v1.63h-3.91v3.4c0 1.27.88 1.78 1.85 1.78.95 0 1.72-.55 2.33-1.12l1.12 1.15a4.64 4.64 0 0 1-3.45 1.54c-2.02 0-3.54-1.13-3.54-3.3v-3.45Zm14.78-.27c.61 0 1.08.37 1.29 1.02l1.61-.48a2.68 2.68 0 0 0-2.8-2.18c-1.38 0-2.43.69-2.93 1.64v-1.36h-3.04v1.63h1.38v4.9h-1.78v1.64h6.24v-1.63h-2.8v-2.11c0-1.98 1.38-3.07 2.83-3.07Zm12.46 5.52c-.85.88-2.3 1.5-3.95 1.5-2.7 0-4.6-1.84-4.6-4.33a4.21 4.21 0 0 1 4.4-4.33c2.53 0 4.31 1.98 4.31 4.64v.27h-6.91c.27 1.36 1.38 2.18 2.83 2.18 1.22 0 2.26-.51 2.8-1.12l1.12 1.19Zm-6.69-3.65h4.97a2.43 2.43 0 0 0-2.4-1.94c-1.32 0-2.3.78-2.57 1.94Zm13.06 5.15c1.66 0 3.1-.62 3.95-1.5l-1.11-1.2a3.82 3.82 0 0 1-2.8 1.13c-1.45 0-2.57-.82-2.84-2.18h6.92v-.27c0-2.66-1.79-4.64-4.32-4.64a4.21 4.21 0 0 0-4.39 4.33c0 2.49 1.9 4.33 4.6 4.33Zm2.23-5.15h-4.96c.27-1.16 1.25-1.94 2.57-1.94 1.14 0 2.16.78 2.4 1.94Z" clip-rule="evenodd"/>
  <path fill="#F90" d="M182.27 77.4c-4.58 3.33-11.23 5.1-16.95 5.1a31 31 0 0 1-20.72-7.76c-.42-.38-.04-.9.48-.6a41.86 41.86 0 0 0 36.53 2.22c.78-.32 1.43.5.67 1.05"/>
  <path fill="#F90" d="M184.18 75.26c-.59-.73-3.87-.35-5.35-.17-.45.05-.52-.34-.12-.61 2.63-1.81 6.92-1.29 7.43-.69.5.6-.13 4.85-2.6 6.87-.37.3-.73.15-.56-.27.55-1.35 1.79-4.4 1.2-5.14"/>
  <path fill="#000" d="M178.93 61.69v-1.76a.43.43 0 0 1 .29-.44.45.45 0 0 1 .19-.03h8a.45.45 0 0 1 .45.29l.03.18v1.51c-.1.42-.32.8-.62 1.1l-4.16 5.84a9 9 0 0 1 4.58.96c.12.07.23.17.3.29.08.12.12.26.12.4v1.87c0 .26-.29.56-.59.4a9.39 9.39 0 0 0-8.48 0c-.28.15-.57-.15-.57-.4V70.1a2.1 2.1 0 0 1 .3-1.21l4.82-6.74h-4.2a.45.45 0 0 1-.44-.27.43.43 0 0 1-.03-.17v-.03Zm-29.28 11h-2.44a.48.48 0 0 1-.3-.14.46.46 0 0 1-.14-.28v-12.3c0-.12.06-.24.15-.32.09-.08.2-.12.33-.12h2.27c.11 0 .22.05.3.12.08.08.13.18.15.29v1.6h.04c.6-1.55 1.71-2.27 3.22-2.27 1.5 0 2.48.72 3.17 2.28a3.54 3.54 0 0 1 2.82-2.24 3.67 3.67 0 0 1 3.37 1.3c.77 1.04.62 2.54.62 3.86v7.77c0 .13-.05.24-.14.33a.48.48 0 0 1-.34.14h-2.44a.48.48 0 0 1-.31-.15.46.46 0 0 1-.13-.32v-6.53c.04-.77.02-1.54-.07-2.3a1.25 1.25 0 0 0-.49-.82c-.27-.2-.6-.29-.94-.24a1.64 1.64 0 0 0-1.45 1c-.2.77-.28 1.56-.23 2.35v6.54c0 .12-.05.24-.14.33a.48.48 0 0 1-.34.13h-2.44a.48.48 0 0 1-.31-.15.47.47 0 0 1-.13-.31V65.7c0-1.37.23-3.39-1.5-3.39-1.74 0-1.72 1.97-1.72 3.4v6.52c0 .12-.05.24-.13.33a.48.48 0 0 1-.34.13l.03-.02Zm45.13-13.43c3.63 0 5.59 3.06 5.59 6.94 0 3.75-2.17 6.74-5.59 6.74-3.56 0-5.49-3.06-5.49-6.87 0-3.8 1.96-6.8 5.5-6.8Zm0 2.52c-1.8 0-1.9 2.4-1.9 3.9s-.03 4.72 1.9 4.72c1.94 0 1.99-2.6 1.99-4.17.04-1.1-.08-2.2-.37-3.27a1.5 1.5 0 0 0-.57-.9c-.3-.2-.65-.32-1.02-.3l-.03.02Zm10.29 10.9h-2.43a.48.48 0 0 1-.31-.15.47.47 0 0 1-.13-.32V59.92a.48.48 0 0 1 .48-.4h2.26a.47.47 0 0 1 .44.35v1.87h.04c.68-1.69 1.65-2.49 3.34-2.49a3.25 3.25 0 0 1 2.86 1.45c.64.99.64 2.64.64 3.84v7.75a.47.47 0 0 1-.17.28c-.09.07-.2.11-.31.11h-2.45c-.1 0-.2-.05-.29-.12a.47.47 0 0 1-.14-.27V65.6c0-1.34.15-3.31-1.53-3.31a1.62 1.62 0 0 0-1.43.98c-.3.74-.44 1.54-.39 2.34v6.63c0 .12-.05.24-.14.33a.48.48 0 0 1-.34.13v-.02Zm-28.2-2.25c-.44-.61-.91-1.1-.91-2.23v-3.74c0-1.58.11-3.04-1.08-4.13-.95-.88-2.49-1.2-3.68-1.2-2.32 0-4.91.86-5.46 3.68a.41.41 0 0 0 .2.44c.05.03.1.05.16.06l2.39.25a.51.51 0 0 0 .42-.44c.1-.43.35-.81.7-1.07.36-.27.8-.4 1.25-.36a1.66 1.66 0 0 1 1.37.62c.35.5.3 1.17.3 1.74v.3c-1.43.16-3.26.26-4.6.84-.78.31-1.45.86-1.92 1.56-.46.7-.7 1.52-.66 2.36 0 2.5 1.6 3.74 3.65 3.74 1.74 0 2.69-.4 4.03-1.74.35.6.82 1.15 1.37 1.6a.52.52 0 0 0 .58-.06c.47-.43 1.37-1.19 1.87-1.6a.46.46 0 0 0 .03-.62Zm-4.8-1.09a1.96 1.96 0 0 1-1.69 1.1c-.95 0-1.48-.7-1.48-1.74 0-2.05 1.86-2.42 3.63-2.42v.52c0 .93.03 1.72-.46 2.54Zm-27.22 1.09c-.44-.61-.92-1.1-.92-2.23v-3.74c0-1.58.12-3.04-1.07-4.13-.96-.88-2.5-1.2-3.68-1.2-2.32 0-4.92.86-5.47 3.68a.42.42 0 0 0 .37.5l2.38.25a.5.5 0 0 0 .42-.44 1.89 1.89 0 0 1 1.96-1.43 1.66 1.66 0 0 1 1.38.62c.34.5.3 1.17.3 1.74v.3c-1.43.16-3.27.26-4.6.84-.79.31-1.46.85-1.93 1.56-.47.7-.7 1.52-.67 2.36 0 2.5 1.6 3.74 3.66 3.74 1.73 0 2.68-.4 4.02-1.74.37.61.84 1.15 1.4 1.6a.52.52 0 0 0 .58-.06c.48-.42 1.37-1.18 1.87-1.59.08-.08.13-.2.13-.32a.47.47 0 0 0-.13-.31Zm-4.8-1.09a1.96 1.96 0 0 1-1.7 1.1c-.95 0-1.47-.7-1.47-1.74 0-2.05 1.86-2.42 3.63-2.42v.52c0 .93.03 1.72-.46 2.54Z"/>
  <path fill="#F90" d="M124.12 54.49a.17.17 0 0 1-.05.15.18.18 0 0 1-.15.05h-.9a.19.19 0 0 1-.15-.05.16.16 0 0 1-.04-.07.17.17 0 0 1-.01-.08v-6.83h-1.2c-.12 0-.12-.11-.12-.2v-.64c0-.12 0-.2.12-.2h1.2V45.3c0-1.27.26-2.81 2.38-2.81.79 0 1.9.34 1.9.59-.02.08-.04.16-.08.23l-.23.56c-.04.05-.07.1-.12.1-.3 0-.78-.35-1.5-.35-.95 0-1.03.7-1.03 1.68v1.32h2.47c.1 0 .2 0 .2.11v.12l-.23.66a.24.24 0 0 1-.09.1.25.25 0 0 1-.13.05h-2.2l-.04 6.82Zm8.1-7.67c0-.12.06-.19.13-.2l.86-.2.2-.04c.12 0 .12.14.12.22v6c-.02.37.04.75.19 1.1.13.2.24.42.32.64 0 .07-.08.1-.15.14l-.67.4a.35.35 0 0 1-.13.05c-.26 0-.45-.6-.64-.99-.66.58-1.5.93-2.38 1-2.31 0-2.5-1.32-2.5-2.53v-5.59c0-.12.05-.19.12-.2l.85-.2.2-.04c.13 0 .13.14.13.22v5.84c0 .72.29 1.36 1.4 1.36a4.28 4.28 0 0 0 1.96-.86v-6.12Zm6.45 7.57a.3.3 0 0 1 .04.11c0 .2-.83.43-1.46.43-.84 0-1.41-.34-1.61-.81-.24-.56-.24-1.88-.24-2.44v-8.73c0-.12.05-.19.12-.2l.85-.2.2-.04c.13 0 .13.14.13.22v8.98c0 .52 0 1.39.05 1.59a.7.7 0 0 0 .69.59c.3-.04.6-.11.89-.22.1 0 .1.05.12.1l.22.62Zm2.68.1v.08a.18.18 0 0 1-.12.11.19.19 0 0 1-.08.01h-.97a.18.18 0 0 1-.11-.12.17.17 0 0 1-.01-.08v-6.83h-1.23c-.12 0-.12-.11-.12-.2v-.64c0-.12 0-.2.12-.2h1.2V45.3c0-1.27.26-2.81 2.39-2.81.78 0 1.9.34 1.9.59l-.08.23-.24.56c-.03.05-.07.1-.12.1-.29 0-.77-.35-1.5-.35-.94 0-1.02.7-1.02 1.68v1.32h2.47c.1 0 .19 0 .19.11v.12l-.23.66a.25.25 0 0 1-.22.15h-2.2l-.02 6.82Zm5.59 0a.17.17 0 0 1-.06.15.18.18 0 0 1-.15.05h-.97a.18.18 0 0 1-.12-.12.17.17 0 0 1 0-.08v-7.64a.17.17 0 0 1 .05-.15.18.18 0 0 1 .15-.05l.88-.03c.19 0 .22.1.22.25v7.62Zm-.74-9.44a.87.87 0 0 1-.61-.25.84.84 0 0 1 0-1.2.87.87 0 0 1 1.22 0 .84.84 0 0 1 0 1.2.87.87 0 0 1-.61.25Zm6.15 9.34a.3.3 0 0 1 .03.11c0 .2-.82.43-1.46.43-.83 0-1.4-.34-1.6-.81-.25-.56-.25-1.88-.25-2.44v-8.73c0-.12.06-.19.12-.2l.86-.2.2-.04c.13 0 .13.14.13.22v8.98c0 .52 0 1.39.05 1.59a.7.7 0 0 0 .69.59c.3-.04.6-.11.89-.22.1 0 .1.05.12.1l.22.62Zm3.97 0c.01.03.03.07.03.11 0 .2-.83.43-1.46.43-.84 0-1.4-.34-1.61-.81-.24-.56-.24-1.88-.24-2.44v-8.73c0-.12.05-.19.12-.2l.86-.2.2-.04c.12 0 .12.14.12.22v8.98c0 .52 0 1.39.05 1.59.03.16.1.31.23.42.13.1.3.17.46.17.31-.04.62-.12.91-.24.1 0 .1.05.12.1l.2.64Zm1.38-5.67c0-.4-.03-.8-.1-1.18-.06-.2-.14-.39-.23-.57 0-.03 0-.07.09-.12l.74-.4c.04-.03.1-.05.15-.07.26 0 .44.88.48 1 .62-.54 1.4-.89 2.22-1 1.12 0 1.6.34 1.82 1.02.51-.37 1.43-1.02 2.26-1.02 1.9 0 2.04 1.31 2.04 2.53v5.58a.17.17 0 0 1-.05.15.19.19 0 0 1-.08.04.19.19 0 0 1-.08.01H166a.19.19 0 0 1-.12-.12.17.17 0 0 1 0-.08v-5.62c0-.72-.2-1.36-1.1-1.36-.62.04-1.22.28-1.68.69v6.37l-.05.07a.19.19 0 0 1-.15.05h-.9a.18.18 0 0 1-.15-.05.17.17 0 0 1-.05-.15v-5.62c0-.72-.19-1.36-1.11-1.36-.63.04-1.21.3-1.67.7v6.28a.17.17 0 0 1-.05.15.18.18 0 0 1-.15.05h-.91a.19.19 0 0 1-.16-.05.18.18 0 0 1-.04-.07.19.19 0 0 1 0-.08v-5.77Zm17.14 5.2c0 .05.05.08.05.13 0 .2-1.43.88-2.7.88-2.28 0-3.62-1.72-3.62-4.27 0-2.47 1.27-4.28 3.4-4.28 2.85 0 3.11 2.73 3.11 4.17 0 .24 0 .37-.19.37h-4.92c0 1.03.41 2.88 2.39 2.88.74-.06 1.47-.3 2.1-.69.06 0 .07.06.1.1l.28.7Zm-1.17-4.02c0-.87-.29-2.45-1.78-2.45-1.58 0-1.9 1.61-1.9 2.45h3.68Zm9.08 4.59v.08l-.05.07a.18.18 0 0 1-.15.05h-.9a.19.19 0 0 1-.15-.05.17.17 0 0 1-.05-.15v-5.62c0-.72-.2-1.36-1.11-1.36-.87.05-1.67.41-2.26 1.03v5.95a.17.17 0 0 1-.06.15.18.18 0 0 1-.15.05h-.91a.18.18 0 0 1-.2-.2v-5.8c.02-.34 0-.67-.07-1a6.41 6.41 0 0 0-.28-.7c0-.03 0-.07.09-.12l.77-.42c.03 0 .09-.07.14-.07.3 0 .51 1.02.53 1.15a4.4 4.4 0 0 1 2.76-1.15c1.9 0 2.04 1.31 2.04 2.53l.01 5.58Zm7.15-.42a.7.7 0 0 1 .03.17c0 .22-1.29.69-2.21.69a2.17 2.17 0 0 1-1.61-.6c-.48-.51-.48-1.27-.48-1.9v-4.77h-1.29c-.12 0-.12-.11-.12-.2v-.64c0-.12 0-.2.12-.2h1.29v-2.3c0-.11.07-.18.19-.21l.91-.25h.12c.03 0 .09.08.09.18v2.59h2.53c.1 0 .2 0 .2.11v.12l-.23.66a.24.24 0 0 1-.1.1.25.25 0 0 1-.13.05h-2.26v4.77c0 .67 0 1.36 1.03 1.36a5.2 5.2 0 0 0 1.65-.47c.03 0 .06 0 .08.03l.04.07.15.64Z"/>
  <path fill="#000" d="m121.71 56.49.24-.03h.47l.24.03v2.65c.14-.2.32-.36.54-.47.27-.14.57-.21.88-.2.28 0 .55.04.81.14.25.1.47.24.65.44.19.22.33.48.41.75.1.35.16.71.15 1.08a2.58 2.58 0 0 1-.72 1.94 2.8 2.8 0 0 1-2.05.7c-.3 0-.59-.04-.88-.1-.25-.04-.5-.1-.75-.18l.01-6.75Zm.96 6.12c.12.03.24.06.36.07.14.02.27.03.41.03.22 0 .45-.04.66-.11a1.4 1.4 0 0 0 .87-.9c.1-.26.14-.53.13-.8.03-.43-.06-.85-.26-1.22a1 1 0 0 0-.92-.44c-.15 0-.3.02-.44.07a1.1 1.1 0 0 0-.69.64c-.08.2-.11.41-.1.62l-.02 2.04Zm6 .79H128l-1.63-4.83.26-.03h.53c.08 0 .17.01.25.03l1.37 4.48 1.43-4.48c.16-.02.31-.03.47-.03h.24l.27.02-1.9 5.81c-.08.22-.17.44-.28.65-.1.16-.22.3-.36.41-.12.1-.26.18-.4.23a2.91 2.91 0 0 1-1.34-.05c-.01-.25.04-.5.15-.73l.23.07a1.49 1.49 0 0 0 .55 0 .52.52 0 0 0 .2-.09.73.73 0 0 0 .19-.2c.06-.11.11-.23.15-.36l.3-.9Z"/>
  <rect width="119" height="119" x="104.5" y="0.5" stroke="#BFDBE0" rx="59.5"/>
</svg>
