<svg xmlns="http://www.w3.org/2000/svg" fill="none" viewBox="0 0 224 120">
  <rect width="119" height="119" x="0.5" y="0.5" fill="#F9F8F1" rx="59.5"/>
  <path fill="#0A0A0A" fill-rule="evenodd" d="M78.86 55.72c0-12.8-8.57-19.94-18.58-19.94v.01c-10.84 0-18.24 7.91-18.24 19.35 0 7.75 3.37 13.55 9.52 16.43l.5.3c.55.32.73.42.73.59 0 .15-.2.34-.42.55l-.38.4a5.06 5.06 0 0 0-1.3 3.3c0 1.25.57 2.29 1.44 2.29.43 0 .72-.51 1.06-1.12.51-.9 1.15-2.02 2.58-2.02 1.32 0 3.13 1.45 5.19 3.1 2.75 2.2 5.95 4.76 9.07 4.76 4.81 0 6.67-4.12 6.67-6.63 0-1.69-.55-2.75-1.15-2.75-.29 0-.49.26-.75.6-.47.63-1.14 1.52-2.92 1.52-1.87 0-4.2-1.07-5.98-1.88a75.8 75.8 0 0 0-.82-.37c-.45-.19-.65-.4-.65-.53 0-.16.2-.24.5-.32 7.9-1.44 13.93-7.32 13.93-17.64ZM54.5 63.15c-1.64-3.55-2.27-7.78-2.27-11.41 0-8 3.5-11.25 6.86-11.25 2.91 0 5.83 2.35 7.62 6.23a29.7 29.7 0 0 1 2.67 12.1c0 7-3.43 9.83-7.32 9.83-2.7 0-5.69-1.69-7.56-5.5Z" clip-rule="evenodd"/>
  <rect width="119" height="119" x="0.5" y="0.5" stroke="#BFDBE0" rx="59.5"/>
  <rect width="119" height="119" x="104.5" y="0.5" fill="#fff" rx="59.5"/>
  <path fill="#35495C" fill-rule="evenodd" d="M175.87 39.4a14.94 14.94 0 0 0-10.62-4.4c-4.13 0-7.9 1.67-10.6 4.4a14.89 14.89 0 0 0-4.4 10.6 14.98 14.98 0 1 0 30 0c0-4.13-1.67-7.9-4.38-10.6Zm-.5 20.72a14.24 14.24 0 0 1-20.24 0 14.24 14.24 0 0 1 0-20.24 14.24 14.24 0 0 1 20.24 0 14.24 14.24 0 0 1 0 20.24Zm2.79-10.23a12.9 12.9 0 0 0-25.82 0l5.91-5.92 1.99 1.98-4.32 4.34h18.68l-4.34-4.34 1.98-1.98 5.92 5.92Zm-12.91-2.22-5.5-5.76h3.65v-2.86c0-.75.84-1.34 1.85-1.34 1.01 0 1.85.59 1.85 1.34v2.83h3.65l-5.5 5.79Zm.48 9.1c.47.16.84.31 1.13.51.3.18.52.4.63.7a1.9 1.9 0 0 1 .04 1.67c-.13.25-.3.47-.54.67-.25.2-.55.35-.93.46-.1.04-.22.06-.33.09v1.16h-.92v-1.08h-.04a5.08 5.08 0 0 1-2.1-.44l.34-1.05c.15.09.33.15.52.22.2.06.42.1.64.15.22.05.46.07.7.07.31 0 .58-.02.78-.11.22-.1.37-.2.48-.33.09-.16.15-.31.15-.5a.81.81 0 0 0-.13-.47 1.26 1.26 0 0 0-.44-.37c-.2-.11-.46-.22-.79-.33-.44-.14-.81-.31-1.12-.49-.31-.2-.55-.42-.73-.66a1.63 1.63 0 0 1-.07-1.67c.14-.24.31-.46.56-.64a3.12 3.12 0 0 1 1.03-.45l.24-.05v-1.1h.93v1.03c.35.02.63.05.9.11l.12.04c.25.07.48.13.65.22l-.33 1.02-.07-.03-.05-.02a9.22 9.22 0 0 0-.79-.23c-.2-.05-.41-.08-.65-.08-.29 0-.53.05-.73.14a.9.9 0 0 0-.42.3.7.7 0 0 0-.13.4c0 .18.04.33.15.46.11.13.27.24.49.35.22.11.48.22.83.33Zm-23.86 20.97v-1.02h-.02a1.69 1.69 0 0 1-.77.85 2.6 2.6 0 0 1-1.13.32c-.4 0-.76-.08-1.06-.22-.3-.15-.55-.35-.76-.61-.2-.26-.35-.56-.45-.9-.1-.34-.15-.7-.15-1.08 0-.38.05-.74.15-1.08.1-.33.25-.64.45-.9s.45-.46.76-.61a2.42 2.42 0 0 1 2.18.06c.16.1.3.22.43.36.13.15.24.32.3.51v-3.07h.66v7.4h-.6Zm-3.58-1.85c.07.28.18.51.3.73a1.52 1.52 0 0 0 1.34.73 1.68 1.68 0 0 0 1.45-.73c.15-.22.27-.45.33-.73a3.22 3.22 0 0 0-.32-2.38c-.15-.22-.34-.4-.58-.53-.24-.13-.53-.2-.88-.2a1.55 1.55 0 0 0-1.33.73 3.22 3.22 0 0 0-.3 2.39Zm-12.47.98c-.04-.06-.06-.16-.06-.3V73.8c0-.28-.06-.51-.19-.71-.13-.2-.29-.35-.5-.48-.2-.13-.41-.22-.68-.28a4.22 4.22 0 0 0-1.64 0c-.28.06-.54.16-.75.3-.22.14-.41.31-.56.54-.14.24-.23.51-.24.86h1.17c.03-.29.15-.5.37-.64.2-.13.48-.2.81-.2l.38.03c.13.01.26.04.36.1.12.04.2.12.28.22.07.1.1.23.1.38 0 .17-.04.3-.13.39a.8.8 0 0 1-.35.19c-.14.04-.32.07-.5.08-.2.02-.4.05-.62.1-.25.02-.5.05-.74.1-.25.05-.47.14-.67.26-.2.11-.36.27-.48.48a1.7 1.7 0 0 0-.17.81c0 .26.04.48.14.68.1.2.23.35.4.48s.37.22.59.3c.22.07.45.1.7.1.32 0 .65-.06.99-.16.33-.1.62-.27.85-.5.05.25.15.4.31.51a1.07 1.07 0 0 0 .66.14h.11c.06 0 .11-.02.17-.03h.03l.1-.03.1-.02.17-.04v-.82c-.06.02-.12.02-.16.02h-.13c-.1 0-.18-.03-.22-.1Zm-1.9-1.59c.26-.03.49-.1.66-.22v.9c0 .17-.04.33-.13.46s-.2.23-.33.32c-.15.08-.3.14-.44.17-.14.05-.29.06-.42.06l-.3-.02h-.05a.9.9 0 0 1-.35-.11c-.1-.06-.2-.13-.27-.22a.52.52 0 0 1-.12-.33c0-.16.01-.3.07-.4a.78.78 0 0 1 .22-.26c.09-.07.19-.11.3-.16.12-.04.24-.07.37-.09l.78-.1Zm-7.4.69c-.05-.2-.08-.4-.08-.6l3.91.01a2.92 2.92 0 0 0-.55-2.17 2.41 2.41 0 0 0-1.96-.95c-.4 0-.76.08-1.08.23a2.68 2.68 0 0 0-1.34 1.51 3.58 3.58 0 0 0 0 2.21c.12.35.3.64.51.9.24.24.51.44.83.57a2.96 2.96 0 0 0 1.95.09c.26-.07.5-.19.71-.35a2.16 2.16 0 0 0 .87-1.35h-1.11c-.1.29-.27.52-.47.67-.2.14-.48.22-.83.22-.25 0-.46-.05-.64-.14-.19-.08-.33-.2-.45-.34-.12-.15-.2-.32-.26-.51Zm2.57-1.9c.06.17.1.34.11.53h-2.74c0-.19.04-.38.11-.55.08-.18.18-.32.3-.45.11-.14.25-.24.43-.31a1.45 1.45 0 0 1 1.1.01c.16.08.3.18.41.31.12.13.2.28.28.45Zm8.84 1.95c.02.35.16.59.39.73.23.13.5.2.81.2a3 3 0 0 0 .3-.02h.08c.15-.02.28-.05.4-.1a.59.59 0 0 0 .3-.22.49.49 0 0 0 .1-.37.53.53 0 0 0-.16-.38c-.1-.1-.23-.17-.4-.23-.15-.06-.34-.1-.54-.14l-.32-.07-.31-.06c-.22-.05-.44-.1-.64-.18-.2-.07-.4-.16-.55-.28a1.32 1.32 0 0 1-.4-.45 1.4 1.4 0 0 1-.14-.68c0-.3.07-.54.22-.73.14-.2.32-.35.54-.48.21-.11.46-.2.72-.24a3.42 3.42 0 0 1 1.54.01c.25.06.48.16.69.3.2.12.38.3.5.5.14.2.22.47.25.76h-1.23c-.06-.28-.2-.48-.4-.57-.2-.1-.43-.15-.7-.15-.08 0-.17 0-.28.02-.12.01-.22.04-.32.07a.6.6 0 0 0-.25.16.4.4 0 0 0-.1.3c0 .14.04.25.14.34.1.09.24.16.4.22.16.06.34.1.55.14l.64.14c.22.04.42.1.62.17s.4.16.56.28c.16.11.29.26.39.45.1.17.14.4.14.67a1.48 1.48 0 0 1-.78 1.35 3.26 3.26 0 0 1-2.55.28c-.29-.08-.53-.2-.74-.35a1.72 1.72 0 0 1-.68-1.41l1.2.02Zm5.17-3.63h-1.3s2.04 5.34 2 5.35l-.13.4-.04.12-.08.2-.14.23a.58.58 0 0 1-.22.14.77.77 0 0 1-.34.06 10.65 10.65 0 0 0-.55-.07v.99a5 5 0 0 0 .82.05c.32 0 .56-.04.77-.14.2-.1.38-.23.5-.4.14-.17.25-.37.34-.59.07-.15.14-.31.2-.48l.09-.22 2.08-5.64h-1.24l-1.35 4h-.01l-1.4-4Zm11.28-1v-1.04h-.65v1.05h.65Zm0 6.35V72.4h-.65v5.34h.65Zm5.63.64c-.09.32-.22.58-.4.82-.2.21-.45.39-.74.5a3.42 3.42 0 0 1-1.89.09 2.05 2.05 0 0 1-.68-.29 1.7 1.7 0 0 1-.5-.5c-.14-.21-.23-.46-.24-.74h.65a1.14 1.14 0 0 0 .57.83 2.14 2.14 0 0 0 .99.23c.61 0 1.05-.17 1.3-.52.28-.35.41-.84.41-1.5v-.72h-.01c-.15.33-.38.6-.67.8-.29.2-.64.3-1.03.3-.42 0-.8-.07-1.1-.22a2.15 2.15 0 0 1-1.18-1.45 4.3 4.3 0 0 1-.13-1.08c0-.36.05-.7.16-1.04.1-.34.26-.61.46-.86s.45-.44.76-.58a2.34 2.34 0 0 1 1.6-.13 1.85 1.85 0 0 1 .87.58c.11.13.2.27.26.4h.01v-.91h.66v4.9c0 .42-.04.77-.13 1.1Zm-1.5-1.42c.22-.12.4-.28.54-.48.14-.2.24-.43.32-.69a3.62 3.62 0 0 0 .02-1.57c-.06-.26-.17-.5-.31-.71a1.54 1.54 0 0 0-1.33-.73 1.55 1.55 0 0 0-1.35.7c-.14.2-.25.45-.32.71a3.04 3.04 0 0 0 0 1.6 1.75 1.75 0 0 0 .87 1.16c.22.12.48.18.79.18.32 0 .57-.06.77-.17Zm3.53-5.56v-1.05h-.65v1.05h.65Zm0 6.34V72.4h-.65v5.34h.65Zm3.38-5.34v.56h-1.1v3.6c0 .22.03.38.1.51.05.12.2.2.43.2.19 0 .38 0 .55-.02v.55l-.29.01-.15.01h-.14c-.44 0-.74-.08-.92-.24-.17-.17-.26-.48-.24-.93v-3.7h-.9v-.55h.93v-1.6h.65v1.6h1.08Zm1.52.28c-.19.14-.33.32-.45.55-.1.23-.17.5-.22.83h.66c0-.44.14-.74.4-.94.27-.2.61-.3 1.02-.3.2 0 .37.02.54.05.18.03.32.09.45.17.13.09.23.2.3.34.08.13.1.32.1.54a.8.8 0 0 1-.05.34.51.51 0 0 1-.16.22.7.7 0 0 1-.26.1 97.08 97.08 0 0 0-1.41.19c-.34.05-.64.12-.92.24-.27.1-.5.27-.65.48-.16.2-.25.5-.25.87 0 .26.06.5.15.7.08.19.21.35.37.48s.35.22.57.27a3.06 3.06 0 0 0 1.38.01 1.77 1.77 0 0 0 .92-.53c.13-.15.25-.3.36-.47h.02c0 .15.01.27.03.38.01.12.04.2.1.3a.5.5 0 0 0 .23.18c.09.05.23.08.4.08l.12-.01h.09c.06 0 .13-.02.2-.04v-.55a.46.46 0 0 1-.2.04c-.25 0-.38-.13-.38-.39v-2.84c0-.36-.06-.65-.17-.87-.12-.22-.26-.4-.45-.52-.18-.12-.4-.2-.63-.25a3.8 3.8 0 0 0-1.54.03 1.9 1.9 0 0 0-.67.32Zm2.59 2.31a.35.35 0 0 0 .23-.16l.03.02v.84a1.54 1.54 0 0 1-.55 1.22 1.7 1.7 0 0 1-.6.34c-.23.07-.46.11-.7.11-.17 0-.31-.03-.46-.07a1.61 1.61 0 0 1-.38-.22c-.1-.1-.19-.2-.26-.33a.89.89 0 0 1-.1-.44c0-.26.07-.46.23-.61.16-.13.35-.25.6-.32.23-.07.5-.13.8-.17l.85-.14c.07 0 .14-.03.22-.05h.05l.04-.02Zm2.86-4.64h-.65v7.4h.65v-7.4Zm5.18 7.4h1.12l-.02-7.4h-1.17v2.72h-.02a1.4 1.4 0 0 0-.33-.38c-.13-.1-.28-.19-.44-.26a3.14 3.14 0 0 0-1-.19 2.12 2.12 0 0 0-1.6.67c-.22.23-.4.53-.52.87a4 4 0 0 0-.04 2.37c.1.35.25.65.46.9.2.27.46.47.78.62a2.63 2.63 0 0 0 2.07.01c.3-.13.53-.36.7-.67v.73Zm-2.9-1.96a2.57 2.57 0 0 1-.1-.67c0-.23.02-.46.12-.68.06-.23.15-.44.26-.63.12-.19.28-.33.47-.45.19-.11.42-.17.7-.17.45 0 .8.16 1.07.5.26.31.4.78.4 1.37a2.38 2.38 0 0 1-.36 1.3c-.13.17-.29.32-.48.44-.18.1-.42.16-.68.16a1.38 1.38 0 0 1-1.13-.57 1.74 1.74 0 0 1-.28-.6Zm7.75 2.1c-.42 0-.81-.08-1.14-.22a2.36 2.36 0 0 1-1.37-1.47 3.58 3.58 0 0 1-.17-1.14c0-.4.05-.78.17-1.13a2.36 2.36 0 0 1 1.37-1.47c.33-.14.7-.22 1.14-.22.43 0 .82.08 1.15.22.34.15.61.34.85.58.23.25.4.56.52.89.12.35.17.73.17 1.13 0 .41-.06.8-.17 1.14a2.36 2.36 0 0 1-1.37 1.47c-.33.16-.72.22-1.15.22Zm0-.93c.27 0 .5-.06.69-.16a1.67 1.67 0 0 0 .76-1.05 2.68 2.68 0 0 0 0-1.37 1.67 1.67 0 0 0-.76-1.05 1.28 1.28 0 0 0-.69-.16c-.26 0-.49.06-.68.16a1.67 1.67 0 0 0-.76 1.05 2.76 2.76 0 0 0 0 1.37c.06.22.15.42.28.6.13.2.28.33.48.45.19.11.42.16.68.16Zm4.45-4.57h-1.25l1.66 5.35h1.23l1-3.97 1.01 3.97h1.22l1.67-5.35h-1.2l-1.1 4-.98-4h-1.2l-1 4h-.01l-1.05-4Zm7.28 0h1.13v.81a2 2 0 0 1 .7-.7c.3-.17.62-.24.97-.24.58 0 1.04.14 1.38.45.33.3.5.75.5 1.37v3.68h-1.17v-3.38c-.02-.42-.1-.73-.28-.92-.16-.18-.42-.29-.77-.29-.2 0-.38.03-.54.1a1.27 1.27 0 0 0-.67.76c-.05.18-.08.35-.08.55v3.16h-1.16V72.4Zm5.98-2.04h1.18v7.4h-1.18v-7.4Zm4.91 7.54c-.42 0-.81-.08-1.14-.22a2.35 2.35 0 0 1-1.37-1.47 3.55 3.55 0 0 1-.18-1.14c0-.4.06-.78.18-1.13a2.35 2.35 0 0 1 1.37-1.47c.33-.14.7-.22 1.14-.22.43 0 .82.08 1.15.22.34.15.61.34.84.58.24.25.41.56.53.89.12.35.17.73.17 1.13 0 .41-.05.8-.17 1.14a2.35 2.35 0 0 1-1.37 1.47c-.33.16-.71.22-1.15.22Zm0-.93c.27 0 .5-.06.69-.16a1.69 1.69 0 0 0 .76-1.05 2.68 2.68 0 0 0 0-1.37 1.69 1.69 0 0 0-.28-.61 1.53 1.53 0 0 0-.48-.44 1.29 1.29 0 0 0-.69-.16c-.26 0-.5.06-.68.16a1.69 1.69 0 0 0-.76 1.05 2.76 2.76 0 0 0 0 1.37c.06.22.15.42.28.6a1.32 1.32 0 0 0 1.16.6Zm8.23-.1c-.04-.05-.06-.15-.06-.3V73.8c0-.28-.06-.51-.19-.71a1.72 1.72 0 0 0-.49-.48c-.2-.13-.42-.22-.68-.28a4.22 4.22 0 0 0-1.64 0c-.28.06-.54.16-.76.3-.22.14-.4.31-.55.54-.15.24-.24.51-.25.86h1.18c.02-.29.14-.5.36-.64.2-.13.48-.2.81-.2l.38.03c.13.01.26.04.37.1.11.04.2.12.27.22s.1.23.1.38c0 .17-.04.3-.13.39a.8.8 0 0 1-.35.19c-.14.04-.32.07-.5.08-.2.02-.4.05-.62.1-.24.02-.49.05-.74.1s-.46.14-.67.26c-.2.11-.36.27-.48.48a1.7 1.7 0 0 0-.17.81c0 .26.04.48.14.68.1.2.24.35.41.48.16.13.37.22.58.3.22.07.45.1.7.1.32 0 .66-.06.99-.16.33-.1.63-.27.86-.5.04.25.14.4.3.51a1.07 1.07 0 0 0 .66.14h.11l.18-.03h.03l.03-.01a7.36 7.36 0 0 0 .13-.03l.04-.01.16-.04v-.82c-.06.02-.12.02-.16.02h-.13c-.1 0-.18-.03-.22-.1Zm-1.9-1.58c.26-.03.5-.1.67-.22v.9c0 .17-.05.33-.13.46-.1.13-.2.23-.34.32-.14.08-.29.14-.44.17-.14.05-.29.06-.42.06l-.3-.02h-.05a.9.9 0 0 1-.35-.11.84.84 0 0 1-.27-.22.52.52 0 0 1-.12-.33c0-.16.02-.3.07-.4a.79.79 0 0 1 .22-.26c.1-.07.2-.11.3-.16.13-.04.24-.07.37-.09l.79-.1Zm8.15 2.46h-1.12v-.73h-.01c-.16.3-.4.54-.7.67a2.62 2.62 0 0 1-2.06-.01 2.04 2.04 0 0 1-.79-.61c-.2-.26-.36-.56-.46-.9a4.04 4.04 0 0 1 .04-2.38c.13-.34.3-.64.52-.87a2.12 2.12 0 0 1 1.6-.67c.16 0 .34.02.51.05.18.03.34.08.5.14.16.07.3.16.43.26s.25.24.34.38h.01v-2.72h1.18l.01 7.4Zm-4.11-2.62c0 .24.03.45.09.67.05.22.14.42.27.6a1.38 1.38 0 0 0 1.13.57c.27 0 .5-.06.69-.16.19-.12.35-.27.46-.44a2.35 2.35 0 0 0 .37-1.3c0-.6-.13-1.06-.4-1.38-.26-.32-.62-.5-1.07-.5a1.3 1.3 0 0 0-1.16.63c-.12.2-.2.4-.26.63-.1.22-.12.45-.12.68Zm6.69 1.63c-.24-.14-.37-.38-.4-.73l-1.2-.02c0 .32.07.6.19.82.11.24.29.43.49.59.2.16.45.27.74.35a3.7 3.7 0 0 0 2.55-.28c.23-.13.42-.32.56-.54.15-.23.22-.5.22-.81a1.32 1.32 0 0 0-.54-1.12 2.2 2.2 0 0 0-.55-.28 4.4 4.4 0 0 0-.63-.17l-.63-.14c-.2-.04-.4-.08-.56-.14-.16-.06-.29-.13-.39-.22a.43.43 0 0 1-.14-.35.4.4 0 0 1 .1-.29.62.62 0 0 1 .24-.16c.1-.03.2-.06.32-.07.12-.02.2-.02.3-.02.26 0 .49.05.7.15.2.09.33.29.38.57h1.24c-.03-.3-.12-.56-.25-.76a1.7 1.7 0 0 0-.5-.5 2.2 2.2 0 0 0-.69-.3 3.42 3.42 0 0 0-1.54-.01c-.26.04-.5.13-.73.24-.22.13-.39.28-.53.48-.15.2-.22.44-.22.73 0 .28.04.5.14.68.1.2.23.34.4.45.16.12.34.2.55.28a4.62 4.62 0 0 0 .95.24l.12.03.2.04c.2.04.38.08.54.14.16.06.3.13.4.23.1.1.16.24.16.38a.49.49 0 0 1-.1.37.59.59 0 0 1-.31.21c-.12.06-.25.1-.4.1l-.06.01-.31.03c-.32 0-.58-.08-.81-.2Z" clip-rule="evenodd"/>
  <rect width="119" height="119" x="104.5" y="0.5" stroke="#BFDBE0" rx="59.5"/>
</svg>
