<svg xmlns="http://www.w3.org/2000/svg" fill="none" viewBox="0 0 224 120">
  <rect width="119" height="119" x="0.5" y="0.5" fill="#F9F8F1" rx="59.5"/>
  <path fill="#0A0A0A" fill-rule="evenodd" d="M78.86 55.72c0-12.8-8.57-19.94-18.58-19.94v.01c-10.84 0-18.24 7.91-18.24 19.35 0 7.75 3.37 13.55 9.52 16.43l.5.3c.55.32.73.42.73.59 0 .15-.2.34-.42.55l-.38.4a5.06 5.06 0 0 0-1.3 3.3c0 1.25.57 2.29 1.44 2.29.43 0 .72-.51 1.06-1.12.51-.9 1.15-2.02 2.58-2.02 1.32 0 3.13 1.45 5.19 3.1 2.75 2.2 5.95 4.76 9.07 4.76 4.81 0 6.67-4.12 6.67-6.63 0-1.69-.55-2.75-1.15-2.75-.29 0-.49.26-.75.6-.47.63-1.14 1.52-2.92 1.52-1.87 0-4.2-1.07-5.98-1.88a75.8 75.8 0 0 0-.82-.37c-.45-.19-.65-.4-.65-.53 0-.16.2-.24.5-.32 7.9-1.44 13.93-7.32 13.93-17.64ZM54.5 63.15c-1.64-3.55-2.27-7.78-2.27-11.41 0-8 3.5-11.25 6.86-11.25 2.91 0 5.83 2.35 7.62 6.23a29.7 29.7 0 0 1 2.67 12.1c0 7-3.43 9.83-7.32 9.83-2.7 0-5.69-1.69-7.56-5.5Z" clip-rule="evenodd"/>
  <rect width="119" height="119" x="0.5" y="0.5" stroke="#BFDBE0" rx="59.5"/>
  <rect width="119" height="119" x="104.5" y="0.5" fill="#0072EF" rx="59.5"/>
  <path fill="#fff" d="m147.2 66.74-3.67-4.95-.95 1.15v3.8H140V54.37h2.58v5.54l4.3-5.53h3.17l-4.83 5.8 5.15 6.56h-3.17ZM158.58 57l-1.9 5.35h3.78L158.58 57Zm3.34 9.75-.74-2.2h-5.2l-.78 2.2h-2.94l4.69-12.37h3.24l4.67 12.37h-2.94Zm4.79-1 1.13-2.02a2.72 2.72 0 0 0 1.93.9c1.16 0 1.86-.79 1.86-2v-8.27h2.6v8.3c0 2.94-1.77 4.3-4.25 4.3a4.45 4.45 0 0 1-3.27-1.2Zm16.73-8.75-1.9 5.2h3.79l-1.9-5.2Zm3.34 9.75-.74-2.04h-5.2l-.78 2.04h-2.94l4.69-12.37h3.26l4.64 12.35-2.93.02Zm13.4-3.73a1.45 1.45 0 0 0-.95-1.38c-.2-.07-.4-.1-.59-.08h-3.37v2.82h3.34c.99 0 1.55-.47 1.55-1.36h.03Zm-.23-5.04c0-.78-.54-1.27-1.42-1.27h-3.28v2.66h3.28a1.33 1.33 0 0 0 1.32-.84c.07-.18.1-.36.1-.55Zm-7.3 8.75V54.37h6.44c2.32 0 3.48 1.5 3.48 3.15 0 1.56-.94 2.6-2.08 2.84 1.28.2 2.32 1.48 2.32 3.04 0 1.86-1.22 3.34-3.53 3.34h-6.64Zm14.6 0h2.58V54.37h-2.57v12.37ZM117.75 68.74V52.5h16.12l-16.12 16.24Zm3.22 0 6.45-6.49 6.45 6.5-12.9-.01Z"/>
  <rect width="119" height="119" x="104.5" y="0.5" stroke="#BFDBE0" rx="59.5"/>
</svg>
