<svg xmlns="http://www.w3.org/2000/svg" fill="none" viewBox="0 0 224 120">
  <rect width="119" height="119" x="0.5" y="0.5" fill="#F9F8F1" rx="59.5"/>
  <rect width="119" height="119" x="0.5" y="0.5" stroke="#BFDBE0" rx="59.5"/>
  <path fill="#0A0A0A" fill-rule="evenodd" d="M78.86 55.72c0-12.8-8.57-19.94-18.58-19.94v.01c-10.84 0-18.24 7.91-18.24 19.35 0 7.75 3.37 13.55 9.52 16.43l.5.3c.55.32.73.42.73.59 0 .15-.2.34-.42.55l-.38.4a5.06 5.06 0 0 0-1.3 3.3c0 1.25.57 2.29 1.44 2.29.43 0 .72-.51 1.06-1.12.51-.9 1.15-2.02 2.58-2.02 1.32 0 3.13 1.45 5.19 3.1 2.75 2.2 5.95 4.76 9.07 4.76 4.81 0 6.67-4.12 6.67-6.63 0-1.69-.55-2.75-1.15-2.75-.29 0-.49.26-.75.6a3.24 3.24 0 0 1-2.92 1.52c-1.87 0-4.2-1.07-5.98-1.88a75.8 75.8 0 0 0-.82-.37c-.45-.19-.65-.4-.65-.53 0-.16.2-.24.5-.32 7.9-1.44 13.93-7.32 13.93-17.64ZM54.5 63.15c-1.64-3.55-2.27-7.78-2.27-11.41 0-8 3.5-11.25 6.86-11.25 2.91 0 5.83 2.35 7.62 6.23a29.7 29.7 0 0 1 2.67 12.1c0 7-3.43 9.83-7.32 9.83-2.7 0-5.69-1.69-7.56-5.5Z" clip-rule="evenodd"/>
  <rect width="119" height="119" x="104.5" y="0.5" fill="#0A1551" rx="59.5"/>
  <rect width="119" height="119" x="104.5" y="0.5" stroke="#BFDBE0" rx="59.5"/>
  <path fill="#fff" d="M153.96 82.52c.94.91.27 2.48-1.07 2.48h-8.39c-1.65 0-3-1.3-3-2.91v-8.13c0-1.3 1.62-1.95 2.56-1.03l9.9 9.59Z"/>
  <path fill="#FFB629" d="M167.07 83.15a6.29 6.29 0 0 1 0-8.93l8.96-8.9a6.39 6.39 0 0 1 9 0 6.29 6.29 0 0 1 0 8.93l-8.97 8.9a6.39 6.39 0 0 1-9 0Z"/>
  <path fill="#09F" d="M143.4 60.78a6.29 6.29 0 0 1 0-8.94l15.07-14.99a6.39 6.39 0 0 1 9 0 6.29 6.29 0 0 1 0 8.93l-15.09 15a6.39 6.39 0 0 1-8.99 0Z"/>
  <path fill="#FF6100" d="M155.72 71.46a6.29 6.29 0 0 1 0-8.93L176.1 42.3a6.39 6.39 0 0 1 9 0 6.29 6.29 0 0 1 0 8.93L164.7 71.46a6.39 6.39 0 0 1-8.99 0Z"/>
</svg>
