<svg xmlns="http://www.w3.org/2000/svg" fill="none" viewBox="0 0 224 120">
  <rect width="119" height="119" x="0.5" y="0.5" fill="#F9F8F1" rx="59.5"/>
  <path fill="#0A0A0A" fill-rule="evenodd" d="M78.86 55.72c0-12.8-8.57-19.94-18.58-19.94v.01c-10.84 0-18.24 7.91-18.24 19.35 0 7.75 3.37 13.55 9.52 16.43l.5.3c.55.32.73.42.73.59 0 .15-.2.34-.42.55l-.38.4a5.06 5.06 0 0 0-1.3 3.3c0 1.25.57 2.29 1.44 2.29.43 0 .72-.51 1.06-1.12.51-.9 1.15-2.02 2.58-2.02 1.32 0 3.13 1.45 5.19 3.1 2.75 2.2 5.95 4.76 9.07 4.76 4.81 0 6.67-4.12 6.67-6.63 0-1.69-.55-2.75-1.15-2.75-.29 0-.49.26-.75.6-.47.63-1.14 1.52-2.92 1.52-1.87 0-4.2-1.07-5.98-1.88a75.8 75.8 0 0 0-.82-.37c-.45-.19-.65-.4-.65-.53 0-.16.2-.24.5-.32 7.9-1.44 13.93-7.32 13.93-17.64ZM54.5 63.15c-1.64-3.55-2.27-7.78-2.27-11.41 0-8 3.5-11.25 6.86-11.25 2.91 0 5.83 2.35 7.62 6.23a29.7 29.7 0 0 1 2.67 12.1c0 7-3.43 9.83-7.32 9.83-2.7 0-5.69-1.69-7.56-5.5Z" clip-rule="evenodd"/>
  <rect width="119" height="119" x="0.5" y="0.5" stroke="#BFDBE0" rx="59.5"/>
  <rect width="119" height="119" x="104.5" y="0.5" fill="#1C1B18" rx="59.5"/>
  <path fill="#F1F252" d="M127.04 59.47h3.9c.1.65.16 1.3.16 1.96 0 2.38-1.85 4.78-4.59 4.78-2.67 0-5.03-2.33-5.01-5.57.02-3.4 2.58-5.6 5.98-5.6.37 0 .74.03 1.1.08l1.15 3.64-.47.16-1.23-1.12c-1.06-.95-1.78-1.27-2.5-1.27-1 0-1.8.73-1.8 2.16 0 2.7 1.94 5.47 4.06 5.47 1.01 0 1.5-.37 1.86-.74l-2.6-3.42v-.53Zm14.17 2.16a4.57 4.57 0 0 1-4.7 4.62 4.57 4.57 0 0 1-4.72-4.62A4.57 4.57 0 0 1 136.5 57a4.57 4.57 0 0 1 4.72 4.62Zm-3.17-.5c-.69-2.09-1.59-3.34-2.67-2.99-1.08.36-1.08 1.9-.4 3.98.69 2.1 1.59 3.35 2.67 3 1.08-.36 1.08-1.9.4-3.99Zm12.25 1.08.21.71c-.28 1.58-1.47 3.3-3.84 3.3-2.67 0-4.76-2.25-4.76-5.5 0-3.48 2.56-5.67 5.73-5.67.37 0 .74.02 1.1.07l1.15 3.65-.48.16-1.22-1.12c-1.04-.94-1.68-1.3-2.4-1.3-1 0-1.65.75-1.65 2.19 0 2.69 1.49 5.11 3.66 5.11 1.35 0 2.08-.75 2.5-1.6Zm10.32 2.41.18.57a2.2 2.2 0 0 1-1.86 1c-1.47 0-2.07-.86-2.5-2.03a3.04 3.04 0 0 1-3.04 2.05c-1.52 0-2.36-1-2.36-2.1 0-1.52 1.26-2.6 3.95-4-.33-.64-1.1-.94-1.91-.94-1-.02-2.09.4-2.66 1.17l-.2-.6a4.37 4.37 0 0 1 4.12-2.68c2.03 0 3.41 1.24 4.05 3.2l1.23 3.76c.17.57.46.73.69.73.11 0 .23-.05.31-.13Zm-5-2.78-.38-1.11c-1 .76-1.5 1.73-1.5 2.44 0 .92.46 1.35 1.1 1.35 1.09 0 1.32-1.03.77-2.68ZM168 59.8l-.45.16a3.98 3.98 0 0 0-2.11-.48c-.32.01-.64.08-.94.21v4.78c0 .5.25.87.9 1.06v.54h-4.44v-.54c.58-.2.63-.56.63-1.06v-5.1c0-.92-.26-1.24-1.2-1.63v-.53h4.07l-.07 1.93h.04l.33-.44c.68-.89 1.53-1.52 2.36-1.52h.07l.82 2.62Zm9.02 5.73v.54h-3.65l.02-1.16h-.09a2.79 2.79 0 0 1-2.36 1.22c-2.02 0-3.27-1.7-3.27-3.9 0-2.88 1.94-4.97 5.13-4.97l.5.02v-.72c0-.78-.4-1.05-1.03-1.1v-.48l3.77-1.22h.16v10.71c0 .5.23.87.82 1.06Zm-3.72-2.37v-4.64c-.2-.08-.43-.13-.66-.12-1.04 0-2.33.8-2.33 3.02 0 2.08.8 3.2 1.87 3.2.4.01 1.12-.18 1.12-1.46Zm8.89 2.37v.54h-4.53v-.54c.58-.2.8-.56.8-1.06v-7.91c0-.78-.38-1.05-1.02-1.1v-.48l3.77-1.22h.16v10.71c0 .5.23.87.82 1.06Zm9.24-3.66.2.6a4.27 4.27 0 0 1-4.18 3.75c-2.82 0-4.62-2.1-4.62-4.76 0-2.42 1.7-4.37 4.09-4.37a3.73 3.73 0 0 1 3.56 2.5l-4.64 3.13a3.63 3.63 0 0 0 2.63 1.17c1.45 0 2.55-1.01 2.96-2.02Zm-6.78-2c0 .78.27 1.6.73 2.29l.77-.75c.53-.5.98-1.04.98-1.8 0-.59-.4-1.28-1.17-1.28-.73 0-1.31.55-1.31 1.54Zm11.91.58c1.72.87 2.41 1.72 2.41 2.9 0 1.44-1.15 2.87-3.61 2.87a6.55 6.55 0 0 1-2.71-.47l-.84-2.59.47-.14.4.4c1.26 1.18 2.34 1.96 3.17 1.96.62 0 .96-.4.96-.8 0-.39-.07-.85-1.13-1.38l-1.58-.8c-1.38-.7-2.03-1.57-2.03-2.56 0-1.7 1.49-2.7 3.4-2.7 1.29 0 2.02.18 2.02.18l.72 2.25-.46.14-.28-.25c-1.47-1.29-1.98-1.55-2.6-1.55-.45 0-.82.28-.82.67 0 .28.06.64.94 1.08l1.57.8Zm7.44.02c1.7.89 2.4 1.7 2.4 2.89 0 1.43-1.14 2.86-3.6 2.86a6.55 6.55 0 0 1-2.72-.47l-.83-2.59.46-.14.4.4c1.26 1.18 2.34 1.96 3.18 1.96.62 0 .96-.4.96-.8 0-.39-.07-.83-1.13-1.38l-1.58-.81c-1.38-.71-2.04-1.56-2.04-2.55 0-1.7 1.5-2.7 3.4-2.7 1.3 0 2.02.18 2.02.18l.73 2.25-.46.14-.28-.24c-1.47-1.3-1.99-1.56-2.6-1.56-.45 0-.82.28-.82.67 0 .29.05.62.94 1.08l1.57.81Z"/>
  <rect width="119" height="119" x="104.5" y="0.5" stroke="#BFDBE0" rx="59.5"/>
</svg>
