<svg xmlns="http://www.w3.org/2000/svg" fill="none" viewBox="0 0 224 120">
  <rect width="119" height="119" x="0.5" y="0.5" fill="#F9F8F1" rx="59.5"/>
  <path fill="#0A0A0A" fill-rule="evenodd" d="M78.86 55.72c0-12.8-8.57-19.94-18.58-19.94v.01c-10.84 0-18.24 7.91-18.24 19.35 0 7.75 3.37 13.55 9.52 16.43l.5.3c.55.32.73.42.73.59 0 .15-.2.34-.42.55l-.38.4a5.06 5.06 0 0 0-1.3 3.3c0 1.25.57 2.29 1.44 2.29.43 0 .72-.51 1.06-1.12.51-.9 1.15-2.02 2.58-2.02 1.32 0 3.13 1.45 5.19 3.1 2.75 2.2 5.95 4.76 9.07 4.76 4.81 0 6.67-4.12 6.67-6.63 0-1.69-.55-2.75-1.15-2.75-.29 0-.49.26-.75.6a3.24 3.24 0 0 1-2.92 1.52c-1.87 0-4.2-1.07-5.98-1.88a75.8 75.8 0 0 0-.82-.37c-.45-.19-.65-.4-.65-.53 0-.16.2-.24.5-.32 7.9-1.44 13.93-7.32 13.93-17.64ZM54.5 63.15c-1.64-3.55-2.27-7.78-2.27-11.41 0-8 3.5-11.25 6.86-11.25 2.91 0 5.83 2.35 7.62 6.23a29.7 29.7 0 0 1 2.67 12.1c0 7-3.43 9.83-7.32 9.83-2.7 0-5.69-1.69-7.56-5.5Z" clip-rule="evenodd"/>
  <rect width="119" height="119" x="0.5" y="0.5" stroke="#BFDBE0" rx="59.5"/>
  <rect width="119" height="119" x="104.5" y="0.5" fill="#fff" rx="59.5"/>
  <g clip-path="url(#a)">
    <path fill="#201515" d="M140.13 65.2v-.03l8-7.22v-3.47h-12.84v3.47h7.66l.02.04-7.93 7.22v3.47h13.21v-3.47h-8.12ZM156.13 54.15c-1.48 0-2.68.22-3.62.66a4.73 4.73 0 0 0-2.1 1.8c-.48.81-.78 1.7-.88 2.63l3.9.54c.14-.82.42-1.4.84-1.74a2.6 2.6 0 0 1 1.67-.5c.8 0 1.37.2 1.73.62.35.41.53.99.53 1.75v.38h-3.75c-1.9 0-3.27.42-4.1 1.25a4.45 4.45 0 0 0-1.25 3.3c0 1.4.41 2.43 1.24 3.12a4.75 4.75 0 0 0 3.14 1.01c1.56 0 2.77-.52 3.6-1.58.5-.65.86-1.4 1.05-2.2h.14l.54 3.48h3.53v-8.8c0-1.82-.49-3.23-1.46-4.22-.98-1-2.56-1.5-4.75-1.5ZM157.37 65c-.56.46-1.3.69-2.2.69-.76 0-1.28-.13-1.58-.4a1.27 1.27 0 0 1-.44-.98 1.28 1.28 0 0 1 .37-.96 1.37 1.37 0 0 1 1-.36h3.69v.24a2.19 2.19 0 0 1-.84 1.77ZM183.68 54.48h-4.17v14.2h4.17v-14.2ZM208.3 54.48c-1.18 0-2.1.4-2.79 1.23a6.16 6.16 0 0 0-1.1 2.6h-.13l-.55-3.83h-3.56v14.2h4.17V61.4c0-.92.22-1.62.66-2.11.44-.5 1.24-.74 2.42-.74H209v-4.07h-.7ZM196.04 54.94a7.18 7.18 0 0 0-3.69-.85c-2.33 0-4.16.65-5.47 1.96-1.32 1.31-1.98 3.11-1.98 5.41a8.52 8.52 0 0 0 .9 4.02 6.42 6.42 0 0 0 2.55 2.65c1.1.63 2.42.95 3.94.95 1.32 0 2.42-.2 3.3-.6a5.3 5.3 0 0 0 2.1-1.64c.53-.7.91-1.48 1.15-2.32l-3.6-.99a3.26 3.26 0 0 1-.84 1.44c-.4.4-1.09.6-2.04.6-1.13 0-1.98-.32-2.54-.96a3.67 3.67 0 0 1-.76-1.98h9.83c.04-.4.07-.73.07-1v-.89a7.78 7.78 0 0 0-.73-3.44 5.42 5.42 0 0 0-2.2-2.36Zm-3.8 2.53c1.69 0 2.64.82 2.87 2.46h-5.98c.1-.54.32-1.06.67-1.5.55-.64 1.36-.96 2.43-.96ZM181.64 48.75a2.38 2.38 0 0 0-1.7.65 2.23 2.23 0 0 0-.68 1.66 2.24 2.24 0 0 0 1.46 2.18c.29.12.6.17.92.16a2.29 2.29 0 0 0 1.69-.66 2.28 2.28 0 0 0 .65-1.68 2.2 2.2 0 0 0-1.43-2.16c-.29-.11-.6-.16-.9-.15h-.01ZM173.03 54.09c-1.43 0-2.57.44-3.43 1.32a6.02 6.02 0 0 0-1.4 2.91h-.14l-.54-3.84h-3.56v18.29h4.17v-7.53h.15c.13.5.3.99.53 1.45.35.76.93 1.4 1.66 1.83.75.4 1.6.6 2.46.59 1.75 0 3.08-.67 4-2.01.9-1.34 1.36-3.21 1.36-5.6 0-2.32-.44-4.14-1.32-5.45a4.44 4.44 0 0 0-3.94-1.96Zm.42 10.3c-.49.69-1.25 1.03-2.28 1.03a2.73 2.73 0 0 1-2.24-1 4.23 4.23 0 0 1-.8-2.74v-.27c0-1.18.26-2.08.8-2.7a2.76 2.76 0 0 1 2.23-.94c1.06 0 1.83.33 2.3 1 .48.65.72 1.57.72 2.75 0 1.22-.24 2.17-.73 2.86Z"/>
    <path fill="#FF4F00" d="M133.43 65.2H119v3.49h14.43V65.2Z"/>
  </g>
  <rect width="119" height="119" x="104.5" y="0.5" stroke="#BFDBE0" rx="59.5"/>
  <defs>
    <clipPath id="a">
      <path fill="#fff" d="M119 48.75h90v24.11h-90z"/>
    </clipPath>
  </defs>
</svg>
