<svg xmlns="http://www.w3.org/2000/svg" fill="none" viewBox="0 0 224 120">
  <rect width="119" height="119" x="0.5" y="0.5" fill="#F9F8F1" rx="59.5"/>
  <path fill="#0A0A0A" fill-rule="evenodd" d="M78.86 55.72c0-12.8-8.57-19.94-18.58-19.94v.01c-10.84 0-18.24 7.91-18.24 19.35 0 7.75 3.37 13.55 9.52 16.43l.5.3c.55.32.73.42.73.59 0 .15-.2.34-.42.55l-.38.4a5.06 5.06 0 0 0-1.3 3.3c0 1.25.57 2.29 1.44 2.29.43 0 .72-.51 1.06-1.12.51-.9 1.15-2.02 2.58-2.02 1.32 0 3.13 1.45 5.19 3.1 2.75 2.2 5.95 4.76 9.07 4.76 4.81 0 6.67-4.12 6.67-6.63 0-1.69-.55-2.75-1.15-2.75-.29 0-.49.26-.75.6a3.24 3.24 0 0 1-2.92 1.52c-1.87 0-4.2-1.07-5.98-1.88a75.8 75.8 0 0 0-.82-.37c-.45-.19-.65-.4-.65-.53 0-.16.2-.24.5-.32 7.9-1.44 13.93-7.32 13.93-17.64ZM54.5 63.15c-1.64-3.55-2.27-7.78-2.27-11.41 0-8 3.5-11.25 6.86-11.25 2.91 0 5.83 2.35 7.62 6.23a29.7 29.7 0 0 1 2.67 12.1c0 7-3.43 9.83-7.32 9.83-2.7 0-5.69-1.69-7.56-5.5Z" clip-rule="evenodd"/>
  <rect width="119" height="119" x="0.5" y="0.5" stroke="#BFDBE0" rx="59.5"/>
  <rect width="119" height="119" x="104.5" y="0.5" fill="#00A5B3" rx="59.5"/>
  <path fill="#fff" d="M141.67 68.02h-2.36v-.77h-.04a2.9 2.9 0 0 1-2.27 1.04c-2.47 0-3.87-2.24-3.87-4.52 0-2.22 1.42-4.43 3.83-4.43.9 0 1.76.38 2.35 1.06v-.79h2.36v8.4Zm-2.13-4.21c0-1.13-.77-2.35-2-2.35s-1.98 1.22-1.98 2.35c0 1.13.75 2.36 1.98 2.36s2-1.23 2-2.36ZM186.95 68.02h-2.36v-.77h-.03a2.9 2.9 0 0 1-2.28 1.04c-2.47 0-3.87-2.24-3.87-4.52 0-2.22 1.42-4.43 3.84-4.43.9 0 1.75.38 2.35 1.06v-.79h2.36v8.4Zm-2.12-4.21c0-1.13-.77-2.35-2-2.35s-1.99 1.22-1.99 2.35c0 1.13.75 2.36 1.99 2.36 1.23 0 2-1.23 2-2.36Zm5.89 4.2h-2.4v-14.5h2.4V68Zm3.82 0h-2.4v-14.5h2.4V68Zm.87-8.4h2.72l2 4.78 2.16-4.78h2.67l-6.11 12.89h-2.64l2.78-5.77-3.58-7.12Zm-63.66-11.4-1.7-.71-9.11 9.67a6.23 6.23 0 0 0-1.94 4.7c0 3.63 2.48 6.22 6.15 6.22 3.66 0 6.14-2.6 6.14-6.21l.46-13.68Zm-2.35 2.89h.03l-.3 4.68-2.67-1.1 2.94-3.58Zm-5.96 7.1 1.86-1.91 3.7 1.54-.1 2.61-5.46-2.24ZM148.67 62.34c-.5-.5-.99-.8-1.7-.8-1.3 0-2.04 1.23-2.04 2.41 0 1.27.81 2.32 2.13 2.32.62 0 1.2-.31 1.6-.77v2.22c-.6.33-1.29.5-1.98.5-2.39 0-4.08-1.97-4.08-4.29 0-2.4 1.76-4.32 4.2-4.32.65 0 1.3.17 1.87.5v2.23Zm6.92 0c-.49-.5-.98-.8-1.7-.8-1.29 0-2.03 1.23-2.03 2.41 0 1.27.8 2.32 2.12 2.32.63 0 1.2-.31 1.61-.77v2.22c-.6.33-1.3.5-1.99.5-2.38 0-4.08-1.97-4.08-4.29 0-2.4 1.76-4.32 4.2-4.32.66 0 1.3.17 1.87.5v2.23Zm3.3 1.94c0 1.02.39 2.17 1.59 2.17.76 0 1.23-.46 1.55-1.1l2.12.34a3.72 3.72 0 0 1-3.67 2.52c-2.5 0-4.03-1.77-4.03-4.23 0-2.45 1.3-4.37 3.92-4.37 2.65 0 3.83 1.96 3.83 4.39v.28h-5.32Zm3.14-1.43c-.12-.82-.65-1.63-1.53-1.63-.93 0-1.44.79-1.55 1.63h3.08Zm7.38-1.07a1.83 1.83 0 0 0-1.22-.56c-.37 0-.75.3-.75.7 0 .58.84.75 1.66 1.11.84.37 1.66.92 1.66 2.32 0 1.8-1.45 2.86-3.14 2.86a3.7 3.7 0 0 1-2.85-1.35l1.05-1.36c.45.5 1.04.94 1.72.94.5 0 .92-.35.92-.88 0-.7-.8-.87-1.62-1.21-.8-.35-1.6-.83-1.6-2.13 0-1.51 1.05-2.61 2.56-2.61.85 0 1.94.26 2.6.84l-.99 1.33Zm6.75 0a1.83 1.83 0 0 0-1.22-.56c-.38 0-.76.3-.76.7 0 .58.84.75 1.66 1.11.84.37 1.67.92 1.67 2.32 0 1.8-1.45 2.86-3.15 2.86-1.1 0-2.14-.5-2.84-1.35l1.05-1.36c.44.5 1.04.94 1.71.94.51 0 .92-.35.92-.88 0-.7-.8-.87-1.61-1.21-.8-.35-1.61-.83-1.61-2.13 0-1.51 1.05-2.61 2.56-2.61.86 0 1.95.26 2.6.84l-.98 1.33ZM207.03 59.33h-.4V57.6h-.42v-.35h1.23v.35h-.41v1.72Zm2.24-1.28-.47 1.3h-.14l-.45-1.3-.2 1.27h-.4l.35-2.12h.28l.51 1.37.5-1.37h.28l.32 2.13h-.41l-.17-1.28Z"/>
  <rect width="119" height="119" x="104.5" y="0.5" stroke="#BFDBE0" rx="59.5"/>
</svg>
