<svg xmlns="http://www.w3.org/2000/svg" fill="none" viewBox="0 0 224 120">
  <rect width="119" height="119" x="0.5" y="0.5" fill="#F9F8F1" rx="59.5"/>
  <path fill="#0A0A0A" fill-rule="evenodd" d="M78.86 55.72c0-12.8-8.57-19.94-18.58-19.94v.01c-10.84 0-18.24 7.91-18.24 19.35 0 7.75 3.37 13.55 9.52 16.43l.5.3c.55.32.73.42.73.59 0 .15-.2.34-.42.55l-.38.4a5.06 5.06 0 0 0-1.3 3.3c0 1.25.57 2.29 1.44 2.29.43 0 .72-.51 1.06-1.12.51-.9 1.15-2.02 2.58-2.02 1.32 0 3.13 1.45 5.19 3.1 2.75 2.2 5.95 4.76 9.07 4.76 4.81 0 6.67-4.12 6.67-6.63 0-1.69-.55-2.75-1.15-2.75-.29 0-.49.26-.75.6-.47.63-1.14 1.52-2.92 1.52-1.87 0-4.2-1.07-5.98-1.88a75.8 75.8 0 0 0-.82-.37c-.45-.19-.65-.4-.65-.53 0-.16.2-.24.5-.32 7.9-1.44 13.93-7.32 13.93-17.64ZM54.5 63.15c-1.64-3.55-2.27-7.78-2.27-11.41 0-8 3.5-11.25 6.86-11.25 2.91 0 5.83 2.35 7.62 6.23a29.7 29.7 0 0 1 2.67 12.1c0 7-3.43 9.83-7.32 9.83-2.7 0-5.69-1.69-7.56-5.5Z" clip-rule="evenodd"/>
  <rect width="119" height="119" x="0.5" y="0.5" stroke="#BFDBE0" rx="59.5"/>
  <rect width="119" height="119" x="104.5" y="0.5" fill="#fff" rx="59.5"/>
  <path fill="#1D1D1B" d="M122 55.14h-7.24a.76.76 0 0 0-.54 1.3c.14.14.34.22.54.22h2.86v8.62a.76.76 0 0 0 1.52 0v-8.62H122a.76.76 0 1 0 0-1.52Zm13.82 0a.76.76 0 0 0-.76.75v3.94h-6.34V55.9a.76.76 0 0 0-1.51 0v9.38a.76.76 0 0 0 1.51 0v-3.94h6.34v3.94a.76.76 0 0 0 1.52 0V55.9a.74.74 0 0 0-.22-.54.75.75 0 0 0-.54-.22Zm7.29 0a.76.76 0 0 0-.76.75v9.4a.76.76 0 0 0 1.52 0v-9.4a.75.75 0 0 0-.47-.7.76.76 0 0 0-.3-.05Zm22.47 0a.76.76 0 0 0-.76.76v9.38a.76.76 0 0 0 1.52 0V55.9a.76.76 0 0 0-.75-.76Zm13.97 0a.76.76 0 0 0-.76.76v9.38a.76.76 0 0 0 1.3.54.76.76 0 0 0 .22-.54V55.9a.76.76 0 0 0-.47-.7.76.76 0 0 0-.3-.06Zm19 0a.76.76 0 0 0-.74.76v9.38a.76.76 0 0 0 1.52 0V55.9a.76.76 0 0 0-.76-.76h-.02Zm-5.94 0h-5.78a.76.76 0 0 0-.76.75v9.4a.76.76 0 0 0 1.3.53.76.76 0 0 0 .22-.54v-3.72h4.47a.76.76 0 0 0 .54-1.3.76.76 0 0 0-.54-.22h-4.47v-3.38h5.02a.76.76 0 0 0 .54-1.3.76.76 0 0 0-.54-.22Zm-34.33 0a.76.76 0 0 0-.75.75v7.3L151 55.43a.76.76 0 0 0-1.35.48v9.38a.76.76 0 0 0 1.52 0v-7.3l6.51 7.78a.76.76 0 0 0 1.35-.48V55.9a.76.76 0 0 0-.75-.76Zm54.43 8.46a4.15 4.15 0 1 1 0-5.87.76.76 0 1 0 1.07-1.07 5.66 5.66 0 1 0 0 8.01.76.76 0 0 0-1.07-1.07Zm-39.72-8.3a.75.75 0 0 0-1.06.13l-3.62 4.7a.76.76 0 0 0 0 .92l3.62 4.69a.76.76 0 0 0 1.2-.92l-3.27-4.23 3.26-4.23a.76.76 0 0 0-.13-1.07Z"/>
  <rect width="119" height="119" x="104.5" y="0.5" stroke="#BFDBE0" rx="59.5"/>
</svg>
