<svg xmlns="http://www.w3.org/2000/svg" fill="none" viewBox="0 0 224 120">
  <rect width="119" height="119" x="0.5" y="0.5" fill="#F9F8F1" rx="59.5"/>
  <path fill="#0A0A0A" fill-rule="evenodd" d="M78.86 55.72c0-12.8-8.57-19.94-18.58-19.94v.01c-10.84 0-18.24 7.91-18.24 19.35 0 7.75 3.37 13.55 9.52 16.43l.5.3c.55.32.73.42.73.59 0 .15-.2.34-.42.55l-.38.4a5.06 5.06 0 0 0-1.3 3.3c0 1.25.57 2.29 1.44 2.29.43 0 .72-.51 1.06-1.12.51-.9 1.15-2.02 2.58-2.02 1.32 0 3.13 1.45 5.19 3.1 2.75 2.2 5.95 4.76 9.07 4.76 4.81 0 6.67-4.12 6.67-6.63 0-1.69-.55-2.75-1.15-2.75-.29 0-.49.26-.75.6-.47.63-1.14 1.52-2.92 1.52-1.87 0-4.2-1.07-5.98-1.88a75.8 75.8 0 0 0-.82-.37c-.45-.19-.65-.4-.65-.53 0-.16.2-.24.5-.32 7.9-1.44 13.93-7.32 13.93-17.64ZM54.5 63.15c-1.64-3.55-2.27-7.78-2.27-11.41 0-8 3.5-11.25 6.86-11.25 2.91 0 5.83 2.35 7.62 6.23a29.7 29.7 0 0 1 2.67 12.1c0 7-3.43 9.83-7.32 9.83-2.7 0-5.69-1.69-7.56-5.5Z" clip-rule="evenodd"/>
  <rect width="119" height="119" x="0.5" y="0.5" stroke="#BFDBE0" rx="59.5"/>
  <rect width="119" height="119" x="104.5" y="0.5" fill="#fff" rx="59.5"/>
  <path fill="#000" d="M120.7 52.5v4.01h3.14v1.79h-3.13v5.44c0 1.16.6 1.79 1.64 1.79h1.5v1.8h-1.67c-2.15 0-3.51-1.32-3.51-3.5v-5.55h-2.17V56.5h2.17V52.5h2.04Zm13.81 11.33c-.38 2.2-2.3 3.65-4.9 3.65-3.28 0-5.32-2.61-5.32-5.59 0-2.97 1.85-5.46 5.11-5.46 3.26 0 5.03 2.36 5.03 5.08 0 .28-.02.62-.05.8h-8.1c.17 2.03 1.48 3.4 3.33 3.4 1.54 0 2.56-.67 2.86-1.89h2.04Zm-8.16-3.02h6.01c-.13-1.64-1.22-2.7-2.96-2.7-1.67-.02-2.74.91-3.05 2.7Zm18.51-.4v6.92h-2.04v-1.76c-.5 1.16-1.85 1.93-3.46 1.93-2.17 0-3.6-1.32-3.6-3.23 0-2.06 1.62-3.34 4.13-3.34h2.2c.49 0 .72-.25.72-.63 0-1.3-.93-2.2-2.57-2.2-1.47 0-2.54.94-2.6 2.03h-1.9c.17-2.11 2.06-3.68 4.57-3.68 2.73-.02 4.55 1.57 4.55 3.95Zm-2.04 2.2v-.25h-2.73c-1.4 0-2.31.72-2.31 1.85 0 .98.8 1.64 1.97 1.64 1.96 0 3.07-1.26 3.07-3.24Zm3.54-.65c0-2.96 1.92-5.53 5.25-5.53 2.49 0 4.62 1.49 4.93 3.91h-2.04c-.19-1.21-1.4-2.1-2.84-2.1-2.12 0-3.17 1.65-3.17 3.72 0 2.06 1.07 3.72 3.17 3.72 1.45 0 2.53-.78 2.86-1.98h2.02c-.34 2.25-2.23 3.78-4.92 3.78-3.35 0-5.26-2.57-5.26-5.52Zm11.85-9.42h2.04v5.95c.57-1.34 1.83-2.06 3.4-2.06 2.4 0 3.96 1.74 3.96 4.29v6.61h-2.04v-6.18c0-1.7-.99-2.85-2.48-2.85-1.66 0-2.84 1.36-2.84 3.23v5.8h-2.04V52.54ZM172 57.75v2.32h-2.25v-2.32H172Zm0 6.84v2.3h-2.25v-2.3H172Zm10.78-4.19v6.93h-2.05v-1.76c-.5 1.16-1.85 1.93-3.46 1.93-2.17 0-3.6-1.32-3.6-3.23 0-2.06 1.62-3.34 4.13-3.34h2.2c.49 0 .72-.25.72-.63 0-1.3-.93-2.2-2.57-2.2-1.47 0-2.54.94-2.6 2.03h-1.9c.17-2.11 2.06-3.68 4.57-3.68 2.75-.02 4.56 1.57 4.56 3.95Zm-2.05 2.21v-.25H178c-1.39 0-2.3.72-2.3 1.85 0 .98.8 1.64 1.97 1.64 1.95 0 3.06-1.26 3.06-3.24Zm6.25 3.1v1.62h-2.04V52.54h2.04v5.63a3.85 3.85 0 0 1 3.34-1.74c3.24 0 5.07 2.34 5.07 5.53 0 3.18-1.83 5.52-5.09 5.52a3.83 3.83 0 0 1-3.32-1.76Zm6.35-3.75c0-2.24-1.3-3.72-3.26-3.72-1.96 0-3.26 1.48-3.26 3.72 0 2.23 1.28 3.72 3.26 3.72 1.98 0 3.26-1.5 3.26-3.72Zm3.83-9.42h2.03v14.79h-2.04l.01-14.79Zm13.96 11.29c-.39 2.2-2.31 3.65-4.9 3.65-3.28 0-5.33-2.61-5.33-5.59 0-2.97 1.85-5.46 5.11-5.46 3.26 0 5.03 2.36 5.03 5.08 0 .28-.02.62-.04.8h-8.1c.17 2.03 1.47 3.4 3.32 3.4 1.54 0 2.57-.67 2.86-1.89h2.05Zm-8.17-3.02h6.02c-.13-1.64-1.22-2.7-2.97-2.7-1.66-.02-2.73.91-3.05 2.7Z"/>
  <rect width="119" height="119" x="104.5" y="0.5" stroke="#BFDBE0" rx="59.5"/>
</svg>
