<svg xmlns="http://www.w3.org/2000/svg" fill="none" viewBox="0 0 224 120">
  <rect width="119" height="119" x="0.5" y="0.5" fill="#F9F8F1" rx="59.5"/>
  <path fill="#0A0A0A" fill-rule="evenodd" d="M78.86 55.72c0-12.8-8.57-19.94-18.58-19.94v.01c-10.84 0-18.24 7.91-18.24 19.35 0 7.75 3.37 13.55 9.52 16.43l.5.3c.55.32.73.42.73.59 0 .15-.2.34-.42.55l-.38.4a5.06 5.06 0 0 0-1.3 3.3c0 1.25.57 2.29 1.44 2.29.43 0 .72-.51 1.06-1.12.51-.9 1.15-2.02 2.58-2.02 1.32 0 3.13 1.45 5.19 3.1 2.75 2.2 5.95 4.76 9.07 4.76 4.81 0 6.67-4.12 6.67-6.63 0-1.69-.55-2.75-1.15-2.75-.29 0-.49.26-.75.6-.47.63-1.14 1.52-2.92 1.52-1.87 0-4.2-1.07-5.98-1.88a75.8 75.8 0 0 0-.82-.37c-.45-.19-.65-.4-.65-.53 0-.16.2-.24.5-.32 7.9-1.44 13.93-7.32 13.93-17.64ZM54.5 63.15c-1.64-3.55-2.27-7.78-2.27-11.41 0-8 3.5-11.25 6.86-11.25 2.91 0 5.83 2.35 7.62 6.23a29.7 29.7 0 0 1 2.67 12.1c0 7-3.43 9.83-7.32 9.83-2.7 0-5.69-1.69-7.56-5.5Z" clip-rule="evenodd"/>
  <rect width="119" height="119" x="0.5" y="0.5" stroke="#BFDBE0" rx="59.5"/>
  <rect width="119" height="119" x="104.5" y="0.5" fill="#635BFF" rx="59.5"/>
  <path fill="#fff" fill-rule="evenodd" d="M200.1 60.49c0-5.12-2.5-9.16-7.25-9.16s-7.66 4.04-7.66 9.13c0 6.03 3.42 9.08 8.3 9.08 1.93.05 3.84-.4 5.54-1.3v-4.02a10.6 10.6 0 0 1-4.91 1.1c-1.95 0-3.67-.69-3.9-3.03h9.8c.03-.27.07-1.32.07-1.8Zm-9.92-1.9c0-2.25 1.4-3.19 2.64-3.19 1.25 0 2.53.95 2.53 3.2h-5.17Zm-12.73-7.26c-1.46 0-2.87.56-3.92 1.57l-.26-1.23h-4.4V75l5-1.06v-5.66c1 .82 2.25 1.27 3.54 1.27 3.58 0 6.86-2.88 6.86-9.23.01-5.83-3.3-8.99-6.82-8.99Zm-1.2 13.8a2.98 2.98 0 0 1-2.36-.96l-.03-7.44a3.03 3.03 0 0 1 2.4-1c1.83 0 3.09 2.05 3.09 4.66 0 2.72-1.25 4.73-3.1 4.73Zm-14.3-15 5.03-1.06V45l-5.02 1.07v4.07Zm0 1.53H167v17.52h-5.03V51.66Zm-5.69-.01.31 1.49c1.17-2.15 3.51-1.72 4.18-1.48v4.58c-.64-.2-2.63-.5-3.82 1.05v11.9h-5V51.64h4.33Zm-14.62-3.3 4.89-1.03.03 4.34h3.8v4.26h-3.8v7.12c0 2.94 3.16 2.03 3.8 1.77v4.07c-1.1.49-2.31.72-3.52.66a5.05 5.05 0 0 1-5.2-5.14V48.36Zm-6.97 7.31c-1.04 0-1.7.3-1.7 1.09 0 .85 1.11 1.23 2.49 1.7 2.23.75 5.17 1.74 5.17 5.43 0 3.6-2.87 5.65-7.03 5.65-1.88 0-3.74-.39-5.47-1.13v-4.77c1.68.94 3.55 1.49 5.47 1.6 1.11 0 1.92-.3 1.92-1.23 0-.94-1.2-1.37-2.64-1.89-2.2-.79-4.97-1.78-4.97-5.13 0-3.53 2.7-5.65 6.76-5.65 1.7-.02 3.4.3 4.98.91v4.7a11.24 11.24 0 0 0-4.98-1.28Z" clip-rule="evenodd"/>
  <rect width="119" height="119" x="104.5" y="0.5" stroke="#BFDBE0" rx="59.5"/>
</svg>
