<svg xmlns="http://www.w3.org/2000/svg" fill="none" viewBox="0 0 224 120">
  <rect width="119" height="119" x="0.5" y="0.5" fill="#F9F8F1" rx="59.5"/>
  <path fill="#0A0A0A" fill-rule="evenodd" d="M78.86 55.72c0-12.8-8.57-19.94-18.58-19.94v.01c-10.84 0-18.24 7.91-18.24 19.35 0 7.75 3.37 13.55 9.52 16.43l.5.3c.55.32.73.42.73.59 0 .15-.2.34-.42.55l-.38.4a5.06 5.06 0 0 0-1.3 3.3c0 1.25.57 2.29 1.44 2.29.43 0 .72-.51 1.06-1.12.51-.9 1.15-2.02 2.58-2.02 1.32 0 3.13 1.45 5.19 3.1 2.75 2.2 5.95 4.76 9.07 4.76 4.81 0 6.67-4.12 6.67-6.63 0-1.69-.55-2.75-1.15-2.75-.29 0-.49.26-.75.6-.47.63-1.14 1.52-2.92 1.52-1.87 0-4.2-1.07-5.98-1.88a75.8 75.8 0 0 0-.82-.37c-.45-.19-.65-.4-.65-.53 0-.16.2-.24.5-.32 7.9-1.44 13.93-7.32 13.93-17.64ZM54.5 63.15c-1.64-3.55-2.27-7.78-2.27-11.41 0-8 3.5-11.25 6.86-11.25 2.91 0 5.83 2.35 7.62 6.23a29.7 29.7 0 0 1 2.67 12.1c0 7-3.43 9.83-7.32 9.83-2.7 0-5.69-1.69-7.56-5.5Z" clip-rule="evenodd"/>
  <rect width="119" height="119" x="0.5" y="0.5" stroke="#BFDBE0" rx="59.5"/>
  <rect width="119" height="119" x="104.5" y="0.5" fill="#fff" rx="59.5"/>
  <path fill="#1F1F1F" d="M147.7 65.8c2.64 0 4.25-1.34 4.25-3.28 0-4.22-5.63-3.06-5.63-5.2 0-.6.48-1.03 1.42-1.03a1.73 1.73 0 0 1 1.82 1.4l2.23-.87c-.41-1.52-1.85-2.55-3.92-2.55-2.5 0-3.93 1.36-3.93 3.25 0 3.97 5.63 2.84 5.63 5.07 0 .72-.6 1.16-1.6 1.16a2.17 2.17 0 0 1-2.28-1.67l-2.24.87c.55 1.82 2.13 2.85 4.26 2.85Zm9.72 0c2.06 0 3.18-.85 3.81-1.82l-1.81-1.2c-.37.67-.91 1.03-1.94 1.03a2.2 2.2 0 0 1-2.27-1.73h6.32c.04-.3.06-.6.06-.9a4.24 4.24 0 0 0-4.35-4.22 4.37 4.37 0 0 0-4.36 4.43 4.3 4.3 0 0 0 4.54 4.42v-.01Zm1.95-5.27h-4.18a2.08 2.08 0 0 1 2.13-1.82 2.03 2.03 0 0 1 2.05 1.84v-.02Zm5.56 5.06v-5a1.62 1.62 0 0 1 1.7-1.54 1.56 1.56 0 0 1 1.67 1.68v4.87h2.35v-5.32c0-1.98-1.28-3.34-3.3-3.34a3.49 3.49 0 0 0-2.54 1v-.79h-2.25v8.45l2.38-.01Zm10.87.2a3.43 3.43 0 0 0 2.6-1.07v.87h2.19V53.88h-2.37v4a3.52 3.52 0 0 0-2.49-.9c-2.42 0-4.13 1.89-4.13 4.42 0 2.54 1.76 4.41 4.2 4.41v-.01Zm.33-2.1a2.18 2.18 0 0 1-2.18-2.32 2.2 2.2 0 0 1 2.18-2.34c1.3 0 2.18.96 2.18 2.34s-.88 2.34-2.18 2.34v-.01Zm11.35 2.1a5.77 5.77 0 1 0-5.81-5.77 5.7 5.7 0 0 0 5.79 5.8l.02-.02Zm0-2.27c-2.02 0-3.4-1.46-3.4-3.52 0-2.07 1.37-3.52 3.4-3.52s3.35 1.5 3.35 3.52c0 2.01-1.36 3.55-3.37 3.55l.02-.03Zm11.14 2.06 1.39-5.76 1.44 5.76h2.8l2.19-8.46H204l-1.28 6.1-1.4-6.07h-2.64l-1.37 6.1-1.3-6.1h-2.41l2.2 8.45 2.82-.02Zm10.84 0v-11.7h-2.37V65.6l2.37-.02ZM126.96 45a9.21 9.21 0 0 1 9.23 9.23v20.32a.46.46 0 0 1-.46.45h-4.17a13.82 13.82 0 0 1-13.81-13.85v-6.92a9.24 9.24 0 0 1 9.22-9.23Zm-7.77 14.32a.29.29 0 0 0-.28.24v1.82a12.7 12.7 0 0 0 12.46 12.47h3.47a.19.19 0 0 0 .19-.15v-.81a.19.19 0 0 0-.16-.19h-3.5a11.51 11.51 0 0 1-11.31-11.34v-.9a.3.3 0 0 0-.04-.13l-.02-.04-.58-.82a.28.28 0 0 0-.1-.1.28.28 0 0 0-.13-.05Zm2.32 2.4a.28.28 0 0 0-.26.2 10.39 10.39 0 0 0 10.11 9.62h3.47a.19.19 0 0 0 .19-.15v-.81a.19.19 0 0 0-.16-.19h-3.48a9.21 9.21 0 0 1-8.95-7.99.29.29 0 0 0-.1-.17l-.03-.03-.62-.42a.28.28 0 0 0-.17-.06Zm2.56 1.28H124a.29.29 0 0 0-.2.24.3.3 0 0 0 0 .11l.05.15a8.08 8.08 0 0 0 7.5 5.73h3.47a.19.19 0 0 0 .18-.16v-.8a.2.2 0 0 0-.16-.19h-3.47a6.91 6.91 0 0 1-6.36-4.68.29.29 0 0 0-.14-.15h-.05l-.67-.2h-.05l-.04-.05Zm2.68.45a.29.29 0 0 0-.26.42l.1.2a5.76 5.76 0 0 0 4.8 2.87h3.45c.04 0 .08-.02.12-.05a.2.2 0 0 0 .06-.1v-.83a.19.19 0 0 0-.16-.19h-3.44a4.6 4.6 0 0 1-3.77-2.17.28.28 0 0 0-.2-.13h-.72l.02-.02Zm3.26-.5h-.05l-.67.18a.29.29 0 0 0-.2.2.28.28 0 0 0 0 .16c0 .04.03.09.07.12a3.44 3.44 0 0 0 2.24.99h3.44c.04 0 .08-.02.12-.04a.2.2 0 0 0 .06-.11v-.81a.19.19 0 0 0-.16-.19h-3.41a2.27 2.27 0 0 1-.8-.18 2.85 2.85 0 0 1-.44-.28.29.29 0 0 0-.2-.04ZM119.53 51.2l-.05.15v-.12a8.1 8.1 0 0 0 7.37 11.07 8.05 8.05 0 0 0 7.7-10.84l-.1-.23v.13c-1.6-4.28-7.1-2.3-7.1 1.16a.4.4 0 0 1-.1.3.39.39 0 0 1-.67-.3c0-3.43-5.26-5.74-7.05-1.32Zm15.31 9.95h-1.68a.3.3 0 0 0-.13.04l-.03.02-.97.69a.23.23 0 0 0-.08.1.23.23 0 0 0-.01.13c0 .04.03.08.06.11s.07.06.12.06h2.72a.2.2 0 0 0 .19-.15v-.84a.19.19 0 0 0-.19-.16Zm-11.9-10.38a1.73 1.73 0 1 1 0 3.46 1.73 1.73 0 0 1 0-3.46Zm8.06 0a1.73 1.73 0 1 1 0 3.46 1.73 1.73 0 0 1 0-3.46Z"/>
  <rect width="119" height="119" x="104.5" y="0.5" stroke="#BFDBE0" rx="59.5"/>
</svg>
