<svg xmlns="http://www.w3.org/2000/svg" fill="none" viewBox="0 0 224 120">
  <rect width="119" height="119" x="0.5" y="0.5" fill="#F9F8F1" rx="59.5"/>
  <path fill="#0A0A0A" fill-rule="evenodd" d="M78.86 55.72c0-12.8-8.57-19.94-18.58-19.94v.01c-10.84 0-18.24 7.91-18.24 19.35 0 7.75 3.37 13.55 9.52 16.43l.5.3c.55.32.73.42.73.59 0 .15-.2.34-.42.55l-.38.4a5.06 5.06 0 0 0-1.3 3.3c0 1.25.57 2.29 1.44 2.29.43 0 .72-.51 1.06-1.12.51-.9 1.15-2.02 2.58-2.02 1.32 0 3.13 1.45 5.19 3.1 2.75 2.2 5.95 4.76 9.07 4.76 4.81 0 6.67-4.12 6.67-6.63 0-1.69-.55-2.75-1.15-2.75-.29 0-.49.26-.75.6-.47.63-1.14 1.52-2.92 1.52-1.87 0-4.2-1.07-5.98-1.88a75.8 75.8 0 0 0-.82-.37c-.45-.19-.65-.4-.65-.53 0-.16.2-.24.5-.32 7.9-1.44 13.93-7.32 13.93-17.64ZM54.5 63.15c-1.64-3.55-2.27-7.78-2.27-11.41 0-8 3.5-11.25 6.86-11.25 2.91 0 5.83 2.35 7.62 6.23a29.7 29.7 0 0 1 2.67 12.1c0 7-3.43 9.83-7.32 9.83-2.7 0-5.69-1.69-7.56-5.5Z" clip-rule="evenodd"/>
  <rect width="119" height="119" x="0.5" y="0.5" stroke="#BFDBE0" rx="59.5"/>
  <rect width="119" height="119" x="104.5" y="0.5" fill="#401784" rx="59.5"/>
  <path fill="#fff" fill-rule="evenodd" d="M117.75 60v11.25h10.36V63.72l1.71 1.7 1.71 1.69.3.3.26-.3 1.86-1.85 1.86-1.84v7.83h10.36v-22.5h-10.2l-2.09 2.07-2.08 2.08-2.06-2.08-2.06-2.07h-9.93V60Zm13.69-5.4 4.37 4.36v2.36l-2 2-1.99 2.01-6.3-6.29-6.29-6.29v-2.52h7.84l4.37 4.36Zm13.25 5.4v9.77h-7.4V50.23h7.4V60Zm-9.19-3.44.33.33v-.66l-.08-2.57-.09-2.57-1.4 1.43-1.41 1.43 1.32 1.3 1.33 1.3Zm-8.87 9.43v3.78h-7.4V54.83l3.7 3.69 3.7 3.7v3.77Zm45.69-14.27h-.26a1.7 1.7 0 0 0-1.73 1.64v.09a1.66 1.66 0 0 0 1.01 1.56c.2.09.42.14.64.14h.08a1.74 1.74 0 0 0 2.04-1.57 1.72 1.72 0 0 0-1.78-1.85v-.01Zm17.04 4.15a3.03 3.03 0 0 1 1.66-.35c2.16 0 3.24 1.21 3.23 3.62v5.43h-2.83V60c0-1.5-.43-2.17-1.56-2.17-1.13 0-1.72.74-1.72 2.1v4.68h-2.82v-12.9h2.82v5.33c.28-.5.7-.91 1.22-1.18Zm-8.02-.11h2.83v8.3a4.34 4.34 0 0 1-1.73 3.7c-.95.58-2.06.85-3.17.79a6.18 6.18 0 0 1-3.2-.72 3.2 3.2 0 0 1-1.6-2.44h2.9c.14.7.74 1.12 1.89 1.12 1.31 0 2.1-.57 2.1-2.15v-1.18a3.15 3.15 0 0 1-2.82 1.44c-2.63 0-4.22-1.9-4.22-4.53 0-2.62 1.7-4.57 4.26-4.57a3.01 3.01 0 0 1 2.76 1.5v-1.26Zm19.24 6.7c-.37 0-.74 0-1.1-.04-.7 0-1.24-.2-1.24-1.5v-2.93h2.22v-2.23h-2.22v-2.63h-2.82v8.42c0 2.96 1.82 3.26 3.16 3.26.94-.02 1.87-.19 2.76-.48 0 0-.33-.63-.45-.94-.13-.3-.31-.93-.31-.93Zm-27.09 2.16h-2.83v-8.53h2.83v8.53Zm-8.8-8.68c.5-.3 1.07-.44 1.64-.42 2.55 0 3.15 1.73 3.14 3.6v5.5h-2.82v-4.98c0-1.24-.45-1.76-1.33-1.76-.88 0-1.5.5-1.5 2.18v4.56H161v-5c0-1.25-.4-1.74-1.31-1.74-.9 0-1.52.5-1.52 2.18v4.55h-2.82v-8.85h2.82v1.28a3.03 3.03 0 0 1 5.34.12c.27-.51.68-.93 1.18-1.22Zm42.9 4.2c0 1.37-.58 2.25-1.73 2.25-1.14 0-1.56-.77-1.56-1.88v-4.69h-2.82v5.14c0 2.21 1.02 3.75 3.29 3.75a2.99 2.99 0 0 0 2.82-1.47v1.38c0 1.38-.69 1.99-1.72 1.99-1.04 0-1.47-.44-1.55-1.2h-2.82a3.14 3.14 0 0 0 1.08 2.23 4.98 4.98 0 0 0 3.29.93 4.72 4.72 0 0 0 3.28-1.03 4.21 4.21 0 0 0 1.26-3.2v-8.58h-2.82v4.39Zm-26.1 0a2.1 2.1 0 0 1-.5 1.56 2.15 2.15 0 0 1-1.47.74h-.2a2.13 2.13 0 0 1-2.1-2.14v-.16a2.1 2.1 0 0 1 1.27-2.12 2.14 2.14 0 0 1 2.97 2.12h.03Z" clip-rule="evenodd"/>
  <rect width="119" height="119" x="104.5" y="0.5" stroke="#BFDBE0" rx="59.5"/>
</svg>
