<svg xmlns="http://www.w3.org/2000/svg" fill="none" viewBox="0 0 224 120">
  <rect width="119" height="119" x="0.5" y="0.5" fill="#F9F8F1" rx="59.5"/>
  <path fill="#0A0A0A" fill-rule="evenodd" d="M78.86 55.72c0-12.8-8.57-19.94-18.58-19.94v.01c-10.84 0-18.24 7.91-18.24 19.35 0 7.75 3.37 13.55 9.52 16.43l.5.3c.55.32.73.42.73.59 0 .15-.2.34-.42.55l-.38.4a5.06 5.06 0 0 0-1.3 3.3c0 1.25.57 2.29 1.44 2.29.43 0 .72-.51 1.06-1.12.51-.9 1.15-2.02 2.58-2.02 1.32 0 3.13 1.45 5.19 3.1 2.75 2.2 5.95 4.76 9.07 4.76 4.81 0 6.67-4.12 6.67-6.63 0-1.69-.55-2.75-1.15-2.75-.29 0-.49.26-.75.6a3.24 3.24 0 0 1-2.92 1.52c-1.87 0-4.2-1.07-5.98-1.88a75.8 75.8 0 0 0-.82-.37c-.45-.19-.65-.4-.65-.53 0-.16.2-.24.5-.32 7.9-1.44 13.93-7.32 13.93-17.64ZM54.5 63.15c-1.64-3.55-2.27-7.78-2.27-11.41 0-8 3.5-11.25 6.86-11.25 2.91 0 5.83 2.35 7.62 6.23a29.7 29.7 0 0 1 2.67 12.1c0 7-3.43 9.83-7.32 9.83-2.7 0-5.69-1.69-7.56-5.5Z" clip-rule="evenodd"/>
  <rect width="119" height="119" x="0.5" y="0.5" stroke="#BFDBE0" rx="59.5"/>
  <rect width="119" height="119" x="104.5" y="0.5" fill="#fff" rx="59.5"/>
  <path fill="#394C60" d="M175.24 37.5H152.5a1.48 1.48 0 0 0-1.36.91c-.07.18-.1.37-.1.57v18.37a1.46 1.46 0 0 0 1.46 1.46h22.74a1.47 1.47 0 0 0 1.47-1.46V38.98a1.47 1.47 0 0 0-1.47-1.48Zm-1.39 1.4a.94.94 0 0 1 .87.58.93.93 0 0 1-1.23 1.22.94.94 0 0 1-.58-.86.93.93 0 0 1 .94-.93Zm-3.34 0a.94.94 0 0 1 .92 1.12.93.93 0 0 1-1.28.68.93.93 0 0 1 .36-1.8Zm-3.34 0a.94.94 0 0 1 .92 1.12.93.93 0 0 1-.74.74.94.94 0 0 1-1.12-.92.95.95 0 0 1 .94-.94Zm7.65 18.03h-21.9v-14.9h21.91v14.9Z"/>
  <path fill="#3C9BD6" d="M159.74 55.35a1.33 1.33 0 0 1 1.5-.6 1.02 1.02 0 0 0 1.3-.63v-.04a1.07 1.07 0 0 0-.6-1.37 1.27 1.27 0 0 1-.32-2.1c.22-.2.5-.3.8-.3a1.1 1.1 0 0 0 1.04-.68 1.1 1.1 0 0 0-.01-.86 1.08 1.08 0 0 0-.63-.58 1.1 1.1 0 0 0-.44-.06 1.3 1.3 0 0 1-1.23-1.56 1.22 1.22 0 0 1 .67-.89 1.09 1.09 0 0 0 .47-1.43 1.05 1.05 0 0 0-.54-.61 1.07 1.07 0 0 0-.82-.05c-.27.1-.57.12-.85.02a1.52 1.52 0 0 1-.84-1c-.05-.2-.05-.4-.01-.58h-5c2.31 1.24 4.52 3.73 4.57 7.04a8.41 8.41 0 0 1-4.65 7.86h5.65a1.27 1.27 0 0 1-.06-1.58Z"/>
  <path fill="#E74F38" d="M166.8 43.46a1.27 1.27 0 0 1 .32 1.59 1.34 1.34 0 0 1-1.4.81 1.02 1.02 0 0 0-1.18.8v.05a1.07 1.07 0 0 0 .78 1.27 1.27 1.27 0 0 1 .93 1.24 1.23 1.23 0 0 1-1 1.2 1.1 1.1 0 0 0-.87 1.25 1.08 1.08 0 0 0 1.24.89 1.3 1.3 0 0 1 1.45 1.35 1.22 1.22 0 0 1-.5 1 1.08 1.08 0 0 0-.25 1.49c.15.23.36.41.6.53h6.68a8.14 8.14 0 0 1-4.58-5.83 8.36 8.36 0 0 1 4.36-9.06h-6.81a1.05 1.05 0 0 0 .24 1.42Z"/>
  <path fill="#3C9BD6" d="M168.73 57.14h-.2c.07.02.14.02.2 0Z"/>
  <path fill="#394C60" d="M124 71.83c0-.4.06-.8.18-1.2a2.64 2.64 0 0 1 1.55-1.67c.46-.16.95-.24 1.45-.23.43-.01.86.05 1.27.19.32.1.61.29.86.52.12.12.2.29.2.46a.82.82 0 0 1-.12.5.72.72 0 0 1-.42.3.93.93 0 0 1-.67-.12c-.16-.08-.31-.15-.47-.2-.2-.08-.42-.1-.64-.1a1.38 1.38 0 0 0-1.14.45c-.26.34-.4.76-.37 1.2v1.01c-.03.43.1.86.37 1.2a1.37 1.37 0 0 0 1.12.44 2.65 2.65 0 0 0 1.14-.26c.17-.1.37-.13.56-.1a.72.72 0 0 1 .61.65.72.72 0 0 1-.16.5c-.22.28-.52.48-.86.57-.42.13-.86.2-1.3.19-.49.01-.97-.07-1.43-.24a2.64 2.64 0 0 1-.99-.67 2.66 2.66 0 0 1-.56-.99c-.12-.39-.18-.79-.18-1.2v-1.2Zm7.09-4.85c0-.1.02-.18.06-.26.04-.08.1-.15.17-.2a.9.9 0 0 1 .64-.2c.22-.02.44.05.6.2a.63.63 0 0 1 .22.46v8.5a.63.63 0 0 1-.22.46.83.83 0 0 1-.6.2.9.9 0 0 1-.64-.2.61.61 0 0 1-.23-.46v-8.5Zm3.96-.14a.6.6 0 0 1 .23-.46.9.9 0 0 1 .64-.2c.22-.02.44.06.6.2a.6.6 0 0 1 .22.46v.34a.6.6 0 0 1-.22.46.84.84 0 0 1-.6.2.9.9 0 0 1-.63-.2.6.6 0 0 1-.24-.46v-.34Zm0 2.56a.6.6 0 0 1 .23-.46.9.9 0 0 1 .64-.21c.22-.01.44.06.6.2a.63.63 0 0 1 .22.47v6.08a.62.62 0 0 1-.22.46.84.84 0 0 1-.6.2.9.9 0 0 1-.63-.2.59.59 0 0 1-.24-.46V69.4Zm3.6 2.43c0-.4.06-.8.18-1.2a2.65 2.65 0 0 1 1.57-1.65c.46-.17.95-.26 1.44-.24.44-.01.87.05 1.28.19.32.1.6.28.85.52.13.12.2.28.2.46a.82.82 0 0 1-.12.49.72.72 0 0 1-.41.3.93.93 0 0 1-.68-.12c-.15-.08-.3-.15-.47-.2-.2-.07-.42-.1-.64-.1a1.38 1.38 0 0 0-1.14.45c-.26.34-.4.76-.37 1.2v1.01c-.02.43.1.86.37 1.2a1.37 1.37 0 0 0 1.12.44 2.65 2.65 0 0 0 1.14-.26c.17-.1.38-.14.57-.11a.72.72 0 0 1 .46 1.16c-.22.27-.52.47-.86.56-.41.13-.85.2-1.3.2-.48 0-.97-.08-1.44-.25a2.62 2.62 0 0 1-.99-.66 2.66 2.66 0 0 1-.56-.98c-.13-.4-.19-.8-.19-1.2v-1.2h-.01Zm7.19-4.85a.6.6 0 0 1 .25-.47.9.9 0 0 1 .63-.2c.22-.02.44.06.6.2a.63.63 0 0 1 .23.47v4.46h.66l2.07-2.51a.8.8 0 0 1 .54-.2.85.85 0 0 1 .6.25.72.72 0 0 1 .2.6.78.78 0 0 1-.28.51l-1.85 2.03 2.27 2.83a.57.57 0 0 1 .12.5c-.06.22-.2.4-.38.51a.82.82 0 0 1-.6.16.69.69 0 0 1-.47-.24l-2.28-2.98h-.63v2.58a.64.64 0 0 1-.23.46.83.83 0 0 1-.6.2.9.9 0 0 1-.63-.2.6.6 0 0 1-.24-.46v-8.5h.02Zm11.58 1.89v-.43c0-.9.21-1.52.63-1.88.43-.36 1.06-.54 1.91-.54.2 0 .4.02.6.06.18.03.35.1.51.18.14.07.26.17.35.3.09.1.13.24.13.38a.72.72 0 0 1-.16.5.64.64 0 0 1-.5.2c-.14 0-.29-.03-.43-.07a1.79 1.79 0 0 0-.5-.05.98.98 0 0 0-.7.2.94.94 0 0 0-.2.68v.49h1.1a.6.6 0 0 1 .44.18.61.61 0 0 1 .18.46.67.67 0 0 1-.19.49.6.6 0 0 1-.42.18h-1.1v5.28a.64.64 0 0 1-.23.46.81.81 0 0 1-.58.2.9.9 0 0 1-.64-.2.61.61 0 0 1-.22-.46v-5.3h-.5a.6.6 0 0 1-.43-.18.66.66 0 0 1-.19-.49.63.63 0 0 1 .39-.6.6.6 0 0 1 .23-.04h.52Zm7.97 7.27c-.48 0-.94-.08-1.38-.24a2.67 2.67 0 0 1-1.6-1.66c-.13-.4-.2-.82-.2-1.24V69.4a.6.6 0 0 1 .24-.46.9.9 0 0 1 .64-.2c.22-.02.44.05.6.2a.63.63 0 0 1 .22.46v3.65a1.45 1.45 0 0 0 .4 1.15c.3.25.69.38 1.08.37.39.01.76-.12 1.05-.37a1.46 1.46 0 0 0 .43-1.15V69.4a.62.62 0 0 1 .23-.46.86.86 0 0 1 .6-.2.9.9 0 0 1 .6.2.59.59 0 0 1 .24.46V73c0 .42-.06.85-.2 1.25a2.66 2.66 0 0 1-1.6 1.64c-.43.17-.89.25-1.36.25Zm8.35-7.43c.47 0 .94.07 1.38.22a2.49 2.49 0 0 1 1.6 1.55c.13.39.2.8.2 1.22v3.78a.59.59 0 0 1-.25.46.9.9 0 0 1-.6.2.87.87 0 0 1-.6-.2.61.61 0 0 1-.23-.46V71.8a1.45 1.45 0 0 0-.42-1.16c-.3-.25-.67-.38-1.06-.37a1.6 1.6 0 0 0-1.07.37 1.45 1.45 0 0 0-.43 1.16v3.67a.64.64 0 0 1-.22.46.83.83 0 0 1-.6.2.9.9 0 0 1-.64-.2.6.6 0 0 1-.22-.46v-3.62c0-.42.06-.84.2-1.25a2.65 2.65 0 0 1 1.59-1.65c.44-.17.9-.25 1.37-.25Zm8.35 0c.47 0 .94.07 1.38.22a2.48 2.48 0 0 1 1.6 1.55c.13.39.2.8.2 1.22v3.78a.59.59 0 0 1-.25.46.92.92 0 0 1-.6.2.87.87 0 0 1-.6-.2.61.61 0 0 1-.23-.46V71.8a1.45 1.45 0 0 0-.42-1.16c-.3-.25-.68-.38-1.06-.37a1.6 1.6 0 0 0-1.08.37 1.46 1.46 0 0 0-.43 1.16v3.67a.63.63 0 0 1-.22.46.83.83 0 0 1-.6.2.9.9 0 0 1-.64-.2.6.6 0 0 1-.23-.46v-3.62c0-.42.06-.84.2-1.25a2.65 2.65 0 0 1 1.59-1.65c.44-.17.92-.25 1.4-.25Zm11.1 2.9c.04.35-.05.69-.25.96a1.15 1.15 0 0 1-.86.27h-3.4v.37a1.48 1.48 0 0 0 .43 1.1 1.62 1.62 0 0 0 1.2.4c.24 0 .48-.01.71-.05.18-.02.35-.06.51-.13l.39-.2c.1-.06.22-.1.34-.1a.57.57 0 0 1 .45.17c.1.13.17.28.17.45a.7.7 0 0 1-.2.45c-.16.17-.34.3-.54.41a3.94 3.94 0 0 1-4.17-.4 2.57 2.57 0 0 1-.94-2v-1.53a3.02 3.02 0 0 1 1.9-2.8c.4-.18.83-.26 1.27-.25.47-.01.95.08 1.38.26a2.7 2.7 0 0 1 1.61 2.63Zm-3.04-1.5a1.33 1.33 0 0 0-1.03.4c-.26.3-.41.68-.43 1.07h2.91v-.2a1.14 1.14 0 0 0-.4-.93 1.6 1.6 0 0 0-1.05-.34Zm4.94-3.13a.6.6 0 0 1 .24-.46.9.9 0 0 1 .64-.2c.22-.02.44.05.6.2a.63.63 0 0 1 .22.46v8.5a.63.63 0 0 1-.22.46.83.83 0 0 1-.6.2.9.9 0 0 1-.64-.2.61.61 0 0 1-.24-.46v-8.5Zm3.61 8.13a.63.63 0 0 1-.06-.21.65.65 0 0 1 .03-.26.8.8 0 0 1 .11-.24.47.47 0 0 1 .22-.17.9.9 0 0 1 .35-.09c.1 0 .18.02.27.05a1 1 0 0 1 .21.13l.2.15c.4.24.85.34 1.3.3.26.01.52-.06.74-.2a.63.63 0 0 0 .22-.81.64.64 0 0 0-.2-.23c-.2-.14-.4-.25-.63-.32l-.85-.27a3.7 3.7 0 0 1-.84-.37 2.1 2.1 0 0 1-.64-.6c-.18-.3-.27-.65-.25-1a2.05 2.05 0 0 1 .7-1.62 2.81 2.81 0 0 1 1.93-.63 4.21 4.21 0 0 1 1.62.31c.15.07.3.17.41.28a.86.86 0 0 1 .28.75c0 .08-.02.16-.06.23a.66.66 0 0 1-.69.3c-.15-.04-.3-.1-.44-.18l-.36-.17a2 2 0 0 0-.75-.1.98.98 0 0 0-.7.22.72.72 0 0 0-.24.55.46.46 0 0 0 .25.42c.2.11.42.2.64.27l.82.26c.3.09.57.22.83.38a1.93 1.93 0 0 1 .88 1.74 1.93 1.93 0 0 1-.7 1.58 2.9 2.9 0 0 1-1.91.6 4.77 4.77 0 0 1-1.64-.3 2.94 2.94 0 0 1-.6-.32c-.18-.1-.33-.26-.45-.43Z"/>
  <rect width="119" height="119" x="104.5" y="0.5" stroke="#BFDBE0" rx="59.5"/>
</svg>
