<svg xmlns="http://www.w3.org/2000/svg" fill="none" viewBox="0 0 224 120">
  <rect width="119" height="119" x="0.5" y="0.5" fill="#F9F8F1" rx="59.5"/>
  <path fill="#0A0A0A" fill-rule="evenodd" d="M78.86 55.72c0-12.8-8.57-19.94-18.58-19.94v.01c-10.84 0-18.24 7.91-18.24 19.35 0 7.75 3.37 13.55 9.52 16.43l.5.3c.55.32.73.42.73.59 0 .15-.2.34-.42.55l-.38.4a5.06 5.06 0 0 0-1.3 3.3c0 1.25.57 2.29 1.44 2.29.43 0 .72-.51 1.06-1.12.51-.9 1.15-2.02 2.58-2.02 1.32 0 3.13 1.45 5.19 3.1 2.75 2.2 5.95 4.76 9.07 4.76 4.81 0 6.67-4.12 6.67-6.63 0-1.69-.55-2.75-1.15-2.75-.29 0-.49.26-.75.6-.47.63-1.14 1.52-2.92 1.52-1.87 0-4.2-1.07-5.98-1.88a75.8 75.8 0 0 0-.82-.37c-.45-.19-.65-.4-.65-.53 0-.16.2-.24.5-.32 7.9-1.44 13.93-7.32 13.93-17.64ZM54.5 63.15c-1.64-3.55-2.27-7.78-2.27-11.41 0-8 3.5-11.25 6.86-11.25 2.91 0 5.83 2.35 7.62 6.23a29.7 29.7 0 0 1 2.67 12.1c0 7-3.43 9.83-7.32 9.83-2.7 0-5.69-1.69-7.56-5.5Z" clip-rule="evenodd"/>
  <rect width="119" height="119" x="0.5" y="0.5" stroke="#BFDBE0" rx="59.5"/>
  <rect width="119" height="119" x="104.5" y="0.5" fill="#fff" rx="59.5"/>
  <path fill="#95BF47" d="M139.05 52.26a.23.23 0 0 0-.21-.2l-1.97-.15-1.44-1.43a.6.6 0 0 0-.53-.07l-.73.22c-.44-1.25-1.2-2.4-2.56-2.4h-.12a1.65 1.65 0 0 0-1.27-.73c-3.15 0-4.65 3.93-5.12 5.94l-2.2.7c-.7.22-.7.24-.8.88l-1.85 14.3 13.92 2.6 7.54-1.63-2.66-18.03Zm-5.65-1.4-1.18.35v-.25a5.79 5.79 0 0 0-.28-1.9c.7.1 1.16.9 1.46 1.8Zm-2.32-1.63c.23.68.34 1.4.31 2.12v.13l-2.44.75c.48-1.8 1.36-2.66 2.13-3Zm-.94-.89a.7.7 0 0 1 .4.14c-1 .47-2.1 1.67-2.54 4.06l-1.92.6c.52-1.82 1.8-4.8 4.06-4.8Z"/>
  <path fill="#5E8E3E" d="m138.83 52.06-1.96-.15-1.44-1.43a.35.35 0 0 0-.2-.1l-1.05 21.53 7.54-1.63-2.66-18.03a.23.23 0 0 0-.23-.2Z"/>
  <path fill="#fff" d="m131.61 56.23-.93 2.76a4.28 4.28 0 0 0-1.81-.44c-1.47 0-1.54.92-1.54 1.15 0 1.27 3.3 1.75 3.3 4.71 0 2.33-1.48 3.83-3.47 3.83a4.82 4.82 0 0 1-3.61-1.49l.64-2.1s1.25 1.08 2.31 1.08a.93.93 0 0 0 .97-.94c0-1.65-2.7-1.72-2.7-4.43 0-2.28 1.64-4.49 4.94-4.49.65-.03 1.3.09 1.9.36Z"/>
  <path fill="#000" d="M150.5 61.41c-.75-.4-1.14-.75-1.14-1.22 0-.6.54-1 1.38-1a4.9 4.9 0 0 1 1.85.41l.7-2.1s-.64-.49-2.5-.49c-2.59 0-4.38 1.49-4.38 3.57 0 1.18.84 2.1 1.96 2.73.9.52 1.22.88 1.22 1.42 0 .54-.45 1-1.3 1a5.79 5.79 0 0 1-2.42-.63l-.73 2.1c.89.5 1.9.75 2.92.72 2.66 0 4.58-1.3 4.58-3.67 0-1.27-.98-2.17-2.14-2.84ZM161.12 57a4.01 4.01 0 0 0-3.15 1.56l-.04-.02 1.14-5.94h-2.96l-2.88 15.14h2.97l.99-5.18c.38-1.95 1.4-3.14 2.34-3.14.67 0 .92.45.92 1.1 0 .43-.04.87-.13 1.3l-1.12 5.95h2.97l1.16-6.13c.13-.64.2-1.28.21-1.93 0-1.7-.88-2.72-2.42-2.72Zm9.13 0c-3.56 0-5.94 3.22-5.94 6.8 0 2.3 1.42 4.15 4.08 4.15 3.5 0 5.87-3.14 5.87-6.8 0-2.13-1.24-4.16-4.01-4.16Zm-1.46 8.68c-1.01 0-1.44-.86-1.44-1.93 0-1.69.88-4.49 2.5-4.49 1.04 0 1.39.9 1.39 1.79 0 1.83-.88 4.63-2.45 4.63Zm13.06-8.69c-2 0-3.14 1.75-3.14 1.75h-.03l.17-1.59h-2.62c-.13 1.08-.34 2.7-.6 3.94l-2.06 10.83h2.97l.81-4.38h.07c.53.28 1.14.41 1.74.39 3.5 0 5.76-3.57 5.76-7.18-.02-1.97-.9-3.76-3.07-3.76Zm-2.83 8.74c-.45.01-.88-.14-1.23-.42l.5-2.78c.35-1.85 1.3-3.07 2.34-3.07.9 0 1.18.84 1.18 1.63 0 1.9-1.14 4.63-2.78 4.63l-.01.02Zm10.12-12.99a1.7 1.7 0 0 0-1.7 1.72 1.36 1.36 0 0 0 1.4 1.48h.04a1.68 1.68 0 0 0 1.75-1.72 1.4 1.4 0 0 0-1.5-1.48Zm-4.15 15h2.97l2.01-10.5H187l-2 10.5Zm12.52-10.53h-2.05l.1-.5c.18-1 .78-1.9 1.76-1.9.32 0 .64.05.94.15l.59-2.34a3.91 3.91 0 0 0-1.61-.26 4.4 4.4 0 0 0-2.9 1 5.61 5.61 0 0 0-1.72 3.34l-.1.5h-1.37l-.43 2.23h1.38l-1.57 8.31h2.97l1.56-8.3h2.05l.4-2.23Zm7.14.02s-1.85 4.67-2.69 7.22h-.04c-.06-.82-.73-7.22-.73-7.22h-3.12l1.79 9.65a.62.62 0 0 1-.07.5 5.07 5.07 0 0 1-1.6 1.78c-.52.36-1.09.64-1.68.84l.82 2.51a6.78 6.78 0 0 0 2.9-1.61c1.35-1.27 2.6-3.22 3.89-5.89l3.63-7.78h-3.1Z"/>
  <rect width="119" height="119" x="104.5" y="0.5" stroke="#BFDBE0" rx="59.5"/>
</svg>
