<svg xmlns="http://www.w3.org/2000/svg" fill="none" viewBox="0 0 224 120">
  <rect width="119" height="119" x="0.5" y="0.5" fill="#F9F8F1" rx="59.5"/>
  <path fill="#0A0A0A" fill-rule="evenodd" d="M78.86 55.72c0-12.8-8.57-19.94-18.58-19.94v.01c-10.84 0-18.24 7.91-18.24 19.35 0 7.75 3.37 13.55 9.52 16.43l.5.3c.55.32.73.42.73.59 0 .15-.2.34-.42.55l-.38.4a5.06 5.06 0 0 0-1.3 3.3c0 1.25.57 2.29 1.44 2.29.43 0 .72-.51 1.06-1.12.51-.9 1.15-2.02 2.58-2.02 1.32 0 3.13 1.45 5.19 3.1 2.75 2.2 5.95 4.76 9.07 4.76 4.81 0 6.67-4.12 6.67-6.63 0-1.69-.55-2.75-1.15-2.75-.29 0-.49.26-.75.6-.47.63-1.14 1.52-2.92 1.52-1.87 0-4.2-1.07-5.98-1.88a75.8 75.8 0 0 0-.82-.37c-.45-.19-.65-.4-.65-.53 0-.16.2-.24.5-.32 7.9-1.44 13.93-7.32 13.93-17.64ZM54.5 63.15c-1.64-3.55-2.27-7.78-2.27-11.41 0-8 3.5-11.25 6.86-11.25 2.91 0 5.83 2.35 7.62 6.23a29.7 29.7 0 0 1 2.67 12.1c0 7-3.43 9.83-7.32 9.83-2.7 0-5.69-1.69-7.56-5.5Z" clip-rule="evenodd"/>
  <rect width="119" height="119" x="0.5" y="0.5" stroke="#BFDBE0" rx="59.5"/>
  <rect width="119" height="119" x="104.5" y="0.5" fill="#000" rx="59.5"/>
  <path fill="#fff" fill-rule="evenodd" d="M157.78 64.34v1.64h-8.1v-1.64h3.37v-4.87h-2.56v-1.63h4.22v6.5h3.07Zm-3.1-8.1h-1.87v-2.49h1.86v2.49Zm-36.93 9.7v-1.63H119v-7.77h-1.25v-1.63h5.06c2.33 0 3.75 1.09 3.75 2.96a2.4 2.4 0 0 1-1.62 2.35c1.31.38 2.23 1.3 2.23 2.59 0 2.01-1.56 3.13-4.09 3.13h-5.33Zm3-9.4v3h1.9c1.41 0 2.15-.54 2.15-1.5 0-.99-.74-1.5-2.16-1.5h-1.89Zm0 7.8h2.16c1.66 0 2.5-.54 2.5-1.63 0-1.06-.88-1.64-2.63-1.64h-2.03v3.27Zm15.56-4.12c-.2-.65-.67-1.02-1.28-1.02-1.45 0-2.84 1.09-2.84 3.06v2.12h2.8V66h-6.2v-1.63h1.78v-4.9h-1.38v-1.64h3.04v1.36a3.21 3.21 0 0 1 2.93-1.64c1.56 0 2.5.89 2.8 2.18l-1.65.48Zm8.5.58v.44a6.2 6.2 0 0 0-2.15-.3c-1.76 0-3.72.75-3.72 2.76 0 1.7 1.46 2.55 3.1 2.55 1.16 0 2.34-.4 2.78-1.12v.85h2.87v-1.64h-1.19v-3.6c0-2.05-1.55-3.14-3.57-3.14-1.62 0-2.7.65-3.45 1.36l1.08 1.2a3.4 3.4 0 0 1 2.37-1c.97 0 1.89.48 1.89 1.64Zm-2.05 1.53c.74 0 1.52.14 2.06.34h-.04v.24c0 1.13-1.38 1.8-2.6 1.8-.87 0-1.51-.33-1.51-1.05 0-.99 1.04-1.33 2.09-1.33Zm18.22 2.01h-1.25v1.64h4.19v-1.64h-1.28v-2.69c0-1.46 1.28-2.42 2.53-2.42.77 0 1.62.41 1.62 1.8v3.31h-1.28v1.64h4.18v-1.64h-1.22v-3.78c0-1.84-1.28-3-3.07-3-1.25 0-2.26.55-2.76 1.33v-1.05h-2.8v1.63h1.14v4.87Zm11.34-4.87h-2.06v-1.63h2.1V54.9H174v2.93h3.92v1.63H174v3.4c0 1.27.88 1.78 1.86 1.78.94 0 1.72-.55 2.32-1.12l1.12 1.15a4.63 4.63 0 0 1-3.44 1.54c-2.03 0-3.55-1.13-3.55-3.3v-3.45Zm14.78-.27c.61 0 1.08.37 1.29 1.02l1.62-.48a2.68 2.68 0 0 0-2.8-2.18c-1.39 0-2.43.69-2.94 1.64v-1.36h-3.04v1.63h1.39v4.9h-1.8v1.64h6.25v-1.63h-2.8v-2.11c0-1.98 1.38-3.07 2.83-3.07Zm12.46 5.52c-.85.88-2.3 1.5-3.95 1.5-2.7 0-4.6-1.84-4.6-4.33a4.21 4.21 0 0 1 4.4-4.33c2.53 0 4.32 1.98 4.32 4.64v.27h-6.92c.27 1.36 1.38 2.18 2.83 2.18 1.22 0 2.26-.51 2.8-1.12l1.12 1.19Zm-6.69-3.65h4.97a2.43 2.43 0 0 0-2.4-1.94c-1.32 0-2.3.78-2.56 1.94Zm13.07 5.15c1.65 0 3.1-.62 3.94-1.5l-1.1-1.2a3.82 3.82 0 0 1-2.81 1.13c-1.45 0-2.56-.82-2.84-2.18h6.92v-.27c0-2.66-1.79-4.64-4.32-4.64a4.21 4.21 0 0 0-4.38 4.33c0 2.49 1.89 4.33 4.59 4.33Zm2.22-5.15h-4.96c.27-1.16 1.25-1.94 2.57-1.94 1.14 0 2.16.78 2.4 1.94Z" clip-rule="evenodd"/>
  <rect width="119" height="119" x="104.5" y="0.5" stroke="#BFDBE0" rx="59.5"/>
</svg>
