<svg xmlns="http://www.w3.org/2000/svg" fill="none" viewBox="0 0 48 48">
  <path fill="#403E3A" fill-rule="evenodd" d="M11.77 22.31c-6.3.1-9.2 4.32-9.25 8.57-.07 4.83 3.53 9.72 9.98 8.67l.11 3.61c.33.5.61.84.88 1.05.51.4.97.35 1.52.01.37-.22.79-.57 1.3-1 .36-.31.78-.67 1.27-1.04.9.89 1.86 2.17 2.58 3.16l1.4.27c.23.16.48.1.63-.06.2-.2.3-.32.4-.45.31-.35.6-.68 3-2.87.92.87 2.05 2 2.75 2.98.7.13 1.13.23 1.41.3.5.11.53.12.7 0a4.26 4.26 0 0 1 .24-.18c.65-.72 1.4-1.5 2.22-2.34l1.02-1.05a23.3 23.3 0 0 1 3.34 3.1l1.76.29c.26.04.44-.08.52-.26.34-.65.67-1.33 1.05-2.1l.24-.5c.9.7 1.75 1.42 2.5 2.23.26.04.5.02.73.01h.22c.47.36.9.08.93-.3.73-13.12-.18-20.44-1.06-27.58L44 15.47C43.3 9.63 41.7 4.36 32.25 3c-7.2-1.03-20.1-1.64-25.38 3.32-2.5 2.32-3.77 9.08-3.9 12.22-.02.27.2.5.47.52.34 0 .94-.15 1.7-.34 1.9-.48 4.81-1.22 7.27-.37.21 1.28.3 2.59.33 3.89-.33 0-.65.02-.97.06Zm1 16.2c-5.07 0-7.58-3.81-7.56-7.63 0-3.81 2.54-7.63 7.55-7.63h.01a7.64 7.64 0 0 1 0 15.26ZM32.1 4C41.15 5.29 42.36 10.3 43 15.59l.22 1.64c.6 4.46 1.71 12.65 1.05 26.12-.83-.77-1.8-1.87-2.69-3.05a.5.5 0 0 0-.87.18l-.93 1.88-.83 1.68a380.91 380.91 0 0 1-3.55-4c-.11-.53-.95-.55-1.06 0-.65.71-1.37 1.45-2.08 2.18-.7.72-1.39 1.43-2.03 2.13-.43-.6-.92-1.21-1.4-1.82-.6-.77-1.2-1.53-1.68-2.2a.5.5 0 0 0-.82-.18c-.61.62-1.24 1.19-1.87 1.76-.89.8-1.78 1.61-2.64 2.57a34.09 34.09 0 0 1-3-3.84.5.5 0 0 0-.84.01c-.67.45-1.2.88-1.79 1.35-.42.33-.87.7-1.41 1.1l.06-3.85a8.64 8.64 0 0 0 6.55-8.38c0-3.94-2.7-7.38-6.54-8.35v-.24c-.09-2.98-.26-9.46-1.07-12.12-.46-1.5-1.88-3.84-3.72-4.74C14.38 3.27 22.89 2.68 32.1 4ZM4.03 17.98c.2-2.28.7-5.1 1.5-7.3l.21-.1c.47-.26.77-.43 1.1-.36.52.12 1.03.49 1.48.82l.33.23c1.94 1.34 3.03 3.75 3.55 5.98-2.57-.67-5.33.02-7.3.51l-.87.22Zm9.42 12.77c-.3-.09-.63-.14-.97-.19-.78-.11-1.57-.23-1.89-.8-.27-.5.04-1.18.49-1.48.65-.45 1.5-.35 1.96-.26a.5.5 0 0 0 .2-.98 4.68 4.68 0 0 0-.76-.1 2.6 2.6 0 0 1 .02-1.07.5.5 0 0 0-.98-.22c-.1.46-.11.94-.03 1.4-.36.09-.7.2-.98.4-.93.64-1.29 1.9-.8 2.8.56 1 1.73 1.17 2.66 1.31.3.04.58.08.8.15 1.41.4 1.21 1.62.26 2-.7.28-1.5.02-1.92-.16a.5.5 0 0 0-.4.92c.3.13.67.25 1.07.31l.07 1.1a.5.5 0 1 0 1-.06l-.07-1.02c.2-.03.41-.07.62-.16 1.83-.73 1.98-3.22-.35-3.9ZM37.17 13.8H18.35a.5.5 0 0 1 0-1h18.82a.5.5 0 0 1 0 1Zm-15.43 7.17c0 .28.22.5.5.5h15.44a.5.5 0 0 0 0-1H22.24a.5.5 0 0 0-.5.5Zm3.87 6.66h11.25a.5.5 0 0 1 0 1H25.61a.5.5 0 0 1 0-1Z" clip-rule="evenodd"/>
</svg>
