<svg viewBox="0 0 170 40" xmlns="http://www.w3.org/2000/svg"><path fill-rule="evenodd" clip-rule="evenodd" d="M1.106 19.984a3.611 3.611 0 0 1 0-5.17l7.88-7.743a3.765 3.765 0 0 1 5.26 0 3.61 3.61 0 0 1 0 5.17l-7.88 7.743a3.766 3.766 0 0 1-5.26 0ZM93.1 12.133l.268.077V8.476l-.124-.057c-.188-.085-.492-.163-.842-.22a7.701 7.701 0 0 0-1.2-.095c-1.664 0-3.533.55-4.502 1.542-.967.991-1.5 2.403-1.5 4.093v.77h-2.431v4.22h2.43v13.164h4.879V18.73h3.29v-4.22h-3.29v-.71c0-.76.265-1.197.605-1.452.35-.262.81-.354 1.23-.354.63 0 .997.086 1.187.14ZM40.124 23.78h-4.691l.003.186c.036 2.36.867 4.302 2.257 5.663 1.424 1.393 3.454 2.196 5.874 2.196 4.846 0 8.24-3.703 8.24-8.13V9.866h-5.074v13.689c0 .988-.289 1.86-.844 2.488-.56.632-1.368.995-2.357.995-.81 0-1.589-.238-2.19-.751-.604-.515-1.008-1.288-1.099-2.314a.224.224 0 0 0-.065-.14l-.053-.052Zm21.865 3.677c-.954 0-1.864-.348-2.534-1.022-.668-.67-1.12-1.687-1.12-3.06 0-1.39.452-2.406 1.12-3.073.669-.669 1.578-1.01 2.534-1.01.957 0 1.866.341 2.535 1.01.667.667 1.119 1.682 1.119 3.072 0 1.39-.452 2.406-1.119 3.073-.67.669-1.578 1.01-2.535 1.01Zm0-12.603c-4.848 0-8.52 3.567-8.52 8.52 0 4.921 3.67 8.521 8.52 8.521s8.52-3.6 8.52-8.52c0-4.954-3.671-8.521-8.52-8.521Zm40.317 12.603c-.955 0-1.864-.348-2.534-1.022-.668-.67-1.12-1.687-1.12-3.06 0-1.39.452-2.406 1.12-3.073.668-.669 1.578-1.01 2.534-1.01.957 0 1.865.341 2.535 1.01.667.667 1.119 1.682 1.119 3.072 0 1.39-.452 2.406-1.119 3.073-.67.669-1.578 1.01-2.535 1.01Zm0-12.603c-4.848 0-8.52 3.567-8.52 8.52 0 4.921 3.671 8.521 8.52 8.521s8.521-3.6 8.521-8.52c0-4.954-3.672-8.521-8.521-8.521Zm26.609 17.04h-4.837V15.439h4.648v1.27c1.071-1.132 2.77-1.715 4.239-1.715 2.015 0 3.719.803 4.652 2.321.576-.768 1.237-1.324 1.983-1.699.878-.44 1.854-.622 2.918-.622 1.5 0 2.989.456 4.107 1.482 1.124 1.03 1.838 2.606 1.838 4.777v10.644h-4.711V22.11c0-.796-.195-1.453-.578-1.906-.375-.444-.968-.734-1.858-.734-.814 0-1.447.312-1.879.803-.437.494-.685 1.187-.685 1.964v9.659h-4.805V22.11c0-.793-.202-1.45-.589-1.905-.381-.446-.975-.735-1.848-.735-.833 0-1.474.308-1.908.793-.438.489-.687 1.18-.687 1.974v9.659Zm-6.658-16.497v4.93l-.378-.076c-.45-.09-.839-.12-1.199-.12-1.025 0-1.937.25-2.591.86-.65.606-1.098 1.615-1.098 3.242v7.661h-4.825V15.432h4.699v1.54c1.162-1.396 2.966-1.667 4.099-1.667.363 0 .691.033 1.004.064l.289.03ZM81.274 27.775l-.252.077c-.178.054-.522.14-1.115.14-.395 0-.827-.092-1.156-.356-.32-.255-.569-.694-.569-1.456v-7.386h3.092v-4.232h-3.092V9.987h-4.574v4.575h-2.285v4.232h2.285v7.445c0 1.696.5 3.114 1.41 4.109.91.995 2.657 1.548 4.22 1.548.401 0 .795-.038 1.129-.096.329-.057.614-.135.791-.22l.116-.057v-3.748ZM7.286 32.52c.552.53.162 1.437-.622 1.437H1.756C.788 33.957 0 33.202 0 32.273v-4.706c0-.752.946-1.126 1.498-.596l5.788 5.55Zm7.67-4.76a3.612 3.612 0 0 0 0 5.17 3.766 3.766 0 0 0 5.261 0l5.243-5.153a3.611 3.611 0 0 0 0-5.17 3.766 3.766 0 0 0-5.26 0l-5.243 5.153ZM8.32 20.998a3.61 3.61 0 0 0 0 5.17 3.766 3.766 0 0 0 5.26 0L25.5 14.452a3.612 3.612 0 0 0 0-5.17 3.767 3.767 0 0 0-5.26 0L8.32 20.999Z" fill="#201F1D"/></svg>