<svg xmlns="http://www.w3.org/2000/svg" fill="none" viewBox="0 0 48 48">
  <path fill="#0A1551" d="M15.78 42.01c.76.74.22 1.99-.85 1.99H8.22a2.37 2.37 0 0 1-2.4-2.33v-6.5c0-1.04 1.3-1.56 2.05-.83l7.91 7.67Z"/>
  <path fill="#FFB629" d="M26.27 42.52a5.03 5.03 0 0 1 0-7.15l7.17-7.12a5.11 5.11 0 0 1 7.2 0 5.03 5.03 0 0 1 0 7.15l-7.17 7.12a5.11 5.11 0 0 1-7.2 0Z"/>
  <path fill="#09F" d="M7.33 24.62a5.03 5.03 0 0 1 0-7.14l12.07-12a5.11 5.11 0 0 1 7.2 0 5.03 5.03 0 0 1 0 7.15l-12.07 12a5.11 5.11 0 0 1-7.2 0Z"/>
  <path fill="#FF6100" d="M17.2 33.17a5.03 5.03 0 0 1 0-7.15l16.3-16.2a5.11 5.11 0 0 1 7.2 0 5.03 5.03 0 0 1 0 7.16l-16.31 16.2a5.11 5.11 0 0 1-7.2 0Z"/>
</svg>
