<svg viewBox="0 0 201 40" xmlns="http://www.w3.org/2000/svg"><path fill-rule="evenodd" clip-rule="evenodd" d="M35.258 15.948 22.734 3.798s-4.176-4.05-8.352 0L1.857 15.948s-4.176 4.05 0 8.1l12.527 12.15s4.175 4.05 8.35 0l12.528-12.15.005-.004c.141-.142 4.092-4.119-.008-8.096ZM23.29 9.991a.11.11 0 0 0-.078.03.098.098 0 0 1 .079-.03ZM33.465 20.18l-1.608 1.56-.844.818-1.223 1.187c-1.8 1.744-3.597 0-3.597 0l-.18-.174c-1.798-1.745 0-3.489 0-3.489l2.067-2.003c1.8-1.745 3.598 0 3.598 0l.179.173.036.037.037.036c.016.01.027.021.027.021l1.51 1.466c.185.187-.002.368-.002.368Zm-4.493-4.486a.114.114 0 0 1-.065-.007c-.693-.296-1.704-.421-2.714.56l-.847.82-4.996 4.85c-1.8 1.745-3.598 0-3.598 0l-.179-.174c-1.798-1.745 0-3.488 0-3.488l5.843-5.668c1.799-1.744 3.598 0 3.598 0l.179.173.066.069.007.007a.2.2 0 0 1 .027.022l1.5 1.454.008.01.377.364.076.073.767.745a.024.024 0 0 1 .007.006c.047.046.047.114.002.155a.114.114 0 0 1-.058.03Zm-5.662-5.491a.114.114 0 0 1-.064-.008c-.693-.295-1.704-.42-2.716.561l-.846.818-4.996 4.85c-1.8 1.743-3.598 0-3.598 0l-.178-.174c-1.798-1.745 0-3.488 0-3.488l5.843-5.668c1.799-1.745 3.598 0 3.598 0l.177.173c.023.022.046.045.067.069l.007.007c.016.01.028.022.028.022l1.5 1.456.008.01.377.365.075.073.771.747-.002-.002-.011-.005-.01-.006a.105.105 0 0 0 .01.006.089.089 0 0 1 .016.01.109.109 0 0 1 .027.12.11.11 0 0 1-.024.035.114.114 0 0 1-.058.029ZM9.024 18.079l9.339 9.06h.002s.187.177.374.002l1.79-1.737c1.8-1.744 3.598 0 3.598 0l.178.173.037.037.036.036a.205.205 0 0 1 .028.022l1.511 1.466c.19.184 0 .365 0 .365l-1.609 1.56-.844.819-2.245 2.178-.017.016-.668.648-.164.16-.014.013c-1.799 1.744-3.595 0-3.595 0L6.093 22.56l-.843-.818-1.609-1.56c-.19-.184 0-.365 0-.365l1.511-1.466a.114.114 0 0 1 .014-.011.112.112 0 0 0 .015-.011l.066-.076.18-.173c1.798-1.744 3.596 0 3.596 0Zm171.165 10.018c-.542.171-1.15.255-1.827.255-1.778 0-3.301-.544-4.555-1.636l1.002-1.425c.459.427.991.768 1.57 1.008.556.225 1.218.338 1.989.338.676 0 1.212-.143 1.609-.43.396-.287.595-.645.595-1.076 0-.113-.015-.219-.037-.317a.69.69 0 0 0-.139-.276 5.064 5.064 0 0 0-.198-.225 1.433 1.433 0 0 0-.3-.209 4.33 4.33 0 0 0-.787-.367 16.098 16.098 0 0 0-.472-.171 22.475 22.475 0 0 1-.553-.198c-.123-.039-.218-.068-.279-.09a13.988 13.988 0 0 1-1.104-.406 7.675 7.675 0 0 1-.938-.493 3.274 3.274 0 0 1-.782-.639 2.996 2.996 0 0 1-.676-1.934c0-.862.365-1.58 1.097-2.156.732-.578 1.651-.867 2.755-.867 1.502 0 2.835.462 4.002 1.391l-1.003 1.483c-.933-.783-1.963-1.176-3.091-1.176a2.15 2.15 0 0 0-1.243.368c-.361.247-.543.564-.543.956 0 .212.051.404.157.577.104.176.268.333.489.478.214.139.438.262.67.367.291.13.586.25.886.358 1.242.47 1.994.761 2.251.883.801.385 1.327.857 1.575 1.415.153.346.232.758.232 1.232 0 .447-.087.864-.263 1.252a3.048 3.048 0 0 1-.77 1.03c-.339.297-.777.53-1.319.7Zm-17.633-2.59c.724.752 1.668 1.126 2.835 1.126.506 0 .992-.098 1.467-.29a3.83 3.83 0 0 0 1.237-.804c.366-.36.654-.793.847-1.269a4.173 4.173 0 0 0 .315-1.621c0-.573-.1-1.114-.299-1.623a4.166 4.166 0 0 0-.804-1.32 3.709 3.709 0 0 0-2.737-1.2c-1.128 0-2.068.382-2.819 1.143-.751.762-1.125 1.761-1.125 3 0 1.153.36 2.107 1.083 2.857Zm6.626-6.909v-7.455h1.935v17.064h-1.854v-1.788h-.034a4.746 4.746 0 0 1-2.43 1.701c-.5.154-1.031.233-1.592.233a6.053 6.053 0 0 1-2.24-.415 5.49 5.49 0 0 1-1.813-1.148 5.247 5.247 0 0 1-1.206-1.81 6.082 6.082 0 0 1-.445-2.343 6.232 6.232 0 0 1 .431-2.319 5.692 5.692 0 0 1 1.178-1.86 5.369 5.369 0 0 1 1.808-1.222 5.784 5.784 0 0 1 2.273-.447 5.545 5.545 0 0 1 1.506.204c.477.134.931.34 1.346.611.418.271.79.607 1.103.994h.034Zm-12.82 9.609h-1.925V11.142h1.925v17.065Zm-7.031-10.869a4.292 4.292 0 0 1 2.154-.549v-.002c.16-.004.319.004.478.024v2.07a9.994 9.994 0 0 0-.772-.033c-.722 0-1.354.172-1.891.51-.534.336-.959.82-1.225 1.392-.28.588-.419 1.257-.419 2.014v5.44h-1.936V16.921h1.936v1.972h.047a4.64 4.64 0 0 1 1.628-1.555Zm-14.679 8.742c.622.36 1.326.542 2.111.542a4.14 4.14 0 0 0 2.03-.509 3.744 3.744 0 0 0 1.458-1.436c.358-.62.537-1.317.537-2.094 0-.785-.179-1.487-.537-2.11a3.746 3.746 0 0 0-1.452-1.444 4.135 4.135 0 0 0-2.036-.51c-.793 0-1.5.182-2.123.545a3.751 3.751 0 0 0-1.436 1.472 4.22 4.22 0 0 0-.502 2.047c-.007.71.168 1.409.509 2.032.335.612.834 1.12 1.441 1.465Zm5.177 1.55c-.907.482-1.929.723-3.066.723a6.753 6.753 0 0 1-2.461-.44c-.754-.3-1.391-.706-1.907-1.223a5.568 5.568 0 0 1-1.212-1.835 5.861 5.861 0 0 1-.439-2.268 5.987 5.987 0 0 1 .439-2.282 5.53 5.53 0 0 1 1.212-1.845c.516-.517 1.153-.923 1.907-1.221a6.631 6.631 0 0 1 2.461-.447c1.134 0 2.156.24 3.066.723a5.316 5.316 0 0 1 2.14 2.053c.517.885.776 1.891.776 3.015 0 1.116-.259 2.116-.776 2.999a5.3 5.3 0 0 1-2.14 2.048Zm-15.253-2.706 4.188-13.182v.003h2.211l-5.423 16.462h-2.006l-3.918-13.488h-.048l-3.977 13.488h-2.005l-5.424-16.462h2.228l4.176 13.146h.047l3.838-13.15h2.251l3.815 13.183h.047Zm-23.228-7.864a4.684 4.684 0 0 1 1.934-.407c.638 0 1.204.083 1.694.247.489.162.937.43 1.312.784.386.36.679.857.88 1.483.204.625.305 1.372.305 2.24v6.799h-3.735V22.3c0-.613-.069-1.097-.215-1.455-.142-.36-.346-.61-.606-.747-.262-.14-.609-.21-1.045-.21-.427 0-.801.093-1.12.283-.318.188-.569.481-.751.882-.181.402-.273.885-.273 1.46v5.69h-3.735V16.866h3.734v1.369h.022a4.713 4.713 0 0 1 1.599-1.176Zm-8.215-.209a3.99 3.99 0 0 1 1.249-.198.473.473 0 0 1 .128.01v3.901a15.555 15.555 0 0 0-.875-.022c-.575 0-1.067.111-1.474.334a2.142 2.142 0 0 0-.91.91c-.201.384-.299.826-.299 1.324v5.093h-3.735V16.868h3.735v1.517H91c.295-.377.625-.694.985-.952.35-.251.738-.448 1.148-.582Zm-16.158 7.637c.466.495 1.064.742 1.796.742.701 0 1.288-.247 1.76-.742.474-.493.712-1.139.712-1.929a2.93 2.93 0 0 0-.322-1.387 2.38 2.38 0 0 0-.885-.962 2.387 2.387 0 0 0-1.254-.344c-.723 0-1.321.249-1.796.748-.475.496-.712 1.146-.712 1.945 0 .79.236 1.436.701 1.929Zm4.117-6.42v-1.2l.001-.001h3.742v11.34h-3.547v-1.222h-.048c-.754.956-1.835 1.436-3.243 1.436-.79 0-1.53-.144-2.214-.43a5.174 5.174 0 0 1-1.751-1.19c-.48-.506-.857-1.125-1.131-1.855a6.85 6.85 0 0 1-.408-2.398 6.837 6.837 0 0 1 .407-2.382c.272-.734.646-1.36 1.12-1.871a5.163 5.163 0 0 1 3.805-1.642c1.315 0 2.387.472 3.22 1.415h.047ZM66.44 19.763a2.23 2.23 0 0 0-.991-.214c-.575 0-1.065.157-1.47.47-.405.313-.664.754-.782 1.329l4.374-.022a2.615 2.615 0 0 0-.407-.951 1.863 1.863 0 0 0-.724-.611Zm4.056-.317c.494.883.74 1.88.74 2.988 0 .274-.032.63-.096 1.072h-7.958c.134.62.456 1.1.964 1.444.509.344 1.108.515 1.802.515 1.08 0 2.024-.456 2.835-1.369l1.984 2.163c-.528.65-1.24 1.173-2.134 1.57-.894.394-1.922.592-3.081.592a6.683 6.683 0 0 1-2.408-.43 5.737 5.737 0 0 1-1.93-1.195 5.478 5.478 0 0 1-1.27-1.867 6.082 6.082 0 0 1-.467-2.393 6.193 6.193 0 0 1 .449-2.364 5.517 5.517 0 0 1 1.232-1.866 5.646 5.646 0 0 1 1.883-1.211 6.294 6.294 0 0 1 2.374-.442c1.12 0 2.126.244 3.01.735a5.23 5.23 0 0 1 2.07 2.058Zm-11.47 8.76h-11.13V11.74h4.014v13.015h7.116v3.45Z" fill="#201F1D"/></svg>