<svg width="48" height="48" viewBox="0 0 48 48" fill="none" xmlns="http://www.w3.org/2000/svg">
<g clip-path="url(#clip0_983_15235)">
<path d="M29.4065 2.3968L45.5998 18.5832C50.9018 23.88 45.7939 29.1848 45.5998 29.3688L29.4065 45.6032C23.9725 50.996 18.6084 45.6032 18.6084 45.6032L2.41511 29.4008C-3.01888 24.008 2.41511 18.6072 2.41511 18.6072L18.6472 2.3968C24.0812 -2.996 29.4453 2.3968 29.4453 2.3968H29.4065ZM30.0198 10.686C30.0523 10.6731 30.0882 10.6731 30.1207 10.686C30.1032 10.6823 30.0851 10.6825 30.0677 10.6867C30.0503 10.6908 30.0339 10.6988 30.0198 10.71V10.686ZM41.1983 26.3043L43.2787 24.224C43.3109 24.1926 43.3365 24.1548 43.3541 24.1128C43.3716 24.0709 43.3806 24.0257 43.3806 23.98C43.3806 23.9343 43.3716 23.8891 43.3541 23.8472C43.3365 23.8052 43.3109 23.7674 43.2787 23.736L41.3225 21.7837L41.2759 21.7357L41.2293 21.6877L40.9964 21.4556C40.9964 21.4556 38.6676 19.1273 36.3387 21.4556L33.6683 24.128C33.6683 24.128 31.3395 26.4484 33.6683 28.7767L33.9012 29.0087C33.9012 29.0087 36.2301 31.3291 38.5589 29.0087L40.1115 27.4085L41.206 26.3203L41.1983 26.3043ZM37.3867 18.2391C37.4109 18.2557 37.4392 18.2645 37.4682 18.2645C37.4972 18.2645 37.5256 18.2557 37.5498 18.2391C37.5645 18.2264 37.5763 18.2105 37.5844 18.1925C37.5925 18.1745 37.5967 18.1549 37.5967 18.1351C37.5967 18.1153 37.5925 18.0957 37.5844 18.0778C37.5763 18.0598 37.5645 18.0439 37.5498 18.0311L36.5561 17.039L36.4552 16.943L35.9661 16.4549L34.0254 14.5186L33.94 14.4306L33.7071 14.1985C33.7071 14.1985 31.3783 11.8782 29.0494 14.1985L21.4418 21.6797C21.4418 21.6797 19.113 24 21.4418 26.3283L21.6747 26.5604C21.6747 26.5604 24.0036 28.8887 26.3324 26.5604L32.7911 20.0954L33.8857 18.9993C34.3171 18.5083 34.8889 18.1715 35.5183 18.0378C36.1477 17.904 36.8021 17.9801 37.3867 18.2552V18.2391ZM30.0664 10.9181C30.0905 10.9346 30.1189 10.9434 30.1479 10.9434C30.1769 10.9434 30.2052 10.9346 30.2294 10.9181C30.2545 10.8912 30.2686 10.8554 30.2686 10.818C30.2686 10.7807 30.2545 10.7449 30.2294 10.718L29.2357 9.72589L29.1271 9.59787L28.638 9.10979L26.6895 7.19751L26.6041 7.1095L26.3712 6.87746C26.3712 6.87746 24.0424 4.54912 21.7135 6.87746L14.1603 14.4306C14.1603 14.4306 11.8314 16.7509 14.1603 19.0793L14.3932 19.3113C14.3932 19.3113 16.722 21.6316 19.0509 19.3113L25.463 12.7983L26.5576 11.7102C26.9857 11.2121 27.5571 10.8681 28.1884 10.7285C28.8196 10.5889 29.4776 10.6609 30.0664 10.9341V10.9181ZM23.7552 33.4974L11.6607 21.4476C11.6607 21.4476 9.33181 19.1273 7.00295 21.4476L6.77006 21.6797L6.68467 21.7837L4.72067 23.76C4.68745 23.7907 4.66088 23.8284 4.64269 23.8704C4.6245 23.9124 4.6151 23.958 4.6151 24.004C4.6151 24.05 4.6245 24.0956 4.64269 24.1376C4.66088 24.1796 4.68745 24.2173 4.72067 24.248L6.80112 26.3283L7.88792 27.4165L21.6747 41.1945C21.6747 41.1945 24.0036 43.5149 26.3324 41.1945L26.542 40.9785L27.4037 40.1144L30.307 37.21L31.4016 36.1218L33.482 34.0415C33.5152 34.0107 33.5418 33.9731 33.56 33.931C33.5782 33.889 33.5876 33.8435 33.5876 33.7975C33.5876 33.7514 33.5782 33.7059 33.56 33.6639C33.5418 33.6218 33.5152 33.5842 33.482 33.5534L31.5258 31.6011L31.4792 31.5531L31.4326 31.5051L31.1997 31.2731C31.1997 31.2731 28.8709 28.9527 26.542 31.2731L24.2132 33.5854C24.1483 33.649 24.0621 33.6845 23.9725 33.6845C23.883 33.6845 23.7968 33.649 23.7319 33.5854L23.7552 33.4974Z" fill="black"/>
</g>
<defs>
<clipPath id="clip0_983_15235">
<rect width="48" height="48" rx="4" fill="white"/>
</clipPath>
</defs>
</svg>
