<svg width="192" height="40" viewBox="0 0 192 40" fill="none" xmlns="http://www.w3.org/2000/svg">
<path d="M60.7422 17.1947H64.4185V19.6037H64.483C64.827 18.8756 65.3753 18.2332 66.1277 17.6765C66.9016 17.0983 67.9337 16.8092 69.2236 16.8092C71.653 16.8092 73.2654 17.7621 74.0609 19.6679C74.6198 18.6829 75.3185 17.9656 76.1571 17.5159C76.9955 17.0448 77.9952 16.8092 79.1561 16.8092C80.1881 16.8092 81.0588 16.9805 81.7682 17.3232C82.4778 17.6658 83.0474 18.1369 83.4774 18.7364C83.9289 19.336 84.2514 20.0425 84.4449 20.8563C84.6384 21.6485 84.7352 22.5051 84.7352 23.4259V32.612H80.8653V23.8755C80.8653 23.4044 80.8224 22.9548 80.7363 22.5265C80.6503 22.0768 80.4999 21.6914 80.2848 21.3702C80.0699 21.0276 79.7796 20.7599 79.4141 20.5672C79.0487 20.3745 78.5757 20.2781 77.9952 20.2781C77.3932 20.2781 76.8772 20.3959 76.4472 20.6314C76.0388 20.8455 75.6948 21.1453 75.4153 21.5308C75.1573 21.8948 74.9638 22.3231 74.8348 22.8156C74.7274 23.2867 74.6735 23.7685 74.6735 24.261V32.612H70.8037V23.4259C70.8037 22.4623 70.5995 21.7021 70.1911 21.1453C69.7825 20.5672 69.1053 20.2781 68.1594 20.2781C67.5144 20.2781 66.9662 20.3852 66.5147 20.5993C66.0847 20.8134 65.7192 21.1025 65.4182 21.4665C65.1387 21.8306 64.9345 22.2481 64.8055 22.7192C64.6765 23.1903 64.612 23.6828 64.612 24.1967V32.612H60.7422V17.1947Z" fill="#333333"/>
<path d="M98.6333 30.4925H98.5359C97.9777 31.3704 97.2679 32.0127 96.4074 32.4196C95.548 32.805 94.6022 32.9977 93.5701 32.9977C92.8606 32.9977 92.1619 32.9014 91.4739 32.7086C90.8074 32.5159 90.2054 32.2268 89.668 31.8414C89.152 31.456 88.7327 30.9743 88.4102 30.3961C88.0878 29.8179 87.9265 29.1434 87.9265 28.3725C87.9265 27.5374 88.077 26.8308 88.378 26.2526C88.679 25.6531 89.0767 25.1606 89.5712 24.7752C90.0872 24.3683 90.6784 24.0471 91.3448 23.8116C92.0114 23.576 92.6994 23.4047 93.4085 23.2977C94.1394 23.1692 94.8703 23.0942 95.6012 23.0728C96.3331 23.03 97.0209 23.0086 97.6655 23.0086H98.6333V22.591C98.6333 21.6274 98.3 20.9101 97.6333 20.439C96.9667 19.9466 96.1173 19.7003 95.0862 19.7003C94.2689 19.7003 93.5059 19.8502 92.796 20.15C92.0866 20.4283 91.4739 20.8137 90.9579 21.3062L88.9262 19.2828C89.7862 18.4048 90.7859 17.7731 91.9254 17.3877C93.0862 17.0023 94.28 16.8095 95.5048 16.8095C96.6012 16.8095 97.5259 16.938 98.2779 17.195C99.0309 17.4305 99.6544 17.741 100.148 18.1265C100.643 18.5119 101.02 18.9616 101.278 19.4755C101.557 19.968 101.751 20.4711 101.858 20.985C101.987 21.499 102.062 22.0022 102.084 22.4947C102.105 22.9658 102.116 23.3833 102.116 23.7474V32.6123H98.6333V30.4925ZM98.4074 25.7067H97.6012C97.0641 25.7067 96.4617 25.7281 95.795 25.7709C95.1283 25.8137 94.4948 25.9207 93.8924 26.092C93.3121 26.2419 92.8176 26.4775 92.4091 26.7987C92.0007 27.0984 91.7963 27.5267 91.7963 28.0835C91.7963 28.4475 91.8716 28.758 92.0221 29.0149C92.1941 29.2505 92.4091 29.4539 92.6671 29.6252C92.9256 29.7965 93.2157 29.925 93.538 30.0107C93.8603 30.0749 94.1826 30.107 94.5049 30.107C95.8382 30.107 96.8161 29.7965 97.4396 29.1755C98.0851 28.5331 98.4074 27.6659 98.4074 26.5738V25.7067Z" fill="#333333"/>
<path d="M106.344 17.1947H110.214V32.6124H106.344V17.1947ZM105.796 11.9592C105.796 11.3382 106.022 10.8029 106.473 10.3532C106.946 9.88213 107.537 9.64664 108.247 9.64664C108.957 9.64664 109.548 9.87143 110.021 10.3211C110.515 10.7494 110.762 11.2954 110.762 11.9592C110.762 12.623 110.515 13.1798 110.021 13.6295C109.548 14.0577 108.957 14.2719 108.247 14.2719C107.537 14.2719 106.946 14.047 106.473 13.5973C106.022 13.1262 105.796 12.5802 105.796 11.9592Z" fill="#333333"/>
<path d="M114.728 8.32986H118.597V32.6124H114.728V8.32986Z" fill="#333333"/>
<path d="M131.294 21.4666C130.541 20.4174 129.531 19.8928 128.261 19.8928C127.746 19.8928 127.24 20.0212 126.746 20.2782C126.251 20.5352 126.004 20.9527 126.004 21.5309C126.004 22.002 126.209 22.3446 126.617 22.5587C127.026 22.7729 127.542 22.9549 128.165 23.1048C128.789 23.2547 129.455 23.4152 130.165 23.5866C130.896 23.7364 131.573 23.9827 132.196 24.3253C132.82 24.6465 133.336 25.0961 133.744 25.6743C134.153 26.2524 134.357 27.0447 134.357 28.0511C134.357 28.9719 134.153 29.7535 133.744 30.3959C133.357 31.0168 132.842 31.52 132.196 31.9054C131.573 32.2909 130.864 32.5693 130.068 32.7406C129.273 32.9119 128.477 32.9975 127.681 32.9975C126.477 32.9975 125.37 32.8262 124.36 32.4836C123.35 32.141 122.446 31.52 121.651 30.6207L124.23 28.2117C124.725 28.7685 125.252 29.2289 125.811 29.5929C126.392 29.9355 127.09 30.1068 127.907 30.1068C128.187 30.1068 128.477 30.0747 128.778 30.0105C129.079 29.9462 129.359 29.8391 129.617 29.6893C129.875 29.5394 130.079 29.3574 130.229 29.1432C130.401 28.9077 130.487 28.64 130.487 28.3402C130.487 27.8049 130.283 27.4087 129.874 27.1518C129.466 26.8948 128.95 26.6914 128.327 26.5415C127.703 26.3702 127.026 26.2203 126.295 26.0918C125.586 25.9419 124.919 25.7171 124.296 25.4173C123.672 25.0961 123.156 24.6572 122.747 24.1005C122.339 23.5437 122.135 22.7728 122.135 21.7878C122.135 20.9313 122.307 20.1925 122.651 19.5716C123.017 18.9293 123.489 18.4046 124.07 17.9978C124.65 17.5909 125.317 17.2911 126.069 17.0984C126.822 16.9057 127.585 16.8093 128.359 16.8093C129.391 16.8093 130.412 16.9914 131.422 17.3554C132.433 17.698 133.249 18.2976 133.873 19.1541L131.294 21.4666Z" fill="#333333"/>
<path d="M151.494 32.6124H147.817V30.1392H147.753C147.388 30.9101 146.828 31.5845 146.076 32.1627C145.323 32.7194 144.302 32.9978 143.012 32.9978C141.98 32.9978 141.099 32.8372 140.368 32.516C139.659 32.1734 139.078 31.7237 138.627 31.167C138.175 30.5889 137.853 29.9358 137.659 29.2078C137.465 28.4797 137.369 27.7195 137.369 26.9272V17.1951H141.239V25.0001C141.239 25.4284 141.26 25.9101 141.303 26.4454C141.347 26.9594 141.454 27.4519 141.626 27.923C141.82 28.3726 142.099 28.7581 142.464 29.0793C142.852 29.3791 143.389 29.529 144.077 29.529C144.721 29.529 145.259 29.4219 145.689 29.2078C146.141 28.9936 146.506 28.7045 146.785 28.3405C147.087 27.9765 147.301 27.5589 147.431 27.0878C147.559 26.6167 147.624 26.1242 147.624 25.6103V17.1951H151.494V32.6124Z" fill="#333333"/>
<path d="M155.952 17.1947H159.822V32.6124H155.952V17.1947ZM155.404 11.9592C155.404 11.3382 155.63 10.8029 156.081 10.3532C156.554 9.88213 157.146 9.64664 157.854 9.64664C158.564 9.64664 159.156 9.87143 159.629 10.3211C160.123 10.7494 160.37 11.2954 160.37 11.9592C160.37 12.623 160.123 13.1798 159.629 13.6295C159.156 14.0577 158.564 14.2719 157.854 14.2719C157.146 14.2719 156.554 14.047 156.081 13.5973C155.63 13.1262 155.404 12.5802 155.404 11.9592Z" fill="#333333"/>
<path d="M162.458 20.4707V17.1945H165.651V12.7299H169.52V17.1945H173.777V20.4707H169.52V27.2157C169.52 27.9866 169.66 28.5969 169.94 29.0466C170.241 29.4962 170.821 29.7211 171.681 29.7211C172.025 29.7211 172.402 29.689 172.81 29.6247C173.218 29.5391 173.541 29.4106 173.777 29.2393V32.4833C173.368 32.676 172.863 32.8045 172.261 32.8687C171.681 32.9544 171.165 32.9972 170.714 32.9972C169.682 32.9972 168.832 32.8794 168.166 32.6439C167.521 32.4298 167.005 32.0979 166.617 31.6483C166.252 31.1772 165.994 30.599 165.844 29.9138C165.715 29.2286 165.651 28.4363 165.651 27.5369V20.4707H162.458Z" fill="#333333"/>
<path d="M179.897 26.2525C180.027 27.4088 180.479 28.3082 181.252 28.9506C182.026 29.593 182.962 29.9142 184.058 29.9142C185.025 29.9142 185.831 29.7215 186.477 29.336C187.143 28.9292 187.724 28.426 188.218 27.8264L190.992 29.9142C190.088 31.0277 189.078 31.82 187.96 32.291C186.842 32.7621 185.67 32.9976 184.445 32.9976C183.284 32.9976 182.188 32.8049 181.155 32.4195C180.123 32.034 179.232 31.4881 178.479 30.7814C177.727 30.0748 177.124 29.229 176.673 28.244C176.243 27.2375 176.028 26.1241 176.028 24.9036C176.028 23.683 176.243 22.5802 176.673 21.5952C177.124 20.5889 177.727 19.7324 178.479 19.0257C179.232 18.3191 180.123 17.773 181.155 17.3876C182.188 17.0022 183.284 16.8094 184.445 16.8094C185.52 16.8094 186.498 17.0022 187.379 17.3876C188.283 17.7516 189.046 18.287 189.669 18.9936C190.314 19.7002 190.809 20.5782 191.152 21.6273C191.518 22.6552 191.7 23.8436 191.7 25.1927V26.2525H179.897ZM187.831 23.3618C187.809 22.2269 187.455 21.3383 186.767 20.6959C186.079 20.0321 185.122 19.7002 183.896 19.7002C182.736 19.7002 181.811 20.0321 181.123 20.6959C180.457 21.3597 180.048 22.2483 179.897 23.3618H187.831Z" fill="#333333"/>
<path fill-rule="evenodd" clip-rule="evenodd" d="M2.34299 14.8138L24.4311 0.638C25.7556 -0.212015 27.4565 -0.212015 28.781 0.638L50.8691 14.8138C52.0167 15.5502 52.7101 16.8171 52.7101 18.177V37.9996C52.7101 39.1044 51.8112 40 50.7021 40H2.50996C1.40094 40 0.501953 39.1044 0.501953 37.9996V18.177C0.501953 16.8171 1.19541 15.5502 2.34299 14.8138Z" fill="#333333"/>
<path fill-rule="evenodd" clip-rule="evenodd" d="M7.52998 4.99994H45.6821C46.7912 4.99994 47.6901 5.89532 47.6901 6.9999V20.6787C47.6901 22.114 46.918 23.4394 45.6667 24.1516L28.5986 33.8657C27.3639 34.5684 25.8482 34.5684 24.6135 33.8657L7.54544 24.1516C6.29415 23.4394 5.52197 22.114 5.52197 20.6787V6.9999C5.52197 5.89532 6.42096 4.99994 7.52998 4.99994Z" fill="white"/>
<path fill-rule="evenodd" clip-rule="evenodd" d="M45.6821 4.99994C46.7912 4.99994 47.6901 5.89532 47.6901 6.9999V20.6787C47.6901 22.114 46.918 23.4394 45.6667 24.1516L28.5986 33.8657C27.3639 34.5684 25.8482 34.5684 24.6135 33.8657L7.54544 24.1516C6.29415 23.4394 5.52197 22.114 5.52197 20.6787V6.9999C5.52197 5.89532 6.42096 4.99994 7.52998 4.99994H45.6821ZM45.6821 5.99992H7.52998C7.01513 5.99992 6.59073 6.38591 6.5327 6.88331L6.52598 6.9999V20.6787C6.52598 21.688 7.03501 22.6246 7.87194 23.1779L8.04363 23.2833L25.1117 32.9975C25.9759 33.4893 27.0238 33.5221 27.9126 33.0959L28.1004 32.9975L45.1685 23.2833C46.0483 22.7826 46.6123 21.8776 46.6794 20.8795L46.6861 20.6787V6.9999C46.6861 6.48711 46.2986 6.06442 45.7992 6.00662L45.6821 5.99992Z" fill="#333333"/>
<path fill-rule="evenodd" clip-rule="evenodd" d="M46.6862 19.9996L46.6861 23.3243C46.3984 23.6492 46.0556 23.9299 45.6666 24.1513L28.5985 33.8654C27.3639 34.5681 25.8482 34.5681 24.6135 33.8654L7.54546 24.1513C7.15561 23.9294 6.81224 23.648 6.52429 23.3223L6.526 19.9996H46.6862Z" fill="white"/>
<path fill-rule="evenodd" clip-rule="evenodd" d="M25.4836 20.6527L27.8033 18.2885L29.2136 19.7226L36.0707 12.8636C36.981 11.8624 37.8468 11.7498 38.6682 12.5257C39.4897 13.3017 39.4487 14.1742 38.5454 15.1434L30.5447 23.2053C30.2238 23.5621 29.7801 23.7406 29.2136 23.7406C28.6471 23.7406 28.1454 23.4612 27.7085 22.9023L25.4836 20.6527Z" fill="#333333"/>
<path fill-rule="evenodd" clip-rule="evenodd" d="M14.5581 19.2496C13.828 18.4596 13.808 17.6715 14.4982 16.8856C15.1883 16.0996 15.9816 16.0996 16.8779 16.8856L19.9938 19.991L26.8508 13.132C27.7612 12.131 28.627 12.0183 29.4484 12.7943C30.2699 13.5701 30.2289 14.4426 29.3256 15.4118L21.3249 23.4738C21.004 23.8307 20.5602 24.0091 19.9938 24.0091C19.4272 24.0091 18.9256 23.7297 18.4887 23.1709L14.5581 19.2496Z" fill="#333333"/>
</svg>
