<svg viewBox="0 0 159 40" xmlns="http://www.w3.org/2000/svg"><path fill-rule="evenodd" clip-rule="evenodd" d="M153.19 0h-38.596a5.44 5.44 0 0 0-5.44 5.44v34.557l7.492-7.42h36.544a5.438 5.438 0 0 0 5.44-5.44V5.44A5.44 5.44 0 0 0 153.19 0Zm-32.478 24.377a1.45 1.45 0 0 1-2.902 0V8.965a1.45 1.45 0 0 1 2.902 0v15.412Zm6.745 0a1.45 1.45 0 0 1-2.901 0v-10.19a1.447 1.447 0 0 1 1.45-1.45 1.45 1.45 0 0 1 1.451 1.45v10.19Zm.214-14.843a1.575 1.575 0 0 1-1.574 1.574h-.142a1.573 1.573 0 0 1-1.573-1.574V9.44a1.57 1.57 0 0 1 1.573-1.574h.142a1.575 1.575 0 0 1 1.574 1.574v.094Zm10.201 15.931a5.001 5.001 0 0 1-2.132.464c-2.506 0-3.83-1.207-3.83-3.495v-7h-1.323a.801.801 0 0 1-.758-.498.786.786 0 0 1-.058-.314.881.881 0 0 1 .344-.682l3.21-3.14a.95.95 0 0 1 .656-.316.811.811 0 0 1 .763.518c.04.102.059.21.057.32v1.538h2.32a1.29 1.29 0 0 1 0 2.578h-2.32v6.81c0 .987.489 1.063 1.182 1.063.287.002.573-.039.848-.12a2.21 2.21 0 0 1 .577-.094 1.234 1.234 0 0 1 1.218 1.219 1.252 1.252 0 0 1-.754 1.15Zm8.896-2.266a6.109 6.109 0 0 0 3.039-.697 1.24 1.24 0 0 1 .595-.134 1.286 1.286 0 0 1 1.312 1.288 1.406 1.406 0 0 1-.801 1.193c-1.012.576-2.107 1.088-4.352 1.088-4.08 0-6.527-2.488-6.527-6.655 0-4.914 3.263-6.658 6.038-6.658 4.134 0 6.016 3.29 6.016 6.346a1.404 1.404 0 0 1-.415 1.031 1.397 1.397 0 0 1-1.036.402h-7.615c.377 1.835 1.664 2.796 3.746 2.796Zm-83.973-9.192c.232-.097.482-.147.734-.146a1.91 1.91 0 0 1 1.93 1.929v22.12a1.915 1.915 0 0 1-3.827 0V15.79a1.894 1.894 0 0 1 1.163-1.783Zm-9.018.38h.207c1.16 0 2.1.94 2.1 2.099v.138a2.1 2.1 0 0 1-2.1 2.1h-.207a2.1 2.1 0 0 1-2.1-2.1v-.138c0-1.16.94-2.1 2.1-2.1Zm-33.03 6.817c-2.662 0-4.75 1.052-6.22 3.133a5.857 5.857 0 0 0-5.265-3.133 6.772 6.772 0 0 0-5.44 2.448v-.363a1.958 1.958 0 0 0-1.929-1.929A1.915 1.915 0 0 0 0 23.29v14.62a1.915 1.915 0 0 0 3.826 0V27.804c.867-1.421 2.176-3.01 4.548-3.01 2.24 0 3.115 1.088 3.115 3.931v9.204a1.915 1.915 0 0 0 3.826 0V27.804c.867-1.421 2.176-3.01 4.547-3.01 2.242 0 3.116 1.088 3.116 3.931v9.204a1.915 1.915 0 0 0 3.825 0v-9.816c-.003-3.33-1.885-6.909-6.056-6.909Zm18.27 0a14.941 14.941 0 0 0-6.034 1.255 1.705 1.705 0 0 0-1.11 1.632 1.624 1.624 0 0 0 1.625 1.657 2.27 2.27 0 0 0 .555-.087 13.206 13.206 0 0 1 4.42-.801c2.956 0 4.178 1.088 4.204 3.775h-3.761c-5.135 0-8.203 2.201-8.203 5.886 0 3.593 2.977 5.476 5.918 5.476a9.015 9.015 0 0 0 6.056-2.118v.05a1.915 1.915 0 0 0 3.827 0v-9.646c-.008-3.525-2.325-7.079-7.497-7.079Zm-1.225 15.34c-2.158 0-3.264-.794-3.264-2.364 0-.577 0-2.332 4.783-2.332h3.377v2.36c-1.012 1.103-2.85 2.336-4.896 2.336Zm16.054-15.17a1.892 1.892 0 0 0-1.896 1.93v14.622a1.915 1.915 0 0 0 3.825 0V23.289a1.91 1.91 0 0 0-1.929-1.914Zm24.816-.17c-2.727 0-4.964 1.012-6.48 2.93-1.31 1.658-2.031 3.953-2.031 6.466 0 5.883 3.434 9.397 9.19 9.397 3.158 0 4.714-.726 6.146-1.549a1.874 1.874 0 0 0 1.07-1.577 1.692 1.692 0 0 0-1.726-1.694 1.61 1.61 0 0 0-.78.178 8.914 8.914 0 0 1-4.435 1.015c-3.177 0-5.077-1.49-5.548-4.319h11.14a1.852 1.852 0 0 0 1.93-1.897c0-6.14-4.392-8.95-8.476-8.95Zm0 3.351c1.581 0 4.269.907 4.65 4.25h-9.266c.34-2.934 2.524-4.25 4.616-4.25Zm21.545-3.35h.171a1.864 1.864 0 0 1 1.733 1.183c.091.231.134.479.127.727a1.81 1.81 0 0 1-1.929 1.814h-.171c-1.947 0-3.691.975-4.92 2.748v10.234a1.915 1.915 0 0 1-3.827 0V23.29a1.915 1.915 0 0 1 1.897-1.929 1.958 1.958 0 0 1 1.93 1.93v.453c1.504-1.683 3.176-2.539 4.989-2.539Zm43.832-5.253a3.05 3.05 0 0 1 2.08-.768 3.068 3.068 0 0 1 3.115 2.742h-6.205a3.05 3.05 0 0 1 1.01-1.974Z" fill="#201F1D"/></svg>