<svg viewBox="0 0 160 40" xmlns="http://www.w3.org/2000/svg"><path fill-rule="evenodd" clip-rule="evenodd" d="M4.506 8.12c-1.726.26-3.438 1.617-4.12 3.29-.333.806-.334.894-.377 8.056v.034c-.03 4.457.014 7.63.101 8.206.29 1.832 1.364 3.26 3.032 4.038l.827.39 7.834.043c5.454.029 8.065 0 8.587-.115 1.045-.231 2.35-1.125 3.003-2.063.653-.951.958-1.932.958-3.172v-.967h-3.047v-8.25l-.42-.418c-.349-.346-.552-.418-1.132-.418-.435 0-.87.1-1.16.288-.87.52-.914.736-.914 4.976v3.821H14.63V17.61l-.42-.418c-.348-.332-.552-.418-1.088-.418-.77 0-1.277.173-1.683.577-.276.274-.29.447-.29 4.398v4.11H7.958V14.466h1.437c1.537 0 1.61.03 1.61.808v.36l.551-.432c.74-.606 1.64-.88 2.77-.88 1.176 0 1.988.346 2.568 1.053l.407.519.565-.505c.842-.764 1.683-1.067 2.916-1.067 1.755 0 2.945.822 3.41 2.322.1.36.144-.173.115-2.106-.029-2.48-.043-2.639-.42-3.418-.755-1.615-2.336-2.74-4.222-3.014-1.088-.144-14.071-.144-15.16.015Zm41.749 9.663v8.076H49.3v-3.403l.58-.563c.32-.302.595-.533.624-.49.024.024.469.704 1.055 1.6l.425.65 1.407 2.206h3.452l-2.176-3.244c-1.19-1.774-2.176-3.303-2.176-3.39 0-.086.885-1.153 1.959-2.393 1.073-1.226 1.958-2.265 1.958-2.293 0-.044-.798-.073-1.77-.073h-1.784l-1.596 1.875c-.87 1.039-1.61 1.947-1.639 2.02a.215.215 0 0 1-.188.143c-.073 0-.131-1.831-.131-4.398V9.707h-3.046v8.076Zm61.218 8.076V9.707h1.16v6.389l.697-.65c.972-.908 1.77-1.182 3.177-1.095 1.262.072 1.813.302 2.582 1.052 1.015 1.01 1.523 2.596 1.523 4.76 0 3.706-1.567 5.826-4.294 5.84-1.306 0-2.19-.303-3.017-1.038l-.668-.577v1.471h-1.16Zm7.848-5.769c0-2.365-.609-3.807-1.842-4.398-.697-.332-2.002-.418-2.655-.173-.696.26-1.567 1.038-1.9 1.687-.262.505-.291.851-.291 3.072v2.524l.479.692c.638.952 1.581 1.428 2.858 1.428.769 0 1.073-.073 1.625-.39 1.204-.72 1.726-2.033 1.726-4.442Zm28.272-2.307v8.076h1.306v-8.018l.421-.649c1.058-1.673 2.857-2.307 4.366-1.543.435.23.725.52.928.909.29.533.305.865.349 4.932l.043 4.37h1.32l-.058-4.442-.043-4.428-.378-.807c-.623-1.313-1.595-1.86-3.307-1.86-1.219 0-2.176.432-3.017 1.34l-.624.678V9.707h-1.306v8.076Zm-66.874-6.23c0-.635.26-1.096.798-1.384.754-.419 2.045-.072 2.364.62.566 1.226-.16 2.235-1.61 2.235-.522 0-.74-.086-1.103-.418-.377-.346-.45-.534-.45-1.053Zm50.264-.908c-.406.39-.391.85.044 1.182.74.592 1.741-.403 1.16-1.139-.348-.433-.812-.447-1.204-.043Zm29.231 3.821v-2.884h1.305v2.884h2.321v1.01h-2.321v4.21c0 3.909.015 4.255.276 4.688.319.505.914.706 1.697.548l.508-.087-.044.548-.043.548-1.015.044c-1.248.043-1.886-.246-2.307-1.068-.29-.519-.305-.85-.348-5.004l-.044-4.427h-2.016v-1.01h2.031Zm-86.168-1.37v1.37h-1.741v2.149l.841.044.827.043.073 3.75c.072 3.59.087 3.763.406 4.282.188.289.58.678.87.866.464.288.725.331 1.915.331h.062c1.029 0 1.477 0 1.673-.222.151-.172.151-.477.15-1.017v-1.14h-.695c-.392 0-.827-.101-1.016-.23-.32-.217-.32-.275-.32-3.462v-3.23h1.887v-2.164h-1.886v-2.74h-3.046v1.37Zm-43.36 4.038c.305-1.11 1.262-2.033 2.611-2.538 1.103-.404 3.51-.318 4.512.144.74.346 1.61 1.226 1.885 1.86.102.231.218 1.86.276 4.14.073 2.74.16 3.936.32 4.427l.217.692h-3.134l-.174-.505-.16-.505-.55.433c-.653.534-1.277.721-2.336.721-1.073 0-1.755-.216-2.495-.764-.856-.65-1.277-1.514-1.277-2.668 0-2.38 1.828-3.634 5.295-3.634h1.233v-.721c0-.592-.072-.808-.42-1.183-.378-.418-.523-.476-1.132-.476-.841 0-1.45.346-1.668.952l-.145.418h-1.509c-.827 0-1.509-.043-1.509-.115 0-.058.073-.36.16-.678Zm5.904 5.956c.276-.274.32-.461.32-1.37v-1.053h-.973c-1.683.015-2.495.563-2.51 1.702 0 .865.465 1.327 1.364 1.327.77 0 1.35-.202 1.799-.606Zm10.01-8.48c-.29.16-.697.491-.9.75l-.377.476v-.461c0-.88-.044-.909-1.538-.909h-1.363V25.86h3.046v-7.6l.363-.375c.45-.432 1.61-.75 2.408-.634l.565.072v-3h-.826c-.537.015-1.03.116-1.379.289Zm14.68 5.697c0-2.812 1.131-4.73 3.322-5.653.696-.288 1-.332 2.205-.303 1.218.043 1.509.115 2.248.476 1.61.822 2.38 2.293 2.496 4.788l.058 1.485h-7.283l.087.39c.16.678.755 1.47 1.364 1.774 1.102.562 2.77.317 3.67-.549l.42-.389.712.764c.391.419.71.851.71.967 0 .288-.986 1.081-1.885 1.5-.711.331-.972.375-2.466.375-1.567 0-1.727-.03-2.612-.447-2.03-.967-3.046-2.683-3.046-5.178Zm7.326-1.76c-.145-.793-.464-1.312-.943-1.557-.406-.216-1.45-.274-1.886-.115-.537.202-1.059.908-1.32 1.802l-.116.404h4.366l-.101-.533Zm22.63-4.037c-.668.26-1.306.634-1.509.88-.319.374-.45.259-.45-.347v-.577h-2.9V25.86h3.045v-4.01c0-4.384 0-4.413.87-4.86.48-.245 1.77-.288 2.191-.072.653.36.711.75.711 4.976v3.965h3.061l-.043-4.514c-.044-3.965-.073-4.571-.305-5.076-.61-1.327-1.625-1.947-3.22-1.932-.552 0-1.205.086-1.451.173Zm7.18 7.643c-.841-3.216.261-6.432 2.539-7.485.522-.245.987-.346 1.683-.346 1.146 0 1.755.187 2.48.735.552.433.697.361.697-.317 0-.245.116-.274 1.378-.274h1.378v5.985c0 5.754-.015 6-.305 6.793-.827 2.163-3.365 3.403-6.092 2.956-1.117-.173-2.481-.793-2.989-1.341l-.333-.346.667-.894.653-.88.653.49c.696.534 1.349.721 2.407.692 1.306-.028 2.278-1.052 2.293-2.393 0-.577-.146-.678-.45-.289-.638.75-2.814 1.024-3.99.49-1.348-.605-2.204-1.745-2.669-3.576Zm7.109-4.456-.436-.419c-.377-.346-.58-.432-1.349-.476-.754-.043-.972 0-1.363.289a2.7 2.7 0 0 0-.697.779c-.885 1.846-.507 4.629.74 5.408.754.461 2.06.346 2.669-.231l.436-.418v-4.932Zm20.729-3.043a4.04 4.04 0 0 0-1.102.952l-.479.62v-1.76h-1.16V25.86h1.16v-3.937c0-3.836.015-3.937.348-4.658.552-1.168 1.596-1.788 3.003-1.788h.711v-1.154h-.914c-.696 0-1.088.087-1.567.332Zm8.864 5.422c0-2.812 1.088-4.86 2.959-5.567.247-.086.914-.173 1.465-.173 1.233-.014 2.278.418 3.047 1.24l.507.549v-1.659h1.175l-.043 6.374v.018c-.044 6.328-.044 6.372-.377 7.063a4.354 4.354 0 0 1-2.321 2.135c-1.161.432-2.974.346-4.033-.188-.74-.39-1.654-1.14-1.654-1.37 0-.058.131-.274.276-.461l.275-.36.668.59c1.146.995 2.524 1.298 3.902.823.798-.274 1.625-1.111 1.828-1.89.203-.735.377-2.639.246-2.639-.072 0-.377.23-.696.49-.74.635-1.668.952-2.771.952-1.175 0-1.886-.245-2.611-.88-1.204-1.038-1.842-2.797-1.842-5.047Zm7.079-3.72c-.261-.26-.653-.563-.899-.693-.639-.332-2.075-.39-2.699-.115-1.581.72-2.263 2.336-2.147 5.134.073 1.774.421 2.74 1.291 3.504 1.393 1.27 3.787.923 4.889-.692l.464-.692v-2.524c0-2.769-.072-3.072-.899-3.923Zm-61.334 3.807v5.696h3.047V14.466h-3.046v5.697Zm50.048 5.696V14.466h1.305V25.86h-1.305Z" fill="#201F1D"/></svg>