<svg viewBox="0 0 92 40" xmlns="http://www.w3.org/2000/svg"><path fill-rule="evenodd" clip-rule="evenodd" d="M83.623 14.486c-.24.177-.479.355-.716.534l-.075.056c-.284.212-.565.42-.657.79l-.058.215c-.17.618-.347 1.267.222 1.762.527.457 1.067.166 1.568-.104.077-.041.152-.082.226-.12.877-.443 1.59-1.102 2.273-1.795.442-.45.947-.79 1.55-.364.565.398.543 1.003.31 1.591a3.036 3.036 0 0 1-.472.839c-1.685 1.99-3.728 3.498-6.233 4.292-2.523.8-3.85-.173-3.984-2.81-.005-.11.013-.237.03-.364.041-.29.082-.58-.155-.694-.244-.117-.46.101-.67.314-.086.086-.17.17-.256.233-1.944 1.394-3.914 2.724-6.363 3.082-3.09.453-5.04-1.163-5.117-4.263-.005-.527.032-1.053.11-1.575.076-.552-.122-.855-.65-1.07-.616-.252-.92-.382-1.164-.31-.248.075-.432.357-.815.936-1.367 2.063-2.852 4.027-4.928 5.455-.93.64-1.915 1.144-3.09 1.165-1.654.03-2.595-.644-3.04-2.227-.392-1.396-.223-2.797-.053-4.198l.03-.253c.009-.07.03-.149.053-.227.058-.2.117-.406-.046-.52-.22-.155-.389.005-.552.16a1.308 1.308 0 0 1-.294.226c-.483.311-.963.62-1.515.806-1.624.546-2.845-.354-2.762-2.067.043-.883.304-1.728.575-2.566.107-.335.213-.67.304-1.01.044-.17.068-.365-.118-.47-.18-.101-.332.017-.464.121l-.013.01c-.443.349-.783.792-1.085 1.262-1.599 2.49-2.364 5.284-2.98 8.129-.097.451-.173.908-.25 1.364-.074.44-.147.879-.24 1.314-.217 1.017-.87 1.508-1.96 1.536-1.014.025-1.423-.262-1.73-1.34-.137-.483-.314-.402-.591-.155-.136.12-.27.241-.404.363-.324.292-.647.584-.985.859-.689.562-1.448 1.004-2.326 1.215-1.28.307-2.265-.11-2.915-1.238-.516-.898-.523-.904-1.122-.022a8.774 8.774 0 0 1-1.51 1.718c-2.157 1.868-4.56 1.095-5.193-1.676-.299-1.308-.221-2.624.028-3.927.68-3.546 1.941-6.82 4.58-9.42.827-.817 1.791-1.413 2.948-1.684.814-.192 1.599-.157 2.291.313.505.341.827.264 1.175-.198.17-.227.426-.41.677-.552.619-.353 1.278-.491 1.924-.085.595.375.695.992.655 1.628-.08 1.256-.598 2.379-1.144 3.485-.834 1.691-1.083 3.517-1.263 5.356-.039.398-.02.866.42 1.08.397.192.768-.036 1.055-.278 1.533-1.292 2.727-2.84 3.27-4.788.306-1.095.564-2.203.822-3.311.14-.605.282-1.21.43-1.811.148-.6.36-1.18.714-1.695.442-.643 1.041-1.024 1.842-1.04.987-.018 1.47.462 1.45 1.449a7.33 7.33 0 0 1-.04.591l-.023.27.177.106c.311-.376.622-.754.931-1.132.505-.616 1.06-1.18 1.745-1.6.795-.482 1.626-.564 2.419-.059.834.533 1.09 1.375.917 2.306-.084.455-.242.896-.401 1.337l-.149.42c-.08.236-.169.47-.257.704-.089.232-.177.464-.256.698-.074.22-.142.477.081.653.266.208.515.04.716-.128.884-.734 1.726-1.508 2.205-2.587l.167-.38c.295-.68.592-1.361 1.027-1.968.77-1.073 1.786-1.686 3.157-1.56.804.073 1.204.515 1.224 1.327.02.778-.264 1.45-.755 2.013-.557.642-.857 1.383-1.084 2.18l-.115.402c-.372 1.304-.744 2.607-.969 3.946a6.044 6.044 0 0 0-.1 1.222c.033.824.443 1.08 1.155.636 1.93-1.202 3.267-2.921 4.163-4.988.144-.331.03-.646-.084-.957-.019-.05-.036-.1-.053-.15-.41-1.194-.507-2.4-.135-3.626.217-.716.548-1.365 1.118-1.86.693-.6 1.493-.824 2.379-.492.872.327 1.239 1.028 1.338 1.905.149 1.321-.163 2.559-.678 3.763l-.029.066c-.192.443-.38.874.306 1.154.665.27.954-.054 1.237-.588 1.291-2.435 2.996-4.484 5.547-5.71 1.954-.94 4.025-.763 5.094.431 1.03 1.153.996 3.504-.074 5.21-.739 1.176-1.779 2.02-2.99 2.667a13.04 13.04 0 0 1-3.647 1.288 4.105 4.105 0 0 1-.269.04c-.453.059-.925.12-.905.83.022.787.533 1.451 1.274 1.584a3.65 3.65 0 0 0 1.492-.033c2.66-.636 4.666-2.287 6.484-4.206.157-.166.23-.415.303-.658.023-.076.045-.152.07-.224 1.263-3.688 2.85-7.202 5.515-10.13C85.488 1.462 86.717.516 88.283.113c1.644-.423 3 .363 3.494 1.981.572 1.872-.028 3.531-.977 5.102-1.304 2.156-3.055 3.94-4.962 5.566-.71.607-1.463 1.165-2.215 1.724Zm3.924-10.387-.097.105c-1.98 2.096-3.223 4.649-4.433 7.241 1.619-1.327 3.118-2.752 4.395-4.398.486-.627.964-1.263 1.254-2.007l.044-.11c.174-.435.379-.948-.084-1.251-.435-.284-.788.102-1.08.42Zm-14.07 4.815c-.934.192-1.514.981-2.06 1.77-.072.104-.168.213-.265.325-.304.347-.63.72-.346 1.066.26.315.775.092 1.231-.105.11-.048.217-.094.316-.13.867-.323 1.672-.76 2-1.706.252-.722-.084-1.235-.876-1.22ZM32.088 13.2c.077-.314.118-.635.123-.957.022-.646-.338-.837-.91-.674-.66.184-1.114.665-1.494 1.187-1.475 2.019-2.16 4.33-2.465 6.643.013.14.016.279.019.414.01.466.017.878.453 1.043.5.19.778-.165 1.046-.507a4.03 4.03 0 0 1 .205-.249 1.69 1.69 0 0 0 .204-.286 25.849 25.849 0 0 0 2.82-6.615Zm-18.644-.228c-.145-.433-.233-.86-.32-1.278-.075-.364-.15-.722-.259-1.073-.688-2.214-2.523-2.966-4.58-1.867a6.53 6.53 0 0 0-1.897 1.555c-1.27 1.489-2.218 3.17-2.989 4.955C1.256 20.226.278 25.44.039 30.809l-.012.238c-.04.825-.08 1.661.24 2.457.346.855 1.1 1.364 1.985 1.34.955-.025 1.784-.636 2.016-1.551.1-.39.11-.811.11-1.218 0-1.377 0-2.75.188-4.121.512-3.788 1.3-7.504 2.844-11.027.34-.779.72-1.555 1.428-2.083.606-.452 1.075-.267 1.205.47.102.582.054 1.17-.047 1.75-.102.588-.208 1.174-.314 1.761-.196 1.085-.392 2.17-.564 3.26-.06.38-.128.761-.197 1.142-.279 1.55-.558 3.104-.263 4.69.258 1.405 1.24 2.193 2.421 2.04 1.268-.164 1.794-.91 1.8-2.445.02-4.508.938-8.838 2.634-13.01.255-.627.58-1.223 1.03-1.732l.031-.035c.321-.364.69-.781 1.233-.553.534.223.446.785.378 1.229l-.003.015a44.3 44.3 0 0 1-.567 2.931l-.184.816c-.58 2.557-1.16 5.11-1.014 7.768.037.682.114 1.344.481 1.94.547.882 1.713 1.222 2.814.823 1.043-.379 1.411-1.017 1.185-2.214-.39-2.053-.223-4.08.18-6.107.316-1.571.786-3.099 1.257-4.626.366-1.188.732-2.376 1.025-3.585.301-1.24.413-2.49.268-3.75-.273-2.37-2.374-3.432-4.466-2.273a7.055 7.055 0 0 0-1.968 1.613 20.738 20.738 0 0 0-2.709 4.103c-.25.497-.496.999-.742 1.5l-.298.608ZM64.743 25.29l-1.36.023c-1.488.025-2.976.05-4.464.094-6.736.22-13.452.83-20.116 1.828-8.252 1.229-16.392 2.949-24.302 5.64l-.024.007c-1.884.64-3.774 1.284-5.425 2.455-.761.54-1.372 1.2-1.654 2.108-.46 1.474.394 2.596 1.946 2.554.754-.02 1.433-.298 2.091-.642 4.661-2.432 9.569-4.233 14.618-5.674 14.014-3.998 28.324-5.864 42.892-5.811.593.002 1.186 0 1.779-.004 2.055-.01 4.112-.02 6.163.18.264.02.53.024.794.014.945-.009 1.477-.402 1.508-1.117.029-.654-.455-1.058-1.397-1.136a155.27 155.27 0 0 0-13.05-.52Z" fill="#201F1D"/></svg>