<svg viewBox="0 0 201 40" xmlns="http://www.w3.org/2000/svg"><path fill-rule="evenodd" clip-rule="evenodd" d="M4.031 4a4.034 4.034 0 0 1 4.032 4.031 4.034 4.034 0 0 1-4.032 4.032A4.034 4.034 0 0 1 0 8.03 4.034 4.034 0 0 1 4.031 4Zm29.526 3.892a13.908 13.908 0 0 0-9.647-3.864c-3.726 0-7.118 1.473-9.648 3.864a14.517 14.517 0 0 1 4.032 8.257 5.913 5.913 0 0 1 5.616-4.059c2.613 0 4.837 1.724 5.616 4.087a14.096 14.096 0 0 1 4.03-8.285ZM29.83 30.106v-12.15c0-3.808 1.53-7.256 4.032-9.786a13.806 13.806 0 0 1 4.031 9.787v12.149a4.433 4.433 0 0 0-4.031-2.586 4.433 4.433 0 0 0-4.032 2.586Zm88.355-11.482c.695-1.39 2.363-2.03 3.809-2.03 2.947 0 5.227 1.835 5.227 5.31 0 3.364-2.28 5.283-5.227 5.283-1.529 0-3.031-.584-3.809-1.946v1.112a.866.866 0 0 1-.862.862.866.866 0 0 1-.862-.862V13.34c0-.472.389-.861.862-.861s.862.389.862.861v5.283Zm.083 3.253c0 2.224 1.585 3.725 3.615 3.725 1.974 0 3.614-1.362 3.614-3.725 0-2.42-1.613-3.726-3.614-3.726-2.002 0-3.615 1.53-3.615 3.726Zm-22.52.695a.777.777 0 0 0 .78-.779c0-3.586-2.253-5.254-5.172-5.254-3.086 0-5.31 2.224-5.31 5.31 0 3.253 2.224 5.366 5.394 5.366 1.5 0 3.197-.556 4.198-1.585a.695.695 0 0 0 .222-.528.777.777 0 0 0-.778-.779.776.776 0 0 0-.556.223c-.723.695-2.002 1.084-3.087 1.084-1.973 0-3.53-1.196-3.725-3.086l8.035.028Zm-8.006-1.446c.278-1.974 1.835-3.058 3.642-3.058 2.002 0 3.364 1.084 3.475 3.058h-7.117Zm-11.176-2.28c.75-1.584 2.168-2.252 3.614-2.252 2.863 0 4.309 1.78 4.281 4.56v5.227a.836.836 0 0 1-.834.834.836.836 0 0 1-.834-.834v-5.227c0-1.724-.834-2.947-2.669-2.947-1.696 0-2.808 1.334-2.808 3.002v5.172c0 .444-.39.834-.834.834a.836.836 0 0 1-.834-.834v-5.172c0-1.723-.945-3.002-2.78-3.002-1.668 0-2.753 1.334-2.753 3.002v5.144a.866.866 0 0 1-.861.862.866.866 0 0 1-.862-.862V17.65c0-.473.389-.862.862-.862.472 0 .861.39.861.862v.64c.584-1.196 1.835-1.697 3.003-1.697 1.64 0 2.92.612 3.448 2.252Zm29.831 0c.751-1.584 2.168-2.252 3.614-2.252 2.864 0 4.309 1.78 4.282 4.56v5.227a.837.837 0 0 1-.834.834.836.836 0 0 1-.834-.834v-5.227c0-1.724-.834-2.947-2.669-2.947-1.696 0-2.808 1.334-2.808 3.002v5.172a.837.837 0 0 1-.834.834.837.837 0 0 1-.835-.834v-5.172c0-1.723-.945-3.002-2.78-3.002-1.668 0-2.752 1.334-2.752 3.002v5.144c0 .472-.39.862-.862.862a.866.866 0 0 1-.862-.862V17.65c0-.473.39-.862.862-.862.473 0 .862.39.862.862v.64c.584-1.196 1.835-1.697 3.003-1.697 1.64 0 2.919.612 3.447 2.252Zm32.445 2.947a.778.778 0 0 1-.779.779l-8.034-.028c.194 1.89 1.751 3.086 3.725 3.086 1.084 0 2.363-.39 3.086-1.084a.777.777 0 0 1 .556-.223c.445 0 .778.362.778.779a.694.694 0 0 1-.222.528c-1.001 1.029-2.697 1.585-4.198 1.585-3.169 0-5.394-2.113-5.394-5.366 0-3.086 2.225-5.31 5.311-5.31 2.919 0 5.171 1.668 5.171 5.254Zm-5.144-3.725c-1.807 0-3.364 1.084-3.642 3.058h7.118c-.112-1.974-1.474-3.058-3.476-3.058Zm45.651 4.504a.778.778 0 0 0 .779-.779c0-3.586-2.252-5.254-5.172-5.254-3.086 0-5.31 2.224-5.31 5.31 0 3.253 2.224 5.366 5.394 5.366 1.501 0 3.197-.556 4.198-1.585.139-.167.222-.334.222-.528a.777.777 0 0 0-.778-.779.775.775 0 0 0-.556.223c-.723.695-2.002 1.084-3.086 1.084-1.974 0-3.531-1.196-3.726-3.086l8.035.028Zm-8.007-1.446c.278-1.974 1.835-3.058 3.642-3.058 2.002 0 3.364 1.084 3.475 3.058h-7.117ZM154.8 16.594c-1.529 0-3.03.612-3.809 1.946v-1.112c0-.472-.361-.862-.834-.862s-.834.39-.834.862v13.623c0 .445.361.862.834.862s.834-.39.834-.862v-5.894c.695 1.39 2.391 2.03 3.809 2.03 2.919 0 5.199-1.835 5.199-5.31.028-3.392-2.252-5.283-5.199-5.283Zm-.111 9.036c-2.002 0-3.614-1.53-3.614-3.726 0-2.224 1.584-3.725 3.614-3.725 2.002 0 3.614 1.362 3.614 3.698 0 2.446-1.612 3.753-3.614 3.753Zm-9.119-9.064c.667 0 1.223.14 1.807.418.25.11.473.416.5.75a.819.819 0 0 1-.834.834.738.738 0 0 1-.333-.083 2.673 2.673 0 0 0-1.251-.278c-1.947.055-3.031 1.14-3.031 3.086v5.06a.866.866 0 0 1-.862.862.867.867 0 0 1-.862-.862V17.4a.82.82 0 0 1 .835-.834c.472 0 .834.39.834.835v.75c.667-1.14 1.918-1.585 3.197-1.585Zm23.048.418a4.015 4.015 0 0 0-1.808-.418c-1.278 0-2.53.445-3.197 1.585v-.75a.836.836 0 0 0-.834-.835.82.82 0 0 0-.834.835v8.952c0 .472.389.862.862.862s.862-.39.862-.862v-5.06c0-1.946 1.084-3.03 3.03-3.086.473 0 .862.083 1.251.278a.745.745 0 0 0 .334.083.819.819 0 0 0 .834-.834c-.028-.334-.25-.64-.5-.75Zm14.623 2.585c.028 1.029 1.307 1.307 2.586 1.446h.003c1.89.25 4.417.585 4.39 3.197-.056 2.113-2.058 3.086-4.393 3.086-1.279 0-2.308-.222-3.364-.723h-.056a.837.837 0 0 1-.472-.75.836.836 0 0 1 1.195-.751 6.22 6.22 0 0 0 2.725.64c1.001 0 2.641-.223 2.669-1.585.028-1.14-1.251-1.474-2.836-1.64-1.974-.25-4.143-.751-4.143-2.92-.027-2.196 2.225-3.114 4.199-3.086a8.71 8.71 0 0 1 2.919.5c.083.028.167.063.25.098.083.035.167.07.25.097.306.111.501.39.501.723a.777.777 0 0 1-.779.778.738.738 0 0 1-.333-.083l-.445-.222c-.556-.306-1.696-.445-2.308-.445-1.446-.028-2.585.528-2.558 1.64Zm12.622 1.446c-1.278-.14-2.557-.417-2.585-1.446-.028-1.112 1.112-1.668 2.558-1.64.611 0 1.751.139 2.307.445l.445.222a.739.739 0 0 0 .334.083.777.777 0 0 0 .778-.778.752.752 0 0 0-.5-.723 3.485 3.485 0 0 1-.25-.097c-.084-.035-.167-.07-.251-.098a8.706 8.706 0 0 0-2.919-.5c-1.974-.028-4.226.89-4.198 3.086 0 2.169 2.169 2.67 4.142 2.92 1.585.166 2.864.5 2.836 1.64-.028 1.362-1.668 1.584-2.669 1.584a6.22 6.22 0 0 1-2.724-.64.836.836 0 0 0-1.196.75c0 .335.195.613.473.752h.055c1.057.5 2.086.723 3.364.723 2.336 0 4.338-.973 4.393-3.086.028-2.612-2.5-2.947-4.39-3.197h-.003ZM57.744 31.969a4.034 4.034 0 0 0-4.03-4.032 4.034 4.034 0 0 0-4.032 4.032A4.037 4.037 0 0 0 53.713 36a4.016 4.016 0 0 0 4.032-4.031ZM9.955 17.956v-.027c0-3.81 1.528-7.256 4.03-9.73 2.475 2.501 4.032 5.949 4.032 9.757v12.178a4.434 4.434 0 0 0-4.032-2.586 4.456 4.456 0 0 0-4.03 2.558v-12.15Zm23.909 9.981a4.034 4.034 0 0 0-4.032 4.032c0 .417.056.806.195 1.195.028.111.084.25.14.362 0 .013.006.02.013.027.007.007.014.014.014.028.028.056.048.104.07.153.02.049.041.097.069.153.014.014.02.028.028.042a.144.144 0 0 0 .027.041l.167.25c.01.011.018.022.023.031.01.015.016.025.033.025.056.084.111.167.195.25.083.112.166.195.25.278a4.14 4.14 0 0 0 2.446 1.168c.07 0 .14.007.209.014.07.007.139.014.208.014.14 0 .25 0 .362-.028h.111c.039 0 .077-.006.119-.012a.939.939 0 0 1 .159-.016c.028 0 .083 0 .111-.027l.334-.084c.055-.014.111-.035.167-.055.055-.021.11-.042.166-.056a.14.14 0 0 1 .056-.028c.02-.007.042-.014.056-.028.027-.013.062-.027.097-.041.035-.014.07-.028.097-.042.028-.014.049-.028.07-.042a.607.607 0 0 1 .07-.041.592.592 0 0 0 .166-.112.619.619 0 0 0 .07-.041.607.607 0 0 1 .07-.042.577.577 0 0 0 .083-.056c.027-.02.055-.041.083-.055.083-.056.139-.111.222-.195l.14-.139c.019-.02.035-.04.05-.058a.282.282 0 0 1 .088-.08.384.384 0 0 0 .084-.112c.028-.028.048-.056.07-.084a.73.73 0 0 1 .069-.083c.028-.028.055-.055.083-.111a.718.718 0 0 0 .1-.133.703.703 0 0 1 .04-.062c.013-.014.02-.028.027-.041a.144.144 0 0 1 .028-.042c.139-.25.278-.5.361-.779v-.027l.084-.25c0-.028 0-.056.027-.056a.816.816 0 0 0 .028-.14.822.822 0 0 1 .028-.138v-.056c.028-.194.056-.417.056-.64-.084-2.223-1.89-4.03-4.087-4.03Zm-19.907 0a4.034 4.034 0 0 1 4.032 4.032c0 1.39-.695 2.613-1.78 3.364-.222.139-.444.25-.667.361h-.027a2.805 2.805 0 0 0-.118.05c-.088.037-.166.07-.244.09h-.028l-.333.083h-.028a1.395 1.395 0 0 1-.334.055h-.083a1.347 1.347 0 0 1-.334.028h-.055a4.09 4.09 0 0 1-1.557-.306c-.14-.055-.25-.111-.362-.167a5.234 5.234 0 0 1-.64-.444 3.514 3.514 0 0 1-.555-.556 3.299 3.299 0 0 1-.445-.64 4 4 0 0 1-.473-1.918v-.028a4.028 4.028 0 0 1 4.031-4.004Zm35.754 2.169.028-.06v.06h-.028Zm.028-.06a4.434 4.434 0 0 1 4.003-2.526c1.78 0 3.309 1.057 4.031 2.586V17.984c0-7.7-6.255-13.956-13.956-13.956-3.726 0-7.117 1.473-9.647 3.864a14.517 14.517 0 0 1 4.03 8.257c.78-2.363 3.003-4.087 5.617-4.087a5.927 5.927 0 0 1 5.922 5.922v12.062ZM6.255 4.166a13.875 13.875 0 0 1 7.423 3.698 14.267 14.267 0 0 0-4.03 8.23 5.976 5.976 0 0 0-4.199-3.892 4.445 4.445 0 0 0 3.03-4.199c0-1.64-.89-3.058-2.224-3.836Z" fill="#201F1D"/></svg>