<svg xmlns="http://www.w3.org/2000/svg" xmlns:xlink="http://www.w3.org/1999/xlink" width="900" height="600"><defs><g id="b"><g id="a"><path d="M0 0v.5L1 0z" transform="translate(0 -.325)"/><path d="M0 0v-.5L1 0z" transform="rotate(-36 .5 -.162)"/></g><use transform="scale(-1 1)" width="1200" height="600" xlink:href="#a"/><use transform="rotate(72)" width="1200" height="600" xlink:href="#a"/><use transform="rotate(-72)" width="1200" height="600" xlink:href="#a"/><use transform="scale(-1 1) rotate(72)" width="1200" height="600" xlink:href="#a"/></g></defs><path fill="#00247d" d="M0 0h900v600H0z"/><g transform="translate(-225)"><use transform="matrix(45.4 0 0 45.4 900 120)" width="1200" height="600" xlink:href="#b" fill="#fff"/><use transform="matrix(30 0 0 30 900 120)" width="1200" height="600" xlink:href="#b" fill="#cc142b"/></g><g transform="rotate(82 787.5 110.583)"><use transform="rotate(-82 519.022 -457.666) scale(40.4)" width="1200" height="600" xlink:href="#b" fill="#fff"/><use transform="rotate(-82 519.022 -457.666) scale(25)" width="1200" height="600" xlink:href="#b" fill="#cc142b"/></g><g transform="rotate(82 787.5 110.583)"><use transform="rotate(-82 668.57 -327.666) scale(45.4)" width="1200" height="600" xlink:href="#b" fill="#fff"/><use transform="rotate(-82 668.57 -327.666) scale(30)" width="1200" height="600" xlink:href="#b" fill="#cc142b"/></g><g transform="translate(-225)"><use transform="matrix(50.4 0 0 50.4 900 480)" width="1200" height="600" xlink:href="#b" fill="#fff"/><use transform="matrix(35 0 0 35 900 480)" width="1200" height="600" xlink:href="#b" fill="#cc142b"/></g><path d="M0 0v33.54L399.69 300H450v-33.54L50.31 0H0zm450 0v33.54L50.31 300H0v-33.54L399.69 0H450z" fill="#fff"/><path d="M187.5 0v300h75V0h-75zM0 100v100h450V100H0z" fill="#fff"/><path d="M0 120v60h450v-60H0zM202.5 0v300h45V0h-45zM0 300l150-100h33.54l-150 100H0zM0 0l150 100h-33.54L0 22.36V0zm266.46 100l150-100H450L300 100h-33.54zM450 300L300 200h33.54L450 277.64V300z" fill="#cf142b"/></svg>