<svg xmlns="http://www.w3.org/2000/svg" fill="none" viewBox="0 0 48 48">
  <path fill="#403E3A" fill-rule="evenodd" d="M44.11 39.37a66.8 66.8 0 0 0-1.7-4.94.5.5 0 0 0-.23-.26c-2.16-1.12-3.85-4.17-4.57-6.7a63.92 63.92 0 0 1-1.63-7.67c-.71-4.29-1.13-6.84-4.62-8.76 1.24-.73 1.82-2.31 1.74-3.63-.14-2.1-1.7-4-3.7-4.54a4.99 4.99 0 0 0-5.44 2.18 4.77 4.77 0 0 0 .61 5.53 7.51 7.51 0 0 0-4.68 3.1 8.82 8.82 0 0 0-11.98-.95c-2.04.89-4.02 3.89-4.04 7.34-.03 5.26 4.35 9.6 9.52 9.35 1-.05 2.03-.27 3.06-.68a8.59 8.59 0 0 1-3.14 4.31c-1.16.84-1.46 1.78-1.75 2.73-.08.25-.16.5-.26.76-.54 1.4-1.01 2.95.16 3.98 1.96 1.75 9.67 2.21 12.74 2.33 1.24 2.55 5 3.52 7.11.83.25-.26.46-.55.64-.88 3.76-.18 11.72-.84 12.08-3a.48.48 0 0 0 .08-.43Zm-32.09.35.05-.12.02-.09c.91-.94 5.92-1.93 13.1-2.12-1.25.94-1.6 2.96-1.31 4.46-7.52-.3-11.53-1.47-11.86-2.13ZM28.35 44c-3.24 0-4.5-4.76-1.66-6.63.91-.02 2.34 0 3.37.03 2.77 1.88 1.55 6.6-1.7 6.6Zm-15.5-7.16.42-1.6a64.36 64.36 0 0 1 28.4.01c.34.9.72 1.97 1.05 2.98-5.11-2.4-24.57-2.49-30.21-.09l.34-1.3Zm27.33-2.92a65.72 65.72 0 0 0-24.94-.1c1.3-1.1 1.82-2.42 2.26-3.84h2.4c.65 0 .65-.98 0-.98h-2.1l.26-1.12a8.61 8.61 0 0 0 3.3-4.42 8.73 8.73 0 0 0 .5-6.32c4.26-1 8.8-.69 12.85.92l.28 1.77c.8 4.95 1.73 10.81 5.2 14.1ZM33.64 14.6c.4.73.66 1.52.85 2.34a22.66 22.66 0 0 0-12.96-.73c-.17-.41-.39-.8-.62-1.18 3.03-5.44 10.2-5.07 12.73-.43Zm-7.34-4.46a1.8 1.8 0 0 1 3.25.18c-1.06-.29-2-.38-3.25-.18ZM24.8 5.55a3.97 3.97 0 0 1 4.33-1.73 4.15 4.15 0 0 1 2.97 3.66c.08 1.1-.44 2.41-1.52 2.84a2.86 2.86 0 0 0-2.6-2.13 2.84 2.84 0 0 0-2.69 1.74 3.76 3.76 0 0 1-.49-4.38Zm-3.57 14.1a7.86 7.86 0 1 1-15.72-.02 7.86 7.86 0 0 1 15.72.02ZM32.4 41.79c.46-1.6.08-3.19-.84-4.34 8.14.37 11.5 1.68 11.51 2.2-.05.54-3.34 1.73-10.67 2.14ZM10.19 18c.37-.2.64-.54.75-.93.58-2.02-2.26-3-2.88-.92-.11.39-.07.82.12 1.2.4.8 1.28 1.06 2.02.65Zm-1.22-1.55c.25-.84 1.27-.43 1.05.34a.57.57 0 0 1-.27.32c-.28.16-.57.08-.73-.23a.6.6 0 0 1-.05-.43Zm.16 6.48c-.17.2-.15.52.05.7.2.19.5.16.67-.04a37.9 37.9 0 0 1 7.93-7.18.52.52 0 0 0 .14-.7.46.46 0 0 0-.65-.14 38.87 38.87 0 0 0-8.14 7.36Zm4.84-.98c.3-1.02 1.17-1.32 1.87-1.1.7.23 1.3 1.01 1 2.02-.22.8-1.1 1.3-1.87 1.06-.77-.25-1.23-1.17-1-1.98Zm1.28 1.02c.26.09.6-.1.69-.39.12-.44-.13-.69-.38-.77-.28-.09-.56.03-.68.44-.08.27.1.64.37.72ZM37.84 8.63a12.5 12.5 0 0 0-2.14 4.2c-.18.63-1.13.36-.95-.27a13.5 13.5 0 0 1 2.31-4.54c.4-.51 1.18.1.78.6Zm-.46 6.04 4-3c.51-.38-.08-1.17-.6-.78l-3.99 2.99c-.52.4.08 1.18.6.79Zm5.31 3.44c-1.41.07-2.92-.03-4.44-.35-.64-.13-.44-1.1.2-.96 1.38.28 2.8.4 4.2.32.26-.03.5.2.51.47a.5.5 0 0 1-.47.52Z" clip-rule="evenodd"/>
</svg>
