<svg width="48" height="48" viewBox="0 0 48 48" fill="none" xmlns="http://www.w3.org/2000/svg">
<path d="M17.1434 42.3489L18.3699 34.6264L18.449 34.1974C18.5116 33.8268 18.7038 33.4905 18.9913 33.2486C19.2788 33.0068 19.6428 32.8752 20.0183 32.8773H20.9876C22.4694 32.8916 23.9471 32.7186 25.3856 32.3625C26.7084 32.034 27.9598 31.4658 29.0781 30.686C30.2104 29.8757 31.1605 28.8369 31.8673 27.6366C32.69 26.2046 33.261 24.6418 33.5552 23.0163C33.8548 21.6398 33.9128 20.2216 33.7267 18.8251C33.5515 17.6103 33.0268 16.4727 32.2167 15.5513C31.7173 14.9948 31.1207 14.534 30.4562 14.1916C30.7152 12.8665 30.7152 11.5037 30.4562 10.1786C30.1755 9.02049 29.6086 7.95153 28.8078 7.0698C27.0604 5.08969 23.8822 4.06663 19.3589 4.06663H6.92973C6.51532 4.06006 6.11206 4.20116 5.79198 4.46474C5.47191 4.72831 5.25585 5.09719 5.18239 5.50551L0.0129004 38.3292C-0.00991363 38.4769 -0.000571514 38.6277 0.0402922 38.7714C0.0811559 38.9151 0.152573 39.0482 0.249647 39.1617C0.34672 39.2752 0.467153 39.3663 0.602696 39.4288C0.738239 39.4913 0.885685 39.5238 1.03493 39.5239H8.73641V39.5635L8.20891 42.9231C8.18278 43.0576 8.18752 43.1963 8.22278 43.3287C8.25804 43.4611 8.32289 43.5837 8.41244 43.6873C8.50199 43.791 8.61389 43.8729 8.73969 43.9268C8.8655 43.9808 9.00191 44.0055 9.13863 43.999H15.6005C15.9589 43.9851 16.3008 43.8451 16.5662 43.6036C16.8315 43.3621 17.0033 43.0347 17.0511 42.6789L17.1434 42.3489Z" fill="#003087"/>
<path d="M12.7123 14.2042C12.769 13.8369 12.955 13.5019 13.2367 13.2598C13.5184 13.0178 13.8774 12.8845 14.2487 12.8841H23.981C25.0558 12.8759 26.1296 12.9532 27.1922 13.1151C27.4735 13.1591 27.7461 13.2119 28.0098 13.2735C28.2736 13.3351 28.5307 13.4012 28.7813 13.4716L29.1505 13.5838C29.6048 13.7367 30.0459 13.9265 30.4693 14.1514C30.9572 11.0426 30.4693 8.92389 28.7879 7.00318C26.9416 4.90425 23.6448 4 19.3456 4H6.92963C6.50703 4.00135 6.0988 4.15369 5.77846 4.42959C5.45811 4.70548 5.2467 5.08681 5.18229 5.50489L0.0127975 38.3286C-0.0109962 38.4811 -0.00153451 38.6369 0.0405414 38.7854C0.0826173 38.9339 0.156309 39.0715 0.256546 39.1888C0.356784 39.306 0.481195 39.4002 0.621231 39.4648C0.761268 39.5294 0.913612 39.5628 1.06779 39.5629H8.73631L10.6617 27.339L12.7123 14.2042Z" fill="#003087"/>
<path d="M30.5022 14.1647C30.4627 14.4023 30.4231 14.6465 30.377 14.8907C28.7417 23.3062 23.1238 26.217 15.9828 26.217H12.3365C11.9145 26.2167 11.5063 26.3677 11.1859 26.6425C10.8654 26.9173 10.6537 27.2978 10.5891 27.7153L8.72312 39.5564L8.19562 42.916C8.1732 43.0514 8.18098 43.1901 8.2184 43.3221C8.25582 43.4542 8.32196 43.5763 8.41208 43.6798C8.5022 43.7832 8.61406 43.8654 8.73965 43.9205C8.86524 43.9756 9.00145 44.0022 9.13852 43.9984H15.6004C15.9717 43.9981 16.3306 43.8648 16.6124 43.6227C16.8941 43.3806 17.0801 43.0457 17.1367 42.6784L17.2027 42.3483L18.3698 34.6259L18.4489 34.1969C18.5055 33.8295 18.6915 33.4946 18.9733 33.2525C19.255 33.0104 19.6139 32.8772 19.9852 32.8768H20.9545C27.212 32.8768 32.1177 30.329 33.5486 22.9762C34.1486 19.9004 33.8387 17.3329 32.2298 15.5244C31.7401 14.971 31.1549 14.5104 30.5022 14.1647V14.1647Z" fill="#009CDE"/>
<path d="M28.7878 13.4782C28.5373 13.4034 28.2801 13.3374 28.0164 13.2801C27.7526 13.2229 27.4801 13.1701 27.1987 13.1217C26.1362 12.9598 25.0624 12.8825 23.9876 12.8907H14.2486C13.8773 12.8911 13.5184 13.0244 13.2367 13.2664C12.9549 13.5085 12.7689 13.8435 12.7123 14.2108L10.6419 27.3456L10.5825 27.7284C10.6471 27.311 10.8587 26.9304 11.1792 26.6556C11.4997 26.3808 11.9079 26.2299 12.3299 26.2301H15.9762C23.1304 26.2301 28.7351 23.3193 30.3703 14.9038C30.4165 14.653 30.4626 14.4154 30.4956 14.1778C30.0722 13.9529 29.6312 13.7631 29.1769 13.6102L28.7878 13.4782Z" fill="#012169"/>
</svg>
