<svg width="246" height="40" viewBox="0 0 246 40" fill="none" xmlns="http://www.w3.org/2000/svg">
<path d="M11.2572 24.2534C14.1581 24.2534 16.2796 21.8851 16.2796 18.815V10.833C16.2796 6.88586 13.9416 5.08772 10.5644 5.08772H0.865938C0.0432969 5.08772 0 5.43857 0 5.96486V34.209C0 34.6914 0.259781 34.9107 0.69275 34.9107H3.72353C4.45958 34.9107 4.63277 34.7352 4.63277 33.9897V24.2534H11.2572ZM4.63277 19.9553V9.38573H9.61191C10.6943 9.38573 11.6469 9.73659 11.6469 11.2716V17.7186C11.6469 19.1659 11.084 19.9553 9.87169 19.9553H4.63277ZM22.9592 34.3405C22.9592 34.7791 22.9592 34.9107 23.3921 34.9107H37.0307C37.7667 34.9107 37.7667 34.6037 37.7667 34.209V31.2267C37.7667 31.0074 37.6801 30.6127 37.1605 30.6127H27.5919V21.8412H34.606C35.039 21.8412 35.1689 21.7535 35.1689 21.2711V18.1133C35.1689 17.6748 34.9524 17.5432 34.5627 17.5432H27.5919V9.38573H36.7709C37.1173 9.38573 37.5069 9.38573 37.5069 9.12259V5.48243C37.5069 5.08772 37.377 5.08772 36.9874 5.08772H23.2622C23.0458 5.08772 22.9592 5.17543 22.9592 5.43857V34.3405ZM59.517 5.48243C59.517 5.08772 59.3871 5.08772 58.9974 5.08772H42.7178C42.1116 5.08772 42.1116 5.39472 42.1116 5.70172V8.94716C42.1116 9.25416 42.2848 9.38573 42.6745 9.38573H48.4763V34.4721C48.4763 34.823 48.4763 34.9107 48.8659 34.9107H52.7194C52.9792 34.9107 53.109 34.7352 53.109 34.516V9.38573H58.7809C59.1273 9.38573 59.517 9.38573 59.517 9.12259V5.48243ZM65.1991 34.3405C65.1991 34.7791 65.1991 34.9107 65.632 34.9107H79.2706C80.0066 34.9107 80.0066 34.6037 80.0066 34.209V31.2267C80.0066 31.0074 79.92 30.6127 79.4004 30.6127H69.8318V21.8412H76.8459C77.2789 21.8412 77.4088 21.7535 77.4088 21.2711V18.1133C77.4088 17.6748 77.1923 17.5432 76.8026 17.5432H69.8318V9.38573H79.0108C79.3572 9.38573 79.7468 9.38573 79.7468 9.12259V5.48243C79.7468 5.08772 79.6169 5.08772 79.2273 5.08772H65.5021C65.2857 5.08772 65.1991 5.17543 65.1991 5.43857V34.3405ZM98.9424 23.3323V22.9815C101.194 22.4552 102.969 20.8325 102.969 18.0256V10.9646C102.969 6.88586 100.631 5.08772 97.2538 5.08772H86.9493C86.2565 5.08772 86.2132 5.39472 86.2132 5.87715V34.1651C86.2132 34.6475 86.4297 34.9107 86.8194 34.9107H90.0233C90.6727 34.9107 90.8459 34.7791 90.8459 34.1212V23.1131H93.7901L99.2022 34.4721C99.3321 34.6914 99.462 34.9107 99.8516 34.9107H104.051C104.528 34.9107 104.484 34.4721 104.225 33.9458L98.9424 23.3323ZM90.8459 18.9905V9.38573H95.9549C97.2538 9.38573 98.3362 9.8243 98.3362 11.754V16.666C98.3362 18.1572 97.6868 18.9905 96.2147 18.9905H90.8459ZM136.133 34.6475C136.176 34.8668 136.219 34.9107 136.522 34.9107H140.636C140.765 34.9107 140.939 34.9107 140.852 34.5598L133.059 5.48243C132.972 5.307 132.712 5.08772 132.409 5.08772H128.729C128.296 5.08772 128.079 5.26314 127.993 5.70172L120.849 34.0335C120.676 34.7791 120.892 34.9107 121.282 34.9107H124.919C125.092 34.9107 125.308 34.823 125.352 34.5598L126.607 28.7268H134.704L136.133 34.6475ZM130.244 12.8066H130.677L133.535 24.4288H127.603L130.244 12.8066ZM146.846 34.516C146.846 34.823 146.846 34.9107 147.192 34.9107H151.089C151.349 34.9107 151.479 34.823 151.479 34.4721V21.8412H151.912L159.878 34.4282C160.138 34.823 160.355 34.9107 160.917 34.9107H165.117C165.334 34.9107 165.593 34.823 165.334 34.4282L155.852 19.7361V19.2098L164.121 5.78943C164.381 5.307 164.338 5.08772 163.948 5.08772H159.922C159.402 5.08772 159.186 5.26314 158.882 5.78943L151.912 17.4993H151.479V5.39472C151.479 5.17543 151.305 5.08772 151.176 5.08772H147.149C146.976 5.08772 146.846 5.17543 146.846 5.43857V34.516ZM170.439 34.516C170.439 34.823 170.439 34.9107 170.785 34.9107H174.682C174.942 34.9107 175.072 34.823 175.072 34.4721V21.8412H175.505L183.471 34.4282C183.731 34.823 183.948 34.9107 184.511 34.9107H188.71C188.927 34.9107 189.187 34.823 188.927 34.4282L179.445 19.7361V19.2098L187.715 5.78943C187.974 5.307 187.931 5.08772 187.541 5.08772H183.515C182.995 5.08772 182.779 5.26314 182.476 5.78943L175.505 17.4993H175.072V5.39472C175.072 5.17543 174.899 5.08772 174.769 5.08772H170.742C170.569 5.08772 170.439 5.17543 170.439 5.43857V34.516ZM194.855 34.3405C194.855 34.7791 194.855 34.9107 195.201 34.9107H199.141C199.358 34.9107 199.488 34.823 199.488 34.516V5.48243C199.488 5.21929 199.358 5.08772 199.185 5.08772H195.158C194.942 5.08772 194.855 5.17543 194.855 5.43857V34.3405ZM207.901 34.3405C207.901 34.7791 207.901 34.9107 208.334 34.9107H221.972C222.708 34.9107 222.708 34.6037 222.708 34.209V31.2267C222.708 31.0074 222.622 30.6127 222.102 30.6127H212.534V21.8412H219.548C219.981 21.8412 220.111 21.7535 220.111 21.2711V18.1133C220.111 17.6748 219.894 17.5432 219.504 17.5432H212.534V9.38573H221.713C222.059 9.38573 222.449 9.38573 222.449 9.12259V5.48243C222.449 5.08772 222.319 5.08772 221.929 5.08772H208.204C207.987 5.08772 207.901 5.17543 207.901 5.43857V34.3405ZM240.865 28.4198C240.865 30.2618 240.562 30.7004 239.22 30.7004H235.063C234.067 30.7004 233.418 30.2618 233.375 28.5075C233.375 27.5865 233.375 26.4462 233.548 25.3936C233.548 25.1744 233.548 24.9112 233.158 24.9989L228.872 25.8322C228.872 27.4988 228.872 29.0777 229.045 30.3934C229.521 34.209 232.162 35.0422 234.241 34.9984H240.432C242.813 34.9545 245.455 33.5511 245.455 29.1654V24.2972C245.455 21.6658 244.156 20.6132 242.467 19.7799L235.237 16.0959C234.284 15.6573 233.764 15.3065 233.764 14.1662V11.0523C233.764 9.78045 234.067 9.29802 235.063 9.29802H239.263C240.346 9.29802 240.865 9.78045 240.995 11.4032C241.038 12.1487 241.038 12.982 240.908 13.7276C240.908 14.1223 240.908 14.1662 241.211 14.1223L245.281 13.4206C245.411 11.9295 245.368 10.7014 245.151 9.47344C244.675 5.921 242.164 5 240.519 5H234.371C231.426 5 229.132 6.49115 229.132 11.0085V15.438C229.132 17.4116 230.127 18.508 232.076 19.4729L239.35 23.1569C240.432 23.7271 240.865 24.4726 240.865 25.4814V28.4198Z" fill="#201F1D"/>
</svg>
