<svg viewBox="0 0 91 40" xmlns="http://www.w3.org/2000/svg"><path fill-rule="evenodd" clip-rule="evenodd" d="M64.6 7.2A3.2 3.2 0 0 1 67.8 4h.13a3.2 3.2 0 0 1 0 6.4h-.13a3.2 3.2 0 0 1-3.2-3.2Zm.132 5.486c0-.253.205-.457.457-.457h5.351c.253 0 .457.204.457.457V29.79a.457.457 0 0 1-.457.457h-5.35a.457.457 0 0 1-.458-.457V12.686ZM30.887 30.715c-1.436 0-2.751-.264-3.945-.791a9.834 9.834 0 0 1-3.116-2.158 10.09 10.09 0 0 1-2.055-3.236 10.507 10.507 0 0 1-.73-3.919v-.072c0-1.39.244-2.696.73-3.919.508-1.246 1.194-2.325 2.055-3.236a9.468 9.468 0 0 1 3.15-2.193c1.215-.551 2.54-.827 3.977-.827 1.437 0 2.752.276 3.945.827a9.733 9.733 0 0 1 3.149 2.157 9.677 9.677 0 0 1 2.055 3.2c.486 1.223.73 2.53.73 3.92v.071c0 1.39-.255 2.709-.763 3.955a10.088 10.088 0 0 1-2.055 3.236 10.223 10.223 0 0 1-3.15 2.194c-1.215.527-2.54.79-3.977.79Zm.066-5.79c.575 0 1.094-.107 1.558-.323.464-.24.862-.551 1.194-.935.331-.407.585-.875.762-1.402a5.17 5.17 0 0 0 .265-1.654v-.072c0-.599-.1-1.162-.298-1.69a3.705 3.705 0 0 0-.796-1.402 3.626 3.626 0 0 0-1.226-.97 3.273 3.273 0 0 0-1.525-.36 3.34 3.34 0 0 0-1.558.36 3.333 3.333 0 0 0-1.193.934c-.31.384-.553.84-.73 1.366a5.283 5.283 0 0 0-.265 1.69v.072c0 .6.089 1.163.265 1.69.2.528.464.995.796 1.402.353.384.762.696 1.226.935.464.24.973.36 1.525.36Zm16.119 5.07a7.108 7.108 0 0 0 3.05.684s3.649-.165 5.435-1.993v1.104c0 .253.205.457.458.457h5.383a.457.457 0 0 0 .458-.457V4.914A.914.914 0 0 0 60.94 4h-4.463a.914.914 0 0 0-.915.914v7.315c-1.344-1.829-5.475-1.865-5.475-1.865-1.06 0-2.077.24-3.05.72-.95.455-1.79 1.126-2.519 2.013-.707.863-1.282 1.93-1.724 3.2-.42 1.246-.63 2.66-.63 4.242v.072c0 1.558.21 2.96.63 4.207.442 1.246 1.028 2.301 1.757 3.164a8.002 8.002 0 0 0 2.52 2.014Zm4.939-5.033c.508 0 .983-.108 1.425-.324a3.52 3.52 0 0 0 1.193-.899c.332-.407.586-.875.763-1.402.199-.551.298-1.15.298-1.798v-.072c0-.647-.1-1.234-.298-1.761a3.968 3.968 0 0 0-.763-1.403 3.335 3.335 0 0 0-1.193-.934 3.205 3.205 0 0 0-1.425-.324c-.509 0-.984.108-1.426.324a3.423 3.423 0 0 0-1.16.934 4.397 4.397 0 0 0-.795 1.403 4.96 4.96 0 0 0-.299 1.761v.072c0 .648.1 1.247.298 1.798.2.527.465.995.796 1.402a3.62 3.62 0 0 0 1.16.9c.442.215.917.323 1.426.323ZM0 11.252c0-.252.205-.457.457-.457h5.384c.252 0 .457.205.457.458v1.217s1.634-1.387 3.613-1.854a6.253 6.253 0 0 1 1.824-.252 6.6 6.6 0 0 1 3.016.72 7.466 7.466 0 0 1 2.552 1.977c.73.863 1.304 1.917 1.724 3.164.442 1.246.663 2.648.663 4.206v.072c0 1.582-.22 3.009-.663 4.279-.42 1.246-.994 2.313-1.724 3.2a7.54 7.54 0 0 1-2.519 2.014 6.893 6.893 0 0 1-3.016.683s-4.15 0-5.495-1.536v6.4a.457.457 0 0 1-.457.457H.457A.457.457 0 0 1 0 35.543v-24.29Zm11.27 13.386a3.207 3.207 0 0 1-1.425.324 3.42 3.42 0 0 1-1.459-.324 3.62 3.62 0 0 1-1.16-.899 4.996 4.996 0 0 1-.795-1.402 5.858 5.858 0 0 1-.265-1.798v-.072c0-.647.088-1.234.265-1.761a4.404 4.404 0 0 1 .795-1.403 3.433 3.433 0 0 1 1.16-.934 3.42 3.42 0 0 1 1.459-.324c.508 0 .983.108 1.425.323.442.216.83.528 1.16.935.332.384.597.851.796 1.403.199.527.298 1.114.298 1.761v.072c0 .648-.099 1.247-.298 1.798a4.402 4.402 0 0 1-.796 1.402 3.619 3.619 0 0 1-1.16.9Zm64.56-7.82c.772-.306 1.72-.652 2.353-.809 3.58-.58 6.388-.123 6.388 1.705 0 0-.914.457-4.571.457-3.385 0-7.771 1.829-6.857 7.772 0 0 .457 4.304 5.869 4.736 0 0 4.333-.165 5.304-1.536v.647c0 .253.204.457.457.457h5.284a.457.457 0 0 0 .457-.457V19.065c0-8.557-8.75-8.557-8.75-8.557-1.548 0-2.896.144-4.045.431-1.001.235-2.311.71-3.304 1.133a.45.45 0 0 0-.256.533l1.056 3.905c.072.266.36.408.616.307Zm8.585 5.58c0 3.749-4.872 4.916-5.786 3.088-.915-2.286 1.828-3.657 5.786-3.087Z" fill="#201F1D"/></svg>