<svg viewBox="0 0 168 40" xmlns="http://www.w3.org/2000/svg"><path fill-rule="evenodd" clip-rule="evenodd" d="M23.148 35.802c-1.12.268-2.526.811-7.353-.268-2.292-.452-5.07-.652-7.278.234-.302.168-.628.46-.067.67a71.984 71.984 0 0 0 7.562 1.455c1.821.246 3.674.066 5.413-.527a8.463 8.463 0 0 0 2.05-.995c.518-.377.468-.82-.327-.57Zm6.768-8.148c-1.723 1.196-3.672 4.425-10.507 3.806a48.837 48.837 0 0 0-7.404-.1c-3.831.259-5.655 1.18-6.96 2.1-1.08.702-.828 1.095-.46.995a9.796 9.796 0 0 1 2.961-.711c1.548-.075 3.915-.033 6.049.033 3.998.059 7.077.118 9.921-.677a10.993 10.993 0 0 0 7.111-5.078s.636-1.305-.711-.368ZM48.463 16.87c.092-1.054.142-1.63.226-2.727.117-.862 1.087-.753.995.109l-.125 2.05h-.778l-.076.987h3.798l.184-2.552a2.19 2.19 0 0 0-1.296-2.033 2.092 2.092 0 0 0-.745-.15h-3.413a2.752 2.752 0 0 0-2.535 2.627c-.033.31-.293 2.886-.293 2.886a2.664 2.664 0 0 0 2.477 3.145h4.71l.075-1.012h-2.594a.7.7 0 0 1-.82-.878c.093-1.096.16-1.85.21-2.452Zm26.134-1.388c.117-.862.134-1.95 1.414-1.916h2.217l.075-1.012h-4.76a2.659 2.659 0 0 0-2.803 2.627c-.041.31-.292 2.886-.292 2.886a2.647 2.647 0 0 0 2.551 3.145h4.635l.075-1.012s-1.272.008-2.142 0c-.945-.008-1.305-.627-1.23-1.623.06-.996.176-1.958.26-3.095Zm-37.821-1.657c-.042.143-.569 5.923-.56 6.049a1.353 1.353 0 0 0 1.27 1.338h2.469l.493-5.622a1.156 1.156 0 0 1 1.054-1.28h2.293l.217-1.756H42.8a2.166 2.166 0 0 0-2.192 1.305v-.1l.126-1.205h-2.36a1.617 1.617 0 0 0-1.597 1.271Zm27.916 6.049a1.401 1.401 0 0 0 1.355 1.338h2.385l.736-8.658c-.527-.009-3.757-.009-3.757-.009s-.736 7.203-.719 7.329Zm85.43-7.32h-2.258a3.691 3.691 0 0 0-3.547 3.02c-.092.71-.302 2.05-.318 2.777a2.664 2.664 0 0 0 .685 1.985 2.664 2.664 0 0 0 1.908.876h2.459a3.787 3.787 0 0 0 3.665-2.886c.033-.234.267-2.36.276-2.77a2.74 2.74 0 0 0-2.87-3.002Zm-.87 1.765-.493 5.354c0 .008-.017.109-.017.117a.624.624 0 0 1-.41.402.5.5 0 0 1-.552-.252.622.622 0 0 1-.084-.443l.494-5.304a.527.527 0 0 1 .05-.217.556.556 0 0 1 .36-.335.501.501 0 0 1 .569.243.6.6 0 0 1 .083.435Zm-52.46-2.401a2.343 2.343 0 0 0-2.26-2.342h-1.564l-.837 9.83a.919.919 0 0 1-.091.334.932.932 0 0 1-.494.426.846.846 0 0 1-1.121-.853c0-.036.002-.073.008-.108l.862-9.63h-2.476a1.832 1.832 0 0 0-1.757 1.757c-.025.243-.059.67-.126 1.39-.067.719-.15 1.748-.225 2.684-.076.937-.151 1.79-.201 2.426-.05.636-.092 1.055-.109 1.297-.017.243-.017.2-.017.251-.092.62.444 1.84 2.142 1.824h3.129c.733.02 1.45-.227 2.016-.695a1.892 1.892 0 0 0 1.53.695s2.544.008 2.636 0a4.792 4.792 0 0 0 4.116-3.589c.033-.142.058-.276.083-.41.003-.05.008-.1.017-.15.009-.067.009-.143.034-.335.025-.193.041-.502.083-1.012s.101-1.222.142-1.757c.042-.536.076-.887.101-1.18.025-.293.042-.535.05-.694.008-.16.017-.218.017-.26a2.223 2.223 0 0 0-.761-1.665 2.19 2.19 0 0 0-1.448-.576h-1.614l-.812 9.82a.87.87 0 0 1-.1.344.842.842 0 0 1-.485.418.816.816 0 0 1-.946-.293.842.842 0 0 1-.175-.56c0-.025.008-.067.008-.109.2-2.426.443-4.852.644-7.278Zm-29.356-2.36c1.13-.058 2.058.31 2.083.837.025.527-.853.988-1.983 1.046-1.112.059-2.04-.301-2.066-.828-.025-.527.862-.996 1.966-1.054Zm36.541 10.316a1.399 1.399 0 0 0 1.105 1.321c.075.017 2.635.017 2.635.017l.736-8.658c-.527-.009-3.748 0-3.748 0s-.744 7.194-.728 7.32Zm2.744-10.315c1.13-.059 2.058.31 2.092.836.033.527-.862.988-1.991 1.046-1.105.059-2.033-.301-2.067-.828-.033-.527.862-.996 1.966-1.054Zm24.311 10.875a.648.648 0 0 0 .719.745h1.473a.783.783 0 0 0 .625-.195.787.787 0 0 0 .261-.6l.067-1.02a.769.769 0 0 0-.82-.854h-1.296a.855.855 0 0 0-.887.532.863.863 0 0 0-.058.363l-.084 1.03ZM14.598 24.215 1.239 28.08a1.728 1.728 0 0 0-1.17 2.125 1.71 1.71 0 0 0 2.107 1.18l13.36-3.865a1.724 1.724 0 0 0 .362-3.152 1.706 1.706 0 0 0-1.299-.152Zm20.797-12.908c-.133-1.506-1.43-1.731-2.392-1.731h-5.639a2.633 2.633 0 0 0-2.56 2.484c-.083.878-.61 6.643-.61 6.893a2.063 2.063 0 0 0 1.857 2.26h2.41l.434-4.677h3.74c2.075-.025 2.56-2.125 2.593-2.56.034-.435.21-2.401.167-2.669Zm-4.785 3.438a.722.722 0 0 1-.76.678.735.735 0 0 1-.67-.778l.234-3.38a.736.736 0 0 1 .243-.493.721.721 0 0 1 .795-.1.694.694 0 0 1 .217.175.669.669 0 0 1 .176.527l-.235 3.371Zm50.437-5.17a1.433 1.433 0 0 0-1.272 1.322l-.61 6.902c-.226 1.723.242 3.396 2.325 3.413h3.363l.11-1.012H83.84c-.728 0-1.037-.15-.97-.828 0 0 .368-4.292.493-5.806h2.25l.042-1.012h-2.2l.276-2.978h-2.685Zm37.804 4.744a2.259 2.259 0 0 0-.711-1.213 2.145 2.145 0 0 0-1.455-.536h-1.33l-1.096-.016h-.946a3.429 3.429 0 0 0-3.22 2.97c-.21 2.024-.41 4.283-.402 4.35a1.388 1.388 0 0 0 1.104 1.338c.076.017 2.635 0 2.635 0s.427-4.727.661-7.094a.535.535 0 0 1 .527-.535.543.543 0 0 1 .544.535l-.686 7.094h2.652a1.4 1.4 0 0 0 1.33-1.104l.276-3.204c.05-.535.076-.878.092-1.18.017-.3.042-.535.059-.694.017-.16.008-.218.008-.26a1.494 1.494 0 0 0-.042-.451Zm48.387 0a2.259 2.259 0 0 0-.711-1.213 2.141 2.141 0 0 0-1.447-.536s-1.79-.016-2.192-.016a2.918 2.918 0 0 0-1.598.56c0-.002 0-.004-.002-.006a2.181 2.181 0 0 0-1.453-.546l-2.016-.008a3.466 3.466 0 0 0-3.221 2.97c-.209 2.024-.402 4.35-.402 4.35a1.379 1.379 0 0 0 1.272 1.338h2.117s.368-4.668.593-7.027v.017a.612.612 0 0 1 .536-.62.533.533 0 0 1 .535.536l-.602 7.094h2.25a1.355 1.355 0 0 0 1.33-1.113s.444-5.22.519-5.98a.495.495 0 0 1 .296-.492.502.502 0 0 1 .572.114.53.53 0 0 1 .153.377l-.619 7.094h2.367a1.4 1.4 0 0 0 1.33-1.104l.276-3.204c.051-.535.076-.878.101-1.18.025-.3.033-.535.05-.694.017-.16.008-.218.008-.26a1.494 1.494 0 0 0-.042-.451ZM61.07 9.576a1.575 1.575 0 0 0-1.598 1.22 89.75 89.75 0 0 0-.184 1.758h-2.593a2.702 2.702 0 0 0-2.527 2.627c-.05.3-.293 2.886-.293 2.886a2.791 2.791 0 0 0 2.619 3.145h4.584a1.443 1.443 0 0 0 1.422-1.338l.16-1.673c.058-.887.727-8.625.727-8.625H61.07Zm-1.89 4.71-.494 5.353c0 .009-.026.11-.026.117a.62.62 0 0 1-.401.402.502.502 0 0 1-.56-.25.664.664 0 0 1-.076-.444l.485-5.304a.693.693 0 0 1 .05-.218.585.585 0 0 1 .36-.334h.009a.487.487 0 0 1 .56.242.594.594 0 0 1 .092.435ZM19.1 11.8a28.943 28.943 0 0 1 4.3-9.294c.46-.628-.185-.544-.494-.419A44.116 44.116 0 0 0 5.204 16.193c-.234.318-.067.803.51.443a24.747 24.747 0 0 1 13.302-4.509c.025-.109.058-.218.083-.326Zm-.369 1.472c-2.15-.017-8.064.402-14.64 5.463-1.79 1.715-3.12 6.642-3.22 8.106-.034.603.384.46.543.327.065-.049.127-.102.184-.16 1.824-1.572 6.61-5.646 16.347-6.951a30.27 30.27 0 0 1 .786-6.785Zm108.612-3.697a1.578 1.578 0 0 0-1.598 1.22 89.75 89.75 0 0 0-.184 1.758h-2.594a2.707 2.707 0 0 0-2.526 2.627c-.059.3-.301 2.886-.301 2.886a2.802 2.802 0 0 0 2.627 3.145h4.584a1.432 1.432 0 0 0 1.414-1.338l.159-1.673c.067-.887.736-8.625.736-8.625h-2.317Zm-1.891 4.71-.494 5.353c0 .009-.025.11-.025.117a.617.617 0 0 1-.401.402.501.501 0 0 1-.561-.25.665.665 0 0 1-.075-.444l.485-5.304a.528.528 0 0 1 .05-.218.585.585 0 0 1 .36-.334h.008a.492.492 0 0 1 .561.242c.082.13.115.284.092.435Zm14.238 1.196c.126-.862.134-1.95 1.414-1.916h2.225l.076-1.012h-4.769a2.659 2.659 0 0 0-2.802 2.627c-.042.31-.293 2.886-.293 2.886a2.648 2.648 0 0 0 .549 2.167 2.656 2.656 0 0 0 2.011.978h4.626l.075-1.012s-1.271.008-2.133 0c-.954-.008-1.313-.627-1.238-1.623.058-.996.184-1.958.259-3.095ZM37.688 31.05H36.14l.929-3.564H34.4l.25-.97h6.903l-.251.97h-2.686l-.928 3.564Zm11.277 0H47.4l.486-1.865h-4.024l-.486 1.865H41.82l1.188-4.534h1.548l-.435 1.682h4.024l.435-1.682h1.564l-1.18 4.534Zm8.968 0h-6.2l1.18-4.534h6.149l-.243.937h-4.592l-.201.77h2.677l-.243.937h-2.685l-.226.878H58.2l-.267 1.012Zm13.092 0h-1.038l-.777-2.886-2.318 2.886h-1.054l-1.163-4.534h1.598l.686 2.786 2.209-2.786h1.07l.787 2.786 2.075-2.786h1.455l-3.53 4.534Zm9.72 0h-4.282a1.545 1.545 0 0 1-1.222-.318.94.94 0 0 1-.042-.836l.594-2.276c.218-.845.636-1.104 1.799-1.104h4.283a1.547 1.547 0 0 1 1.222.318.939.939 0 0 1 .041.837l-.594 2.275c-.217.845-.644 1.104-1.798 1.104Zm-4.032-1.012h4.259l.66-2.552h-4.25l-.669 2.552Zm15.51 1.012h-2.275l-.025-.025-1.89-1.614H86.86l-.427 1.64h-1.53l1.187-4.535h5.053a1.353 1.353 0 0 1 1.105.326.702.702 0 0 1 .075.636l-.268 1.02c-.167.628-.66.912-1.623.912h-.46l2.25 1.64Zm-5.11-2.576h2.91c.41 0 .544-.059.603-.268l.133-.519a.219.219 0 0 0 0-.15.753.753 0 0 0-.418-.076h-2.97l-.259 1.013Zm12.732 2.576h-5.907l1.18-4.534h1.556l-.92 3.522h4.358l-.267 1.012Zm5.295 0h-3.513l.033-.125 1.154-4.409h3.807c1.33 0 2.225.293 2.652.862a1.577 1.577 0 0 1 .209 1.405 2.961 2.961 0 0 1-1.824 1.924 6.74 6.74 0 0 1-2.518.343Zm-1.698-1.012h1.623c1.79 0 2.585-.377 2.836-1.322a.88.88 0 0 0-.092-.803 1.68 1.68 0 0 0-1.372-.427h-2.326l-.669 2.552Zm17.994 1.012h-5.914l.033-.125 1.155-4.409h1.547l-.911 3.522h4.35l-.26 1.012Zm7.981 0h-6.199l.025-.125 1.155-4.409h6.149l-.251.937h-4.593l-.201.77h2.686l-.243.937h-2.685l-.226.878h4.651l-.268 1.012Zm9.395 0h-1.74l-.444-.954h-3.588l-.921.954h-1.631l4.618-4.534h1.405l2.301 4.534Zm-4.794-1.932h2.159l-.67-1.49-1.489 1.49Zm9.897 1.932h-3.514l.025-.125 1.155-4.409h3.815c1.33 0 2.217.293 2.652.862a1.55 1.55 0 0 1 .2 1.405 2.937 2.937 0 0 1-1.823 1.924 6.693 6.693 0 0 1-2.51.343Zm-1.698-1.012h1.614c1.799 0 2.594-.377 2.836-1.322a.913.913 0 0 0-.083-.803 1.7 1.7 0 0 0-1.381-.427h-2.325l-.661 2.552Zm13.92 1.012h-6.199l.034-.125 1.146-4.409h6.149l-.243.937h-4.593l-.201.77h2.677l-.242.937h-2.686l-.225.878h4.651l-.268 1.012Zm9.621 0h-2.276l-1.915-1.64h-1.172l-.426 1.64h-1.531l.033-.125 1.146-4.409h5.053a1.365 1.365 0 0 1 1.113.326.73.73 0 0 1 .075.636l-.268 1.02c-.167.628-.669.912-1.622.912h-.461l2.251 1.64Zm-5.12-2.576h2.92c.41 0 .543-.059.602-.268l.134-.519a.217.217 0 0 0 0-.15.784.784 0 0 0-.427-.076h-2.961l-.268 1.013Z" fill="#201F1D"/></svg>