<svg width="48" height="48" viewBox="0 0 48 48" fill="none" xmlns="http://www.w3.org/2000/svg">
<g clip-path="url(#clip0_983_15233)">
<rect width="48" height="48" fill="#07131F"/>
<path d="M8.07913 35.8271L9.72506 32.1539C11.1019 33.2464 12.6529 33.8005 14.3938 33.8005C16.1822 33.8005 17.0843 33.1672 17.0843 31.8847C17.0843 31.1406 16.8152 30.5231 16.2771 30.0323C15.739 29.5573 14.6787 28.9873 13.1277 28.3382C9.70923 26.9291 8 24.95 8 22.4009C8 20.6909 8.64888 19.361 9.96245 18.411C11.2602 17.461 12.9378 16.9861 14.9635 16.9861C17.0209 16.9861 18.9517 17.4452 20.7559 18.3635L19.4265 21.9417C18.4137 21.0868 17.0209 20.6434 15.2168 20.6434C13.6025 20.6434 12.7953 21.2767 12.7953 22.5592C12.7953 23.0659 13.0644 23.525 13.5867 23.9208C14.1089 24.3325 15.2484 24.8708 16.9735 25.5516C18.6985 26.2324 19.9488 27.0557 20.7243 28.0374C21.4839 29.0032 21.8638 30.1906 21.8638 31.5681C21.8638 33.4047 21.1832 34.8455 19.8222 35.8904C18.4611 36.9354 16.6095 37.4737 14.283 37.4737C12.9694 37.4737 11.9091 37.3629 11.1178 37.1571C10.3265 36.9354 9.31358 36.4921 8.07913 35.8271Z" fill="white"/>
<path d="M23.4309 37.363V36.0013L31.7713 23.7151C33.433 21.261 34.2718 19.1869 34.2718 17.5086C34.2718 15.5137 33.0849 14.5162 30.6951 14.5162C28.8751 14.5162 27.4033 15.482 26.2954 17.4136L23.146 14.912C23.7632 13.6454 24.7444 12.6004 26.0897 11.7771C27.4191 10.938 28.9067 10.5263 30.521 10.5263C33.2115 10.5263 35.3322 11.1438 36.8515 12.3788C38.3708 13.6137 39.1305 15.3078 39.1305 17.4928C39.1305 19.5035 38.1493 21.9893 36.2026 24.9817L30.8059 33.1989H40.0003V37.363H23.4309Z" fill="white"/>
</g>
<defs>
<clipPath id="clip0_983_15233">
<rect width="48" height="48" rx="4" fill="white"/>
</clipPath>
</defs>
</svg>
