<svg height="700pt" preserveAspectRatio="xMidYMid meet" viewBox="0 0 700 700" width="700pt" xmlns="http://www.w3.org/2000/svg"><g transform="matrix(.1 0 0 -.1 0 700)"><path d="m0 3500v-3500h3500 3500v3500 3500h-3500-3500zm3739 2244c649-95 1142-511 1350-1139 76-230 111-459 111-734 0-333-55-596-175-846-204-421-551-694-1033-811-115-27-138-42-111-69 21-21 332-159 434-193 127-42 227-56 307-42 85 15 136 47 198 125 74 94 110 89 159-20 22-49 26-239 7-315-54-214-194-380-376-447-91-34-201-47-292-33-203 29-383 132-734 416-231 188-298 237-377 279-160 83-264 46-364-127-81-140-123-158-189-83-102 116-60 354 92 517 24 26 44 54 44 62 0 15-44 45-197 129-441 246-707 666-779 1230-22 174-15 520 15 677 55 299 142 522 289 745 88 134 291 338 421 423 214 141 451 228 711 261 113 15 375 12 489-5z"/><path d="m3273 5305c-185-41-345-201-435-432-73-188-104-419-95-713 13-444 108-841 265-1105 57-96 220-264 305-314 357-209 768-67 923 319 61 149 84 297 84 528 0 411-92 824-259 1167-80 163-157 272-263 370-166 155-354 219-525 180z"/></g></svg>