<svg width="48" height="48" viewBox="0 0 48 48" fill="none" xmlns="http://www.w3.org/2000/svg">
<path d="M13.5213 2C17.1074 2 20.5466 3.42653 23.0824 5.96577C25.6181 8.50502 27.0427 11.949 27.0427 15.54V45.3333C27.0427 45.5101 26.9725 45.6797 26.8477 45.8047C26.7228 45.9298 26.5535 46 26.3769 46H20.252C14.8784 45.9929 9.7273 43.8504 5.93007 40.0429C2.13284 36.2354 -4.63337e-06 31.0744 0 25.6933V15.54C0 11.949 1.42456 8.50502 3.9603 5.96577C6.49604 3.42653 9.93525 2 13.5213 2ZM2.11042 23.0067C2.01192 23.0067 1.91658 23.0415 1.84111 23.1049C1.76564 23.1682 1.71486 23.2562 1.69766 23.3533V26.02C1.78158 30.846 3.73431 35.4506 7.14383 38.8623C10.5534 42.2741 15.1531 44.2261 19.9724 44.3067H25.0654C25.13 44.3063 25.1926 44.2835 25.2423 44.2422C25.2921 44.2009 25.326 44.1436 25.3384 44.08V42.9C25.338 42.8353 25.3152 42.7726 25.274 42.7228C25.2327 42.673 25.1755 42.639 25.112 42.6267H19.9724C15.5947 42.5478 11.4184 40.7704 8.32363 37.6688C5.22884 34.5673 3.4572 30.3838 3.382 26V24.6667C3.3811 24.6017 3.36514 24.5378 3.33539 24.48L3.30211 24.4267L2.45661 23.2267C2.42253 23.1634 2.3728 23.1099 2.31219 23.0714C2.25157 23.0329 2.1821 23.0106 2.11042 23.0067ZM5.51239 26.52C5.45667 26.5234 5.40218 26.5378 5.35212 26.5626C5.30205 26.5873 5.25742 26.6218 5.22084 26.664C5.18426 26.7062 5.15646 26.7553 5.13907 26.8084C5.12169 26.8616 5.11507 26.9176 5.1196 26.9733C5.1196 27.1378 5.13291 27.2778 5.15954 27.3933C5.57195 31.0629 7.30141 34.4575 10.0262 36.9457C12.751 39.4338 16.2856 40.8462 19.9724 40.92H25.0521C25.1167 40.9196 25.1793 40.8969 25.229 40.8555C25.2788 40.8142 25.3127 40.7569 25.325 40.6933V39.5133C25.3247 39.4486 25.3019 39.386 25.2607 39.3361C25.2194 39.2863 25.1622 39.2523 25.0987 39.24H19.9857C16.8888 39.1785 13.9068 38.0547 11.5379 36.0562C9.16894 34.0577 7.55665 31.3057 6.97038 28.26C6.94375 28.1267 6.90602 27.88 6.8572 27.52C6.84414 27.4258 6.79954 27.3388 6.73071 27.2733L6.67745 27.2267L5.75871 26.6067C5.68973 26.5536 5.60598 26.5233 5.51904 26.52H5.51239ZM9.26721 28.3933H9.18732C9.13323 28.4072 9.08246 28.4318 9.03799 28.4656C8.99352 28.4995 8.95624 28.5418 8.92834 28.5903C8.90043 28.6387 8.88247 28.6922 8.87549 28.7477C8.86852 28.8032 8.87269 28.8595 8.88773 28.9133L8.9543 29.14C9.67876 31.52 11.1328 33.6114 13.1103 35.1178C15.0878 36.6242 17.4886 37.4693 19.9724 37.5333H25.0454C25.1101 37.533 25.1726 37.5102 25.2224 37.4689C25.2721 37.4275 25.3061 37.3702 25.3184 37.3067V36.1267C25.318 36.0619 25.2953 35.9993 25.254 35.9495C25.2127 35.8996 25.1555 35.8657 25.092 35.8533H19.9924C18.0447 35.8031 16.1527 35.1923 14.5424 34.094C12.9321 32.9958 11.6716 31.4564 10.9116 29.66C10.8495 29.5178 10.7651 29.2956 10.6586 28.9933C10.6223 28.8919 10.5484 28.8084 10.4522 28.76H10.379L9.40035 28.4667H9.32047L9.26721 28.3933ZM13.1951 29.06C13.1216 29.0581 13.0488 29.0756 12.9842 29.1108C12.9195 29.146 12.8652 29.1976 12.8268 29.2604C12.7883 29.3232 12.7671 29.395 12.7651 29.4687C12.7632 29.5424 12.7806 29.6152 12.8156 29.68L12.9754 29.98C13.696 31.2172 14.7184 32.2509 15.9468 32.9843C17.1753 33.7177 18.5696 34.1269 19.9991 34.1733H25.0587C25.1234 34.173 25.1859 34.1502 25.2357 34.1089C25.2855 34.0675 25.3194 34.0102 25.3317 33.9467V32.7467C25.3313 32.6819 25.3086 32.6193 25.2673 32.5695C25.2261 32.5196 25.1688 32.4857 25.1053 32.4733H20.0523C19.0761 32.4427 18.1182 32.2003 17.2447 31.763C16.3712 31.3256 15.6028 30.7036 14.9926 29.94C14.8684 29.7889 14.7086 29.5667 14.5133 29.2733C14.4813 29.2238 14.4393 29.1816 14.39 29.1495C14.3407 29.1173 14.2851 29.0959 14.227 29.0867H13.1751L13.1951 29.06ZM17.9752 28.32H17.902L16.9233 28.5933C16.8515 28.6122 16.786 28.6499 16.7335 28.7024C16.681 28.7549 16.6434 28.8204 16.6244 28.8923C16.6055 28.9641 16.6059 29.0397 16.6257 29.1113C16.6454 29.183 16.6838 29.2481 16.7369 29.3C16.8665 29.4351 17.0043 29.562 17.1497 29.68C17.9728 30.3244 18.9754 30.6971 20.019 30.7467H25.0587C25.1234 30.7463 25.1859 30.7235 25.2357 30.6822C25.2855 30.6409 25.3194 30.5836 25.3317 30.52V29.3333C25.3313 29.2686 25.3086 29.206 25.2673 29.1561C25.2261 29.1063 25.1688 29.0723 25.1053 29.06H20.0923C19.6933 29.0414 19.3009 28.9511 18.9339 28.7933C18.6998 28.6788 18.4769 28.5427 18.2681 28.3867C18.182 28.329 18.0777 28.3052 17.9752 28.32ZM2.61638 11.1L2.5365 11.3067V11.1333C1.82538 12.9164 1.55772 14.8459 1.75657 16.7556C1.95541 18.6653 2.61481 20.4979 3.67797 22.0958C4.74112 23.6936 6.17619 25.0087 7.85958 25.9279C9.54298 26.8471 11.4242 27.3428 13.3414 27.3723C15.2586 27.4017 17.1542 26.9642 18.8649 26.0972C20.5757 25.2302 22.0505 23.9599 23.1621 22.3955C24.2738 20.8311 24.9891 19.0196 25.2464 17.1169C25.5038 15.2142 25.2954 13.2775 24.6393 11.4733L24.5062 11.1333V11.3333C22.1494 5.04667 14.0872 7.94667 14.0872 13.0267C14.0958 13.1058 14.0877 13.1858 14.0633 13.2616C14.039 13.3374 13.999 13.4072 13.9459 13.4664C13.8928 13.5257 13.8279 13.5731 13.7553 13.6055C13.6827 13.6379 13.6041 13.6547 13.5247 13.6547C13.4452 13.6547 13.3666 13.6379 13.294 13.6055C13.2214 13.5731 13.1565 13.5257 13.1034 13.4664C13.0503 13.4072 13.0103 13.3374 12.986 13.2616C12.9616 13.1858 12.9535 13.1058 12.9621 13.0267C12.9554 8 5.23277 4.60667 2.61638 11.1ZM25.0721 25.6933H22.6021C22.5372 25.6942 22.4734 25.7102 22.4157 25.74L22.3625 25.7733L20.9444 26.78C20.891 26.8175 20.8497 26.8699 20.8258 26.9307C20.8018 26.9914 20.7963 27.0579 20.8097 27.1218C20.8232 27.1858 20.8552 27.2443 20.9016 27.2902C20.948 27.3361 21.0069 27.3673 21.0709 27.38H25.0654C25.13 27.3796 25.1926 27.3569 25.2423 27.3155C25.2921 27.2742 25.326 27.2169 25.3384 27.1533V25.92C25.326 25.8564 25.2921 25.7991 25.2423 25.7578C25.1926 25.7165 25.13 25.6937 25.0654 25.6933H25.0721ZM7.60284 10.46C8.10451 10.46 8.59492 10.609 9.01204 10.8881C9.42917 11.1672 9.75428 11.5639 9.94626 12.028C10.1382 12.4921 10.1885 13.0028 10.0906 13.4955C9.99273 13.9882 9.75115 14.4408 9.39641 14.7961C9.04168 15.1513 8.58972 15.3932 8.09769 15.4912C7.60566 15.5892 7.09565 15.5389 6.63216 15.3467C6.16868 15.1544 5.77253 14.8288 5.49382 14.4111C5.21511 13.9934 5.06634 13.5024 5.06634 13C5.06634 12.3264 5.33358 11.6803 5.80926 11.2039C6.28495 10.7276 6.93012 10.46 7.60284 10.46ZM19.4332 10.46C19.9348 10.46 20.4252 10.609 20.8424 10.8881C21.2595 11.1672 21.5846 11.5639 21.7766 12.028C21.9686 12.4921 22.0188 13.0028 21.9209 13.4955C21.8231 13.9882 21.5815 14.4408 21.2268 14.7961C20.872 15.1513 20.42 15.3932 19.928 15.4912C19.436 15.5892 18.926 15.5389 18.4625 15.3467C17.999 15.1544 17.6029 14.8288 17.3241 14.4111C17.0454 13.9934 16.8967 13.5024 16.8967 13C16.8967 12.3264 17.1639 11.6803 17.6396 11.2039C18.1153 10.7276 18.7605 10.46 19.4332 10.46Z" fill="#1F1F1F"/>
</svg>
