<svg xmlns="http://www.w3.org/2000/svg" fill="none" viewBox="0 0 48 48">
  <path fill="#403E3A" fill-rule="evenodd" d="m29.65 27.54-1.5-.41a14.17 14.17 0 0 1-4.77 3.46l-.06.96-.06.96c-.64.75-1.9 1.9-2.84 2.17h.01v-.02l-4.08.07a.53.53 0 0 1-.49-.34 29.03 29.03 0 0 1-1.21-3.88 10.37 10.37 0 0 1-5.55-3.2c-.6.12-1.21.2-1.82.3-.7.1-1.4.22-2.07.35a.54.54 0 0 1-.56-.25l-.14-.24c-.64-1.08-1.28-2.16-2-3.12a.53.53 0 0 1 .07-.71c.72-.66 1.48-1.44 2.21-2.22l.25-.26c-.43-2.13-.77-4.38.15-6.42-1-.83-1.9-1.7-2.8-2.67a.53.53 0 0 1-.06-.64c.4-.64.76-1.26 1.13-1.88L4.6 7.62a.53.53 0 0 1 .56-.24c1.41.28 2.6.6 3.69 1a11 11 0 0 1 5.6-3.33c.14-.72.39-1.44.62-2.13v-.01c.1-.25.15-.43.2-.58.13-.4.15-.48.31-.6a.52.52 0 0 1 .5-.6l4.15-.09c.25-.04.5.1.58.34.39 1.13.66 2.3.83 3.48 2.1.5 4.22 1.7 5.92 3.35 1.41-.16 2.58-.42 3.57-.8.22-.08.48 0 .62.2a16 16 0 0 1 2.03 3.62c.08.2.02.42-.13.56l-.04.45c-.01.17-.02.34-.06.61-.44.28-.9.63-1.34.98l-.77.6c.68 1.9.82 4.03.27 5.99.5.32 1.07.87 1.6 1.38.26.25.5.48.73.68v.06c-.03.52-.05.83-.12 1.12-.1.4-.3.79-.78 1.7-.3.56-.7 1.31-1.23 2.38a.53.53 0 0 1-.63.27c-.57-.18-1.03-.3-1.64-.47Zm-13.88 3.07c.12.53.35 1.45.95 3.05l1.73-.02 1.6-.03c.47-1.64.63-2.65.73-3.27.12-.76.15-.96.51-1.04a12.55 12.55 0 0 0 5.83-3.3.53.53 0 0 1 .52-.12c.66.2 1.3.38 1.96.55.52.14 1.04.28 1.57.44l.76-1.45.77-1.49c-.41-.4-.85-.8-1.28-1.2-.53-.48-1.07-.97-1.58-1.5a.53.53 0 0 1-.1-.59c.86-1.95.98-4.24.32-6.3a.53.53 0 0 1 .13-.54l1.06-1.08.03-.04.02-.02c.45-.47.9-.94 1.37-1.39a14.9 14.9 0 0 0-1.55-2.72c-1.04.35-2.25.6-3.7.74a.52.52 0 0 1-.42-.16 11.79 11.79 0 0 0-5.93-3.3c-.37-.08-.4-.3-.5-.93-.07-.55-.2-1.42-.63-2.8l-3.53.1c0 .15-.13.51-.3.97-.23.69-.55 1.6-.68 2.4-.03.22-.2.4-.41.44a9.9 9.9 0 0 0-5.6 3.33.53.53 0 0 1-.6.15c-1.03-.4-2.15-.72-3.5-1l-.96 1.6-.92 1.55c.88.93 1.76 1.74 2.74 2.55.2.16.25.44.13.66-1.05 1.93-.6 4.29-.18 6.37a.53.53 0 0 1-.14.48l-.27.28c-.82.87-1.46 1.53-2.08 2.12a39.5 39.5 0 0 1 1.73 2.75l1.76-.29c.7-.1 1.4-.21 2.07-.34.2-.04.39.03.51.18a9.27 9.27 0 0 0 5.44 3.13c.24.05.4.25.43.48.07.1.11.27.19.6Zm2.36-19.7a7 7 0 1 1-.01 13.98 7 7 0 0 1 .01-13.99Zm-3.29 2.58c-3.84 3.64-1.1 10.28 4.53 10.2a5.94 5.94 0 0 0 4.69-5.8c0-4.71-5.54-7.89-9.22-4.4ZM35.9 31.96a4.49 4.49 0 1 0 .01 8.98 4.49 4.49 0 0 0 0-8.98Zm-.45 7.87c-2.9-.88-3.57-4.63-1.26-6.34a3.41 3.41 0 1 1 1.26 6.34Zm9.76-.99c.16.15.3.3.45.42v.02l-.04.47c.14.16.17.39.07.58l-.57 1.1-.59 1.14a.53.53 0 0 1-.63.27c-.37-.12-.74-.22-1.13-.32a48.9 48.9 0 0 1-.9-.25 8.58 8.58 0 0 1-2.75 1.95c0 .2-.02.4-.04.6l-.04.58c-.28.33-.74.77-1.19 1.06v.04l-.02.05a.53.53 0 0 1-.5.37l-2.52.04a.53.53 0 0 1-.5-.33c-.3-.78-.53-1.54-.7-2.28a6.57 6.57 0 0 1-3.31-1.91l-1 .16c-.43.07-.86.13-1.28.21-.38.07-.52-.17-.85-.74-.21-.38-.5-.89-1-1.55a.53.53 0 0 1 .07-.7c.43-.4.88-.86 1.3-1.32l.12-.12c-.26-1.28-.43-2.58.06-3.8-.57-.5-1.09-1-1.61-1.57a.53.53 0 0 1-.06-.63l.7-1.18.7-1.15a.53.53 0 0 1 .55-.25c.82.17 1.52.35 2.16.58a6.97 6.97 0 0 1 3.32-1.97c.1-.41.23-.83.37-1.22l.18-.54a.52.52 0 0 1 .12-.2.52.52 0 0 1 .5-.47l2.56-.06c.23-.02.45.12.53.35.23.66.4 1.34.5 2.03a8.2 8.2 0 0 1 3.51 2c.81-.1 1.48-.25 2.05-.46.22-.09.48 0 .62.19.42.59.94 1.38 1.27 2.26.07.2.02.43-.14.58l-.1.09-.06.06-.04.34c-.3.2-.99.7-1.24.96l.04.21.03.15c.31 1.07.35 2.24.05 3.31.3.2.65.54.98.85Zm-2.24 2.64.82.22.54-1.04.24-.47c-.38-.38-.7-.67-.97-.9-.69-.62-.95-.86-.78-1.24.51-1.15.58-2.5.2-3.72a.53.53 0 0 1 .13-.54l.65-.66.76-.79a9 9 0 0 0-.78-1.38c-.62.2-1.33.34-2.16.42a.51.51 0 0 1-.43-.16 7.01 7.01 0 0 0-3.53-1.97.53.53 0 0 1-.42-.45 10.6 10.6 0 0 0-.4-1.81l-1.82.04-.18.54c-.17.48-.32.93-.39 1.36-.03.22-.2.4-.42.44a5.85 5.85 0 0 0-3.3 1.97.53.53 0 0 1-.6.15c-.59-.22-1.22-.41-1.97-.57l-.53.87-.47.8c.5.51 1 .97 1.55 1.43.2.16.25.44.13.66a3.53 3.53 0 0 0-.37 1.8c.02.72.13 1.2.2 1.56.1.43.15.66-.05.88l-.17.17c-.47.5-.82.86-1.15 1.18.32.47.6.96.89 1.43l.95-.15c.43-.06.84-.12 1.25-.2.2-.04.39.03.51.17.8.96 1.98 1.64 3.21 1.85.23.05.4.23.43.45.05.1.08.22.12.4.07.3.18.76.52 1.68l.81-.01.93-.02c.2-.7.36-1.48.46-2.2.04-.22.2-.39.41-.44a7.47 7.47 0 0 0 3.47-1.96.53.53 0 0 1 .53-.13l1.18.34Z" clip-rule="evenodd"/>
</svg>
