<svg width="512" height="512" viewBox="0 0 512 512" fill="none" xmlns="http://www.w3.org/2000/svg">
<path d="M425.039 99.8059C424.877 98.7066 424.346 97.6949 423.534 96.9361C422.722 96.1774 421.677 95.7166 420.57 95.629L379.466 92.478L349.133 62.3604C347.515 61.2729 345.664 60.5804 343.73 60.3386C341.796 60.0968 339.832 60.3124 337.996 60.9681L322.683 65.6579C313.597 39.4241 297.478 15.3153 269.123 15.3153H266.632C263.677 10.8701 259.73 7.17258 255.102 4.51468C250.473 1.85677 245.29 0.311212 239.962 0C174.02 0 142.515 82.4388 132.624 124.574L86.4644 139.23C71.8107 143.7 71.8107 144.14 69.8324 157.623C68.4403 167.809 31 457.334 31 457.334L322.683 512L480.723 477.779L425.039 99.8059V99.8059ZM306.563 70.4943L281.872 77.8222V72.4729C282.158 58.9508 280.177 45.4763 276.01 32.6091C290.664 34.9541 300.336 51.5884 306.637 70.4943H306.563ZM257.913 36.1998C262.854 50.4645 265.114 65.52 264.581 80.6069V83.4647L213.292 99.2197C223.477 61.5543 241.867 43.3079 257.986 36.4196L257.913 36.1998ZM238.277 17.6602C241.339 17.7013 244.311 18.7007 246.776 20.5181C225.602 30.484 202.815 55.5455 193.437 105.595L153.139 118.052C164.056 80.0206 190.946 17.8068 238.35 17.8068L238.277 17.6602Z" fill="#95BF47"/>
<path d="M420.495 95.5558L379.465 92.4781L349.131 62.3605C347.979 61.2944 346.515 60.6265 344.955 60.4552L322.975 511.634L481.015 477.412C481.015 477.412 425.551 102.224 425.184 99.6594C424.998 98.5384 424.429 97.5165 423.574 96.7682C422.719 96.0199 421.631 95.5914 420.495 95.5558Z" fill="#5E8E3E"/>
<path d="M269.196 182.904L249.706 240.868C237.86 235.051 224.875 231.923 211.68 231.708C180.98 231.708 179.442 250.98 179.442 255.817C179.442 282.27 248.461 292.456 248.461 354.45C248.461 403.254 217.542 434.691 175.778 434.691C161.689 435.062 147.678 432.483 134.644 427.12C121.61 421.757 109.84 413.727 100.092 403.547L113.5 359.58C113.5 359.58 139.803 382.15 162.004 382.15C164.664 382.27 167.322 381.845 169.812 380.902C172.303 379.958 174.575 378.516 176.489 376.664C178.403 374.811 179.918 372.588 180.943 370.129C181.967 367.67 182.478 365.028 182.446 362.364C182.446 327.85 125.809 326.311 125.809 269.52C125.809 221.742 160.099 175.503 229.264 175.503C242.977 174.713 256.677 177.252 269.196 182.904V182.904Z" fill="white"/>
</svg>
