<svg width="48" height="48" viewBox="0 0 48 48" fill="none" xmlns="http://www.w3.org/2000/svg">
<path d="M36.9411 9.35681C36.9259 9.25374 36.8762 9.15889 36.8001 9.08776C36.724 9.01663 36.626 8.97343 36.5221 8.96522L32.6687 8.66982L29.8249 5.84629C29.6732 5.74433 29.4998 5.67941 29.3184 5.65674C29.1371 5.63407 28.953 5.65429 28.7809 5.71576L27.3452 6.15543C26.4935 3.69601 24.9823 1.43581 22.324 1.43581H22.0905C21.8135 1.01907 21.4434 0.67243 21.0095 0.423251C20.5756 0.174072 20.0897 0.0291761 19.5902 0C13.4082 0 10.4545 7.72864 9.52722 11.6788L5.19979 13.0528C3.826 13.4719 3.826 13.5131 3.64054 14.7772C3.51003 15.7321 0 42.8751 0 42.8751L27.3452 48L42.1615 44.7918L36.9411 9.35681V9.35681ZM25.8341 6.60885L23.5192 7.29584V6.79433C23.5461 5.52664 23.3604 4.2634 22.9697 3.05711C24.3435 3.27694 25.2502 4.83641 25.841 6.60885H25.8341ZM21.2731 3.39373C21.7363 4.73105 21.9482 6.1425 21.8982 7.55689V7.82482L17.0899 9.30185C18.0447 5.77072 19.7688 4.06011 21.28 3.41434L21.2731 3.39373ZM19.4322 1.65565C19.7193 1.65949 19.9979 1.75319 20.229 1.92357C18.2439 2.85788 16.1077 5.20739 15.2284 9.89953L11.4505 11.0674C12.474 7.50193 14.9949 1.66939 19.4391 1.66939L19.4322 1.65565Z" fill="#95BF47"/>
<path d="M36.5151 8.95835L32.6685 8.66981L29.8248 5.84628C29.7168 5.74634 29.5795 5.68372 29.4332 5.66766L27.3726 47.9656L42.1889 44.7574C42.1889 44.7574 36.9891 9.58351 36.9547 9.34306C36.9373 9.23796 36.8839 9.14216 36.8038 9.07201C36.7236 9.00185 36.6216 8.96168 36.5151 8.95835Z" fill="#5E8E3E"/>
<path d="M22.3308 17.1473L20.5037 22.5814C19.3931 22.0361 18.1757 21.7428 16.9387 21.7226C14.0606 21.7226 13.9164 23.5294 13.9164 23.9828C13.9164 26.4629 20.3869 27.4178 20.3869 33.2297C20.3869 37.8051 17.4882 40.7523 13.5729 40.7523C12.252 40.7871 10.9385 40.5453 9.71653 40.0425C8.49458 39.5397 7.39123 38.7869 6.47729 37.8325L7.73431 33.7106C7.73431 33.7106 10.2003 35.8265 12.2816 35.8265C12.531 35.8378 12.7801 35.798 13.0136 35.7095C13.2471 35.6211 13.4601 35.4859 13.6395 35.3122C13.8189 35.1386 13.961 34.9301 14.0571 34.6996C14.1531 34.4691 14.201 34.2214 14.198 33.9717C14.198 30.7359 8.88829 30.5917 8.88829 25.2675C8.88829 20.7883 12.103 16.4534 18.5872 16.4534C19.8728 16.3793 21.1572 16.6174 22.3308 17.1473V17.1473Z" fill="white"/>
</svg>
