<svg xmlns="http://www.w3.org/2000/svg" width="900" height="600" viewBox="0 0 9 6"><defs><clipPath id="a"><path d="M294.901 263.249C210.423 303.94 89.585 384.705 89.585 544.469c0 159.765 7.639 232.423 7.639 232.423h395.359s7.64-72.658 7.64-232.422c0-159.765-120.838-240.53-205.322-281.221z"/></clipPath></defs><path fill="#ee1c25" d="M0 0h9v6H0z"/><path fill="#0b4ea2" d="M0 0h9v4H0z"/><path fill="#fff" d="M0 0h9v2H0z"/><path d="M3.163 4.635c-.538-.26-1.308-.773-1.308-1.79s.05-1.48.05-1.48H4.42s.049.463.049 1.48-.77 1.53-1.307 1.79z" fill="#fff"/><path d="M3.163 4.5c-.494-.238-1.2-.71-1.2-1.643S2.008 1.5 2.008 1.5h2.309s.045.424.045 1.357c0 .934-.706 1.405-1.2 1.643z" fill="#ee1c25"/><g clip-path="url(#a)" transform="matrix(.00584 0 0 -.00584 1.44 6.038)"><path d="M312.969 586.358c22.874-.37 67.502-1.266 107.24 12.032 0 0-1.049-14.22-1.049-30.786 0-16.568 1.049-30.788 1.049-30.788-36.45 12.198-81.463 12.452-107.24 12.125v-88.242h-36.132v88.242c-25.775.327-70.789.073-107.24-12.125 0 0 1.05 14.22 1.05 30.788 0 16.565-1.05 30.786-1.05 30.786 39.738-13.298 84.366-12.402 107.24-12.032v55.418c-20.848.185-50.89-.81-84.859-12.178 0 0 1.05 14.22 1.05 30.788 0 16.566-1.05 30.786-1.05 30.786 33.918-11.348 63.924-12.36 84.766-12.18-1.07 35.092-11.294 79.324-11.294 79.324s21.04-1.642 29.451-1.642c8.42 0 29.454 1.642 29.454 1.642s-10.22-44.232-11.293-79.323c20.843-.181 50.848.83 84.765 12.18 0 0-1.049-14.22-1.049-30.787 0-16.568 1.05-30.788 1.05-30.788-33.968 11.367-64.012 12.363-84.86 12.178v-55.418z" fill="#fff"/><path d="M291.18 210.836L116.138 366.863s22.378 72.374 66.056 72.374c34.71 0 47.378-27.987 47.378-27.987s22.788 58.995 65.33 58.995c42.544 0 65.333-58.995 65.333-58.995s12.665 27.987 47.376 27.987c43.679 0 66.056-72.374 66.056-72.374L291.18 210.836z" fill="#0b4ea2" fill-rule="evenodd"/></g></svg>