<svg height="600" viewBox="0 0 226.801 289.606" width="900" xmlns="http://www.w3.org/2000/svg"><g fill-rule="evenodd"><path d="m-103.804 0h434.409v289.606h-434.409z" fill="#fff"/><path d="m-103.804 193.071h434.409v96.535h-434.409z" fill="#ed1c24"/><path d="m-103.804 96.535h434.409v96.535h-434.409z" fill="#005da4"/></g><path d="m-18.17 55.67c-.892.394-1.777.802-2.656 1.225l2.768 43.8a49.298 49.298 0 0 0 35.027 44.108 49.297 49.297 0 0 0 35.027-44.109l2.769-43.799a87.322 87.322 0 0 0 -2.657-1.225l-2.832 44.837a46.572 46.572 0 0 1 -32.306 41.44h-.001a46.569 46.569 0 0 1 -32.305-41.44z" fill="#ed1c24"/><path d="m52.109 55.67a87.086 87.086 0 0 0 -70.28 0l2.834 44.837a46.569 46.569 0 0 0 32.306 41.44 46.56 46.56 0 0 0 18.756-11.431 46.565 46.565 0 0 0 13.55-30.009" fill="#005da4"/><path d="m19.095 69.24 1.557-2.126-2.62.285-1.063-2.411-1.063 2.411-2.62-.285 1.557 2.126-1.556 2.126 2.62-.285 1.062 2.411 1.063-2.411 2.62.285m-11.478-15.354 1.556-2.126-2.62.285-1.062-2.411-1.063 2.41-2.62-.284 1.557 2.126-1.556 2.126 2.619-.285 1.063 2.41 1.063-2.41 2.62.285m18.285-2.126 1.556-2.126-2.619.285-1.063-2.411-1.063 2.41-2.62-.284 1.557 2.126-1.556 2.126 2.619-.285 1.063 2.41 1.063-2.41 2.62.285" fill="#fd0"/><g fill="#fff"><path d="m45.316 107.036-14.174-18.898-5.67 7.559-8.503-17.008-8.504 17.008-5.67-7.56-14.173 18.899a9.448 9.448 0 0 0 14.174 8.182c.01-.006-.011.007-.002.001a9.451 9.451 0 0 1 9.45-.001 9.45 9.45 0 0 0 4.726 1.266h-.002c1.645 0 3.276-.43 4.726-1.266a9.448 9.448 0 0 1 9.45.001c.01.006-.011-.007-.002-.001a9.448 9.448 0 0 0 14.174-8.182"/><path d="m-8.02 117.296a43.822 43.822 0 0 0 2.142 3.778v.001a9.45 9.45 0 0 0 8.675-.402c.01-.005-.011.007-.002.001a9.441 9.441 0 0 1 4.725-1.266c1.644 0 3.276.429 4.725 1.266a9.452 9.452 0 0 0 9.45-.001c.01-.005-.011.007-.002.001a9.44 9.44 0 0 1 4.725-1.266h-.001c1.645 0 3.277.429 4.725 1.266a9.452 9.452 0 0 0 8.674.4 43.939 43.939 0 0 0 2.143-3.777c0-.001 0 0 0 0a9.48 9.48 0 0 0 -1.368.65c-.01.005.011-.007.002-.001a9.449 9.449 0 0 1 -9.45 0 9.448 9.448 0 0 0 -4.726-1.265h.002a9.449 9.449 0 0 0 -4.726 1.266l.002-.001a9.446 9.446 0 0 1 -9.45.001 9.45 9.45 0 0 0 -4.725-1.266c-.004 0 .004 0 0 0a9.442 9.442 0 0 0 -4.724 1.267c-.01.005.01-.007.002-.002a9.449 9.449 0 0 1 -9.45 0 9.463 9.463 0 0 0 -1.368-.648"/><path d="m37.369 124.547a43.898 43.898 0 0 1 -20.4 14.528 43.845 43.845 0 0 1 -20.4-14.528 9.458 9.458 0 0 0 6.228-1.146c.01-.005-.011.007-.002.001a9.441 9.441 0 0 1 4.725-1.266h-.001c1.645 0 3.276.429 4.725 1.266a9.449 9.449 0 0 0 9.45-.001c.01-.005-.01.007-.001.001a9.44 9.44 0 0 1 4.725-1.266h-.001c1.645 0 3.276.429 4.725 1.266a9.445 9.445 0 0 0 6.227 1.145"/></g></svg>