<svg width="48" height="48" viewBox="0 0 48 48" fill="none" xmlns="http://www.w3.org/2000/svg">
<g clip-path="url(#clip0_983_15223)">
<rect width="48" height="48" fill="black"/>
<path fill-rule="evenodd" clip-rule="evenodd" d="M33.3202 10H14.6784C12.0946 10 10 12.0947 10 14.6787V33.3199C10 35.9042 12.0944 37.9992 14.6784 38H33.3202C35.9047 38 38 35.9047 38 33.3199V14.6787C38 13.4376 37.5068 12.2473 36.6292 11.3699C35.7516 10.4924 34.5611 9.99964 33.3202 10ZM32.9127 31.433C32.9127 32.2485 32.2515 32.9097 31.436 32.9097H16.5694C15.7539 32.9097 15.0928 32.2485 15.0928 31.433V16.5697C15.0924 16.1778 15.2478 15.8019 15.5248 15.5246C15.8017 15.2474 16.1775 15.0916 16.5694 15.0916H31.4319C32.2474 15.0916 32.9086 15.7528 32.9086 16.5683L32.9127 31.433ZM20.3704 26.8212C20.3704 27.2637 20.7527 27.6235 21.2267 27.627L27.2849 27.6296C27.5145 27.6293 27.7344 27.5437 27.8964 27.3918C28.0583 27.2399 28.1489 27.0341 28.1481 26.8198V21.1801C28.1489 20.9658 28.0583 20.76 27.8964 20.6081C27.7344 20.4562 27.5145 20.3707 27.2849 20.3704H21.2337C21.004 20.3704 20.7838 20.4558 20.6218 20.6078C20.4597 20.7597 20.3693 20.9657 20.3704 21.1801V26.8212Z" fill="white"/>
</g>
<defs>
<clipPath id="clip0_983_15223">
<rect width="48" height="48" rx="4" fill="white"/>
</clipPath>
</defs>
</svg>
