<svg width="512" height="512" viewBox="0 0 512 512" fill="none" xmlns="http://www.w3.org/2000/svg">
<path fill-rule="evenodd" clip-rule="evenodd" d="M225.696 171.045C225.696 153.1 240.402 146.036 264.849 146.036C299.991 146.036 344.301 156.727 379.443 175.627V67.1909C341.054 51.9182 303.238 46 265.04 46C171.263 46 109 94.8727 109 176.582C109 303.918 284.521 283.682 284.521 338.664C284.521 359.855 265.995 366.727 240.211 366.727C201.822 366.727 152.928 351.073 114.157 329.882V439.655C157.13 458.173 200.485 466 240.211 466C336.279 466 402.362 418.464 402.362 335.8C401.598 198.345 225.696 222.782 225.696 171.045V171.045Z" fill="#635BFF"/>
</svg>
