<svg width="48" height="48" viewBox="0 0 48 48" fill="none" xmlns="http://www.w3.org/2000/svg">
<g clip-path="url(#clip0_983_15218)">
<g clip-path="url(#clip1_983_15218)">
<path fill-rule="evenodd" clip-rule="evenodd" d="M0 0H48V48H0V0Z" fill="#635BFF"/>
<path fill-rule="evenodd" clip-rule="evenodd" d="M22.1279 18.66C22.1279 17.532 23.0519 17.088 24.5879 17.088C26.7959 17.088 29.5799 17.76 31.7879 18.948V12.132C29.3759 11.172 26.9999 10.8 24.5999 10.8C18.7079 10.8 14.7959 13.872 14.7959 19.008C14.7959 27.012 25.8239 25.74 25.8239 29.196C25.8239 30.528 24.6599 30.96 23.0399 30.96C20.6279 30.96 17.5559 29.976 15.1199 28.644V35.544C17.8199 36.708 20.5439 37.2 23.0399 37.2C29.0759 37.2 33.2279 34.212 33.2279 29.016C33.1799 20.376 22.1279 21.912 22.1279 18.66V18.66Z" fill="white"/>
</g>
</g>
<defs>
<clipPath id="clip0_983_15218">
<rect width="48" height="48" rx="4" fill="white"/>
</clipPath>
<clipPath id="clip1_983_15218">
<rect width="48" height="48" fill="white"/>
</clipPath>
</defs>
</svg>
