<svg fill="none" viewBox="0 0 48 48" xmlns="http://www.w3.org/2000/svg"><g clip-rule="evenodd" fill-rule="evenodd"><path d="m0 33.6v9.6a4.8 4.8 0 0 0 4.8 4.8h9.6a1.6 1.6 0 0 0 0-3.2h-9.6a1.6 1.6 0 0 1 -1.6-1.6v-9.6a1.6 1.6 0 0 0 -3.2 0zm3.2-19.2v-9.6c0-.88.72-1.6 1.6-1.6h9.6a1.6 1.6 0 0 0 0-3.2h-9.6a4.8 4.8 0 0 0 -4.8 4.8v9.6a1.6 1.6 0 0 0 3.2 0zm14.4 8h-9.6a1.6 1.6 0 0 0 0 3.2h9.6a1.6 1.6 0 0 0 0-3.2zm0-3.2c.88 0 1.6-.72 1.6-1.6v-9.6c0-.88-.72-1.6-1.6-1.6h-9.6c-.88 0-1.6.72-1.6 1.6v9.6c0 .88.72 1.6 1.6 1.6zm0 22.4c.88 0 1.6-.72 1.6-1.6v-9.6c0-.88-.72-1.6-1.6-1.6h-9.6c-.88 0-1.6.72-1.6 1.6v9.6c0 .88.72 1.6 1.6 1.6zm-1.6-25.6h-6.4v-6.4h6.4zm0 22.4h-6.4v-6.4h6.4zm6.4-16v1.6a1.6 1.6 0 0 0 3.2 0v-1.6a1.6 1.6 0 0 0 -3.2 0zm0-14.4v8a1.6 1.6 0 0 0 3.2 0v-8a1.6 1.6 0 0 0 -3.2 0zm3.2 28.8v1.6h-1.6a1.6 1.6 0 0 0 0 3.2h3.2c.88 0 1.6-.72 1.6-1.6v-3.2a1.6 1.6 0 0 0 -3.2 0zm-1.6-4.8h8v1.6a1.6 1.6 0 0 0 3.2 0v-3.2c0-.88-.72-1.6-1.6-1.6h-9.6a1.6 1.6 0 0 0 0 3.2zm9.6-9.6h-3.2a1.6 1.6 0 0 0 0 3.2h3.2a1.6 1.6 0 0 0 0-3.2zm6.4-3.2c.88 0 1.6-.72 1.6-1.6v-9.6c0-.88-.72-1.6-1.6-1.6h-9.6c-.88 0-1.6.72-1.6 1.6v9.6c0 .88.72 1.6 1.6 1.6zm8-4.8v-9.6a4.8 4.8 0 0 0 -4.8-4.8h-9.6a1.6 1.6 0 0 0 0 3.2h9.6c.88 0 1.6.72 1.6 1.6v9.6a1.6 1.6 0 0 0 3.2 0zm-9.6 1.6h-6.4v-6.4h6.4zm6.4 17.6v9.6c0 .88-.72 1.6-1.6 1.6h-9.6a1.6 1.6 0 0 0 0 3.2h9.6a4.8 4.8 0 0 0 4.8-4.8v-9.6a1.6 1.6 0 0 0 -3.2 0zm-6.4-3.2v8h-4.8a1.6 1.6 0 0 0 0 3.2h6.4c.88 0 1.6-.72 1.6-1.6v-9.6a1.6 1.6 0 0 0 -3.2 0z" fill="#e54133"/><path d="m15.77 19.2h1.83c.88 0 1.6-.72 1.6-1.6v-1.83l-3.2-3.2v3.43h-3.44l3.2 3.2zm-9.37-9.34 3.2 3.19v-3.45h3.42l-3.22-3.2h-1.8c-.88 0-1.6.72-1.6 1.6zm-2.85-9.7 3.05 3.04h-1.8c-.88 0-1.6.72-1.6 1.6v1.87l-3.05-3.05a4.8 4.8 0 0 1 3.4-3.46zm25.25 15.45v1.99c0 .88.72 1.6 1.6 1.6h1.67l3.2-3.2h-3.27v-3.58zm6.02-6.01h3.58v3.29l3.2-3.2v-1.69c0-.88-.72-1.6-1.6-1.6h-1.97l-3.2 3.2zm6.42-6.4h1.96c.88 0 1.6.72 1.6 1.6v1.7l3.02-3a4.8 4.8 0 0 0 -3.5-3.37zm-8.97 25.6h-6.87l3.2 3.2h3.4v1.6a1.6 1.6 0 0 0 3.2 0v-1.88zm6.13 6.11v3.49h-3.37l3.2 3.2h1.77c.88 0 1.6-.72 1.6-1.6v-1.9zm6.4 6.38v1.91c0 .88-.72 1.6-1.6 1.6h-1.75l3.03 3.03a4.8 4.8 0 0 0 3.38-3.49l-3.06-3.04zm-25.6-9.26v-1.63c0-.88-.72-1.6-1.6-1.6h-2.03l-3.21 3.2h3.64v3.22zm-6.39 6.37h-3.21v-3.65l-3.2 3.19v2.06c0 .88.72 1.6 1.6 1.6h1.6zm-6.41 6.4h-1.6a1.6 1.6 0 0 1 -1.6-1.6v-2.07l-3.1 3.08a4.8 4.8 0 0 0 3.3 3.58zm16-20.8v-1.6a1.6 1.6 0 0 1 3.2 0v1.6a1.6 1.6 0 0 1 -3.2 0z" fill="#1bbb63"/><path d="m22.4 24v-1.6a1.6 1.6 0 0 1 3.2 0v1.6a1.6 1.6 0 0 1 -3.2 0zm0-8v-8a1.6 1.6 0 0 1 3.2 0v8a1.6 1.6 0 0 1 -3.2 0zm3.2 22.4v-1.6c0-.6.32-1.1.8-1.39v6.19h-2.4a1.6 1.6 0 0 1 0-3.2zm.8-9.6v3.2h-2.4a1.6 1.6 0 0 1 0-3.2z" fill="#fff"/></g><rect fill="#fff" height="7.2" rx="3.6" width="48" y="20.4"/><path d="m40.77 21.8v4.6h-.96v-4.6zm-1.92 4.6h-1l-.38-1.12h-1.76l-.38 1.12h-.98l1.67-4.6h1.15zm-2.92-1.83h1.33l-.67-2zm-5.98 1.83v-4.6h2.01c.56 0 .97.12 1.23.33.27.22.4.53.4.93 0 .25-.08.46-.22.65-.15.2-.37.31-.66.37.32.05.57.17.74.36.17.2.26.43.26.7 0 .4-.15.7-.43.93-.29.22-.7.33-1.25.33zm.93-.72h1.07c.26 0 .45-.06.57-.16.13-.11.2-.26.2-.45 0-.2-.07-.34-.2-.44-.12-.1-.31-.16-.57-.16h-1.07v1.2zm0-1.95h.95c.51 0 .76-.2.76-.59 0-.4-.25-.59-.76-.59h-.95zm-3.07-1.87v3.4c0 .17.05.3.13.37.09.08.2.12.35.12.12 0 .22-.02.31-.05a.88.88 0 0 0 .24-.15l.15.63c-.11.1-.25.16-.42.21a1.8 1.8 0 0 1 -1.15-.02.88.88 0 0 1 -.41-.34c-.1-.15-.15-.36-.15-.61v-3.3zm1.12 1.06v.71h-2.71v-.71h2.7zm-4.98 3.55c-.37 0-.69-.07-.96-.22a1.52 1.52 0 0 1 -.63-.62c-.15-.26-.22-.59-.22-.97s.07-.7.22-.97.36-.48.62-.62c.27-.15.58-.22.92-.22.35 0 .65.07.9.22.24.14.43.33.56.57.13.25.2.52.2.83a4.72 4.72 0 0 1 -.03.49h-2.78v-.66h2.36l-.46.17c0-.3-.07-.52-.2-.68a.68.68 0 0 0 -.56-.24.83.83 0 0 0 -.46.13.77.77 0 0 0 -.28.37c-.07.17-.1.37-.1.62s.04.45.1.62a.8.8 0 0 0 .31.35c.14.08.3.12.48.12.2 0 .37-.04.5-.12a.8.8 0 0 0 .29-.33l.76.3a1.2 1.2 0 0 1 -.34.46c-.15.13-.33.23-.54.3-.2.07-.42.1-.66.1zm-2.38-3.55-1.6 1.68-.2.09-1.03 1.12-.02-1.02 1.77-1.87zm-2.57-1.52v5h-.96v-5zm1.1 2.63 1.57 2.37h-1.08l-1.13-1.82.65-.55zm-4.7-1.18c.32 0 .58.05.8.14.2.09.38.21.51.37.14.15.23.32.29.51l-.9.32a.91.91 0 0 0 -.23-.47.63.63 0 0 0 -.45-.16.8.8 0 0 0 -.45.13.73.73 0 0 0 -.29.36c-.06.17-.1.37-.1.62 0 .24.04.45.1.6.07.17.17.3.3.37.12.08.27.12.45.12.13 0 .25-.02.35-.07s.18-.12.24-.22c.06-.09.1-.2.13-.33l.86.28c-.05.2-.14.4-.28.55a1.4 1.4 0 0 1 -.54.37c-.22.09-.47.13-.76.13a2 2 0 0 1 -.94-.22 1.51 1.51 0 0 1 -.64-.62c-.15-.26-.22-.59-.22-.97s.07-.7.22-.97.36-.48.63-.62c.27-.15.58-.22.92-.22zm-3.34-.43c-.2 0-.35-.04-.44-.13-.1-.08-.15-.21-.15-.38s.05-.3.15-.38c.1-.09.24-.13.44-.13s.35.04.45.13c.1.08.14.2.14.38 0 .17-.04.3-.14.38-.1.09-.25.13-.45.13zm.48.5v3.48h-.96v-3.48zm-1.83-1.12v.78h-1.54v3.82h-.96v-3.82h-1.54v-.77h4.04z" fill="#403e3a"/></svg>