<svg fill="none" xmlns="http://www.w3.org/2000/svg" viewBox="0 0 48 48"><path fill-rule="evenodd" clip-rule="evenodd" d="M32.156 3.894c-.645-2.354-3.295-2.508-4.512-.495-.453.749-.595 1.66-.688 2.553-.334.01-.7.04-1.064.068-.518.04-1.03.08-1.434.067-.273-.027-.505.193-.529.464-.04.442-.066.868-.09 1.289l-3.548.138c-.88.031-1.59.688-1.685 1.56-.694 6.143-1.786 12.728-2.858 19.128-1.27-.367-2.34-.34-2.714-.331a1.942 1.942 0 0 1-.126.001c-4.66-.312-8.576 3.408-8.887 8.121-.355 5.385 3.829 9.008 8.074 9.49 4.213.479 7.845-2.36 8.97-6.067 2.054.2 3.97.37 5.818.535h.001c3.454.31 6.672.597 10.118 1.01a1.774 1.774 0 0 0 1.408-.445c1.243-.574 1.473-1.713 1.64-3.052a8536.71 8536.71 0 0 1 2.068-16.38C43.466 10.92 43.566 10.134 43.4 9.41a6.535 6.535 0 0 0-.044-.177l-.012-.048c-.184-.709-.65-1.427-1.388-1.576a1.705 1.705 0 0 0-1.203-.423l-5.187.202c.01-.348.008-.695-.014-1.04l-.499-.458v.004l-.001.005v.005a.03.03 0 0 0-.002.004c-.157-.126-.183-.127-1.11-.16-.407-.014-.987-.034-1.827-.074.098-.571.2-1.21.043-1.78ZM5.04 36.525c.274-4.156 3.594-7.187 7.331-7.187 4.303 0 7.549 3.806 7.261 8.15-.272 4.12-3.704 7.478-7.789 7.174-3.731-.277-7.106-3.557-6.803-8.137ZM41.374 8.447c.35.39-3.317 30.664-3.41 31.33a.74.74 0 0 1-.84.635c-3.462-.415-6.616-.696-10.067-1.005-1.806-.16-3.694-.33-5.75-.528.767-4.274-1.544-8.44-4.585-9.854 1.084-6.473 2.194-13.142 2.897-19.375a.733.733 0 0 1 .71-.654l3.456-.134c-.028.548-.057.935-.078 1.216a31.91 31.91 0 0 0-.018.255c-.026.382-.046.732.466.79.267.03.772.022 1.847.004 1.443-.024 3.914-.065 8.218-.052.063.073.19.015.543-.145.11-.05.241-.11.4-.179.134-.769.258-1.554.335-2.341 1.958-.043 3.217-.112 4.047-.158 1.378-.075 1.575-.086 1.829.195ZM34.199 6.78a33.271 33.271 0 0 1-.358 3.275c-2.807.015-4.536.03-5.831.04h-.002c-1.313.012-2.181.02-3.275.02.036-.509.061-1.005.086-1.496.025-.508.05-1.01.088-1.513.324-.01.686-.039 1.047-.067.525-.04 1.046-.081 1.444-.067.264.039.509-.254.534-.525.082-.862.174-1.84.584-2.52.745-1.23 2.247-1.258 2.657.237.102.372.01.907-.077 1.41-.03.178-.06.353-.081.514a.51.51 0 0 0 .472.574c.512.033 1.066.053 1.62.073.368.014.736.028 1.092.045Zm-4.35-2.615a.51.51 0 0 0-.904.204l-.028.121c-.043.18-.071.299.007.47.09.39.428.635.765.635.818 0 .957-1.192.16-1.43Zm-7.653 9.93a26.781 26.781 0 0 1 3.336-.013.51.51 0 0 1 .477.566c-.056.5-.097.931-.139 1.365-.042.44-.084.884-.142 1.402a.51.51 0 0 1-.485.453 26.885 26.885 0 0 1-3.383-.048.51.51 0 0 1-.466-.539c.025-.423.098-.922.17-1.41.067-.47.134-.928.157-1.3a.509.509 0 0 1 .475-.477Zm.262 2.746c.715.042 1.487.05 2.304.025.033-.321.063-.633.093-.946.026-.278.053-.558.083-.846a25.184 25.184 0 0 0-2.24.012c-.035.313-.082.634-.129.951-.04.274-.08.545-.11.804Zm2.327 4.066a26.545 26.545 0 0 0-3.337.012.509.509 0 0 0-.475.477c-.023.381-.09.837-.158 1.302-.071.483-.143.978-.17 1.408a.51.51 0 0 0 .467.539c1.099.093 2.282.096 3.383.048a.51.51 0 0 0 .485-.452c.058-.524.101-.976.144-1.42.042-.436.082-.864.137-1.348a.51.51 0 0 0-.476-.566Zm-.771 2.784c-.82.023-1.59.016-2.304-.026.031-.258.071-.53.111-.804.047-.318.095-.64.129-.95a25.24 25.24 0 0 1 2.24-.012c-.032.31-.059.594-.085.872-.03.306-.058.604-.091.92Zm-3.641 4.053a26.52 26.52 0 0 1 3.337-.012.51.51 0 0 1 .359.18l.024.028c.127.14.144.159-.189 3.126a.509.509 0 0 1-.484.452 27.038 27.038 0 0 1-3.384-.048.51.51 0 0 1-.466-.54c.026-.42.099-.919.17-1.408.068-.47.135-.93.158-1.3a.509.509 0 0 1 .475-.478Zm.262 2.746c.714.042 1.485.05 2.304.026.035-.34.063-.633.09-.925l.086-.867a25.982 25.982 0 0 0-2.24.012c-.034.306-.08.622-.127.94-.04.273-.08.547-.113.814Zm8.054-15.224a.525.525 0 0 0-.519.5.51.51 0 0 0 .5.52l8.04.148h.01a.51.51 0 0 0 .009-1.02l-8.04-.148Zm-1.033 7.338 7.105.056a.51.51 0 0 1-.004 1.02h-.004l-7.105-.057a.51.51 0 0 1 .004-1.02h.004Zm6.114 7.302-7.358-.35c-.287-.03-.52.203-.534.484a.51.51 0 0 0 .485.534l7.359.35a.51.51 0 1 0 .048-1.018ZM11.162 40.602a.51.51 0 0 1-.767-.067l-2.181-3.01a.51.51 0 0 1 .825-.6l1.837 2.536 5.128-4.958c.487-.469 1.192.265.708.733l-5.55 5.366Z" fill="#403E3A"/></svg>