<svg viewBox="0 0 120 40" xmlns="http://www.w3.org/2000/svg"><path fill-rule="evenodd" clip-rule="evenodd" d="m24.259 19.497-1.702 4.255-4.524-10.692c1.108-1.578 2.543-2.176 4.197-2.176 1.97 0 3.146 1.33 3.146 3.729 0 1.33-.353 2.977-1.117 4.884Zm-11.704 4.38-4.88-11.692c-.794-1.908-.06-3.266 1.94-3.266 1.765 0 2.647 1.156 3.529 3.237l2.156 5.132-2.745 6.59ZM23.847 7.07c-2.082 0-4.314 1.578-6.106 5.3l-2.304-5.445h-.146c-.383.867-1.559 1.33-2.677 1.33H.5v.23c.97.405 1.823 1.793 2.617 3.671l7.528 17.919h.235l4.892-11.663 4.9 11.663h.235l4.175-10.231c1.617-4.018 2.676-6.243 2.676-8.237 0-2.659-1.5-4.537-3.911-4.537Zm54.104 16.358a9.067 9.067 0 0 1-.264-2.226c0-3.757 1.617-5.867 3.616-5.867 1.56 0 2.03 1.3 2.03 2.688 0 2.89-2.647 4.826-5.382 5.405Zm9.587-4.77c0-2.37-2.47-4.103-5.617-4.103-4.764 0-7.998 4.046-7.998 8.294 0 4.625 3.587 7.4 7.146 7.4 2.852 0 5.616-1.706 6.468-4.683l-.205-.173c-.97 1.416-2.647 2.196-4.323 2.196-2.205 0-3.999-1.242-4.851-3.468 4.558-.723 9.38-1.936 9.38-5.462Zm28.757 4.885L115.001 26l-3.32-6.869c.636-1.11 1.754-2.004 3.408-2.004 1.559 0 2.382.954 2.382 2.515 0 1.069-.382 2.399-1.176 3.901Zm.264-9.422c-2.026 0-3.969 1.88-5.166 4.416l-2.008-4.155h-.235c-.383 1.416-2.176 2.225-4.146 2.196v.231c1.235.29 1.764 1.445 2.529 2.977l5.204 10.55-.353.635c-1.117 2.168-1.881 2.948-2.675 2.948-1.441 0-1.559-2.052-3.294-2.052-1.029 0-1.882.694-1.882 1.908 0 1.358 1.529 2.225 3.117 2.225 2.323 0 3.763-1.792 5.322-4.682l4.029-7.399c1.617-2.977 2.499-4.277 2.499-6.503 0-1.792-1.059-3.295-2.941-3.295ZM44.166 26.81v-8.93c0-1.995-1.265-3.324-3.147-3.324-2.264 0-5.116 2.023-6.645 3.497V6h-.205c-.912 1.416-3.264 2.283-5.529 2.225v.232c1.294.347 1.676 1.242 1.676 2.976V26.81c0 1.3-.588 2.341-1.646 2.775v.231h7.41v-.231c-1.089-.607-1.706-1.474-1.706-2.717v-8.063c1.735-1.243 3.058-1.85 4.028-1.85 1.088 0 1.706.78 1.706 2.37v7.543c0 1.243-.559 2.08-1.706 2.717v.231h7.41v-.231c-1.058-.434-1.646-1.474-1.646-2.775Zm52.193 2.515c-1.441 0-2.412-1.156-2.412-2.746v-8.497c.97-.838 2.06-1.618 3.264-1.59 2.059.03 3.235 2.312 3.264 5.81.029 3.96-1.617 7.023-4.116 7.023Zm2.852-14.77c-2.117 0-4.146 1.533-5.264 2.718V6h-.176c-1.058 1.416-3.5 2.283-5.675 2.225v.232c1.206.346 1.764 1.271 1.764 2.976v18.671h.265l1.94-2.138c.853 1.329 2.47 2.138 4.411 2.138 4.881 0 8.234-4.104 8.234-8.584 0-4.104-2.617-6.965-5.499-6.965Zm-27.582 0c-1.617 0-3.381 1.706-4.204 3.325v-3.497h-.236c-1 1.416-3.351 2.254-5.557 2.225v.231c1.205.347 1.794 1.3 1.794 2.977v6.879c0 1.329-.589 2.37-1.765 2.89v.231h7.587v-.231c-1.206-.52-1.735-1.561-1.735-2.89V18.6c.44-.549.94-1.127 1.529-1.127 1.087 0 1.529 1.3 2.882 1.3.94 0 1.911-.75 1.911-2.022 0-1.272-1.03-2.197-2.206-2.197Zm-20.935 8.874a9.062 9.062 0 0 1-.265-2.226c0-3.757 1.617-5.867 3.617-5.867 1.558 0 2.058 1.3 2.058 2.688 0 2.89-2.676 4.826-5.41 5.405Zm9.585-4.769c0-2.37-2.47-4.104-5.616-4.104-4.763 0-7.998 4.046-7.998 8.295 0 4.624 3.587 7.398 7.145 7.398 2.853 0 5.616-1.705 6.47-4.681l-.206-.174c-.971 1.416-2.647 2.197-4.323 2.197-2.205 0-3.999-1.243-4.851-3.469 4.557-.722 9.38-1.936 9.38-5.462Z" fill="#201F1D"/></svg>