<svg width="48" height="48" viewBox="0 0 48 48" fill="none" xmlns="http://www.w3.org/2000/svg">
<path fill-rule="evenodd" clip-rule="evenodd" d="M43.5258 10H4.45476C1.98215 10 -0.0194808 12.0049 0.00014307 14.438V29.2313C0.00014307 31.6838 2.00177 33.6692 4.47438 33.6692H22.9796L31.4376 38.3408L29.5144 33.6692H43.5258C45.9985 33.6692 48 31.6838 48 29.2313V14.438C48 11.9854 45.9985 10 43.5258 10ZM3.63064 13.4258C3.08117 13.4647 2.66906 13.6594 2.39433 14.0292C2.1196 14.3796 2.02149 14.8273 2.08035 15.3334C3.23816 22.6327 4.31747 27.5573 5.31829 30.1072C5.71077 31.0415 6.16211 31.4892 6.69196 31.4503C7.51615 31.3919 8.49734 30.2629 9.65515 28.0634C10.2635 26.8176 11.2054 24.949 12.481 22.4575C13.5406 26.1363 14.9928 28.9004 16.8179 30.7495C17.3281 31.2751 17.858 31.5086 18.3681 31.4697C18.8195 31.4308 19.1727 31.1972 19.4082 30.7689C19.6044 30.3991 19.6829 29.9709 19.6437 29.4843C19.5259 27.713 19.7026 25.241 20.1932 22.0682C20.7033 18.7981 21.3313 16.4429 22.0967 15.0414C22.2537 14.7494 22.3125 14.4574 22.2929 14.1071C22.2537 13.6594 22.0574 13.2896 21.6846 12.9976C21.3118 12.7056 20.8996 12.5694 20.4482 12.6083C19.8792 12.6472 19.4474 12.9197 19.1531 13.4647C17.9365 15.6643 17.0729 19.2263 16.5628 24.1704C15.817 22.3018 15.189 20.1022 14.6985 17.5134C14.4826 16.365 13.9528 15.82 13.0893 15.8784C12.5006 15.9173 12.01 16.3066 11.6175 17.0463L7.31992 25.1631C6.61346 22.3407 5.94625 18.8954 5.33791 14.8273C5.20055 13.8151 4.63145 13.3479 3.63064 13.4258ZM41.4458 14.8273C42.8391 15.1193 43.8792 15.859 44.5856 17.0853C45.2136 18.1364 45.5275 19.4016 45.5275 20.9198C45.5275 22.9247 45.0173 24.7544 43.9968 26.4284C42.8194 28.3749 41.2888 29.3481 39.3853 29.3481C39.0517 29.3481 38.6985 29.3091 38.3255 29.2313C36.9323 28.9393 35.8922 28.1997 35.1857 26.9734C34.5578 25.9028 34.2438 24.6182 34.2438 23.1193C34.2438 21.1145 34.7541 19.2848 35.7745 17.6303C36.9715 15.6838 38.5022 14.7105 40.3861 14.7105C40.7197 14.7105 41.0729 14.7495 41.4458 14.8273ZM40.6216 25.3578C41.3477 24.7154 41.8383 23.7617 42.113 22.477C42.1915 22.0293 42.2503 21.5427 42.2503 21.0366C42.2503 20.4721 42.1326 19.8687 41.8971 19.2653C41.6028 18.5062 41.2103 18.0974 40.7392 18.0001C40.0329 17.8638 39.346 18.2532 38.6985 19.2069C38.1686 19.9466 37.8349 20.7252 37.6584 21.5232C37.5602 21.9709 37.5209 22.4576 37.5209 22.9442C37.5209 23.5087 37.6387 24.1121 37.8742 24.7154C38.1686 25.4746 38.561 25.8833 39.032 25.9807C39.5226 26.078 40.0524 25.8639 40.6216 25.3578ZM32.2814 17.0853C31.5749 15.859 30.5152 15.1193 29.1416 14.8273C28.7686 14.7495 28.4155 14.7105 28.0818 14.7105C26.198 14.7105 24.6674 15.6838 23.4703 17.6303C22.4498 19.2848 21.9397 21.1145 21.9397 23.1193C21.9397 24.6182 22.2537 25.9028 22.8815 26.9734C23.5881 28.1997 24.6281 28.9393 26.0213 29.2313C26.3942 29.3091 26.7474 29.3481 27.0811 29.3481C28.9846 29.3481 30.5152 28.3749 31.6926 26.4284C32.7132 24.7544 33.2233 22.9247 33.2233 20.9198C33.2233 19.4016 32.9093 18.1364 32.2814 17.0853ZM29.8087 22.477C29.5341 23.7617 29.0434 24.7154 28.3173 25.3578C27.7483 25.8639 27.2184 26.078 26.7279 25.9807C26.2569 25.8833 25.8643 25.4746 25.57 24.7154C25.3345 24.1121 25.2168 23.5087 25.2168 22.9442C25.2168 22.4576 25.256 21.9709 25.3542 21.5232C25.5308 20.7252 25.8643 19.9466 26.3942 19.2069C27.0419 18.2532 27.7287 17.8638 28.4351 18.0001C28.9061 18.0974 29.2986 18.5062 29.5929 19.2653C29.8284 19.8687 29.9462 20.4721 29.9462 21.0366C29.9462 21.5427 29.9069 22.0293 29.8087 22.477Z" fill="#7F54B3"/>
</svg>
