<svg width="512" height="512" viewBox="0 0 512 512" fill="none" xmlns="http://www.w3.org/2000/svg">
<path fill-rule="evenodd" clip-rule="evenodd" d="M38.7273 160.209C32.8662 160.624 28.4704 162.7 25.54 166.645C22.6095 170.382 21.563 175.158 22.1908 180.556C34.5408 258.416 46.0534 310.944 56.7288 338.143C60.9153 348.109 65.7296 352.885 71.3813 352.47C80.1727 351.846 90.6388 339.804 102.989 316.343C109.478 303.054 119.525 283.123 133.131 256.546C144.434 295.787 159.923 325.271 179.391 344.995C184.834 350.601 190.485 353.092 195.927 352.677C200.742 352.262 204.509 349.77 207.021 345.202C209.114 341.257 209.952 336.689 209.533 331.499C208.277 312.605 210.162 286.237 215.394 252.394C220.836 217.513 227.535 192.39 235.698 177.441C237.373 174.327 238 171.213 237.791 167.475C237.373 162.7 235.279 158.755 231.303 155.641C227.326 152.526 222.929 151.073 218.115 151.488C212.045 151.904 207.44 154.81 204.3 160.624C191.323 184.085 182.112 222.081 176.67 274.817C168.716 254.886 162.017 231.424 156.784 203.81C154.482 191.56 148.83 185.746 139.62 186.369C133.34 186.785 128.107 190.937 123.921 198.827L78.0796 285.406C70.544 255.301 63.4271 218.551 56.9381 175.158C55.4729 164.361 49.4025 159.378 38.7273 160.209ZM442.088 175.158C456.951 178.273 468.045 186.162 475.58 199.243C482.279 210.455 485.627 223.95 485.627 240.145C485.627 261.53 480.185 281.047 469.3 298.902C456.741 319.665 440.414 330.046 420.11 330.046C416.552 330.046 412.784 329.631 408.806 328.8C393.945 325.686 382.851 317.797 375.315 304.716C368.617 293.297 365.268 279.594 365.268 263.606C365.268 242.221 370.711 222.704 381.595 205.056C394.364 184.294 410.691 173.912 430.786 173.912C434.344 173.912 438.112 174.328 442.088 175.158ZM433.298 287.483C441.042 280.631 446.275 270.458 449.206 256.755C450.043 251.979 450.671 246.789 450.671 241.391C450.671 235.369 449.415 228.933 446.903 222.497C443.763 214.399 439.576 210.039 434.552 209.001C427.018 207.548 419.691 211.7 412.784 221.874C407.133 229.764 403.573 238.069 401.69 246.581C400.642 251.357 400.224 256.548 400.224 261.738C400.224 267.759 401.48 274.195 403.992 280.631C407.133 288.729 411.318 293.089 416.342 294.127C421.575 295.165 427.226 292.882 433.298 287.483ZM344.335 199.243C336.799 186.162 325.496 178.273 310.844 175.158C306.866 174.328 303.099 173.912 299.54 173.912C279.446 173.912 263.119 184.294 250.35 205.056C239.465 222.704 234.023 242.221 234.023 263.606C234.023 279.594 237.373 293.297 244.07 304.716C251.606 317.797 262.701 325.686 277.562 328.8C281.538 329.631 285.306 330.046 288.866 330.046C309.169 330.046 325.496 319.665 338.055 298.902C348.941 281.047 354.382 261.53 354.382 240.145C354.382 223.95 351.033 210.455 344.335 199.243ZM317.96 256.755C315.031 270.458 309.797 280.631 302.052 287.483C295.982 292.882 290.33 295.165 285.098 294.127C280.074 293.089 275.887 288.729 272.747 280.631C270.235 274.195 268.979 267.759 268.979 261.738C268.979 256.548 269.398 251.357 270.445 246.581C272.329 238.069 275.887 229.764 281.538 221.874C288.447 211.7 295.773 207.548 303.308 209.001C308.332 210.039 312.519 214.399 315.658 222.497C318.17 228.933 319.426 235.369 319.426 241.391C319.426 246.789 319.008 251.979 317.96 256.755Z" fill="white"/>
<path fill-rule="evenodd" clip-rule="evenodd" d="M464.275 123.667H47.5174C21.1429 123.667 -0.207795 145.052 0.00152608 171.005V328.8C0.00152608 354.96 21.3523 376.139 47.7267 376.139H245.116L335.334 425.968L314.82 376.139H464.275C490.65 376.139 512 354.96 512 328.8V171.005C512 144.844 490.65 123.667 464.275 123.667ZM38.7268 160.209C32.8658 160.624 28.47 162.7 25.5395 166.645C22.6091 170.382 21.5625 175.158 22.1904 180.556C34.5404 258.416 46.053 310.944 56.7284 338.143C60.9149 348.109 65.7292 352.885 71.3809 352.47C80.1723 351.846 90.6383 339.805 102.988 316.343C109.477 303.054 119.525 283.123 133.131 256.546C144.433 295.787 159.923 325.271 179.391 344.995C184.833 350.601 190.485 353.092 195.926 352.677C200.742 352.262 204.508 349.77 207.02 345.202C209.114 341.257 209.951 336.689 209.532 331.499C208.276 312.606 210.161 286.237 215.394 252.394C220.835 217.513 227.534 192.391 235.698 177.442C237.372 174.327 238 171.213 237.791 167.476C237.372 162.7 235.279 158.755 231.302 155.641C227.325 152.527 222.929 151.073 218.115 151.488C212.045 151.904 207.439 154.81 204.3 160.624C191.322 184.086 182.111 222.081 176.67 274.818C168.715 254.886 162.016 231.424 156.784 203.81C154.481 191.56 148.83 185.747 139.619 186.369C133.34 186.785 128.107 190.937 123.92 198.827L78.0792 285.407C70.5436 255.301 63.4266 218.551 56.9377 175.158C55.4725 164.361 49.4021 159.378 38.7268 160.209ZM442.088 175.158C456.95 178.273 468.045 186.162 475.579 199.243C482.278 210.455 485.626 223.95 485.626 240.145C485.626 261.53 480.185 281.047 469.299 298.903C456.74 319.665 440.413 330.046 420.11 330.046C416.552 330.046 412.784 329.631 408.805 328.8C393.945 325.686 382.85 317.797 375.314 304.717C368.617 293.297 365.267 279.594 365.267 263.606C365.267 242.221 370.71 222.704 381.594 205.056C394.363 184.294 410.69 173.913 430.785 173.913C434.343 173.913 438.111 174.328 442.088 175.158ZM433.297 287.483C441.042 280.632 446.275 270.458 449.206 256.755C450.043 251.98 450.67 246.789 450.67 241.391C450.67 235.37 449.414 228.933 446.902 222.497C443.763 214.399 439.576 210.039 434.552 209.001C427.017 207.548 419.691 211.7 412.784 221.874C407.132 229.764 403.573 238.069 401.689 246.581C400.642 251.357 400.223 256.548 400.223 261.738C400.223 267.759 401.479 274.195 403.991 280.632C407.132 288.729 411.318 293.089 416.342 294.128C421.574 295.165 427.226 292.882 433.297 287.483ZM344.335 199.243C336.799 186.162 325.496 178.273 310.844 175.158C306.866 174.328 303.099 173.913 299.539 173.913C279.446 173.913 263.119 184.294 250.35 205.056C239.464 222.704 234.023 242.221 234.023 263.606C234.023 279.594 237.372 293.297 244.07 304.717C251.606 317.797 262.7 325.686 277.561 328.8C281.538 329.631 285.306 330.046 288.865 330.046C309.169 330.046 325.496 319.665 338.055 298.903C348.94 281.047 354.382 261.53 354.382 240.145C354.382 223.95 351.032 210.455 344.335 199.243ZM317.96 256.755C315.03 270.458 309.796 280.632 302.052 287.483C295.981 292.882 290.33 295.165 285.097 294.128C280.073 293.089 275.886 288.729 272.747 280.632C270.235 274.195 268.979 267.759 268.979 261.738C268.979 256.548 269.398 251.357 270.445 246.581C272.328 238.069 275.886 229.764 281.538 221.874C288.447 211.7 295.773 207.548 303.308 209.001C308.332 210.039 312.518 214.399 315.658 222.497C318.17 228.933 319.426 235.37 319.426 241.391C319.426 246.789 319.007 251.98 317.96 256.755Z" fill="#7F54B3"/>
</svg>
