<svg xmlns="http://www.w3.org/2000/svg" fill="none" viewBox="0 0 48 48">
  <path fill="#403E3A" fill-rule="evenodd" d="M7.7 32.96c.14 0 .2-.07.28-.14a20.61 20.61 0 0 1-2.05-11.64c.57-4.1 2.54-8.05 5.58-10.87a16.5 16.5 0 0 1 8.96-4.17c3.46-.85 7.13-.78 10.45.28.14-.7.42-1.34.77-1.97a5.34 5.34 0 0 1 2.12-2.05 6.22 6.22 0 0 1 9.81 5.08c0 1.77-1.55 4.59-3.17 6.92a18.14 18.14 0 0 1-.07 18.14 18.51 18.51 0 0 1-6.85 6.57 16.93 16.93 0 0 1-14.33 2.68c-.7-.14-1.34-.35-2.05-.64-.12-.04-.28-.1-.47-.15-.45-.15-1.03-.33-1.43-.48-.93 1.72-2.3 3.57-3.28 4.9l-.18.25-.21.21c0 .04-.02.06-.04.07-.02.02-.03.04-.03.07-.29.29-.5.5-.85.57-.42.07-.85-.35-1.2-.7a19.91 19.91 0 0 1-3.53-4.6c-.85-1.69-1.27-3.74-.63-5.57A4.83 4.83 0 0 1 7.4 33.1c.04-.04.1-.06.14-.07.06-.02.11-.04.15-.08ZM23.3 11.3c0-.49-.29-.98-.57-1.48-.35-.63-.7-1.27-.56-2.12v-.91c-2.2.35-4.31 1.13-6.29 2.26-.56.35-1.13.7-1.62 1.12 0 .15 0 .29-.07.43-.42.7-.57 1.76-.28 2.68.2.7.56 1.2.98 1.41.43.21 1 .28 1.35 0 .16-.17.24-.42.34-.73l.08-.26.02-.07c.14-.47.29-1 .76-1.4.63-.5 1.55-.57 2.6-.15l.26.1.24.11c.43.21.92.43 1.34.43.36 0 .7-.15 1-.43.27-.28.42-.63.42-.99Zm-6.08 20.69c-.42 0-.84 0-1.27-.14-1.48-.5-2.11-2.26-1.9-3.82.28-1.34 1.13-2.47 2.04-3.53a5.9 5.9 0 0 0 1.13-1.69c.15-.5.08-1.2-.35-1.48-.5-.36-1.27-.07-1.7.35-.49.5-.77 1.2-1.05 1.9l-.07.22c-.36.92-.78 1.83-1.7 2.4-1.4.85-2.96.35-4.37-.43a19.3 19.3 0 0 0 1.83 6.22c.36-.07.7-.14 1.06-.14a5.48 5.48 0 0 1 5.44 5.43v.14c.7-.28 1.27-.7 1.7-1.34.56-.78 1.05-2.54.63-3.53-.14-.35-.43-.5-.85-.56h-.57Zm-6.35 13.2c.07 0 .14 0 .21-.07 2.62-3.46 4.17-6.29 4.17-7.63a4.4 4.4 0 0 0-4.38-4.37 4.4 4.4 0 0 0-4.37 4.37c0 1.34 1.62 4.24 4.23 7.63 0 .07.07.07.14.07ZM30.5 39.3c.06.03.1.04.15.09 3.74-1.41 6.84-3.88 8.68-7.48l.07-.07c-1.48.35-2.47.14-3.04-.71-.63-.85-.28-1.9 0-2.75l.07-.22c.22-.56.29-1.4-.2-1.62-.1-.04-.21-.03-.36-.02l-.28.02h-.36c-1.69.07-3.03-1.2-3.74-2.47-.5-.85-.77-1.76-1.06-2.68L30 20.12c-.42-1.2-.99-1.9-1.7-2.12-1.2-.35-2.46.64-3.1 1.27-.7.7-2.26 2.54-1.76 4.38.35 1.13 1.34 1.97 2.33 2.68l.42.28.21.15a8.28 8.28 0 0 1 2.47 2.32c.78 1.34.85 3.32-.5 4.3-.42.36-.91.5-1.4.64l-.29.1c-.3.08-.56.16-.77.33-.5.35-.64.91-.64 1.27-.07.77.28 1.62.85 2.12 1.06.91 2.54 1.2 4.23 1.4l.14.06Zm8.97-25.11c2.05-2.9 3.18-5.3 3.18-6.57 0-2.9-2.26-5.15-5.09-5.15a5.18 5.18 0 0 0-5.15 5.15c0 1.63 1.84 4.94 4.94 8.97.07.14.21.14.21.14s.15-.07.22-.14c.18-.26.38-.52.58-.78.39-.52.78-1.03 1.11-1.55v-.07Zm-5.34.83c-1.28-1.65-2.6-3.34-3.13-5.35a3.3 3.3 0 0 1 0-2.19 17.28 17.28 0 0 0-7.34-.92.54.54 0 0 1-.28.15c-.07.14-.07.49-.07.7v.35c0 .5.2 1 .49 1.49.35.56.7 1.2.7 1.97 0 .64-.2 1.27-.7 1.77-.42.5-1.06.77-1.7.77-.6 0-1.22-.26-1.7-.47l-.06-.02-.42-.21-.1-.03c-.35-.1-1.08-.29-1.46.03-.16.17-.24.42-.34.73l-.08.26-.02.07c-.14.48-.29 1-.76 1.4-.42.3-.84.43-1.27.43-.42 0-.91-.14-1.27-.35-.7-.35-1.2-1.13-1.48-2.05a4.62 4.62 0 0 1-.14-2.19 15.5 15.5 0 0 0-4.8 9.53c-.14 1.2-.14 2.47-.07 3.67 1.27.71 2.82 1.49 3.95.78.64-.42.99-1.2 1.27-1.9l.07-.22c.29-.77.64-1.62 1.27-2.26.78-.84 2.12-1.2 3.1-.49.86.64 1 1.77.71 2.61a5.94 5.94 0 0 1-1.27 2.05c-.84.99-1.62 1.9-1.83 3.03-.21 1 .21 2.26 1.13 2.55.28.14.63.14.99.14.2.07.42.07.63.07.78.07 1.41.5 1.7 1.2.63 1.4-.07 3.6-.78 4.59a4.98 4.98 0 0 1-2.47 1.83 16.67 16.67 0 0 0 9.53 1.84c.85-.07 1.7-.22 2.54-.43a6.32 6.32 0 0 1-3.04-1.4 3.89 3.89 0 0 1-1.2-2.97c0-.85.43-1.63 1.06-2.05.37-.25.8-.39 1.19-.51l.15-.06c.43-.07.78-.2 1.06-.42.85-.63.78-1.98.21-2.9a7.96 7.96 0 0 0-2.4-2.18l-.42-.28c-1.06-.78-2.26-1.77-2.68-3.25-.5-1.7.28-3.6 2.05-5.37 1.4-1.4 2.89-1.9 4.16-1.48.99.36 1.77 1.27 2.33 2.76l.21.67.21.67c.29.84.57 1.7 1 2.47.56.99 1.55 2.04 2.82 1.97h.28c.35-.07.7-.07 1.13.07 1.06.5 1.2 1.84.84 2.97l-.07.21c-.2.7-.42 1.41-.14 1.84.36.63 1.49.42 2.33.14a.9.9 0 0 1 .43.07c1.13-2.26 1.69-4.8 1.69-7.41 0-2.83-.7-5.51-2.05-7.98-.07.07-.12.16-.17.25-.06.08-.11.17-.18.24-.5 1.06-1.34 2.26-2.61 1.9a2.9 2.9 0 0 1-1.48-1.26c-.4-.55-.82-1.1-1.25-1.64ZM11.51 3.88c-.29 0-.57.21-.57.5a9.3 9.3 0 0 0 .36 3.67c.07.2.28.42.49.42h.14c.28-.07.42-.35.35-.63-.28-1.13-.35-2.26-.28-3.4 0-.28-.21-.56-.5-.56Zm29 3.39a2.98 2.98 0 0 1-2.96 2.97 2.98 2.98 0 0 1-2.96-2.97c0-1.62 1.34-2.9 2.96-2.96a2.98 2.98 0 0 1 2.97 2.96Zm-2.4 1.77a1.82 1.82 0 0 0 1.28-1.77c0-.99-.85-1.83-1.84-1.83-.28 0-.49.07-.7.14a2.51 2.51 0 0 0-.57 1.76c.07.64.5 1.27 1.06 1.55.21.07.5.15.78.15ZM10.95 34.59a2.58 2.58 0 0 1 2.61 2.47v.14a2.56 2.56 0 0 1-2.6 2.61 2.56 2.56 0 0 1-2.62-2.61 2.6 2.6 0 0 1 2.61-2.61Zm0 3.88c.21.07.5.14.78.07.5-.21.77-.78.85-1.27 0-.85-.71-1.55-1.56-1.55-.14 0-.35 0-.5.07a2.72 2.72 0 0 0-.41 1.41c.07.5.35.99.84 1.27Zm-6.56-27.6c-.07.28.07.57.35.7l3.32 1.14h.14c.21 0 .42-.15.5-.36.06-.28-.08-.56-.36-.7l-3.32-1.13c-.28-.07-.56.07-.63.35Zm2.6-4.94c.3-.21.57-.14.79.07l2.33 2.9c.2.28.14.56-.08.77l-.1.06a.46.46 0 0 1-.25.08c-.14 0-.35-.07-.42-.21L6.92 6.7c-.21-.28-.14-.56.07-.77Z" clip-rule="evenodd"/>
</svg>
