<svg width="48" height="48" viewBox="0 0 48 48" fill="none" xmlns="http://www.w3.org/2000/svg">
<g clip-path="url(#clip0_983_15236)">
<path fill-rule="evenodd" clip-rule="evenodd" d="M37.3337 43.9553C33.3869 46.5924 28.7467 48 24 48C17.6348 48 11.5303 45.4714 7.02944 40.9706C2.52856 36.4697 0 30.3652 0 24C0 19.2533 1.40757 14.6131 4.04473 10.6663C6.68188 6.71954 10.4302 3.6434 14.8156 1.8269C19.201 0.0103988 24.0266 -0.464881 28.6822 0.461164C33.3377 1.38721 37.6141 3.67299 40.9706 7.02945C44.327 10.3859 46.6128 14.6623 47.5388 19.3178C48.4649 23.9734 47.9896 28.799 46.1731 33.1844C44.3566 37.5698 41.2805 41.3181 37.3337 43.9553ZM33.3081 23.9322C33.3081 23.1655 33.5354 22.416 33.9614 21.7786C34.3873 21.1411 34.9928 20.6442 35.7011 20.3508C36.4094 20.0574 37.1888 19.9807 37.9408 20.1302C38.6927 20.2798 39.3835 20.649 39.9256 21.1911C40.4677 21.7333 40.8369 22.424 40.9865 23.1759C41.1361 23.9279 41.0593 24.7073 40.7659 25.4156C40.4725 26.124 39.9756 26.7294 39.3382 27.1553C38.7007 27.5813 37.9512 27.8086 37.1845 27.8086C36.1564 27.8086 35.1704 27.4002 34.4435 26.6732C33.7165 25.9463 33.3081 24.9603 33.3081 23.9322ZM31.7866 23.9322C31.7866 24.9969 32.1023 26.0378 32.6939 26.923C33.2854 27.8083 34.1262 28.4983 35.1099 28.9058C36.0935 29.3133 37.176 29.4199 38.2202 29.2122C39.2645 29.0044 40.2238 28.4917 40.9766 27.7388C41.7295 26.9859 42.2422 26.0267 42.45 24.9824C42.6577 23.9382 42.5511 22.8557 42.1436 21.872C41.7362 20.8884 41.0462 20.0476 40.1609 19.4561C39.2756 18.8645 38.2347 18.5488 37.17 18.5488C35.7426 18.5501 34.3741 19.1177 33.3648 20.127C32.3555 21.1363 31.7879 22.5048 31.7866 23.9322ZM31.4086 18.6409H31.1809C30.5027 18.6382 29.8429 18.8616 29.3057 19.2756C29.2694 19.1124 29.1786 18.9663 29.0482 18.8615C28.9179 18.7567 28.7558 18.6994 28.5885 18.699C28.3958 18.699 28.2109 18.7756 28.0746 18.9119C27.9383 19.0482 27.8617 19.2331 27.8617 19.4258V28.487C27.8823 28.6653 27.9678 28.8298 28.1018 28.9492C28.2358 29.0686 28.409 29.1346 28.5885 29.1346C28.768 29.1346 28.9413 29.0686 29.0753 28.9492C29.2093 28.8298 29.2947 28.6653 29.3154 28.487V22.9146C29.3154 21.0588 29.485 20.3077 31.0743 20.1091C31.1776 20.1027 31.2811 20.1027 31.3844 20.1091C31.4808 20.1123 31.5769 20.0962 31.667 20.0616C31.7571 20.0271 31.8394 19.9749 31.9089 19.908C31.9785 19.8412 32.034 19.7611 32.072 19.6724C32.1101 19.5838 32.13 19.4884 32.1306 19.3919C32.1293 19.1974 32.0512 19.0113 31.9132 18.8742C31.7752 18.7372 31.5886 18.6602 31.3941 18.6602L31.4086 18.6409ZM17.3178 23.0309V22.9679C17.5239 22.1177 18.0115 21.3623 18.7013 20.8243C19.3912 20.2864 20.2427 19.9976 21.1175 20.0049C21.9922 20.0122 22.8388 20.3151 23.5196 20.8645C24.2003 21.4139 24.6753 22.1774 24.8672 23.0309H17.3178ZM26.3741 22.8904C26.2364 22.176 25.9549 21.4971 25.5467 20.8949C25.1386 20.2927 24.6123 19.7797 23.9998 19.3871C23.1835 18.8706 22.2432 18.5833 21.2776 18.5552C20.312 18.5272 19.3566 18.7595 18.5117 19.2278C17.6668 19.6961 16.9635 20.3831 16.4755 21.2168C15.9875 22.0505 15.7328 23.0001 15.7381 23.9661C15.7376 24.4039 15.7913 24.8401 15.898 25.2647C16.1698 26.3154 16.7505 27.2603 17.5651 27.9773C18.3797 28.6943 19.3908 29.1504 20.4674 29.2865C21.1159 29.367 21.7738 29.3225 22.4056 29.1557C22.9712 29.0155 23.5098 28.783 23.9998 28.4676C24.5271 28.1118 24.9921 27.6714 25.3759 27.1642L25.4002 27.1351C25.5377 26.9748 25.6062 26.7667 25.5908 26.556C25.5753 26.3454 25.4772 26.1494 25.3178 26.0109C25.2379 25.945 25.145 25.8966 25.0451 25.8689C24.9453 25.8413 24.8407 25.8351 24.7383 25.8506C24.6358 25.8662 24.5378 25.9032 24.4506 25.9592C24.3635 26.0152 24.2891 26.089 24.2324 26.1757C24.1549 26.2871 24.0676 26.3986 23.9756 26.51C23.6727 26.8603 23.3142 27.1583 22.9144 27.3919C22.3594 27.6877 21.7408 27.844 21.1119 27.8474C20.3085 27.8438 19.5255 27.5951 18.8674 27.1344C18.2093 26.6738 17.7075 26.0231 17.4292 25.2696C17.3575 25.0693 17.3024 24.8635 17.2645 24.6542V24.5427H24.9253C25.9768 24.5427 26.5389 23.782 26.379 22.934L26.3741 22.8904ZM11.4887 23.9322L15.5832 19.828C15.651 19.7593 15.7046 19.6779 15.7409 19.5885C15.7772 19.4991 15.7955 19.4034 15.7949 19.3069C15.7942 19.2103 15.7745 19.1149 15.7369 19.026C15.6994 18.9371 15.6447 18.8564 15.576 18.7887C15.5072 18.7209 15.4258 18.6673 15.3364 18.631C15.247 18.5947 15.1513 18.5764 15.0548 18.577C14.9583 18.5777 14.8628 18.5974 14.7739 18.635C14.685 18.6725 14.6044 18.7272 14.5366 18.7959L10.4324 22.8856L6.32339 18.7911C6.18524 18.6542 5.99837 18.5779 5.80391 18.5788C5.60944 18.5797 5.42331 18.6578 5.28645 18.7959C5.14958 18.9341 5.0732 19.121 5.0741 19.3154C5.07501 19.5099 5.15314 19.696 5.29129 19.8329L9.38577 23.9274L5.29129 28.0267C5.22256 28.0942 5.1678 28.1745 5.13012 28.2631C5.09244 28.3517 5.07259 28.4469 5.07169 28.5432C5.07079 28.6395 5.08886 28.735 5.12488 28.8243C5.16089 28.9136 5.21414 28.9949 5.28159 29.0637C5.34905 29.1324 5.42937 29.1871 5.51799 29.2248C5.6066 29.2625 5.70177 29.2824 5.79806 29.2833C5.89435 29.2842 5.98988 29.2661 6.07918 29.2301C6.16849 29.1941 6.24982 29.1408 6.31854 29.0734L10.4324 24.9692L14.5221 29.054C14.5892 29.123 14.6693 29.1782 14.7577 29.2162C14.8461 29.2543 14.9412 29.2746 15.0375 29.276C15.1338 29.2773 15.2294 29.2597 15.3189 29.2241C15.4084 29.1885 15.49 29.1356 15.559 29.0685C15.628 29.0014 15.6832 28.9213 15.7213 28.8329C15.7594 28.7444 15.7797 28.6493 15.781 28.553C15.7824 28.4567 15.7647 28.3611 15.7291 28.2717C15.6935 28.1822 15.6407 28.1006 15.5735 28.0316L11.4887 23.9322ZM35.8376 23.9274C35.8376 24.1909 35.9158 24.4486 36.0622 24.6677C36.2086 24.8868 36.4167 25.0576 36.6602 25.1585C36.9037 25.2593 37.1716 25.2857 37.4301 25.2343C37.6886 25.1829 37.926 25.056 38.1124 24.8696C38.2987 24.6833 38.4257 24.4458 38.4771 24.1873C38.5285 23.9289 38.5021 23.6609 38.4012 23.4174C38.3004 23.174 38.1296 22.9658 37.9105 22.8194C37.6913 22.673 37.4337 22.5949 37.1701 22.5949C36.8171 22.5961 36.4789 22.7369 36.2293 22.9866C35.9797 23.2362 35.8389 23.5744 35.8376 23.9274Z" fill="#00B7E3"/>
</g>
<defs>
<clipPath id="clip0_983_15236">
<rect width="48" height="48" rx="4" fill="white"/>
</clipPath>
</defs>
</svg>
