<svg width="48" height="48" viewBox="0 0 48 48" fill="none" xmlns="http://www.w3.org/2000/svg">
<g clip-path="url(#clip0_983_15237)">
<path d="M47.9433 0H0.0629883V48H47.9433V0Z" fill="#FF4F00"/>
<path d="M47.9433 24C47.9433 10.7452 37.2249 0 24.0031 0C10.7814 0 0.0629883 10.7452 0.0629883 24C0.0629883 37.2548 10.7814 48 24.0031 48C37.2249 48 47.9433 37.2548 47.9433 24Z" fill="#FF4F00"/>
<path d="M6.79898 26.4434L6.79215 26.4217L11.1089 22.4599V20.551H4.18338V22.4599H8.32001L8.32684 22.4782L4.05225 26.4434V28.3523H11.1785V26.4434H6.79898Z" fill="#FFFDF9"/>
<path d="M15.429 20.3698C14.6301 20.3698 13.9791 20.4905 13.4759 20.732C13.0071 20.9426 12.6122 21.2894 12.3425 21.7277C12.0845 22.1688 11.9224 22.6596 11.8671 23.1679L13.9684 23.464C14.0444 23.0152 14.1965 22.697 14.4245 22.5095C14.6838 22.3135 15.0031 22.2144 15.3275 22.2295C15.754 22.2295 16.0633 22.3438 16.2557 22.5724C16.4461 22.801 16.543 23.1176 16.543 23.5349V23.7428H14.5225C13.4941 23.7428 12.7553 23.9714 12.306 24.4288C11.8568 24.886 11.6325 25.4894 11.6333 26.2393C11.6333 27.0074 11.8576 27.579 12.306 27.9539C12.7546 28.3288 13.3185 28.5151 13.9981 28.5128C14.8411 28.5128 15.4895 28.2221 15.9433 27.6407C16.2113 27.2833 16.4027 26.8744 16.5054 26.4394H16.5817L16.8714 28.3482H18.7755V23.5142C18.7755 22.5152 18.5129 21.7414 17.9876 21.1927C17.4624 20.6441 16.6095 20.3698 15.429 20.3698ZM16.0949 26.3285C15.7927 26.5811 15.3971 26.7068 14.9045 26.7068C14.4986 26.7068 14.2166 26.6356 14.0585 26.493C13.9815 26.4257 13.9202 26.342 13.879 26.2482C13.8378 26.1544 13.8177 26.0526 13.8202 25.9501C13.8157 25.8534 13.8309 25.7569 13.8648 25.6663C13.8987 25.5757 13.9506 25.493 14.0175 25.4232C14.0897 25.3553 14.1749 25.3027 14.268 25.2686C14.3612 25.2347 14.4602 25.2199 14.559 25.2254H16.5464V25.3568C16.5504 25.5427 16.5118 25.7269 16.4336 25.8954C16.3553 26.0639 16.2394 26.212 16.0949 26.3285Z" fill="#FFFDF9"/>
<path d="M30.2858 20.551H28.0361V28.3535H30.2858V20.551Z" fill="#FFFDF9"/>
<path d="M43.5767 20.551C42.9413 20.551 42.4403 20.7758 42.0739 21.2254C41.811 21.5485 41.6111 22.0259 41.4742 22.6577H41.408L41.1139 20.551H39.1926V28.3523H41.4423V24.3516C41.4423 23.8471 41.5601 23.4605 41.7958 23.1914C42.0313 22.9224 42.4662 22.788 43.1001 22.788H43.9541V20.551H43.5767Z" fill="#FFFDF9"/>
<path d="M36.9527 20.8055C36.4274 20.4923 35.765 20.3362 34.9654 20.3369C33.7066 20.3369 32.7215 20.6962 32.01 21.4147C31.2985 22.1334 30.9427 23.124 30.9427 24.3866C30.9247 25.1501 31.0909 25.9066 31.4273 26.5916C31.7353 27.2021 32.2149 27.7087 32.807 28.049C33.4029 28.3942 34.1117 28.5672 34.9334 28.5679C35.6442 28.5679 36.2378 28.4582 36.7145 28.2388C37.1625 28.0416 37.5527 27.7327 37.8478 27.3414C38.1287 26.9574 38.3375 26.525 38.4635 26.0658L36.5251 25.5217C36.4436 25.8204 36.2865 26.0928 36.069 26.3128C35.8501 26.5321 35.4833 26.6419 34.9688 26.6419C34.3568 26.6419 33.9008 26.4662 33.6006 26.115C33.3827 25.8612 33.2459 25.4989 33.1856 25.0291H38.4931C38.5148 24.8096 38.5261 24.6256 38.5261 24.477V23.9912C38.5391 23.3386 38.4045 22.6915 38.1328 22.0982C37.8784 21.5579 37.4671 21.1073 36.9527 20.8055ZM34.9004 22.1966C35.8125 22.1966 36.3298 22.6465 36.4522 23.5465H33.2254C33.2767 23.2463 33.4008 22.9632 33.5868 22.7224C33.8826 22.3711 34.3203 22.1958 34.9004 22.1966Z" fill="#FFFDF9"/>
<path d="M29.1876 17.4067C29.0184 17.4008 28.8497 17.4293 28.6916 17.4901C28.5334 17.5511 28.3892 17.6431 28.2674 17.7611C28.1472 17.88 28.053 18.0228 27.9908 18.1802C27.9286 18.3377 27.8996 18.5064 27.9059 18.6756C27.8999 18.8459 27.9288 19.0157 27.9911 19.1742C28.0534 19.3328 28.1477 19.4768 28.2678 19.5973C28.3881 19.7178 28.5319 19.8121 28.6901 19.8744C28.8484 19.9367 29.0178 19.9656 29.1876 19.9594C29.3564 19.9657 29.5247 19.9368 29.6817 19.8744C29.8389 19.812 29.9812 19.7176 30.0999 19.597C30.2175 19.4752 30.3094 19.3307 30.37 19.1724C30.4305 19.014 30.4585 18.845 30.4523 18.6756C30.46 18.5071 30.4326 18.3389 30.3719 18.1816C30.3112 18.0244 30.2185 17.8814 30.0995 17.7622C29.9806 17.6429 29.8382 17.5498 29.6814 17.4888C29.5246 17.4277 29.3557 17.399 29.1876 17.4067Z" fill="#FFFDF9"/>
<path d="M24.5402 20.3369C23.774 20.3369 23.1584 20.5781 22.6931 21.0604C22.3489 21.4178 22.0961 21.9512 21.9349 22.6607H21.8631L21.5689 20.5541H19.6477V30.5946H21.8974V26.459H21.9794C22.0481 26.7348 22.1443 27.0029 22.2668 27.2592C22.4571 27.6767 22.7691 28.0266 23.1618 28.2628C23.569 28.4855 24.0276 28.5962 24.4913 28.5839C25.4331 28.5839 26.1502 28.2162 26.6428 27.481C27.1353 26.7456 27.3817 25.7195 27.3817 24.4027C27.3817 23.1308 27.1434 22.1352 26.6667 21.4159C26.1902 20.6965 25.4813 20.3369 24.5402 20.3369ZM24.7684 25.9903C24.5061 26.3713 24.0957 26.5619 23.5369 26.5619C23.3066 26.5726 23.077 26.528 22.8672 26.432C22.6575 26.336 22.4735 26.1913 22.3306 26.0098C22.0394 25.6433 21.8942 25.1414 21.8951 24.5044V24.3558C21.8951 23.7089 22.0402 23.2135 22.3306 22.8698C22.621 22.5262 23.023 22.3562 23.5369 22.3601C24.1055 22.3601 24.5186 22.541 24.7763 22.903C25.034 23.265 25.1628 23.7698 25.1628 24.4175C25.1644 25.0873 25.0336 25.6116 24.7707 25.9903H24.7684Z" fill="#FFFDF9"/>
</g>
<defs>
<clipPath id="clip0_983_15237">
<rect width="48" height="48" rx="4" fill="white"/>
</clipPath>
</defs>
</svg>
